<svg width="591" height="383" viewBox="0 0 591 383" fill="none" xmlns="http://www.w3.org/2000/svg">
<path d="M381.318 79.1396C380.924 73.4162 375.744 68.0734 370.038 67.5221C368.54 67.3748 367.027 67.4948 365.57 67.8765C365.371 67.9431 365.158 67.959 364.95 67.923C364.743 67.8869 364.548 67.7999 364.382 67.6699C364.217 67.5398 364.086 67.3707 364.002 67.1776C363.918 66.9846 363.883 66.7737 363.9 66.5638V19.2139C363.9 14.118 361.878 9.2309 358.278 5.6276C354.678 2.0243 349.795 0 344.703 0H215.69C210.598 -1.32098e-07 205.715 2.02415 202.114 5.62733C198.513 9.2305 196.49 14.1176 196.489 19.2139V64.5772C196.489 65.075 196.602 65.5663 196.819 66.0143C197.036 66.4623 197.352 66.8555 197.742 67.1643C198.132 67.4732 198.587 67.6898 199.072 67.798C199.558 67.9061 200.062 67.9031 200.546 67.789C202.407 67.3536 204.343 67.3493 206.206 67.7761C208.07 68.203 209.811 69.0499 211.298 70.2523C212.785 71.4546 213.978 72.9808 214.786 74.7144C215.594 76.4481 215.996 78.3435 215.962 80.2564C215.928 82.1692 215.458 84.049 214.588 85.7525C213.718 87.456 212.471 88.9383 210.942 90.0864C209.413 91.2346 207.642 92.0184 205.765 92.3781C203.888 92.7377 201.953 92.6638 200.109 92.1618C199.685 92.0432 199.24 92.0241 198.808 92.1061C198.375 92.1881 197.968 92.3689 197.617 92.6345C197.266 92.9001 196.981 93.2433 196.785 93.6372C196.589 94.0311 196.486 94.4652 196.484 94.9054V148.338C196.484 150.861 196.981 153.36 197.946 155.692C198.911 158.024 200.325 160.142 202.108 161.927C203.891 163.712 206.008 165.127 208.338 166.093C210.667 167.059 213.164 167.556 215.686 167.556H266.399C266.634 167.557 266.867 167.608 267.08 167.706C267.294 167.804 267.485 167.946 267.64 168.123C267.795 168.3 267.911 168.508 267.979 168.733C268.048 168.958 268.068 169.195 268.039 169.429C267.837 171.198 268.013 172.99 268.556 174.687C269.098 176.383 269.995 177.944 271.186 179.267C272.378 180.59 273.836 181.644 275.466 182.361C277.095 183.077 278.858 183.438 280.637 183.42C282.416 183.403 284.171 183.007 285.786 182.259C287.401 181.511 288.839 180.428 290.004 179.082C291.169 177.736 292.035 176.157 292.544 174.451C293.053 172.744 293.195 170.949 292.958 169.184C292.933 168.979 292.952 168.771 293.014 168.574C293.076 168.377 293.179 168.195 293.316 168.041C293.453 167.887 293.622 167.764 293.811 167.681C293.999 167.597 294.203 167.554 294.41 167.556H344.686C349.778 167.556 354.662 165.531 358.263 161.927C361.864 158.323 363.887 153.435 363.887 148.338V94.0128C363.885 93.7511 363.942 93.4924 364.053 93.2556C364.165 93.0188 364.328 92.8101 364.53 92.6447C364.733 92.4793 364.97 92.3614 365.224 92.2998C365.478 92.2382 365.743 92.2344 365.999 92.2887C367.908 92.7211 369.893 92.7006 371.793 92.2289C373.693 91.7572 375.457 90.8473 376.944 89.572C378.43 88.2966 379.598 86.6911 380.355 84.8836C381.111 83.076 381.435 81.1165 381.3 79.1615L381.318 79.1396Z" fill="#1A2578"/>
<path d="M345.582 167.202H320.614C318.94 161.01 317.392 155.51 316.111 151.173C314.485 145.638 313.305 141.984 312.894 141.223C311.25 138.16 317.563 128.765 322.787 125.908C323.693 125.389 324.674 125.013 325.694 124.792C328.921 124.158 331.137 125.995 333.227 128.595C334.779 130.52 337.975 132.095 340.699 136.348C341.564 137.711 342.287 139.16 342.854 140.672C345.501 147.683 347.739 154.842 349.556 162.113C349.704 162.717 349.713 163.346 349.583 163.955C349.453 164.563 349.186 165.133 348.804 165.623C348.421 166.113 347.932 166.51 347.374 166.783C346.816 167.057 346.203 167.2 345.582 167.202Z" fill="#E0E0E0"/>
<path d="M305.834 59.791C305.834 59.791 308.417 47.1013 297.151 44.9135C285.885 42.7256 287.704 51.5777 285.452 53.5862C283.201 55.5946 287.852 62.5389 293.243 63.8867C298.633 65.2344 305.834 59.791 305.834 59.791Z" fill="#30262A"/>
<path d="M334.967 167.202H245.693C245.693 167.202 242.1 154.451 242.799 148.491C243.114 145.796 243.486 143.179 243.927 140.672C244.219 138.968 244.545 137.323 244.907 135.736C244.99 135.355 245.097 134.979 245.226 134.611C245.455 133.926 245.808 133.288 246.266 132.73C249.895 128.454 258.166 134.419 260.82 128.765C260.82 128.765 265.419 118.377 277.652 113.45C279.676 112.637 281.774 112.02 283.917 111.608C288.086 110.828 292.349 110.691 296.56 111.201L297.771 111.341H297.802L299.034 111.498C308.84 112.781 320.08 115.581 325.703 124.792C327.142 127.186 328.144 129.818 328.662 132.563C329.362 136.064 330.105 139.652 330.848 143.406C332.291 150.583 333.729 158.363 334.967 167.202Z" fill="#BF0830"/>
<path d="M231.346 131.96L256.807 149.59C256.807 149.59 302.52 156.25 314.866 151.66C328.978 146.409 342.255 135.067 342.255 135.067C342.255 135.067 333.101 114.873 298.996 111.407C295.031 111.005 280.359 111.6 276.481 112.186C241.305 117.529 231.346 131.96 231.346 131.96Z" fill="#BF0830"/>
<path d="M231.345 131.96C229.741 134.436 231.315 141.621 239.853 146.815C248.391 152.009 254.914 153.173 256.807 149.59C258.232 146.89 254.542 137.6 246.406 132.809C238.021 127.868 232.495 130.196 231.345 131.96Z" fill="#30262A"/>
<path d="M253.24 151.638C252.523 152.592 249.629 158.543 245.694 167.203H220.84C220.054 167.203 219.28 167.006 218.59 166.628C217.899 166.251 217.315 165.707 216.89 165.044C216.465 164.382 216.214 163.624 216.158 162.838C216.103 162.053 216.245 161.267 216.573 160.552C218.835 155.633 221.21 150.966 223.699 146.549C227.127 140.493 228.998 137.61 230.908 135.562C231.258 135.19 231.608 134.848 231.966 134.516C232.435 134.09 232.958 133.728 233.523 133.439C236.723 131.777 241.497 132.035 245.226 134.59C245.405 134.708 245.585 134.835 245.759 134.971C248.999 137.452 252.278 143.018 253.366 147.184C253.865 149.131 253.895 150.754 253.24 151.638Z" fill="#E0E0E0"/>
<path d="M276.428 112.221C280.8 117.323 291.344 120.57 297.089 117.704C301.986 115.266 298.995 111.429 298.995 111.429C296.608 111.372 293.662 107.679 293.46 105.303L293.224 102.375L293.106 100.927L292.722 96.2887L292.381 92.123L290.977 75.0576L286.514 92.4031L285.753 95.361L283.13 105.552C282.714 107.147 281.881 108.602 280.717 109.768C279.553 110.934 278.099 111.768 276.506 112.186L276.428 112.221Z" fill="#E0E0E0"/>
<path d="M285.731 95.3613C285.731 95.3613 288.599 100.407 293.107 100.897L292.722 96.2584C289.911 95.6983 285.731 95.3613 285.731 95.3613Z" fill="#30262A"/>
<path d="M271.471 75.1982C271.471 75.1982 272.551 77.8674 271.842 83.7965C270.802 92.4736 280.831 94.469 282.894 91.7166C283.148 91.3797 280.555 77.2986 280.555 77.2986L277.242 75.9859L271.471 75.1982Z" fill="#30262A"/>
<path d="M295.184 97.2428C303.943 95.8825 309.684 86.012 308.007 75.1964C306.331 64.3808 297.871 56.7158 289.112 58.0761C280.353 59.4363 274.612 69.3068 276.289 80.1224C277.966 90.938 286.425 98.6031 295.184 97.2428Z" fill="#E0E0E0"/>
<path d="M296.132 61.5891C295.787 62.2586 299.844 71.9421 281.574 77.2455C263.304 82.5489 270.99 58.1672 284.669 55.5155C304.417 51.6911 309.383 64.6127 308.22 69.7192C307.057 74.8257 296.132 61.5891 296.132 61.5891Z" fill="#30262A"/>
<path d="M283.109 73.7148C283.109 73.7148 276.734 82.9389 280.652 90.7496C280.652 90.7496 275.484 86.6014 275.108 84.8161C274.732 83.0308 274.894 76.3271 274.894 76.3271L283.109 73.7148Z" fill="#30262A"/>
<path d="M278.881 82.6842C280.945 84.1195 283.485 83.9051 284.564 82.2029C285.644 80.5008 284.827 77.9584 282.763 76.5145C280.7 75.0705 278.164 75.2936 277.08 76.9958C275.996 78.6979 276.822 81.2446 278.881 82.6842Z" fill="#E0E0E0"/>
<path d="M293.723 77.5481C293.792 77.5167 293.85 77.4645 293.889 77.3986C293.927 77.3328 293.944 77.2566 293.937 77.1806C293.931 77.1047 293.901 77.0327 293.851 76.9746C293.802 76.9166 293.735 76.8754 293.662 76.8567C292.822 76.6037 291.922 76.6385 291.105 76.9556C290.288 77.2727 289.6 77.8539 289.15 78.607C289.095 78.6867 289.075 78.7847 289.092 78.8796C289.109 78.9746 289.163 79.059 289.242 79.1146C289.324 79.1623 289.421 79.1793 289.514 79.1624C289.608 79.1456 289.693 79.0961 289.753 79.0227C290.805 78.1336 292.12 77.6168 293.495 77.5525C293.57 77.5754 293.649 77.5739 293.723 77.5481Z" fill="#080435"/>
<path d="M291.484 81.9582C291.594 82.8334 292.188 83.4635 292.796 83.3847C293.404 83.3059 293.845 82.5446 293.74 81.6782C293.635 80.8118 293.041 80.1729 292.429 80.2517C291.817 80.3304 291.379 81.0918 291.484 81.9582Z" fill="#080435"/>
<path d="M306.891 77.4295C306.968 77.4274 307.042 77.4013 307.103 77.3549C307.164 77.3084 307.21 77.244 307.232 77.1706C307.255 77.0972 307.254 77.0186 307.23 76.9457C307.205 76.8729 307.159 76.8094 307.097 76.7644C306.412 76.2159 305.566 75.9102 304.689 75.8951C303.812 75.8801 302.955 76.1566 302.253 76.6812C302.172 76.7341 302.116 76.8164 302.095 76.9105C302.075 77.0046 302.092 77.1029 302.143 77.1844C302.201 77.2596 302.284 77.3119 302.377 77.3319C302.47 77.3519 302.567 77.3384 302.651 77.2938C303.962 76.8736 305.376 76.8966 306.673 77.3595C306.736 77.4053 306.813 77.4298 306.891 77.4295Z" fill="#080435"/>
<path d="M303.127 80.6543C302.895 81.4945 303.202 82.3128 303.814 82.4791C304.426 82.6453 305.103 82.1027 305.335 81.2626C305.567 80.4224 305.256 79.6042 304.649 79.4335C304.041 79.2629 303.376 79.8098 303.127 80.6543Z" fill="#080435"/>
<g opacity="0.3">
<path opacity="0.3" d="M291.335 89.5462C294.755 89.3345 297.275 85.0781 296.963 80.0393C296.652 75.0006 293.627 71.0875 290.207 71.2992C286.788 71.511 284.268 75.7673 284.58 80.8061C284.891 85.8449 287.916 89.7579 291.335 89.5462Z" fill="white"/>
</g>
<g opacity="0.3">
<path opacity="0.3" d="M300.941 78.528C300.766 83.3413 303.074 88.1284 306.095 89.1873C309.116 90.2463 311.713 87.1789 311.888 82.348C312.063 77.5172 309.755 72.7214 306.734 71.6887C303.713 70.6561 301.129 73.7147 300.941 78.528Z" fill="white"/>
</g>
<path d="M285.202 76.0247C285.154 76.1647 285.11 76.3004 285.071 76.4623C285.055 76.5022 285.042 76.5431 285.032 76.5848C285.006 76.6635 284.988 76.7467 284.966 76.8342C284.944 76.9217 284.927 76.9742 284.909 77.0486L284.857 77.2805C284.846 77.3194 284.837 77.3588 284.831 77.3987C284.833 77.438 284.833 77.4775 284.831 77.5168C284.831 77.5562 284.831 77.5956 284.804 77.6306C284.778 77.7837 284.752 77.9456 284.726 78.1075C284.7 78.2694 284.682 78.4226 284.665 78.5801C284.665 78.5801 284.665 78.6458 284.665 78.6764V78.7114L284.691 78.7683C284.691 78.7683 284.691 78.7683 284.691 78.7945V78.8295C284.695 78.8424 284.695 78.8561 284.691 78.8689C284.694 78.8818 284.694 78.8954 284.691 78.9083C284.691 78.9564 284.726 79.0046 284.743 79.0483C284.745 79.057 284.745 79.0659 284.743 79.0746C284.756 78.5249 284.806 77.9767 284.892 77.4337C284.966 76.9382 285.074 76.4484 285.215 75.9678L285.202 76.0247ZM285.202 76.0247C285.154 76.1647 285.11 76.3004 285.071 76.4623C285.055 76.5022 285.042 76.5431 285.032 76.5848C285.006 76.6635 284.988 76.7467 284.966 76.8342C284.944 76.9217 284.927 76.9742 284.909 77.0486L284.857 77.2805C284.846 77.3194 284.837 77.3588 284.831 77.3987C284.833 77.438 284.833 77.4775 284.831 77.5168C284.831 77.5562 284.831 77.5956 284.804 77.6306C284.778 77.7837 284.752 77.9456 284.726 78.1075C284.7 78.2694 284.682 78.4226 284.665 78.5801C284.665 78.5801 284.665 78.6458 284.665 78.6764V78.7114L284.691 78.7683C284.691 78.7683 284.691 78.7683 284.691 78.7945V78.8295C284.695 78.8424 284.695 78.8561 284.691 78.8689C284.694 78.8818 284.694 78.8954 284.691 78.9083C284.691 78.9564 284.726 79.0046 284.743 79.0483C284.745 79.057 284.745 79.0659 284.743 79.0746C284.756 78.5249 284.806 77.9767 284.892 77.4337C284.966 76.9382 285.074 76.4484 285.215 75.9678L285.202 76.0247ZM285.202 76.0247C285.154 76.1647 285.11 76.3004 285.071 76.4623C285.055 76.5022 285.042 76.5431 285.032 76.5848C285.006 76.6635 284.988 76.7467 284.966 76.8342C284.944 76.9217 284.927 76.9742 284.909 77.0486L284.857 77.2805C284.846 77.3194 284.837 77.3588 284.831 77.3987C284.833 77.438 284.833 77.4775 284.831 77.5168C284.831 77.5562 284.831 77.5956 284.804 77.6306C284.778 77.7837 284.752 77.9456 284.726 78.1075C284.7 78.2694 284.682 78.4226 284.665 78.5801C284.665 78.5801 284.665 78.6458 284.665 78.6764C284.666 78.6895 284.666 78.7027 284.665 78.7158L284.691 78.7727C284.691 78.7727 284.691 78.7727 284.691 78.7989V78.8339C284.695 78.8468 284.695 78.8604 284.691 78.8733C284.694 78.8862 284.694 78.8998 284.691 78.9127C284.691 78.9608 284.726 79.0089 284.743 79.0527C284.745 79.0614 284.745 79.0703 284.743 79.079C284.756 78.5293 284.806 77.9811 284.892 77.4381C284.966 76.9425 285.074 76.4527 285.215 75.9722L285.202 76.0247ZM285.202 76.0247C285.154 76.1647 285.11 76.3004 285.071 76.4623C285.055 76.5022 285.042 76.5431 285.032 76.5848C285.006 76.6635 284.988 76.7467 284.966 76.8342C284.944 76.9217 284.927 76.9742 284.909 77.0486L284.857 77.2805C284.846 77.3194 284.837 77.3588 284.831 77.3987C284.833 77.438 284.833 77.4775 284.831 77.5168C284.831 77.5562 284.831 77.5956 284.804 77.6306C284.778 77.7837 284.752 77.9456 284.726 78.1075C284.7 78.2694 284.682 78.4226 284.665 78.5801C284.665 78.5801 284.665 78.6458 284.665 78.6764V78.7245L284.691 78.7814C284.691 78.7814 284.691 78.7814 284.691 78.8077V78.8427C284.695 78.8555 284.695 78.8692 284.691 78.882C284.694 78.895 284.694 78.9085 284.691 78.9214C284.691 78.9696 284.726 79.0177 284.743 79.0614C284.745 79.0701 284.745 79.0791 284.743 79.0877C284.756 78.5381 284.806 77.9899 284.892 77.4468C284.966 76.9513 285.074 76.4615 285.215 75.9809L285.202 76.0247ZM298.016 79.6522C298.016 79.2671 297.964 78.8952 297.916 78.5145C297.478 75.1627 295.822 72.1915 293.522 70.8394C293.242 70.6713 292.95 70.525 292.648 70.4019C291.935 70.1186 291.167 70.0048 290.403 70.0693C289.639 70.1339 288.9 70.375 288.245 70.7738C286.496 71.7977 285.185 73.7624 284.568 76.2697C284.477 76.6329 284.411 76.9961 284.35 77.3724C284.315 77.5956 284.284 77.81 284.267 78.0419C284.197 78.6885 284.175 79.3393 284.201 79.9891C284.221 80.5168 284.272 81.0428 284.354 81.5644C284.393 81.8138 284.442 82.0676 284.498 82.3083C284.905 84.5274 285.995 86.5637 287.616 88.1324C288.192 88.6591 288.86 89.0745 289.587 89.3576C290.243 89.6167 290.947 89.733 291.651 89.6989C291.835 89.6908 292.019 89.6718 292.202 89.642C292.832 89.5333 293.437 89.3124 293.99 88.99C295.511 88.0264 296.656 86.57 297.234 84.8637C297.535 84.0611 297.753 83.2297 297.885 82.3826C298.015 81.4787 298.054 80.5638 297.999 79.6522H298.016ZM297.282 82.3039C297.158 83.1082 296.95 83.8973 296.661 84.658C296.329 85.5583 295.847 86.3957 295.236 87.1347C295.236 87.1347 295.236 87.1347 295.236 87.1653C294.805 87.6875 294.287 88.1315 293.706 88.478C293.127 88.8287 292.476 89.0405 291.802 89.0967C291.129 89.1528 290.451 89.0519 289.823 88.8018C289.065 88.511 288.377 88.0637 287.803 87.4891C286.326 86.0626 285.307 83.8573 284.949 81.3981C284.901 81.0218 284.861 80.6411 284.835 80.2517C284.809 79.8622 284.804 79.5209 284.835 79.149C284.848 78.5993 284.898 78.0511 284.984 77.5081C285.058 77.0125 285.166 76.5228 285.307 76.0422C285.379 75.778 285.465 75.5179 285.565 75.2633C285.563 75.2488 285.563 75.234 285.565 75.2196C285.567 75.2065 285.567 75.1932 285.565 75.1802C285.564 75.1656 285.564 75.151 285.565 75.1364C285.739 74.6613 285.956 74.2029 286.212 73.7668C286.76 72.7667 287.558 71.9267 288.529 71.3295C289.156 70.9524 289.867 70.7374 290.597 70.7038C291.216 70.678 291.834 70.7808 292.411 71.0057C292.641 71.0937 292.863 71.1991 293.076 71.3208C295.31 72.546 296.906 75.4252 297.312 78.6895C297.366 79.071 297.399 79.4552 297.408 79.8403C297.437 80.6642 297.389 81.489 297.264 82.3039H297.282ZM285.202 76.0247C285.154 76.1647 285.11 76.3004 285.071 76.4623C285.055 76.5022 285.042 76.5431 285.032 76.5848C285.006 76.6635 284.988 76.7467 284.966 76.8342C284.944 76.9217 284.927 76.9742 284.909 77.0486L284.857 77.2805C284.846 77.3194 284.837 77.3588 284.831 77.3987C284.833 77.438 284.833 77.4775 284.831 77.5168C284.831 77.5562 284.831 77.5956 284.804 77.6306C284.778 77.7837 284.752 77.9456 284.726 78.1075C284.7 78.2694 284.682 78.4226 284.665 78.5801C284.665 78.5801 284.665 78.6458 284.665 78.6764V78.7201L284.691 78.777C284.691 78.777 284.691 78.777 284.691 78.8033V78.8383C284.695 78.8512 284.695 78.8648 284.691 78.8777C284.694 78.8906 284.694 78.9041 284.691 78.9171C284.691 78.9652 284.726 79.0133 284.743 79.0571C284.745 79.0657 284.745 79.0747 284.743 79.0833C284.756 78.5337 284.806 77.9855 284.892 77.4424C284.966 76.9469 285.074 76.4571 285.215 75.9765L285.202 76.0247ZM285.202 76.0247C285.154 76.1647 285.11 76.3004 285.071 76.4623C285.055 76.5022 285.042 76.5431 285.032 76.5848C285.006 76.6635 284.988 76.7467 284.966 76.8342C284.944 76.9217 284.927 76.9742 284.909 77.0486L284.857 77.2805C284.846 77.3194 284.837 77.3588 284.831 77.3987C284.833 77.438 284.833 77.4775 284.831 77.5168C284.831 77.5562 284.831 77.5956 284.804 77.6306C284.778 77.7837 284.752 77.9456 284.726 78.1075C284.7 78.2694 284.682 78.4226 284.665 78.5801C284.665 78.5801 284.665 78.6458 284.665 78.6764V78.7114L284.691 78.7683C284.691 78.7683 284.691 78.7683 284.691 78.7945V78.8295C284.695 78.8424 284.695 78.8561 284.691 78.8689C284.694 78.8818 284.694 78.8954 284.691 78.9083C284.691 78.9564 284.726 79.0046 284.743 79.0483C284.745 79.057 284.745 79.0659 284.743 79.0746C284.756 78.5249 284.806 77.9767 284.892 77.4337C284.966 76.9382 285.074 76.4484 285.215 75.9678L285.202 76.0247ZM285.202 76.0247C285.154 76.1647 285.11 76.3004 285.071 76.4623C285.055 76.5022 285.042 76.5431 285.032 76.5848C285.006 76.6635 284.988 76.7467 284.966 76.8342C284.944 76.9217 284.927 76.9742 284.909 77.0486L284.857 77.2805C284.846 77.3194 284.837 77.3588 284.831 77.3987C284.833 77.438 284.833 77.4775 284.831 77.5168C284.831 77.5562 284.831 77.5956 284.804 77.6306C284.778 77.7837 284.752 77.9456 284.726 78.1075C284.7 78.2694 284.682 78.4226 284.665 78.5801C284.665 78.5801 284.665 78.6458 284.665 78.6764V78.7114L284.691 78.7683C284.691 78.7683 284.691 78.7683 284.691 78.7945V78.8295C284.695 78.8424 284.695 78.8561 284.691 78.8689C284.694 78.8818 284.694 78.8954 284.691 78.9083C284.691 78.9564 284.726 79.0046 284.743 79.0483C284.745 79.057 284.745 79.0659 284.743 79.0746C284.756 78.5249 284.806 77.9767 284.892 77.4337C284.966 76.9382 285.074 76.4484 285.215 75.9678L285.202 76.0247Z" fill="#30262A"/>
<path d="M301.047 76.0247C300.999 76.1647 300.955 76.3004 300.916 76.4623C300.9 76.5022 300.887 76.5431 300.876 76.5848C300.85 76.6635 300.833 76.7467 300.811 76.8342C300.789 76.9217 300.772 76.9742 300.754 77.0486L300.702 77.2805C300.691 77.3194 300.682 77.3588 300.675 77.3987C300.677 77.438 300.677 77.4775 300.675 77.5168C300.675 77.5562 300.675 77.5956 300.649 77.6306C300.623 77.7837 300.597 77.9456 300.57 78.1075C300.544 78.2694 300.527 78.4226 300.509 78.5801C300.509 78.5801 300.509 78.6458 300.509 78.6764V78.7114L300.535 78.7683C300.535 78.7683 300.535 78.7683 300.535 78.7945V78.8295C300.539 78.8424 300.539 78.8561 300.535 78.8689C300.539 78.8818 300.539 78.8954 300.535 78.9083C300.535 78.9564 300.57 79.0046 300.588 79.0483C300.59 79.057 300.59 79.0659 300.588 79.0746C300.601 78.5249 300.651 77.9767 300.737 77.4337C300.811 76.9382 300.919 76.4484 301.06 75.9678L301.047 76.0247ZM301.047 76.0247C300.999 76.1647 300.955 76.3004 300.916 76.4623C300.9 76.5022 300.887 76.5431 300.876 76.5848C300.85 76.6635 300.833 76.7467 300.811 76.8342C300.789 76.9217 300.772 76.9742 300.754 77.0486L300.702 77.2805C300.691 77.3194 300.682 77.3588 300.675 77.3987C300.677 77.438 300.677 77.4775 300.675 77.5168C300.675 77.5562 300.675 77.5956 300.649 77.6306C300.623 77.7837 300.597 77.9456 300.57 78.1075C300.544 78.2694 300.527 78.4226 300.509 78.5801C300.509 78.5801 300.509 78.6458 300.509 78.6764V78.7114L300.535 78.7683C300.535 78.7683 300.535 78.7683 300.535 78.7945V78.8295C300.539 78.8424 300.539 78.8561 300.535 78.8689C300.539 78.8818 300.539 78.8954 300.535 78.9083C300.535 78.9564 300.57 79.0046 300.588 79.0483C300.59 79.057 300.59 79.0659 300.588 79.0746C300.601 78.5249 300.651 77.9767 300.737 77.4337C300.811 76.9382 300.919 76.4484 301.06 75.9678L301.047 76.0247ZM301.047 76.0247C300.999 76.1647 300.955 76.3004 300.916 76.4623C300.9 76.5022 300.887 76.5431 300.876 76.5848C300.85 76.6635 300.833 76.7467 300.811 76.8342C300.789 76.9217 300.772 76.9742 300.754 77.0486L300.702 77.2805C300.691 77.3194 300.682 77.3588 300.675 77.3987C300.677 77.438 300.677 77.4775 300.675 77.5168C300.675 77.5562 300.675 77.5956 300.649 77.6306C300.623 77.7837 300.597 77.9456 300.57 78.1075C300.544 78.2694 300.527 78.4226 300.509 78.5801C300.509 78.5801 300.509 78.6458 300.509 78.6764C300.511 78.6895 300.511 78.7027 300.509 78.7158L300.535 78.7727C300.535 78.7727 300.535 78.7727 300.535 78.7989V78.8339C300.539 78.8468 300.539 78.8604 300.535 78.8733C300.539 78.8862 300.539 78.8998 300.535 78.9127C300.535 78.9608 300.57 79.0089 300.588 79.0527C300.59 79.0614 300.59 79.0703 300.588 79.079C300.601 78.5293 300.651 77.9811 300.737 77.4381C300.811 76.9425 300.919 76.4527 301.06 75.9722L301.047 76.0247ZM301.047 76.0247C300.999 76.1647 300.955 76.3004 300.916 76.4623C300.9 76.5022 300.887 76.5431 300.876 76.5848C300.85 76.6635 300.833 76.7467 300.811 76.8342C300.789 76.9217 300.772 76.9742 300.754 77.0486L300.702 77.2805C300.691 77.3194 300.682 77.3588 300.675 77.3987C300.677 77.438 300.677 77.4775 300.675 77.5168C300.675 77.5562 300.675 77.5956 300.649 77.6306C300.623 77.7837 300.597 77.9456 300.57 78.1075C300.544 78.2694 300.527 78.4226 300.509 78.5801C300.509 78.5801 300.509 78.6458 300.509 78.6764V78.7245L300.535 78.7814C300.535 78.7814 300.535 78.7814 300.535 78.8077V78.8427C300.539 78.8555 300.539 78.8692 300.535 78.882C300.539 78.895 300.539 78.9085 300.535 78.9214C300.535 78.9696 300.57 79.0177 300.588 79.0614C300.59 79.0701 300.59 79.0791 300.588 79.0877C300.601 78.5381 300.651 77.9899 300.737 77.4468C300.811 76.9513 300.919 76.4615 301.06 75.9809L301.047 76.0247ZM313.861 79.6522C313.861 79.2671 313.808 78.8952 313.76 78.5145C313.323 75.1627 311.666 72.1915 309.367 70.8394C309.087 70.6713 308.795 70.525 308.492 70.4019C307.78 70.1186 307.011 70.0048 306.247 70.0693C305.483 70.1339 304.745 70.375 304.09 70.7738C302.341 71.7977 301.03 73.7624 300.413 76.2697C300.321 76.6329 300.256 76.9961 300.195 77.3724C300.16 77.5956 300.129 77.81 300.111 78.0419C300.042 78.6885 300.02 79.3393 300.046 79.9891C300.066 80.5168 300.117 81.0428 300.199 81.5644C300.238 81.8138 300.286 82.0676 300.343 82.3083C300.75 84.5274 301.84 86.5637 303.46 88.1324C304.036 88.6591 304.705 89.0745 305.432 89.3576C306.088 89.6167 306.791 89.733 307.495 89.6989C307.68 89.6908 307.864 89.6718 308.046 89.642C308.676 89.5333 309.282 89.3124 309.834 88.99C311.355 88.0264 312.5 86.57 313.078 84.8637C313.38 84.0611 313.598 83.2297 313.73 82.3826C313.86 81.4787 313.898 80.5638 313.843 79.6522H313.861ZM313.126 82.3039C313.002 83.1082 312.794 83.8973 312.506 84.658C312.174 85.5583 311.692 86.3957 311.08 87.1347C311.08 87.1347 311.08 87.1347 311.08 87.1653C310.649 87.6875 310.132 88.1315 309.55 88.478C308.972 88.8287 308.321 89.0405 307.647 89.0967C306.974 89.1528 306.296 89.0519 305.668 88.8018C304.91 88.511 304.222 88.0637 303.648 87.4891C302.171 86.0626 301.152 83.8573 300.793 81.3981C300.745 81.0218 300.706 80.6411 300.68 80.2517C300.654 79.8622 300.649 79.5209 300.68 79.149C300.693 78.5993 300.742 78.0511 300.828 77.5081C300.902 77.0125 301.01 76.5228 301.152 76.0422C301.223 75.778 301.309 75.5179 301.41 75.2633C301.407 75.2488 301.407 75.234 301.41 75.2196C301.411 75.2065 301.411 75.1932 301.41 75.1802C301.409 75.1656 301.409 75.151 301.41 75.1364C301.584 74.6613 301.801 74.2029 302.057 73.7668C302.605 72.7667 303.403 71.9267 304.374 71.3295C305.001 70.9524 305.711 70.7374 306.442 70.7038C307.061 70.678 307.679 70.7808 308.256 71.0057C308.485 71.0937 308.707 71.1991 308.921 71.3208C311.155 72.546 312.75 75.4252 313.157 78.6895C313.211 79.071 313.243 79.4552 313.253 79.8403C313.282 80.6642 313.234 81.489 313.109 82.3039H313.126ZM301.047 76.0247C300.999 76.1647 300.955 76.3004 300.916 76.4623C300.9 76.5022 300.887 76.5431 300.876 76.5848C300.85 76.6635 300.833 76.7467 300.811 76.8342C300.789 76.9217 300.772 76.9742 300.754 77.0486L300.702 77.2805C300.691 77.3194 300.682 77.3588 300.675 77.3987C300.677 77.438 300.677 77.4775 300.675 77.5168C300.675 77.5562 300.675 77.5956 300.649 77.6306C300.623 77.7837 300.597 77.9456 300.57 78.1075C300.544 78.2694 300.527 78.4226 300.509 78.5801C300.509 78.5801 300.509 78.6458 300.509 78.6764V78.7201L300.535 78.777C300.535 78.777 300.535 78.777 300.535 78.8033V78.8383C300.539 78.8512 300.539 78.8648 300.535 78.8777C300.539 78.8906 300.539 78.9041 300.535 78.9171C300.535 78.9652 300.57 79.0133 300.588 79.0571C300.59 79.0657 300.59 79.0747 300.588 79.0833C300.601 78.5337 300.651 77.9855 300.737 77.4424C300.811 76.9469 300.919 76.4571 301.06 75.9765L301.047 76.0247ZM301.047 76.0247C300.999 76.1647 300.955 76.3004 300.916 76.4623C300.9 76.5022 300.887 76.5431 300.876 76.5848C300.85 76.6635 300.833 76.7467 300.811 76.8342C300.789 76.9217 300.772 76.9742 300.754 77.0486L300.702 77.2805C300.691 77.3194 300.682 77.3588 300.675 77.3987C300.677 77.438 300.677 77.4775 300.675 77.5168C300.675 77.5562 300.675 77.5956 300.649 77.6306C300.623 77.7837 300.597 77.9456 300.57 78.1075C300.544 78.2694 300.527 78.4226 300.509 78.5801C300.509 78.5801 300.509 78.6458 300.509 78.6764V78.7114L300.535 78.7683C300.535 78.7683 300.535 78.7683 300.535 78.7945V78.8295C300.539 78.8424 300.539 78.8561 300.535 78.8689C300.539 78.8818 300.539 78.8954 300.535 78.9083C300.535 78.9564 300.57 79.0046 300.588 79.0483C300.59 79.057 300.59 79.0659 300.588 79.0746C300.601 78.5249 300.651 77.9767 300.737 77.4337C300.811 76.9382 300.919 76.4484 301.06 75.9678L301.047 76.0247ZM301.047 76.0247C300.999 76.1647 300.955 76.3004 300.916 76.4623C300.9 76.5022 300.887 76.5431 300.876 76.5848C300.85 76.6635 300.833 76.7467 300.811 76.8342C300.789 76.9217 300.772 76.9742 300.754 77.0486L300.702 77.2805C300.691 77.3194 300.682 77.3588 300.675 77.3987C300.677 77.438 300.677 77.4775 300.675 77.5168C300.675 77.5562 300.675 77.5956 300.649 77.6306C300.623 77.7837 300.597 77.9456 300.57 78.1075C300.544 78.2694 300.527 78.4226 300.509 78.5801C300.509 78.5801 300.509 78.6458 300.509 78.6764V78.7114L300.535 78.7683C300.535 78.7683 300.535 78.7683 300.535 78.7945V78.8295C300.539 78.8424 300.539 78.8561 300.535 78.8689C300.539 78.8818 300.539 78.8954 300.535 78.9083C300.535 78.9564 300.57 79.0046 300.588 79.0483C300.59 79.057 300.59 79.0659 300.588 79.0746C300.601 78.5249 300.651 77.9767 300.737 77.4337C300.811 76.9382 300.919 76.4484 301.06 75.9678L301.047 76.0247Z" fill="#30262A"/>
<path d="M298.886 91.4886C297.513 91.4919 296.185 90.9977 295.148 90.0971C295.111 90.065 295.088 90.0194 295.084 89.9703C295.08 89.9212 295.095 89.8725 295.126 89.8346C295.142 89.8156 295.161 89.8 295.183 89.7886C295.205 89.7772 295.228 89.7703 295.253 89.7682C295.277 89.7662 295.302 89.7691 295.325 89.7767C295.349 89.7843 295.37 89.7966 295.389 89.8127C298.716 92.6088 302.458 90.1059 302.615 89.9965C302.635 89.9818 302.658 89.9713 302.683 89.9657C302.707 89.9601 302.732 89.9596 302.757 89.9641C302.781 89.9686 302.805 89.978 302.825 89.9919C302.846 90.0057 302.864 90.0237 302.878 90.0446C302.905 90.0861 302.915 90.1366 302.906 90.1856C302.897 90.2345 302.87 90.2781 302.829 90.3072C301.644 91.0473 300.283 91.4554 298.886 91.4886Z" fill="#020202"/>
<path d="M294.952 90.8629C294.903 90.8619 294.856 90.8423 294.821 90.8082C294.787 90.7741 294.766 90.7279 294.764 90.6791C294.796 90.0663 295.053 89.4869 295.485 89.0514L295.511 89.0207C295.542 88.9824 295.587 88.9574 295.635 88.9509C295.684 88.9444 295.734 88.9569 295.773 88.9857C295.793 89 295.81 89.0181 295.822 89.0388C295.835 89.0595 295.843 89.0826 295.847 89.1066C295.851 89.1306 295.849 89.1551 295.844 89.1787C295.838 89.2022 295.827 89.2244 295.813 89.2439L295.773 89.2964C295.4 89.6585 295.174 90.1466 295.14 90.666C295.14 90.6907 295.136 90.7153 295.127 90.7384C295.118 90.7614 295.105 90.7825 295.088 90.8003C295.071 90.8182 295.05 90.8326 295.028 90.8426C295.005 90.8526 294.981 90.858 294.956 90.8585L294.952 90.8629Z" fill="#020202"/>
<path d="M301.579 79.9543C301.696 79.9379 301.806 79.8848 301.891 79.8027C301.977 79.7205 302.034 79.6134 302.056 79.4966C302.077 79.3798 302.061 79.2592 302.01 79.1521C301.959 79.0449 301.875 78.9566 301.771 78.8997C301.684 78.8516 299.585 77.7183 296.678 78.8778C296.538 78.9359 296.427 79.0471 296.369 79.187C296.312 79.3269 296.312 79.4841 296.37 79.6239C296.428 79.7638 296.539 79.8748 296.679 79.9327C296.818 79.9905 296.975 79.9904 297.115 79.9324C299.537 78.9654 301.22 79.8799 301.233 79.8886C301.338 79.9483 301.46 79.9714 301.579 79.9543Z" fill="#30262A"/>
<path d="M280.831 59.7597C280.831 59.7597 277.364 47.2626 266.351 50.4613C255.338 53.6599 258.617 59.6503 259.867 63.5141C260.799 66.3846 266.067 70.3928 271.483 69.1413C276.9 67.8899 280.831 59.7597 280.831 59.7597Z" fill="#30262A"/>
<path d="M275.632 99.6713C275.563 99.6714 275.494 99.6516 275.436 99.6144C275.397 99.5888 275.365 99.556 275.339 99.5177C275.314 99.4795 275.296 99.4366 275.287 99.3915C275.278 99.3464 275.278 99.2999 275.287 99.2549C275.296 99.2098 275.314 99.1669 275.339 99.1287C277.05 96.777 279.377 94.9446 282.063 93.834C282.15 93.7992 282.246 93.8002 282.332 93.8367C282.418 93.8732 282.485 93.9423 282.52 94.0287C282.555 94.1152 282.554 94.212 282.517 94.2977C282.481 94.3835 282.412 94.4512 282.326 94.486C279.778 95.5554 277.567 97.2941 275.925 99.5181C275.893 99.5656 275.849 99.6043 275.798 99.631C275.747 99.6577 275.69 99.6715 275.632 99.6713Z" fill="#30262A"/>
<path d="M173.536 271.921C172.039 271.776 170.528 271.897 169.073 272.28C168.873 272.346 168.661 272.361 168.454 272.324C168.247 272.288 168.052 272.201 167.887 272.071C167.722 271.941 167.591 271.772 167.507 271.58C167.422 271.388 167.387 271.177 167.403 270.968V223.618C167.403 221.094 166.906 218.595 165.941 216.263C164.976 213.932 163.562 211.813 161.779 210.028C159.996 208.244 157.879 206.828 155.549 205.862C153.22 204.897 150.723 204.399 148.201 204.399H96.8934C96.4652 204.4 96.0445 204.512 95.6723 204.724C95.3 204.936 94.9887 205.24 94.7688 205.608C94.5488 205.976 94.4275 206.394 94.4168 206.823C94.4061 207.251 94.5062 207.675 94.7075 208.053C95.7595 209.962 96.2975 212.111 96.2687 214.29C96.2399 216.47 95.6452 218.604 94.5432 220.484C93.4411 222.364 91.8695 223.925 89.9827 225.013C88.0958 226.101 85.9586 226.679 83.781 226.691C81.6034 226.703 79.4601 226.147 77.5618 225.079C75.6634 224.012 74.0753 222.468 72.9531 220.6C71.831 218.732 71.2136 216.604 71.1614 214.425C71.1093 212.246 71.6243 210.091 72.6558 208.171C72.8607 207.777 72.9602 207.336 72.9448 206.891C72.9293 206.447 72.7994 206.014 72.5676 205.634C72.3358 205.255 72.0101 204.942 71.6219 204.726C71.2337 204.509 70.7962 204.397 70.3519 204.399H19.2012C14.1087 204.399 9.22483 206.424 5.62391 210.028C2.02299 213.632 0 218.521 0 223.618V352.741C0.00115901 357.838 2.02452 362.726 5.62519 366.329C9.22586 369.933 14.1091 371.958 19.2012 371.96H148.21C153.303 371.958 158.187 369.933 161.788 366.328C165.389 362.723 167.411 357.834 167.411 352.737V298.412C167.41 298.151 167.468 297.894 167.579 297.658C167.69 297.422 167.853 297.214 168.055 297.049C168.257 296.884 168.493 296.767 168.747 296.705C169 296.643 169.264 296.639 169.519 296.693C170.431 296.897 171.364 297 172.299 296.999C174.023 296.999 175.729 296.644 177.31 295.955C178.892 295.267 180.314 294.26 181.49 292.997C182.665 291.735 183.568 290.243 184.143 288.616C184.717 286.989 184.951 285.261 184.829 283.539C184.422 277.816 179.242 272.473 173.536 271.921Z" fill="#1A2578"/>
<path d="M146.401 371.711H121.438C119.767 365.515 118.215 360.019 116.939 355.678C115.308 350.147 114.128 346.489 113.717 345.732C112.073 342.669 118.386 333.274 123.615 330.417C124.519 329.895 125.501 329.518 126.522 329.301C129.744 328.667 131.961 330.5 134.055 333.099C135.602 335.029 138.798 336.6 141.522 340.853C142.387 342.217 143.11 343.668 143.677 345.181C146.329 352.19 148.567 359.349 150.379 366.622C150.527 367.226 150.537 367.856 150.406 368.465C150.276 369.073 150.009 369.644 149.626 370.134C149.243 370.624 148.753 371.021 148.194 371.294C147.636 371.567 147.023 371.709 146.401 371.711Z" fill="white"/>
<path d="M135.781 371.711H46.5075C46.5075 371.711 42.9183 358.96 43.6177 353C43.9282 350.305 44.2997 347.688 44.7413 345.181C45.0327 343.48 45.3592 341.833 45.7206 340.24C45.8061 339.86 45.9127 339.484 46.0398 339.116C46.2711 338.431 46.6235 337.794 47.0803 337.234C50.7133 332.959 58.9804 338.923 61.6385 333.274C61.6385 333.274 66.2333 322.882 78.4658 317.959C80.491 317.142 82.5906 316.524 84.7351 316.112C88.9025 315.331 93.165 315.193 97.3741 315.705L98.5851 315.846H98.62L99.8485 315.999C109.655 317.285 120.899 320.086 126.517 329.297C127.952 331.691 128.953 334.32 129.472 337.063C130.172 340.564 130.915 344.157 131.658 347.911C133.105 355.092 134.561 362.872 135.781 371.711Z" fill="#BF0830"/>
<path d="M32.1641 336.468L57.6214 354.098C57.6214 354.098 103.333 360.754 115.68 356.168C129.792 350.917 143.074 339.575 143.074 339.575C143.074 339.575 133.915 319.381 99.8141 315.915C95.8445 315.513 81.1725 316.104 77.2947 316.694C42.1231 322.037 32.1641 336.468 32.1641 336.468Z" fill="#BF0830"/>
<path d="M32.1635 336.468C30.5547 338.941 32.1329 346.13 40.6711 351.324C49.2093 356.518 55.7278 357.682 57.6208 354.098C59.0504 351.398 55.3605 342.109 47.2201 337.317C38.8349 332.377 33.3089 334.705 32.1635 336.468Z" fill="#30262A"/>
<path d="M54.0536 356.145C53.341 357.095 50.4425 363.046 46.5078 371.71H21.6582C20.8719 371.71 20.0982 371.512 19.4081 371.135C18.718 370.758 18.1336 370.213 17.7084 369.551C17.2833 368.889 17.0311 368.131 16.9749 367.346C16.9187 366.561 17.0604 365.775 17.3869 365.059C19.6457 360.137 22.0225 355.47 24.5174 351.056C27.9449 344.996 29.8117 342.117 31.7266 340.069C32.072 339.697 32.4217 339.356 32.7846 339.023C33.2509 338.596 33.773 338.234 34.3366 337.947C37.5368 336.284 42.3152 336.542 46.04 339.093C46.2193 339.216 46.3985 339.342 46.5734 339.478C49.8129 341.955 53.0962 347.525 54.1804 351.691C54.6788 353.638 54.7094 355.261 54.0536 356.145Z" fill="white"/>
<path d="M75.8083 316.982C77.5528 316.801 79.2179 316.159 80.6335 315.123C82.0491 314.087 83.1644 312.693 83.8656 311.084L88.2943 300.788L89.5796 297.799L97.1342 280.23L95.8226 298.438L95.0313 309.377L94.8083 312.493C94.7208 313.721 95.0917 314.938 95.8493 315.908C96.6069 316.878 97.6972 317.532 98.9091 317.744H98.9528C100.295 319.932 102.153 324.382 96.6052 326.149C90.0824 328.228 79.555 323.086 75.7471 317L75.8083 316.982Z" fill="white"/>
<path d="M88.2717 300.487C88.2717 300.588 88.2717 300.688 88.2717 300.789C88.7089 306.657 94.9782 309.4 94.9782 309.4L95.0131 309.365L95.8045 298.426C93.8852 297.721 91.1528 296.999 89.5571 297.787C88.7439 298.212 88.2149 299.034 88.2717 300.487Z" fill="#30262A"/>
<path d="M97.9612 304.245C107.402 304.245 115.055 294.796 115.055 283.14C115.055 271.485 107.402 262.036 97.9612 262.036C88.5205 262.036 80.8672 271.485 80.8672 283.14C80.8672 294.796 88.5205 304.245 97.9612 304.245Z" fill="white"/>
<path d="M107.172 296.797C103.202 296.788 99.2598 296.141 95.4949 294.881C95.4949 294.881 95.0096 300.639 101.331 301.007C104.986 301.252 107.172 296.797 107.172 296.797Z" fill="white"/>
<path d="M99.6127 283.347C99.6716 283.331 99.7261 283.303 99.7717 283.262C99.8173 283.222 99.8528 283.171 99.8751 283.115C99.9125 283.018 99.9106 282.911 99.8697 282.816C99.8288 282.721 99.7522 282.646 99.6565 282.607C98.8117 282.211 97.8592 282.106 96.9486 282.309C96.0379 282.513 95.2205 283.013 94.6245 283.732C94.5534 283.806 94.5137 283.905 94.5137 284.007C94.5137 284.11 94.5534 284.209 94.6245 284.283C94.7024 284.346 94.7996 284.381 94.8999 284.381C95.0002 284.381 95.0974 284.346 95.1753 284.283C96.4276 283.519 97.8962 283.188 99.3548 283.342C99.4378 283.373 99.5287 283.374 99.6127 283.347Z" fill="#080435"/>
<path d="M96.5394 287.622C96.5088 288.549 97.029 289.32 97.7022 289.341C98.3755 289.363 98.9439 288.628 98.9745 287.701C99.0051 286.773 98.4848 286.003 97.8115 285.981C97.1383 285.959 96.57 286.694 96.5394 287.622Z" fill="#080435"/>
<path d="M113.494 285.373C113.554 285.381 113.614 285.375 113.671 285.355C113.728 285.335 113.78 285.302 113.822 285.259C113.894 285.185 113.934 285.086 113.934 284.983C113.934 284.88 113.894 284.781 113.822 284.708C113.191 284.019 112.35 283.56 111.431 283.402C110.512 283.244 109.566 283.395 108.742 283.832C108.648 283.875 108.574 283.954 108.538 284.05C108.501 284.147 108.503 284.254 108.545 284.349C108.595 284.435 108.673 284.502 108.766 284.537C108.859 284.573 108.961 284.576 109.056 284.546C110.506 284.313 111.991 284.568 113.28 285.272C113.338 285.328 113.413 285.364 113.494 285.373Z" fill="#080435"/>
<path d="M109.02 288.155C108.64 289 108.828 289.906 109.457 290.186C110.087 290.466 110.874 290.002 111.254 289.153C111.635 288.304 111.447 287.403 110.817 287.123C110.187 286.843 109.401 287.306 109.02 288.155Z" fill="#080435"/>
<path d="M108.68 305.637C107.285 305.63 105.913 305.282 104.684 304.622C104.601 304.556 104.545 304.463 104.525 304.359C104.506 304.256 104.524 304.148 104.577 304.057C104.631 303.966 104.715 303.897 104.815 303.863C104.915 303.83 105.024 303.833 105.121 303.874C106.478 304.64 108.052 304.927 109.591 304.689C111.131 304.451 112.545 303.701 113.607 302.561C117.507 298.623 114.792 294.313 114.674 294.133C114.61 294.036 114.588 293.917 114.611 293.803C114.635 293.689 114.703 293.589 114.801 293.525C114.898 293.461 115.017 293.439 115.131 293.462C115.245 293.486 115.345 293.554 115.408 293.652C115.439 293.704 118.635 298.706 114.228 303.173C113.521 303.943 112.664 304.558 111.71 304.982C110.755 305.406 109.724 305.629 108.68 305.637Z" fill="#74BBFB"/>
<path d="M92.7446 268.207C93.3611 272.027 92.3818 274.993 104.111 277.833C104.111 277.833 106.044 279.111 106.153 277.032C106.262 274.954 103.32 271.782 104.898 269.371C104.898 269.371 113.327 286.834 116.134 283.137C118.941 279.439 122.622 267.476 116.134 260.177C109.646 252.878 89.2953 251.316 85.8852 257.258C80.8707 266.019 92.22 264.938 92.7446 268.207Z" fill="#30262A"/>
<path d="M85.557 261.271C85.557 261.271 90.7246 262.558 90.4972 264.872C90.2699 267.187 93.9073 271.554 90.4972 273.016C87.0872 274.477 86.2565 275.352 86.2696 277.912C86.2696 279.697 83.1613 283.636 82.0421 287.215C81.5568 288.773 82.4792 292.072 82.4792 292.072C82.4792 292.072 69.4205 287.661 71.7551 272.744C73.2677 263.035 82.2869 259.954 85.557 261.271Z" fill="#30262A"/>
<path d="M81.1896 286.326C83.1263 288.173 85.8325 288.365 87.2359 286.764C88.6393 285.162 88.2064 282.34 86.2741 280.489C84.3417 278.638 81.6268 278.45 80.2234 280.051C78.8201 281.653 79.2529 284.475 81.1896 286.326Z" fill="white"/>
<path d="M82.912 301.165C82.5489 301.165 82.1863 301.136 81.8278 301.077C78.8025 300.592 76.2406 298.273 76.1182 295.905C75.8908 291.578 80.149 288.138 80.3283 287.994C80.3733 287.958 80.425 287.931 80.4804 287.915C80.5358 287.9 80.5937 287.895 80.651 287.901C80.7082 287.908 80.7636 287.925 80.814 287.953C80.8644 287.981 80.9088 288.019 80.9447 288.064C80.9806 288.109 81.0072 288.161 81.0232 288.216C81.0391 288.272 81.0439 288.33 81.0374 288.387C81.0309 288.444 81.0132 288.5 80.9853 288.55C80.9574 288.601 80.9198 288.645 80.8747 288.681C80.831 288.716 76.7871 291.989 76.9925 295.857C77.0931 297.804 79.3708 299.795 81.9677 300.233C84.8968 300.701 87.3189 299.065 88.613 295.739C89.5573 293.31 89.5835 291.21 88.6916 289.495C87.2358 286.699 83.8126 285.828 83.7777 285.819C83.72 285.807 83.6654 285.784 83.6171 285.75C83.5687 285.717 83.5276 285.674 83.4962 285.624C83.4649 285.574 83.4439 285.518 83.4346 285.46C83.4252 285.402 83.4276 285.343 83.4418 285.286C83.4559 285.228 83.4814 285.175 83.5168 285.128C83.5522 285.081 83.5966 285.041 83.6476 285.012C83.6986 284.982 83.755 284.963 83.8134 284.956C83.8718 284.949 83.931 284.954 83.9875 284.97C84.1405 285.005 87.8347 285.946 89.4698 289.092C90.4797 291.039 90.4666 293.385 89.4305 296.058C87.7386 300.386 84.8007 301.165 82.912 301.165Z" fill="#74BBFB"/>
<path d="M75.7508 260.181C75.654 260.182 75.5597 260.15 75.4827 260.092C75.4057 260.033 75.3504 259.95 75.3254 259.857C75.3004 259.763 75.3071 259.664 75.3445 259.574C75.382 259.485 75.448 259.411 75.5322 259.363C76.6442 258.675 77.9256 258.311 79.2329 258.311C80.5402 258.311 81.8217 258.675 82.9338 259.363C82.9842 259.394 83.0277 259.435 83.0616 259.484C83.0956 259.533 83.1193 259.588 83.1313 259.646C83.1433 259.704 83.1434 259.764 83.1315 259.822C83.1196 259.881 83.096 259.936 83.0622 259.985C83.0283 260.033 82.9849 260.075 82.9346 260.106C82.8842 260.137 82.828 260.158 82.7694 260.167C82.7107 260.176 82.6509 260.173 82.5934 260.158C82.536 260.143 82.4822 260.117 82.4354 260.081C81.4628 259.483 80.3437 259.166 79.2024 259.166C78.061 259.166 76.9419 259.483 75.9694 260.081C75.9073 260.134 75.8316 260.169 75.7508 260.181Z" fill="#30262A"/>
<path d="M83.7301 258.576C83.6142 258.576 83.503 258.53 83.421 258.448C83.339 258.366 83.293 258.254 83.293 258.138C83.293 258.011 83.293 254.996 84.6701 253.854C84.7596 253.782 84.8741 253.748 84.9887 253.759C85.1033 253.77 85.2088 253.827 85.2822 253.916C85.319 253.96 85.3467 254.011 85.3638 254.066C85.3808 254.121 85.3869 254.179 85.3816 254.236C85.3764 254.293 85.3598 254.349 85.333 254.4C85.3061 254.451 85.2696 254.496 85.2253 254.533C84.351 255.259 84.163 257.377 84.1673 258.129C84.1673 258.246 84.1213 258.357 84.0393 258.439C83.9573 258.521 83.8461 258.567 83.7301 258.567V258.576Z" fill="#30262A"/>
<g filter="url(#filter0_d_428_20676)">
<path d="M574.527 347.053C574.527 349.578 574.03 352.077 573.064 354.409C572.099 356.741 570.685 358.86 568.901 360.644C567.118 362.429 565 363.844 562.67 364.81C560.34 365.776 557.843 366.272 555.321 366.272H426.316C421.225 366.272 416.341 364.248 412.741 360.644C409.14 357.041 407.116 352.154 407.115 347.058V293.621C407.117 293.181 407.221 292.747 407.418 292.353C407.615 291.959 407.9 291.616 408.251 291.35C408.602 291.085 409.01 290.904 409.442 290.822C409.875 290.74 410.32 290.759 410.744 290.878C412.587 291.377 414.52 291.448 416.394 291.087C418.269 290.726 420.037 289.941 421.564 288.793C423.09 287.645 424.335 286.164 425.203 284.462C426.072 282.76 426.541 280.883 426.575 278.972C426.609 277.061 426.208 275.168 425.401 273.436C424.594 271.704 423.403 270.179 421.919 268.977C420.435 267.775 418.696 266.927 416.835 266.499C414.975 266.071 413.041 266.073 411.181 266.505C410.697 266.62 410.193 266.623 409.707 266.516C409.222 266.408 408.766 266.192 408.376 265.884C407.985 265.575 407.669 265.182 407.452 264.735C407.234 264.287 407.121 263.795 407.12 263.297V217.934C407.12 212.837 409.143 207.949 412.743 204.345C416.344 200.741 421.228 198.716 426.321 198.716H477.471C477.916 198.713 478.353 198.826 478.741 199.042C479.13 199.258 479.455 199.571 479.687 199.951C479.919 200.33 480.049 200.763 480.064 201.208C480.08 201.652 479.98 202.093 479.775 202.488C478.71 204.47 478.196 206.702 478.287 208.951C478.378 211.199 479.07 213.383 480.291 215.273C481.512 217.162 483.217 218.69 485.229 219.695C487.241 220.701 489.485 221.147 491.728 220.988C493.83 220.838 495.861 220.161 497.633 219.019C499.406 217.877 500.862 216.307 501.869 214.454C502.876 212.601 503.4 210.524 503.395 208.414C503.389 206.305 502.853 204.23 501.836 202.383C501.631 202.004 501.529 201.579 501.538 201.148C501.547 200.718 501.668 200.297 501.888 199.928C502.108 199.558 502.421 199.252 502.795 199.04C503.169 198.827 503.592 198.716 504.022 198.716H555.325C557.847 198.716 560.344 199.213 562.673 200.179C565.003 201.145 567.12 202.56 568.903 204.345C570.686 206.129 572.1 208.248 573.065 210.58C574.03 212.911 574.527 215.41 574.527 217.934V347.053Z" fill="white"/>
</g>
<path d="M429.914 365.902H454.878C456.552 359.71 458.1 354.21 459.381 349.874C461.007 344.338 462.188 340.685 462.598 339.923C464.242 336.86 457.929 327.465 452.705 324.608C451.799 324.089 450.818 323.713 449.798 323.492C446.571 322.858 444.355 324.696 442.261 327.295C440.713 329.22 437.517 330.795 434.794 335.049C433.928 336.411 433.206 337.86 432.638 339.372C429.987 346.381 427.749 353.541 425.936 360.813C425.787 361.417 425.777 362.048 425.907 362.657C426.037 363.265 426.304 363.836 426.688 364.327C427.071 364.817 427.561 365.214 428.12 365.487C428.679 365.759 429.292 365.902 429.914 365.902Z" fill="#D6D6D6"/>
<path d="M440.543 365.902H529.816C529.816 365.902 533.41 353.151 532.71 347.191C532.396 344.496 532.024 341.879 531.582 339.372C531.291 337.671 530.965 336.026 530.603 334.436C530.52 334.055 530.413 333.679 530.284 333.311C530.055 332.626 529.702 331.988 529.243 331.43C525.615 327.155 517.343 333.119 514.685 327.465C514.685 327.465 510.09 317.077 497.858 312.15C495.833 311.337 493.735 310.72 491.593 310.308C487.424 309.529 483.16 309.391 478.95 309.901L477.739 310.041H477.704L476.471 310.199C466.665 311.481 455.42 314.281 449.803 323.492C448.363 325.886 447.361 328.518 446.843 331.263C446.143 334.764 445.4 338.352 444.657 342.107C443.21 349.283 441.754 357.063 440.543 365.902Z" fill="#BF0830"/>
<path d="M544.156 330.659L518.694 348.289C518.694 348.289 472.982 354.949 460.636 350.359C446.523 345.108 433.246 333.766 433.246 333.766C433.246 333.766 442.401 313.572 476.527 310.106C480.493 309.704 495.165 310.299 499.042 310.885C534.197 316.228 544.156 330.659 544.156 330.659Z" fill="#BF0830"/>
<path d="M544.155 330.659C545.764 333.136 544.19 340.321 535.652 345.537C527.114 350.753 520.591 351.895 518.698 348.311C517.273 345.611 520.963 336.321 529.099 331.53C537.48 326.568 543.006 328.896 544.155 330.659Z" fill="#30262A"/>
<path d="M522.261 350.337C522.973 351.291 525.872 357.238 529.807 365.902H554.648C555.434 365.902 556.208 365.704 556.898 365.327C557.588 364.95 558.172 364.405 558.597 363.743C559.023 363.081 559.275 362.323 559.331 361.538C559.387 360.753 559.246 359.967 558.919 359.251C556.657 354.332 554.282 349.665 551.793 345.248C548.365 339.192 546.494 336.309 544.579 334.261C544.234 333.889 543.884 333.548 543.526 333.215C543.057 332.789 542.533 332.427 541.969 332.139C538.769 330.476 533.991 330.734 530.266 333.289C530.087 333.408 529.907 333.535 529.732 333.67C526.493 336.151 523.21 341.717 522.125 345.883C521.636 347.852 521.605 349.453 522.261 350.337Z" fill="#D6D6D6"/>
<path d="M461.768 302.252L461.89 301.871C461.846 301.871 457.593 300.471 456.587 297.421C456.067 295.837 456.504 294.065 457.899 292.17C458.55 291.268 459.149 290.455 459.7 289.711C463.481 284.574 464.898 282.653 464.303 278.172L463.91 278.224C464.483 282.548 463.197 284.294 459.381 289.474C458.83 290.218 458.231 291.032 457.579 291.934C456.115 293.96 455.656 295.872 456.22 297.565C457.278 300.79 461.588 302.195 461.768 302.252Z" fill="#30262A"/>
<path d="M464.097 278.181C464.097 278.181 465.09 285.125 460.031 291.934C454.973 298.742 459.502 304.334 465.833 302.046C472.163 299.757 473.912 307.734 482.066 304.019C490.219 300.304 464.097 278.181 464.097 278.181Z" fill="#30262A"/>
<path d="M490.766 304.913L487.268 294.796L486.258 291.86L480.326 274.589L480.269 292.017L480.238 302.48V305.46C480.3 309.472 476.444 310.186 476.444 310.186C475.01 312.172 472.395 316.25 477.55 318.333C483.609 320.779 494.543 316.351 498.583 310.824C498.57 310.824 491.876 308.142 490.766 304.913Z" fill="#D6D6D6"/>
<path d="M487.321 294.511C487.321 294.603 487.299 294.699 487.282 294.795C486.451 300.352 480.287 302.51 480.287 302.51L480.252 302.479L480.282 292.017C482.162 291.487 484.812 290.993 486.276 291.859C487.046 292.31 487.483 293.154 487.321 294.511Z" fill="#A6A6A6"/>
<path d="M463.075 276.089C463.91 264.993 471.871 256.547 480.86 257.226C489.848 257.904 496.454 267.447 495.619 278.544C494.784 289.641 486.823 298.086 477.835 297.408C468.846 296.73 462.24 287.173 463.075 276.089Z" fill="#D6D6D6"/>
<path d="M493.215 281.397C491.239 283.016 488.646 283.003 487.426 281.366C486.207 279.73 486.819 277.082 488.795 275.459C490.771 273.835 493.363 273.849 494.583 275.489C495.803 277.13 495.191 279.773 493.215 281.397Z" fill="#D6D6D6"/>
<path d="M469.606 289.654C473.386 289.929 477.186 289.595 480.86 288.665C480.86 288.665 480.908 294.183 474.861 294.095C471.342 294.03 469.606 289.654 469.606 289.654Z" fill="#1A2578"/>
<path d="M469.606 289.654C469.606 289.654 470.866 290.87 474.005 291.094C477.144 291.317 480.86 288.665 480.86 288.665C480.86 288.665 474.022 289.991 469.606 289.654Z" fill="white"/>
<path d="M477.759 277.376C477.705 277.358 477.655 277.327 477.615 277.286C477.574 277.245 477.544 277.195 477.528 277.14C477.513 277.093 477.507 277.044 477.511 276.995C477.515 276.947 477.528 276.899 477.551 276.856C477.573 276.812 477.604 276.774 477.641 276.742C477.678 276.71 477.721 276.686 477.768 276.672C478.601 276.354 479.516 276.323 480.369 276.582C481.221 276.841 481.964 277.375 482.481 278.102C482.543 278.179 482.572 278.278 482.562 278.376C482.552 278.474 482.504 278.564 482.429 278.628C482.349 278.682 482.253 278.706 482.157 278.697C482.061 278.687 481.971 278.644 481.904 278.575C480.761 277.751 479.377 277.332 477.969 277.385C477.9 277.402 477.827 277.399 477.759 277.376Z" fill="#080435"/>
<path d="M480.378 281.668C480.343 282.544 479.788 283.252 479.15 283.222C478.512 283.191 478.018 282.456 478.053 281.568C478.088 280.68 478.643 279.988 479.285 280.014C479.928 280.041 480.418 280.785 480.378 281.668Z" fill="#080435"/>
<path d="M464.405 278.312C464.347 278.316 464.289 278.306 464.236 278.283C464.183 278.261 464.135 278.225 464.098 278.181C464.036 278.105 464.006 278.007 464.015 277.909C464.024 277.81 464.071 277.72 464.147 277.656C464.795 277.046 465.628 276.669 466.514 276.583C467.4 276.498 468.29 276.709 469.043 277.183C469.129 277.231 469.193 277.31 469.222 277.404C469.251 277.498 469.241 277.599 469.196 277.687C469.145 277.768 469.065 277.829 468.973 277.857C468.881 277.885 468.781 277.879 468.693 277.84C467.331 277.516 465.9 277.653 464.623 278.229C464.56 278.279 464.484 278.308 464.405 278.312Z" fill="#080435"/>
<path d="M468.461 281.283C468.763 282.115 468.518 282.968 467.91 283.187C467.302 283.406 466.572 282.907 466.271 282.075C465.969 281.244 466.214 280.386 466.822 280.168C467.429 279.949 468.159 280.465 468.461 281.283Z" fill="#080435"/>
<path d="M473.677 260.337C473.677 260.337 473.502 267.338 482.11 269.176C490.718 271.014 496.441 275.157 494.789 281.34C493.136 287.523 478.149 299.478 488.073 305.293C497.997 311.108 496.511 301.547 507.519 304.571C518.528 307.595 521.667 292.813 514.628 283.568C507.589 274.322 512.442 251.625 483.505 250.469C454.567 249.314 463.394 273.145 463.394 273.145C463.394 273.145 473.113 268.034 473.677 260.337Z" fill="#30262A"/>
<path d="M490.954 306.802C488.851 305.765 487.614 304.356 487.282 302.624C486.368 297.854 492.34 291.199 497.612 285.331C498.998 283.786 500.31 282.329 501.481 280.929C504.725 277.047 505.333 272.365 503.103 268.405C500.655 264.065 495.536 261.921 489.743 262.813C483.95 263.706 480.151 262.218 477.97 260.818C476.601 259.987 475.439 258.858 474.568 257.514L474.774 257.4C474.813 257.466 478.813 264.257 489.704 262.581C495.601 261.671 500.813 263.859 503.309 268.27C505.552 272.256 504.922 277.157 501.661 281.06C500.489 282.46 499.177 283.922 497.787 285.466C492.541 291.295 486.622 297.902 487.513 302.558C487.837 304.238 488.995 305.551 491.059 306.571L490.954 306.802Z" fill="white"/>
<path d="M462.838 291.12C460.464 290.035 458.514 287.182 457.636 283.462C456.202 277.411 458.016 270.943 461.68 269.022C462.331 268.669 463.056 268.476 463.796 268.458C464.537 268.441 465.271 268.6 465.938 268.922C468.312 270.007 470.261 272.86 471.14 276.571C472.574 282.609 470.76 289.09 467.096 291.01C466.317 291.432 465.435 291.621 464.552 291.557C463.959 291.513 463.379 291.364 462.838 291.12ZM470.432 276.767C469.606 273.267 467.809 270.598 465.623 269.604C465.056 269.333 464.433 269.198 463.804 269.211C463.175 269.224 462.559 269.384 462.003 269.679C458.61 271.429 456.967 277.555 458.331 283.292C459.157 286.792 460.954 289.461 463.14 290.459C463.707 290.727 464.329 290.86 464.956 290.847C465.584 290.835 466.199 290.676 466.755 290.385C470.148 288.608 471.796 282.508 470.432 276.767Z" fill="#1A2578"/>
<g opacity="0.3">
<path opacity="0.3" d="M490.246 274.173C491.12 280.01 488.567 286.014 484.563 287.58C480.558 289.147 476.575 285.69 475.701 279.857C474.827 274.024 477.38 268.042 481.384 266.45C485.389 264.857 489.372 268.34 490.246 274.173Z" fill="white"/>
</g>
<g opacity="0.3">
<path opacity="0.3" d="M471.25 277.083C472.125 282.946 469.912 289.063 466.31 290.748C462.708 292.433 459.07 289.046 458.196 283.187C457.321 277.328 459.534 271.206 463.136 269.521C466.738 267.837 470.376 271.223 471.25 277.083Z" fill="white"/>
</g>
<path d="M479.128 287.252C476.719 285.847 475.014 282.959 474.454 279.328C473.492 273.092 476.308 266.638 480.736 264.958C481.591 264.621 482.512 264.485 483.428 264.56C484.344 264.636 485.23 264.922 486.018 265.395C488.422 266.795 490.118 269.683 490.674 273.307C491.64 279.555 488.824 285.996 484.391 287.676C483.559 288.01 482.662 288.151 481.768 288.088C480.836 288.012 479.933 287.726 479.128 287.252ZM480.99 265.631C476.872 267.207 474.262 273.298 475.171 279.196C475.691 282.561 477.309 285.322 479.495 286.609C480.191 287.015 480.97 287.259 481.773 287.325C482.576 287.391 483.384 287.276 484.138 286.989C488.26 285.414 490.87 279.323 489.961 273.425C489.445 270.064 487.832 267.299 485.65 266.021C484.955 265.602 484.174 265.349 483.366 265.281C482.558 265.213 481.745 265.331 480.99 265.627V265.631Z" fill="#1A2578"/>
<path d="M470.324 279.174C470.48 279.184 470.634 279.139 470.761 279.047C470.84 278.99 472.698 277.734 475.679 278.553C475.852 278.595 476.035 278.57 476.19 278.482C476.346 278.394 476.461 278.25 476.514 278.08C476.539 277.994 476.546 277.905 476.535 277.816C476.524 277.728 476.495 277.643 476.451 277.566C476.406 277.488 476.347 277.421 476.276 277.367C476.205 277.314 476.124 277.275 476.038 277.253C472.444 276.216 470.083 277.87 469.978 277.936C469.906 277.987 469.845 278.053 469.798 278.128C469.751 278.204 469.719 278.288 469.705 278.376C469.691 278.464 469.694 278.554 469.715 278.641C469.735 278.727 469.773 278.809 469.825 278.881C469.88 278.964 469.954 279.034 470.041 279.085C470.127 279.136 470.224 279.166 470.324 279.174Z" fill="#1A2578"/>
<path d="M555.928 4.48491e-06H426.918C421.827 4.35281e-06 416.944 2.02416 413.343 5.62734C409.742 9.23051 407.718 14.1176 407.717 19.2139V64.5772C407.719 65.0752 407.832 65.5666 408.05 66.0146C408.267 66.4625 408.583 66.8556 408.973 67.1644C409.364 67.4731 409.819 67.6897 410.305 67.7978C410.79 67.906 411.294 67.903 411.779 67.789C413.64 67.3537 415.576 67.3493 417.439 67.7761C419.303 68.203 421.044 69.0499 422.531 70.2523C424.017 71.4546 425.21 72.9808 426.019 74.7144C426.827 76.4481 427.229 78.3435 427.195 80.2564C427.161 82.1692 426.691 84.049 425.821 85.7525C424.951 87.456 423.704 88.9383 422.175 90.0865C420.646 91.2346 418.875 92.0184 416.998 92.3781C415.121 92.7377 413.186 92.6638 411.342 92.1619C410.918 92.0424 410.472 92.0227 410.039 92.1043C409.606 92.1859 409.198 92.3666 408.847 92.6323C408.495 92.898 408.21 93.2415 408.014 93.6358C407.817 94.0301 407.714 94.4647 407.713 94.9055V148.338C407.713 150.861 408.21 153.36 409.175 155.692C410.139 158.024 411.554 160.142 413.337 161.927C415.12 163.712 417.237 165.127 419.566 166.093C421.896 167.059 424.393 167.556 426.914 167.556H476.369C476.751 167.559 477.129 167.638 477.48 167.79C477.832 167.942 478.149 168.163 478.413 168.441C478.677 168.718 478.882 169.046 479.017 169.404C479.152 169.762 479.213 170.144 479.197 170.527C479.184 171.053 479.202 171.579 479.249 172.102C479.567 175.312 481.105 178.276 483.545 180.383C485.985 182.489 489.141 183.576 492.359 183.419C495.578 183.263 498.613 181.874 500.837 179.54C503.061 177.207 504.304 174.107 504.309 170.881C504.309 170.689 504.309 170.496 504.309 170.308C504.287 169.956 504.337 169.604 504.456 169.272C504.574 168.94 504.76 168.637 505 168.379C505.24 168.121 505.53 167.915 505.853 167.774C506.175 167.632 506.523 167.558 506.875 167.556H555.932C561.025 167.556 565.909 165.531 569.511 161.927C573.112 158.323 575.136 153.435 575.137 148.338V19.2139C575.137 16.6896 574.64 14.19 573.675 11.858C572.709 9.52602 571.294 7.40733 569.51 5.62298C567.726 3.83864 565.608 2.42361 563.278 1.45879C560.947 0.493974 558.45 -0.00172016 555.928 4.48491e-06Z" fill="#F5F6FC"/>
<path d="M486.121 188.852C485.876 188.852 485.636 188.852 485.396 188.852C482.345 188.667 479.459 187.403 477.252 185.285C475.046 183.168 473.664 180.335 473.351 177.291C473.301 176.758 473.284 176.221 473.299 175.686C473.31 175.329 473.25 174.975 473.122 174.642C472.993 174.31 472.799 174.007 472.551 173.751C472.315 173.506 472.032 173.311 471.719 173.179C471.405 173.047 471.068 172.979 470.728 172.981H421.278C416.118 172.975 411.17 170.921 407.522 167.269C403.873 163.617 401.82 158.665 401.815 153.5V100.051C401.811 99.5738 401.92 99.1027 402.131 98.675C402.342 98.2473 402.65 97.8748 403.03 97.5873C403.414 97.2914 403.862 97.0891 404.338 96.9964C404.813 96.9038 405.304 96.9233 405.771 97.0534C407.577 97.545 409.471 97.6177 411.309 97.2659C413.147 96.9142 414.88 96.1473 416.377 95.0236C417.874 93.9 419.095 92.4492 419.947 90.7818C420.8 89.1143 421.26 87.2743 421.295 85.4017C421.329 83.5291 420.936 81.6733 420.145 79.9758C419.355 78.2782 418.188 76.7836 416.733 75.6057C415.278 74.4279 413.574 73.5979 411.75 73.179C409.926 72.76 408.031 72.7632 406.208 73.1881C405.686 73.3099 405.143 73.3122 404.62 73.1949C404.097 73.0776 403.607 72.8437 403.187 72.5106C402.767 72.1775 402.427 71.7539 402.193 71.2711C401.96 70.7884 401.838 70.259 401.836 69.7225V24.3592C401.843 19.1951 403.896 14.2446 407.545 10.5935C411.194 6.94231 416.14 4.8886 421.3 4.88281H550.309C555.468 4.8886 560.414 6.94245 564.062 10.5937C567.71 14.245 569.762 19.1955 569.768 24.3592V153.479C569.762 158.644 567.71 163.596 564.061 167.249C560.412 170.902 555.465 172.957 550.304 172.964H501.222C500.913 172.962 500.608 173.024 500.325 173.145C500.041 173.266 499.786 173.444 499.573 173.668C499.352 173.901 499.181 174.176 499.068 174.477C498.955 174.777 498.904 175.098 498.918 175.419C498.918 175.611 498.918 175.808 498.918 176.001C498.918 179.402 497.568 182.664 495.166 185.069C492.764 187.475 489.506 188.828 486.108 188.83L486.121 188.852ZM404.932 97.4604C404.358 97.4626 403.8 97.6532 403.345 98.003C403.03 98.243 402.775 98.5529 402.601 98.9083C402.426 99.2637 402.337 99.6548 402.339 100.051V153.483C402.344 158.509 404.341 163.328 407.891 166.882C411.442 170.435 416.257 172.434 421.278 172.439H470.728C471.136 172.44 471.539 172.522 471.915 172.682C472.29 172.841 472.63 173.074 472.914 173.366C473.208 173.674 473.436 174.037 473.587 174.435C473.737 174.832 473.805 175.256 473.788 175.681C473.775 176.195 473.793 176.709 473.841 177.221C474.14 180.141 475.466 182.858 477.581 184.89C479.697 186.922 482.465 188.135 485.391 188.314C487.062 188.407 488.733 188.159 490.304 187.583C491.875 187.008 493.313 186.117 494.528 184.967C495.743 183.816 496.712 182.43 497.373 180.892C498.035 179.354 498.376 177.697 498.376 176.022C498.376 175.834 498.376 175.65 498.376 175.462C498.358 175.068 498.42 174.674 498.557 174.305C498.695 173.935 498.905 173.596 499.176 173.309C499.436 173.033 499.75 172.812 500.099 172.662C500.448 172.511 500.824 172.434 501.204 172.434H550.265C555.287 172.429 560.102 170.429 563.654 166.875C567.205 163.32 569.203 158.501 569.208 153.474V24.3592C569.201 19.3374 567.206 14.5231 563.66 10.9709C560.113 7.41874 555.304 5.41832 550.287 5.40791H421.278C416.257 5.41254 411.442 7.41114 407.891 10.965C404.341 14.5189 402.344 19.3377 402.339 24.3636V69.7313C402.338 70.1903 402.442 70.6434 402.641 71.0566C402.841 71.4698 403.132 71.8322 403.491 72.1166C403.851 72.401 404.271 72.5999 404.719 72.6984C405.167 72.7968 405.631 72.7922 406.077 72.6849C407.036 72.4646 408.018 72.353 409.002 72.3524C410.827 72.3551 412.631 72.748 414.292 73.5047C415.953 74.2614 417.434 75.3645 418.635 76.7403C419.836 78.116 420.73 79.7326 421.256 81.4819C421.783 83.2312 421.93 85.0728 421.688 86.8836C421.446 88.6944 420.82 90.4325 419.853 91.9817C418.885 93.5309 417.598 94.8555 416.078 95.8668C414.558 96.8781 412.84 97.5528 411.038 97.8457C409.236 98.1386 407.393 98.0431 405.631 97.5654C405.403 97.5004 405.168 97.4651 404.932 97.4604Z" fill="#30262A"/>
<path d="M477.692 103.91C477.692 103.91 475.331 93.3648 480.464 86.985C485.596 80.6052 502.126 72.7244 498.9 63.6754C495.673 54.6264 484.512 53.5412 480.04 57.9169C475.567 62.2927 478.068 67.0447 475.051 67.6355C472.035 68.2262 454.504 69.0576 455.776 58.9846C457.048 48.9117 468.288 34.8699 483.257 34.3973C498.227 33.9248 518.132 34.126 522.455 53.6506C526.779 73.1751 519.395 80.8327 508.811 85.8692C498.227 90.9057 503.149 102.348 499.306 103.919C495.464 105.49 478.147 107.319 477.692 103.91Z" fill="#BF0830"/>
<path d="M473.919 123.553C475.069 115.48 479.782 110.426 487.035 110.426C494.288 110.426 500.294 114.145 502.113 123.465C503.503 130.572 494.27 136.645 487.035 136.645C479.799 136.645 472.887 130.712 473.919 123.553Z" fill="#BF0830"/>
<path d="M481.377 106.772C478.614 106.772 476.223 106.501 475.016 105.801C474.806 105.704 474.622 105.56 474.479 105.379C474.335 105.198 474.236 104.986 474.19 104.76C473.798 102.755 473.618 100.715 473.652 98.6729C473.696 95.5224 474.312 91.0722 476.983 87.7554C478.575 85.7732 481.263 83.651 484.105 81.4019C490.435 76.396 497.61 70.7251 495.402 64.5421C494.72 62.5768 493.545 60.82 491.99 59.4406C490.434 58.0612 488.55 57.1056 486.518 56.6658C482.754 55.7906 478.907 56.6658 476.712 58.8055C474.369 61.1116 473.967 63.4657 473.652 65.3692C473.376 66.9882 473.162 68.2659 471.676 68.5591C469.101 69.0623 458.6 69.548 454.188 65.4129C452.632 63.9602 452.002 62.0698 452.282 59.7988C453.559 49.8177 464.668 35.6053 479.856 35.1284C487.428 34.8877 496.123 34.8396 503.464 37.2594C512.076 40.0905 517.204 45.7133 519.137 54.4473C521.161 63.5663 520.754 70.6375 517.899 76.0503C515.565 80.4786 511.722 83.7866 505.44 86.7709C498.882 89.8864 498.318 95.5224 497.898 99.6356C497.64 102.191 497.43 104.213 495.931 104.825C493.806 105.713 486.855 106.772 481.377 106.772ZM483.585 56.167C484.587 56.1669 485.586 56.2814 486.562 56.5083C488.622 56.9531 490.535 57.9197 492.115 59.3156C493.696 60.7115 494.892 62.4899 495.59 64.4809C497.841 70.7951 490.61 76.5142 484.223 81.5463C481.39 83.7866 478.71 85.922 477.132 87.8692C474.509 91.1423 473.888 95.5486 473.844 98.6642C473.81 100.693 473.989 102.72 474.378 104.711C474.419 104.908 474.507 105.092 474.633 105.249C474.759 105.405 474.92 105.53 475.103 105.613C478.483 107.573 492.245 106.116 495.865 104.633C497.26 104.064 497.457 102.099 497.71 99.6049C498.147 95.448 498.716 89.7508 505.365 86.5871C511.604 83.616 515.421 80.3386 517.733 75.9497C520.566 70.5763 520.964 63.5532 518.957 54.4779C514.817 35.7935 496.604 34.7871 479.856 35.3165C464.768 35.7891 453.738 49.9053 452.47 59.8207C452.298 60.8107 452.377 61.8281 452.7 62.7798C453.022 63.7314 453.577 64.5871 454.315 65.2685C458.687 69.3467 469.07 68.861 471.628 68.3621C472.974 68.0952 473.175 66.9357 473.446 65.3298C473.752 63.5138 474.177 61.0196 476.568 58.6699C478.229 57.0421 480.809 56.167 483.585 56.167Z" fill="#30262A"/>
<path d="M483.602 137.586C481.604 137.58 479.631 137.15 477.811 136.325C475.991 135.499 474.366 134.298 473.044 132.799C472.021 131.668 471.256 130.327 470.803 128.87C470.35 127.413 470.22 125.875 470.421 124.362H470.522H470.421C471.601 116.096 476.542 111.165 483.62 111.165C491.756 111.165 497.142 115.825 498.799 124.292C499.275 126.73 498.541 129.215 496.674 131.486C493.701 135.074 488.346 137.586 483.602 137.586ZM483.602 111.362C480.105 111.362 477.088 112.57 474.858 114.863C472.629 117.155 471.186 120.407 470.618 124.393C470.422 125.879 470.553 127.39 471 128.82C471.447 130.25 472.2 131.566 473.206 132.676C474.511 134.154 476.113 135.338 477.908 136.151C479.703 136.964 481.649 137.388 483.62 137.393C488.293 137.393 493.601 134.912 496.521 131.359C498.348 129.141 499.07 126.708 498.606 124.327C496.954 115.965 491.633 111.362 483.602 111.362Z" fill="#30262A"/>
<path d="M362.225 291.315C361.289 291.316 360.355 291.214 359.441 291.009C359.186 290.955 358.922 290.96 358.669 291.021C358.415 291.083 358.179 291.201 357.977 291.366C357.775 291.53 357.612 291.738 357.501 291.974C357.39 292.21 357.332 292.468 357.333 292.729V347.053C357.333 349.578 356.837 352.077 355.871 354.409C354.906 356.741 353.491 358.86 351.708 360.644C349.924 362.429 347.807 363.844 345.477 364.81C343.147 365.776 340.65 366.272 338.128 366.272H209.132C206.611 366.272 204.114 365.776 201.784 364.81C199.455 363.845 197.338 362.43 195.555 360.646C193.772 358.861 192.357 356.743 191.392 354.412C190.427 352.08 189.931 349.581 189.931 347.058V293.621C189.932 293.181 190.035 292.747 190.231 292.353C190.428 291.959 190.713 291.616 191.063 291.35C191.414 291.085 191.822 290.904 192.254 290.822C192.686 290.74 193.131 290.759 193.555 290.878C195.399 291.38 197.334 291.454 199.211 291.094C201.089 290.734 202.859 289.95 204.388 288.802C205.917 287.654 207.164 286.172 208.034 284.468C208.904 282.765 209.374 280.885 209.408 278.972C209.443 277.059 209.04 275.164 208.232 273.43C207.424 271.697 206.231 270.17 204.744 268.968C203.257 267.766 201.516 266.919 199.653 266.492C197.789 266.065 195.853 266.069 193.992 266.505C193.508 266.62 193.004 266.625 192.518 266.518C192.032 266.41 191.576 266.194 191.185 265.886C190.794 265.577 190.478 265.184 190.261 264.736C190.044 264.287 189.931 263.796 189.931 263.297V217.934C189.931 215.41 190.427 212.911 191.392 210.58C192.357 208.248 193.772 206.129 195.555 204.345C197.338 202.56 199.454 201.145 201.784 200.179C204.113 199.213 206.61 198.716 209.132 198.716H260.283C260.727 198.713 261.164 198.826 261.553 199.042C261.941 199.258 262.267 199.571 262.498 199.951C262.73 200.33 262.86 200.763 262.875 201.208C262.891 201.652 262.791 202.093 262.587 202.488C261.522 204.47 261.008 206.702 261.098 208.951C261.189 211.199 261.881 213.383 263.102 215.273C264.323 217.162 266.028 218.69 268.04 219.695C270.052 220.701 272.296 221.147 274.539 220.988C276.642 220.838 278.672 220.161 280.445 219.019C282.217 217.877 283.673 216.307 284.68 214.454C285.687 212.601 286.212 210.524 286.206 208.414C286.2 206.305 285.664 204.23 284.647 202.383C284.442 202.004 284.34 201.579 284.349 201.148C284.358 200.718 284.479 200.297 284.699 199.928C284.92 199.558 285.232 199.252 285.606 199.04C285.98 198.827 286.403 198.716 286.833 198.716H338.137C340.658 198.716 343.155 199.213 345.485 200.179C347.814 201.145 349.931 202.56 351.714 204.345C353.497 206.129 354.911 208.248 355.876 210.58C356.841 212.911 357.338 215.41 357.338 217.934V265.293C357.322 265.502 357.357 265.713 357.442 265.905C357.526 266.098 357.657 266.266 357.822 266.396C357.987 266.526 358.182 266.613 358.389 266.649C358.596 266.686 358.808 266.671 359.008 266.605C360.463 266.222 361.974 266.101 363.471 266.247C369.181 266.798 374.357 272.141 374.755 277.864C374.877 279.585 374.642 281.313 374.068 282.939C373.493 284.566 372.589 286.056 371.414 287.318C370.239 288.58 368.816 289.586 367.235 290.274C365.655 290.961 363.949 291.316 362.225 291.315Z" fill="#BF0830"/>
<path d="M335.107 365.993H223.341C224.036 359.666 224.919 353.619 226.034 348.083C226.777 344.386 227.621 340.916 228.583 337.748C228.696 337.358 228.819 336.969 228.946 336.593C229.33 335.385 229.732 334.228 230.152 333.123C230.152 333.123 234.235 316.932 260.755 311.445C261.354 311.318 261.957 311.2 262.574 311.091H262.688C263.514 310.942 264.358 310.811 265.223 310.679L265.8 310.601C266.237 310.535 266.696 310.474 267.16 310.417H267.278C269.027 310.202 270.845 310.032 272.756 309.914C273.801 309.848 274.868 309.795 275.965 309.76H276.013C277.048 309.725 278.109 309.705 279.196 309.699H279.462C281.794 309.699 284.027 309.774 286.16 309.922C286.75 309.966 287.332 310.014 287.909 310.067C288.626 310.137 289.33 310.211 290.025 310.299C292.572 310.606 295.099 311.072 297.588 311.695C310.087 314.854 318.573 321.689 324.488 331.714C326.928 335.954 328.9 340.448 330.368 345.116C332.419 351.326 333.922 358.318 335.107 365.993Z" fill="#BF0830"/>
<path d="M343.322 365.993H206.011C205.135 365.991 204.273 365.781 203.494 365.381C202.715 364.981 202.042 364.401 201.53 363.69C201.018 362.979 200.682 362.157 200.549 361.291C200.416 360.425 200.49 359.539 200.765 358.707C205.574 344.219 220.154 315.825 261.21 310.705C262.627 310.527 264.074 310.381 265.551 310.268C267.213 310.133 268.916 310.036 270.662 309.975C271.366 309.953 272.07 309.922 272.778 309.891L275.987 309.738H276.035C277.132 309.686 278.221 309.633 279.344 309.603C281.447 309.541 283.555 309.541 285.662 309.681L286.221 309.716C287.502 309.808 288.761 309.922 290.003 310.066C291.475 310.233 292.919 310.432 294.336 310.666C294.803 310.745 295.262 310.815 295.721 310.902C296.181 310.99 296.657 311.082 297.116 311.182C328.003 317.483 342.011 336.772 346.282 362.523C346.352 362.951 346.328 363.39 346.211 363.808C346.094 364.227 345.888 364.614 345.606 364.945C345.324 365.275 344.974 365.54 344.579 365.721C344.185 365.902 343.756 365.995 343.322 365.993Z" fill="#1A2578"/>
<path d="M286.544 317.554C279.252 320.096 270.552 316.464 265.524 310.268C265.568 310.268 272.519 307.38 273.709 303.556L276.493 294.559L276.546 294.389L277.372 291.711L278.439 288.258L284.721 267.985L285.548 288.149L285.858 295.714V295.819L286.037 300.261V300.698V301.031L286.16 304.094C286.264 306.719 287.991 309.345 289.95 310.062C289.985 310.054 291.192 315.922 286.544 317.554Z" fill="white"/>
<path d="M286.077 301.013C282.163 300.194 278.725 297.875 276.498 294.55L276.376 294.354C276.435 294.359 276.493 294.368 276.551 294.38C277.53 294.524 282.448 295.255 285.863 295.693V295.798L286.042 300.239V300.677L286.077 301.013Z" fill="#30262A"/>
<path d="M303.359 261.793C304.133 265.44 304.133 269.208 303.359 272.855C302.082 279.012 295.826 263.885 295.826 263.885L303.359 261.793Z" fill="#30262A"/>
<path d="M289.082 298.51C298.94 297.214 305.667 286.518 304.106 274.619C302.545 262.72 293.288 254.124 283.429 255.42C273.571 256.715 266.844 267.412 268.405 279.311C269.966 291.21 279.223 299.805 289.082 298.51Z" fill="white"/>
<path d="M267.951 273.105L276.665 272.199C277.613 272.107 278.53 271.803 279.345 271.308C280.16 270.813 280.853 270.141 281.373 269.341C283.157 266.545 285.308 265.11 293.435 265.403C303.731 265.788 310.529 259.645 311.639 254.254C312.776 248.754 307.508 245.021 302.336 247.647C297.164 250.272 299.385 243.835 294.414 243.153C285.124 241.875 283.384 249.047 275.773 248.81C265.801 248.504 247.933 256.092 256.405 273.665L267.951 273.105Z" fill="#30262A"/>
<path d="M287.2 276.067C287.247 276.036 287.287 275.994 287.315 275.946C287.344 275.897 287.361 275.843 287.366 275.787C287.37 275.739 287.365 275.691 287.351 275.645C287.336 275.599 287.313 275.557 287.282 275.52C287.251 275.484 287.213 275.454 287.171 275.432C287.128 275.41 287.082 275.397 287.034 275.393C286.166 275.266 285.281 275.433 284.519 275.868C283.757 276.302 283.162 276.979 282.828 277.791C282.786 277.878 282.779 277.978 282.811 278.07C282.842 278.162 282.908 278.237 282.994 278.281C283.083 278.314 283.18 278.316 283.269 278.285C283.358 278.255 283.434 278.195 283.484 278.114C284.397 277.081 285.627 276.381 286.981 276.123C287.058 276.126 287.134 276.106 287.2 276.067Z" fill="#080435"/>
<path d="M285.639 280.754C285.866 281.594 286.548 282.141 287.156 281.975C287.764 281.808 288.074 280.99 287.847 280.15C287.619 279.31 286.937 278.763 286.325 278.929C285.713 279.095 285.385 279.923 285.639 280.754Z" fill="#080435"/>
<path d="M300.701 274.982C300.747 274.973 300.79 274.952 300.825 274.92C300.86 274.889 300.885 274.848 300.898 274.803C300.93 274.716 300.933 274.622 300.908 274.533C300.883 274.444 300.831 274.365 300.758 274.308C300.491 274.08 300.179 273.909 299.842 273.807C299.506 273.704 299.152 273.673 298.802 273.714C298.453 273.755 298.116 273.868 297.812 274.045C297.509 274.223 297.245 274.461 297.038 274.746C296.984 274.82 296.955 274.91 296.955 275.002C296.955 275.094 296.984 275.183 297.038 275.258C297.059 275.29 297.087 275.317 297.119 275.338C297.151 275.358 297.188 275.371 297.226 275.377C297.264 275.382 297.303 275.379 297.34 275.369C297.377 275.358 297.411 275.34 297.44 275.315C297.901 275.042 298.415 274.869 298.947 274.807C299.48 274.745 300.019 274.796 300.531 274.956C300.583 274.984 300.643 274.993 300.701 274.982Z" fill="#080435"/>
<path d="M297.374 278.728C297.264 279.603 297.684 280.356 298.314 280.435C298.943 280.513 299.538 279.874 299.625 279.012C299.713 278.15 299.315 277.38 298.69 277.301C298.065 277.223 297.483 277.862 297.374 278.728Z" fill="#080435"/>
<path d="M256.405 273.677C256.405 273.677 262.425 286.678 270.959 287.632C270.959 287.632 264.06 277.725 278.606 271.687C278.606 271.687 265.25 269.586 256.405 273.677Z" fill="#30262A"/>
<path d="M268.442 280.854C270.265 282.014 272.586 281.633 273.622 279.979C274.658 278.325 274.024 276.08 272.197 274.921C270.37 273.761 268.052 274.137 267.012 275.769C265.971 277.402 266.614 279.69 268.442 280.854Z" fill="white"/>
<path d="M297.715 287.208C293.876 288.142 289.911 288.456 285.973 288.136C285.973 288.136 286.873 293.824 293.077 292.686C296.684 292.026 297.715 287.208 297.715 287.208Z" fill="white"/>
<path d="M301.23 246.964C298.384 246.964 298.126 244.483 298.126 244.461C298.118 244.407 298.122 244.352 298.137 244.299C298.151 244.246 298.176 244.197 298.21 244.154C298.244 244.111 298.286 244.076 298.334 244.05C298.382 244.023 298.435 244.007 298.489 244.002C298.544 243.997 298.599 244.002 298.651 244.019C298.703 244.035 298.751 244.062 298.793 244.097C298.834 244.133 298.868 244.177 298.893 244.226C298.917 244.274 298.931 244.328 298.934 244.382C298.956 244.571 299.197 246.216 301.361 246.133C301.469 246.129 301.574 246.169 301.652 246.243C301.731 246.317 301.777 246.419 301.781 246.527C301.784 246.635 301.744 246.739 301.671 246.818C301.597 246.897 301.495 246.943 301.387 246.947L301.23 246.964Z" fill="#BF0830"/>
<path d="M296.355 262.528L296.285 262.292C296.394 262.257 307.35 259.01 307.801 253.365C307.932 251.768 307.665 250.709 306.987 250.127C305.903 249.191 303.927 249.65 302.178 250.057C301.907 250.123 301.645 250.184 301.396 250.237L301.343 249.996L302.122 249.821C303.923 249.383 305.964 248.946 307.145 249.939C307.884 250.578 308.177 251.689 308.041 253.383C307.849 255.798 305.759 258.144 301.999 260.174C300.195 261.132 298.305 261.92 296.355 262.528Z" fill="white"/>
<path d="M274.78 251.081C273.682 251.079 272.585 251.003 271.497 250.853L271.528 250.608C277.115 251.365 281.146 250.07 283.528 248.858C284.989 248.147 286.308 247.177 287.424 245.996L287.612 246.154C287.564 246.193 283.389 251.081 274.78 251.081Z" fill="white"/>
<path d="M280.801 314.285C280.801 314.285 288.718 311.834 290.821 313.733C292.924 315.632 291.376 324.344 287.735 325.11C284.093 325.876 277.194 316.385 280.801 314.285Z" fill="white"/>
<path d="M285.448 312.228C285.448 312.228 275.113 308.574 273.098 304.916C271.082 301.258 260.38 309.729 260.568 312.228C260.756 314.726 280.027 328.746 281.286 326.983C282.545 325.219 287.975 314.626 285.448 312.228Z" fill="#1A2578"/>
<path d="M285.448 312.228C285.448 312.228 286.996 308.39 286.252 306.308C286.252 306.308 285.758 304.474 287.332 304.601C288.906 304.728 297.475 310.727 298.231 312.543C298.988 314.359 299.106 322.948 296.343 323.579C293.58 324.209 286.891 314.998 286.104 314.088C285.876 313.837 285.7 313.544 285.587 313.224C285.475 312.905 285.427 312.566 285.448 312.228Z" fill="#1A2578"/>
<path d="M284.062 323.618L289.942 321.763C289.942 321.763 290.082 322.117 290.339 322.795C292.027 327.254 298.817 345.488 304.911 365.997H284.639C285.666 346.433 286.177 328.339 284.062 323.618Z" fill="white"/>
<path d="M287.669 325.307C285.356 325.307 283.376 323.25 283.297 323.163L283.572 322.905C283.572 322.905 285.527 324.926 287.682 324.926H287.739C289.859 324.891 291.131 320.31 291.144 320.262L291.507 320.362C291.455 320.564 290.148 325.268 287.743 325.307H287.669Z" fill="#30262A"/>
<path opacity="0.3" fill-rule="evenodd" clip-rule="evenodd" d="M115.554 131.581C112.626 131.581 110.257 129.205 110.257 126.276C110.257 123.345 112.626 120.97 115.554 120.97C118.496 120.97 120.865 123.345 120.865 126.276C120.865 129.205 118.496 131.581 115.554 131.581ZM115.554 136.887C109.698 136.887 104.959 132.136 104.959 126.276C104.959 120.415 109.698 115.664 115.554 115.664C121.424 115.664 126.163 120.415 126.163 126.276C126.163 132.136 121.424 136.887 115.554 136.887Z" fill="#FB5472"/>
<defs>
<filter id="filter0_d_428_20676" x="395.115" y="190.716" width="191.411" height="191.556" filterUnits="userSpaceOnUse" color-interpolation-filters="sRGB">
<feFlood flood-opacity="0" result="BackgroundImageFix"/>
<feColorMatrix in="SourceAlpha" type="matrix" values="0 0 0 0 0 0 0 0 0 0 0 0 0 0 0 0 0 0 127 0" result="hardAlpha"/>
<feOffset dy="4"/>
<feGaussianBlur stdDeviation="6"/>
<feComposite in2="hardAlpha" operator="out"/>
<feColorMatrix type="matrix" values="0 0 0 0 0 0 0 0 0 0 0 0 0 0 0 0 0 0 0.06 0"/>
<feBlend mode="normal" in2="BackgroundImageFix" result="effect1_dropShadow_428_20676"/>
<feBlend mode="normal" in="SourceGraphic" in2="effect1_dropShadow_428_20676" result="shape"/>
</filter>
</defs>
</svg>
