<svg width="591" height="383" fill="none" xmlns="http://www.w3.org/2000/svg"><path d="M381.318 79.14c-.394-5.724-5.574-11.067-11.28-11.618a12.72 12.72 0 0 0-4.468.354 1.27 1.27 0 0 1-1.67-1.312v-47.35c0-5.096-2.022-9.983-5.622-13.586A19.189 19.189 0 0 0 344.703 0H215.69a19.193 19.193 0 0 0-13.576 5.627 19.225 19.225 0 0 0-5.625 13.587v45.363a3.297 3.297 0 0 0 1.253 2.587 3.3 3.3 0 0 0 2.804.625 12.547 12.547 0 0 1 10.752 2.463 12.563 12.563 0 0 1 4.664 10.004 12.575 12.575 0 0 1-5.02 9.83 12.558 12.558 0 0 1-10.833 2.076 2.853 2.853 0 0 0-3.324 1.475 2.877 2.877 0 0 0-.301 1.268v53.433a19.234 19.234 0 0 0 5.624 13.589 19.195 19.195 0 0 0 13.578 5.629h50.713a1.648 1.648 0 0 1 1.241.567 1.671 1.671 0 0 1 .399 1.306 12.572 12.572 0 0 0 7.427 12.932 12.537 12.537 0 0 0 10.32-.102 12.56 12.56 0 0 0 6.758-7.808c.509-1.707.651-3.502.414-5.267a1.448 1.448 0 0 1 .853-1.503c.188-.084.392-.127.599-.125h50.276c5.092 0 9.976-2.025 13.577-5.629a19.226 19.226 0 0 0 5.624-13.589V94.013a1.753 1.753 0 0 1 1.337-1.713 1.75 1.75 0 0 1 .775-.011 12.547 12.547 0 0 0 10.945-2.717 12.585 12.585 0 0 0 4.356-10.41l.018-.022Z" fill="#1A2578"/><path d="M345.582 167.202h-24.968c-1.674-6.192-3.222-11.692-4.503-16.029-1.626-5.535-2.806-9.189-3.217-9.95-1.644-3.063 4.669-12.458 9.893-15.315a10.19 10.19 0 0 1 2.907-1.116c3.227-.634 5.443 1.203 7.533 3.803 1.552 1.925 4.748 3.5 7.472 7.753a23.415 23.415 0 0 1 2.155 4.324 193.56 193.56 0 0 1 6.702 21.441 4.12 4.12 0 0 1-.752 3.51 4.106 4.106 0 0 1-3.222 1.579Z" fill="#E0E0E0"/><path d="M305.834 59.791s2.583-12.69-8.683-14.877c-11.266-2.188-9.447 6.664-11.699 8.672-2.251 2.009 2.4 8.953 7.791 10.3 5.39 1.348 12.591-4.095 12.591-4.095Z" fill="#30262A"/><path d="M334.967 167.202h-89.274s-3.593-12.751-2.894-18.711a137.26 137.26 0 0 1 1.128-7.819c.292-1.704.618-3.349.98-4.936.083-.381.19-.757.319-1.125a5.93 5.93 0 0 1 1.04-1.881c3.629-4.276 11.9 1.689 14.554-3.965 0 0 4.599-10.388 16.832-15.315a34.061 34.061 0 0 1 6.265-1.842 41.567 41.567 0 0 1 12.643-.407l1.211.14h.031l1.232.157c9.806 1.283 21.046 4.083 26.669 13.294a23.57 23.57 0 0 1 2.959 7.771c.7 3.501 1.443 7.089 2.186 10.843 1.443 7.177 2.881 14.957 4.119 23.796Z" fill="#BF0830"/><path d="m231.346 131.96 25.461 17.63s45.713 6.66 58.059 2.07c14.112-5.251 27.389-16.593 27.389-16.593s-9.154-20.194-43.259-23.66c-3.965-.402-18.637.193-22.515.779-35.176 5.343-45.135 19.774-45.135 19.774Z" fill="#BF0830"/><path d="M231.345 131.96c-1.604 2.476-.03 9.661 8.508 14.855 8.538 5.194 15.061 6.358 16.954 2.775 1.425-2.7-2.265-11.99-10.401-16.781-8.385-4.941-13.911-2.613-15.061-.849Z" fill="#30262A"/><path d="M253.24 151.638c-.717.954-3.611 6.905-7.546 15.565H220.84c-.786 0-1.56-.197-2.25-.575a4.699 4.699 0 0 1-2.017-6.076 191.402 191.402 0 0 1 7.126-14.003c3.428-6.056 5.299-8.939 7.209-10.987.35-.372.7-.714 1.058-1.046a7.173 7.173 0 0 1 1.557-1.077c3.2-1.662 7.974-1.404 11.703 1.151.179.118.359.245.533.381 3.24 2.481 6.519 8.047 7.607 12.213.499 1.947.529 3.57-.126 4.454ZM276.428 112.221c4.372 5.102 14.916 8.349 20.661 5.483 4.897-2.438 1.906-6.275 1.906-6.275-2.387-.057-5.333-3.75-5.535-6.126l-.236-2.928-.118-1.448-.384-4.638-.341-4.166-1.404-17.065-4.463 17.345-.761 2.958-2.623 10.191a9.284 9.284 0 0 1-6.624 6.634l-.078.035Z" fill="#E0E0E0"/><path d="M285.731 95.361s2.868 5.046 7.376 5.536l-.385-4.639c-2.811-.56-6.991-.897-6.991-.897ZM271.471 75.198s1.08 2.67.371 8.599c-1.04 8.677 8.989 10.672 11.052 7.92.254-.337-2.339-14.418-2.339-14.418l-3.313-1.313-5.771-.788Z" fill="#30262A"/><path d="M295.184 97.243c8.759-1.36 14.5-11.231 12.823-22.047-1.676-10.815-10.136-18.48-18.895-17.12-8.759 1.36-14.5 11.23-12.823 22.046 1.677 10.816 10.136 18.481 18.895 17.12Z" fill="#E0E0E0"/><path d="M296.132 61.59c-.345.669 3.712 10.352-14.558 15.656-18.27 5.303-10.584-19.079 3.095-21.73 19.748-3.825 24.714 9.097 23.551 14.203-1.163 5.107-12.088-8.13-12.088-8.13Z" fill="#30262A"/><path d="M283.109 73.715s-6.375 9.224-2.457 17.035c0 0-5.168-4.149-5.544-5.934-.376-1.785-.214-8.489-.214-8.489l8.215-2.612Z" fill="#30262A"/><path d="M278.881 82.684c2.064 1.436 4.604 1.221 5.683-.481 1.08-1.702.263-4.245-1.801-5.689-2.063-1.444-4.599-1.22-5.683.482-1.084 1.702-.258 4.249 1.801 5.688Z" fill="#E0E0E0"/><path d="M293.723 77.548a.369.369 0 0 0-.061-.691 3.932 3.932 0 0 0-4.512 1.75.366.366 0 0 0 .092.508.4.4 0 0 0 .511-.092 6.249 6.249 0 0 1 3.742-1.47.365.365 0 0 0 .228-.005ZM291.484 81.958c.11.875.704 1.505 1.312 1.427.608-.08 1.049-.84.944-1.707-.105-.866-.699-1.505-1.311-1.426-.612.078-1.05.84-.945 1.706ZM306.891 77.43a.366.366 0 0 0 .339-.484.373.373 0 0 0-.133-.182 3.96 3.96 0 0 0-4.844-.083.369.369 0 0 0-.11.503.402.402 0 0 0 .508.11 6.272 6.272 0 0 1 4.022.066.37.37 0 0 0 .218.07ZM303.127 80.654c-.232.84.075 1.659.687 1.825.612.166 1.289-.376 1.521-1.216.232-.84-.079-1.659-.686-1.83-.608-.17-1.273.377-1.522 1.221Z" fill="#080435"/><path opacity=".3" d="M291.335 89.546c3.42-.212 5.94-4.468 5.628-9.507-.311-5.038-3.336-8.951-6.756-8.74-3.419.212-5.939 4.468-5.627 9.507.311 5.039 3.336 8.952 6.755 8.74ZM300.941 78.528c-.175 4.813 2.133 9.6 5.154 10.66 3.021 1.058 5.618-2.01 5.793-6.84.175-4.83-2.133-9.627-5.154-10.66-3.021-1.032-5.605 2.027-5.793 6.84Z" fill="#fff"/><path d="M285.202 76.025c-.048.14-.092.275-.131.437a.88.88 0 0 0-.039.123c-.026.079-.044.162-.066.25-.022.087-.039.14-.057.214l-.052.231a.959.959 0 0 0-.026.119c.002.039.002.079 0 .118 0 .04 0 .079-.027.114l-.078.477a9.052 9.052 0 0 0-.061.472v.131l.026.057v.061a.066.066 0 0 1 0 .04.087.087 0 0 1 0 .04c0 .047.035.096.052.14a12.358 12.358 0 0 1 .149-1.615c.074-.496.182-.986.323-1.466l-.013.057Zm0 0c-.048.14-.092.275-.131.437a.88.88 0 0 0-.039.123c-.026.079-.044.162-.066.25-.022.087-.039.14-.057.214l-.052.231a.959.959 0 0 0-.026.119c.002.039.002.079 0 .118 0 .04 0 .079-.027.114l-.078.477a9.052 9.052 0 0 0-.061.472v.131l.026.057v.061a.066.066 0 0 1 0 .04.087.087 0 0 1 0 .04c0 .047.035.096.052.14a12.358 12.358 0 0 1 .149-1.615c.074-.496.182-.986.323-1.466l-.013.057Zm0 0c-.048.14-.092.275-.131.437a.88.88 0 0 0-.039.123c-.026.079-.044.162-.066.25-.022.087-.039.14-.057.214l-.052.231a.959.959 0 0 0-.026.119c.002.039.002.079 0 .118 0 .04 0 .079-.027.114l-.078.477a9.052 9.052 0 0 0-.061.472v.096a.26.26 0 0 1 0 .04l.026.057v.061a.066.066 0 0 1 0 .04.087.087 0 0 1 0 .039c0 .048.035.096.052.14a12.358 12.358 0 0 1 .149-1.615c.074-.495.182-.985.323-1.466l-.013.053Zm0 0c-.048.14-.092.275-.131.437a.88.88 0 0 0-.039.123c-.026.079-.044.162-.066.25-.022.087-.039.14-.057.214l-.052.231a.959.959 0 0 0-.026.119c.002.039.002.079 0 .118 0 .04 0 .079-.027.114l-.078.477a9.052 9.052 0 0 0-.061.472V78.725l.026.056v.062a.066.066 0 0 1 0 .039.087.087 0 0 1 0 .04c0 .048.035.096.052.14a12.361 12.361 0 0 1 .149-1.615c.074-.496.182-.985.323-1.466l-.013.044Zm12.814 3.627c0-.385-.052-.757-.1-1.138-.438-3.351-2.094-6.322-4.394-7.675a6.367 6.367 0 0 0-.874-.437 4.95 4.95 0 0 0-4.403.372c-1.749 1.024-3.06 2.988-3.677 5.496a13.179 13.179 0 0 0-.301 1.772 13.415 13.415 0 0 0 .087 3.523c.039.249.088.503.144.743a10.82 10.82 0 0 0 3.118 5.824 6.318 6.318 0 0 0 1.971 1.226 4.966 4.966 0 0 0 2.615.284 5.358 5.358 0 0 0 1.788-.652 7.876 7.876 0 0 0 3.244-4.126c.301-.803.519-1.634.651-2.481.13-.904.169-1.82.114-2.73h.017Zm-.734 2.652a11.61 11.61 0 0 1-.621 2.354 8.505 8.505 0 0 1-1.425 2.477v.03a5.907 5.907 0 0 1-1.53 1.313 4.375 4.375 0 0 1-3.883.324 5.783 5.783 0 0 1-2.02-1.313c-1.477-1.426-2.496-3.632-2.854-6.09a19.082 19.082 0 0 1-.114-1.147 7.12 7.12 0 0 1 0-1.103c.013-.55.063-1.098.149-1.64.074-.496.182-.986.323-1.467.072-.264.158-.524.258-.779a.16.16 0 0 1 0-.043.13.13 0 0 0 0-.04.32.32 0 0 1 0-.044 8.44 8.44 0 0 1 .647-1.37c.548-1 1.346-1.84 2.317-2.437a4.406 4.406 0 0 1 3.882-.323c.23.088.452.193.665.315 2.234 1.225 3.83 4.104 4.236 7.368.054.382.087.766.096 1.151.029.824-.019 1.649-.144 2.464h.018Zm-12.08-6.28c-.048.14-.092.276-.131.438a.88.88 0 0 0-.039.123c-.026.079-.044.162-.066.25-.022.087-.039.14-.057.214l-.052.231a.959.959 0 0 0-.026.119c.002.039.002.079 0 .118 0 .04 0 .079-.027.114l-.078.477a9.052 9.052 0 0 0-.061.472v.14l.026.057v.061a.066.066 0 0 1 0 .04.087.087 0 0 1 0 .04c0 .047.035.095.052.14a12.361 12.361 0 0 1 .149-1.615c.074-.496.182-.986.323-1.466l-.013.048Zm0 0c-.048.14-.092.276-.131.438a.88.88 0 0 0-.039.123c-.026.079-.044.162-.066.25-.022.087-.039.14-.057.214l-.052.231a.959.959 0 0 0-.026.119c.002.039.002.079 0 .118 0 .04 0 .079-.027.114l-.078.477a9.052 9.052 0 0 0-.061.472v.131l.026.057v.061a.066.066 0 0 1 0 .04.087.087 0 0 1 0 .04c0 .047.035.096.052.14a12.358 12.358 0 0 1 .149-1.615c.074-.496.182-.986.323-1.466l-.013.057Zm0 0c-.048.14-.092.276-.131.438a.88.88 0 0 0-.039.123c-.026.079-.044.162-.066.25-.022.087-.039.14-.057.214l-.052.231a.959.959 0 0 0-.026.119c.002.039.002.079 0 .118 0 .04 0 .079-.027.114l-.078.477a9.052 9.052 0 0 0-.061.472v.131l.026.057v.061a.066.066 0 0 1 0 .04.087.087 0 0 1 0 .04c0 .047.035.096.052.14a12.358 12.358 0 0 1 .149-1.615c.074-.496.182-.986.323-1.466l-.013.057ZM301.047 76.025c-.048.14-.092.275-.131.437-.016.04-.029.081-.04.123-.026.079-.043.162-.065.25-.022.087-.039.14-.057.214l-.052.231a1.19 1.19 0 0 0-.027.119c.002.039.002.079 0 .118 0 .04 0 .079-.026.114l-.079.477c-.026.161-.043.315-.061.472v.131l.026.057v.061a.066.066 0 0 1 0 .04.066.066 0 0 1 0 .04c0 .047.035.096.053.14a12.358 12.358 0 0 1 .149-1.615c.074-.496.182-.986.323-1.466l-.013.057Zm0 0c-.048.14-.092.275-.131.437-.016.04-.029.081-.04.123-.026.079-.043.162-.065.25-.022.087-.039.14-.057.214l-.052.231a1.19 1.19 0 0 0-.027.119c.002.039.002.079 0 .118 0 .04 0 .079-.026.114l-.079.477c-.026.161-.043.315-.061.472v.131l.026.057v.061a.066.066 0 0 1 0 .04.066.066 0 0 1 0 .04c0 .047.035.096.053.14a12.358 12.358 0 0 1 .149-1.615c.074-.496.182-.986.323-1.466l-.013.057Zm0 0c-.048.14-.092.275-.131.437-.016.04-.029.081-.04.123-.026.079-.043.162-.065.25-.022.087-.039.14-.057.214l-.052.231a1.19 1.19 0 0 0-.027.119c.002.039.002.079 0 .118 0 .04 0 .079-.026.114l-.079.477c-.026.161-.043.315-.061.472v.096a.13.13 0 0 1 0 .04l.026.057v.061a.066.066 0 0 1 0 .04.066.066 0 0 1 0 .039c0 .048.035.096.053.14a12.358 12.358 0 0 1 .149-1.615c.074-.495.182-.985.323-1.466l-.013.053Zm0 0c-.048.14-.092.275-.131.437-.016.04-.029.081-.04.123-.026.079-.043.162-.065.25-.022.087-.039.14-.057.214l-.052.231a1.19 1.19 0 0 0-.027.119c.002.039.002.079 0 .118 0 .04 0 .079-.026.114l-.079.477c-.026.161-.043.315-.061.472V78.725l.026.056v.062a.066.066 0 0 1 0 .039.066.066 0 0 1 0 .04c0 .048.035.096.053.14a12.361 12.361 0 0 1 .149-1.615c.074-.496.182-.985.323-1.466l-.013.044Zm12.814 3.627c0-.385-.053-.757-.101-1.138-.437-3.351-2.094-6.322-4.393-7.675a6.322 6.322 0 0 0-.875-.437 4.948 4.948 0 0 0-4.402.372c-1.749 1.024-3.06 2.988-3.677 5.496a12.787 12.787 0 0 0-.302 1.772 13.329 13.329 0 0 0-.065 1.947c.02.528.071 1.054.153 1.575.039.25.087.504.144.744a10.826 10.826 0 0 0 3.117 5.824 6.322 6.322 0 0 0 1.972 1.226 4.961 4.961 0 0 0 2.614.284 5.35 5.35 0 0 0 1.788-.652 7.876 7.876 0 0 0 3.244-4.126c.302-.803.52-1.634.652-2.481.13-.904.168-1.82.113-2.73h.018Zm-.735 2.652a11.673 11.673 0 0 1-.62 2.354 8.486 8.486 0 0 1-1.426 2.477v.03a5.89 5.89 0 0 1-1.53 1.313 4.367 4.367 0 0 1-3.882.324 5.783 5.783 0 0 1-2.02-1.313c-1.477-1.426-2.496-3.632-2.855-6.09a19.087 19.087 0 0 1-.113-1.147 7.12 7.12 0 0 1 0-1.103c.013-.55.062-1.098.148-1.64.074-.496.182-.986.324-1.467a7.13 7.13 0 0 1 .258-.779.107.107 0 0 1 0-.043.26.26 0 0 0 0-.04.32.32 0 0 1 0-.044 8.44 8.44 0 0 1 .647-1.37c.548-1 1.346-1.84 2.317-2.437a4.403 4.403 0 0 1 3.882-.323c.229.088.451.193.665.315 2.234 1.225 3.829 4.104 4.236 7.368.054.382.086.766.096 1.151.029.824-.019 1.649-.144 2.464h.017Zm-12.079-6.28c-.048.14-.092.276-.131.438-.016.04-.029.081-.04.123-.026.079-.043.162-.065.25-.022.087-.039.14-.057.214l-.052.231a1.19 1.19 0 0 0-.027.119c.002.039.002.079 0 .118 0 .04 0 .079-.026.114l-.079.477c-.026.161-.043.315-.061.472v.14l.026.057v.061a.066.066 0 0 1 0 .04.066.066 0 0 1 0 .04c0 .047.035.095.053.14a12.361 12.361 0 0 1 .149-1.615c.074-.496.182-.986.323-1.466l-.013.048Zm0 0c-.048.14-.092.276-.131.438-.016.04-.029.081-.04.123-.026.079-.043.162-.065.25-.022.087-.039.14-.057.214l-.052.231a1.19 1.19 0 0 0-.027.119c.002.039.002.079 0 .118 0 .04 0 .079-.026.114l-.079.477c-.026.161-.043.315-.061.472v.131l.026.057v.061a.066.066 0 0 1 0 .04.066.066 0 0 1 0 .04c0 .047.035.096.053.14a12.358 12.358 0 0 1 .149-1.615c.074-.496.182-.986.323-1.466l-.013.057Zm0 0c-.048.14-.092.276-.131.438-.016.04-.029.081-.04.123-.026.079-.043.162-.065.25-.022.087-.039.14-.057.214l-.052.231a1.19 1.19 0 0 0-.027.119c.002.039.002.079 0 .118 0 .04 0 .079-.026.114l-.079.477c-.026.161-.043.315-.061.472v.131l.026.057v.061a.066.066 0 0 1 0 .04.066.066 0 0 1 0 .04c0 .047.035.096.053.14a12.358 12.358 0 0 1 .149-1.615c.074-.496.182-.986.323-1.466l-.013.057Z" fill="#30262A"/><path d="M298.886 91.489a5.68 5.68 0 0 1-3.738-1.392.188.188 0 0 1 .105-.329.183.183 0 0 1 .136.045c3.327 2.796 7.069.293 7.226.183a.181.181 0 0 1 .142-.032.189.189 0 0 1 .149.221.19.19 0 0 1-.077.122 7.791 7.791 0 0 1-3.943 1.182Z" fill="#020202"/><path d="M294.952 90.863a.194.194 0 0 1-.131-.055.195.195 0 0 1-.057-.129 2.497 2.497 0 0 1 .721-1.628l.026-.03a.191.191 0 0 1 .311.018.183.183 0 0 1-.009.205l-.04.052a2.1 2.1 0 0 0-.633 1.37.189.189 0 0 1-.184.193l-.004.004Z" fill="#020202"/><path d="M301.579 79.954a.563.563 0 0 0 .431-.802.565.565 0 0 0-.239-.252c-.087-.048-2.186-1.182-5.093-.022a.572.572 0 0 0 .437 1.054c2.422-.967 4.105-.052 4.118-.043.105.06.227.082.346.065ZM280.831 59.76s-3.467-12.497-14.48-9.299c-11.013 3.199-7.734 9.19-6.484 13.053.932 2.87 6.2 6.879 11.616 5.627 5.417-1.251 9.348-9.381 9.348-9.381ZM275.632 99.671a.348.348 0 0 1-.345-.416.36.36 0 0 1 .052-.126 15.766 15.766 0 0 1 6.724-5.295.352.352 0 0 1 .263.652 15.332 15.332 0 0 0-6.401 5.032.347.347 0 0 1-.293.153Z" fill="#30262A"/><path d="M173.536 271.921a12.716 12.716 0 0 0-4.463.359 1.267 1.267 0 0 1-1.566-.7 1.273 1.273 0 0 1-.104-.612v-47.35a19.235 19.235 0 0 0-5.624-13.59 19.211 19.211 0 0 0-13.578-5.629H96.893a2.479 2.479 0 0 0-2.124 1.209 2.487 2.487 0 0 0-.062 2.445 12.578 12.578 0 0 1-4.724 16.96 12.554 12.554 0 0 1-12.421.066 12.552 12.552 0 0 1-4.609-4.479 12.577 12.577 0 0 1-.297-12.429 2.58 2.58 0 0 0-2.304-3.772h-51.15a19.193 19.193 0 0 0-13.578 5.629A19.228 19.228 0 0 0 0 223.618v129.123a19.229 19.229 0 0 0 5.625 13.588 19.2 19.2 0 0 0 13.576 5.631H148.21a19.201 19.201 0 0 0 13.578-5.632 19.231 19.231 0 0 0 5.623-13.591v-54.325a1.755 1.755 0 0 1 1.336-1.707c.253-.062.517-.066.772-.012.912.204 1.845.307 2.78.306a12.55 12.55 0 0 0 9.191-4.002 12.582 12.582 0 0 0 3.339-9.458c-.407-5.723-5.587-11.066-11.293-11.618Z" fill="#1A2578"/><path d="M146.401 371.711h-24.963a759.25 759.25 0 0 0-4.499-16.033c-1.631-5.531-2.811-9.189-3.222-9.946-1.644-3.063 4.669-12.458 9.898-15.315a9.955 9.955 0 0 1 2.907-1.116c3.222-.634 5.439 1.199 7.533 3.798 1.547 1.93 4.743 3.501 7.467 7.754a23.45 23.45 0 0 1 2.155 4.328 191.204 191.204 0 0 1 6.702 21.441 4.11 4.11 0 0 1-3.978 5.089Z" fill="#fff"/><path d="M135.781 371.711H46.507S42.918 358.96 43.617 353c.311-2.695.683-5.312 1.124-7.819.292-1.701.618-3.348.98-4.941.085-.38.192-.756.319-1.124a6.027 6.027 0 0 1 1.04-1.882c3.633-4.275 11.9 1.689 14.559-3.96 0 0 4.594-10.392 16.827-15.315a33.803 33.803 0 0 1 6.27-1.847 41.446 41.446 0 0 1 12.638-.407l1.211.141h.035l1.228.153c9.807 1.286 21.051 4.087 26.669 13.298a23.662 23.662 0 0 1 2.955 7.766c.7 3.501 1.443 7.094 2.186 10.848 1.447 7.181 2.903 14.961 4.123 23.8Z" fill="#BF0830"/><path d="m32.164 336.468 25.457 17.63s45.712 6.656 58.059 2.07c14.112-5.251 27.394-16.593 27.394-16.593s-9.159-20.194-43.26-23.66c-3.97-.402-18.641.189-22.52.779-35.17 5.343-45.13 19.774-45.13 19.774Z" fill="#BF0830"/><path d="M32.163 336.468c-1.608 2.473-.03 9.662 8.508 14.856 8.538 5.194 15.057 6.358 16.95 2.774 1.43-2.7-2.26-11.989-10.4-16.781-8.386-4.94-13.912-2.612-15.057-.849Z" fill="#30262A"/><path d="M54.054 356.145c-.713.95-3.611 6.901-7.546 15.565h-24.85a4.694 4.694 0 0 1-4.683-4.364 4.702 4.702 0 0 1 .412-2.287 186.713 186.713 0 0 1 7.13-14.003c3.428-6.06 5.295-8.939 7.21-10.987.345-.372.695-.713 1.058-1.046a7.005 7.005 0 0 1 1.552-1.076c3.2-1.663 7.978-1.405 11.703 1.146a11 11 0 0 1 .533.385c3.24 2.477 6.523 8.047 7.607 12.213.499 1.947.53 3.57-.126 4.454ZM75.808 316.982a9.901 9.901 0 0 0 8.058-5.898l4.428-10.296 1.286-2.989 7.554-17.569-1.311 18.208-.792 10.939-.223 3.116a4.974 4.974 0 0 0 4.101 5.251h.044c1.342 2.188 3.2 6.638-2.348 8.405-6.523 2.079-17.05-3.063-20.858-9.149l.061-.018Z" fill="#fff"/><path d="M88.272 300.487v.302c.437 5.868 6.706 8.611 6.706 8.611l.035-.035.791-10.939c-1.919-.705-4.651-1.427-6.247-.639-.813.425-1.342 1.247-1.285 2.7Z" fill="#30262A"/><path d="M97.961 304.245c9.441 0 17.094-9.449 17.094-21.105 0-11.655-7.653-21.104-17.094-21.104-9.44 0-17.094 9.449-17.094 21.104 0 11.656 7.653 21.105 17.094 21.105Z" fill="#fff"/><path d="M107.172 296.797a37.056 37.056 0 0 1-11.677-1.916s-.485 5.758 5.836 6.126c3.655.245 5.841-4.21 5.841-4.21Z" fill="#fff"/><path d="M99.613 283.347a.388.388 0 0 0 .257-.531.394.394 0 0 0-.214-.209 4.215 4.215 0 0 0-5.032 1.125.398.398 0 0 0 0 .551.439.439 0 0 0 .551 0 6.679 6.679 0 0 1 4.18-.941.393.393 0 0 0 .258.005ZM96.54 287.622c-.031.927.489 1.698 1.162 1.719.674.022 1.242-.713 1.273-1.64.03-.928-.49-1.698-1.163-1.72-.674-.022-1.242.713-1.273 1.641ZM113.494 285.373a.38.38 0 0 0 .328-.114.396.396 0 0 0 0-.551 4.21 4.21 0 0 0-5.08-.876.393.393 0 0 0-.197.517.437.437 0 0 0 .511.197 6.619 6.619 0 0 1 4.224.726.367.367 0 0 0 .214.101ZM109.02 288.155c-.38.845-.192 1.751.437 2.031.63.28 1.417-.184 1.797-1.033.381-.849.193-1.75-.437-2.03-.63-.28-1.416.183-1.797 1.032Z" fill="#080435"/><path d="M108.68 305.637a8.536 8.536 0 0 1-3.996-1.015.442.442 0 0 1-.107-.565.436.436 0 0 1 .544-.183 6.936 6.936 0 0 0 8.486-1.313c3.9-3.938 1.185-8.248 1.067-8.428a.441.441 0 0 1 .127-.608.435.435 0 0 1 .607.127c.031.052 3.227 5.054-1.18 9.521a7.617 7.617 0 0 1-5.548 2.464Z" fill="#74BBFB"/><path d="M92.745 268.207c.616 3.82-.363 6.786 11.366 9.626 0 0 1.933 1.278 2.042-.801.109-2.078-2.833-5.25-1.255-7.661 0 0 8.429 17.463 11.236 13.766 2.807-3.698 6.488-15.661 0-22.96-6.488-7.299-26.839-8.861-30.249-2.919-5.014 8.761 6.335 7.68 6.86 10.949Z" fill="#30262A"/><path d="M85.557 261.271s5.168 1.287 4.94 3.601c-.227 2.315 3.41 6.682 0 8.144-3.41 1.461-4.24 2.336-4.227 4.896 0 1.785-3.109 5.724-4.228 9.303-.485 1.558.437 4.857.437 4.857s-13.058-4.411-10.724-19.328c1.513-9.709 10.532-12.79 13.802-11.473Z" fill="#30262A"/><path d="M81.19 286.326c1.936 1.847 4.642 2.039 6.046.438 1.403-1.602.97-4.424-.962-6.275s-4.647-2.039-6.05-.438c-1.404 1.602-.971 4.424.966 6.275Z" fill="#fff"/><path d="M82.912 301.165c-.363 0-.726-.029-1.084-.088-3.026-.485-5.587-2.804-5.71-5.172-.227-4.327 4.031-7.767 4.21-7.911a.439.439 0 1 1 .547.687c-.044.035-4.088 3.308-3.882 7.176.1 1.947 2.378 3.938 4.975 4.376 2.929.468 5.35-1.168 6.645-4.494.944-2.429.97-4.529.079-6.244-1.456-2.796-4.88-3.667-4.914-3.676a.43.43 0 0 1-.282-.195.441.441 0 0 1 .02-.496.432.432 0 0 1 .297-.172.445.445 0 0 1 .174.014c.154.035 3.848.976 5.483 4.122 1.01 1.947.997 4.293-.04 6.966-1.691 4.328-4.63 5.107-6.518 5.107Z" fill="#74BBFB"/><path d="M75.75 260.181a.44.44 0 0 1-.425-.324.44.44 0 0 1 .207-.494 7.033 7.033 0 0 1 7.402 0 .427.427 0 0 1 .197.283.437.437 0 0 1-.696.435 6.173 6.173 0 0 0-6.466 0 .436.436 0 0 1-.218.1ZM83.73 258.576a.437.437 0 0 1-.437-.438c0-.127 0-3.142 1.377-4.284a.435.435 0 0 1 .694.212.44.44 0 0 1-.139.467c-.874.726-1.062 2.844-1.058 3.596a.437.437 0 0 1-.437.438v.009Z" fill="#30262A"/><g filter="url(#a)"><path d="M574.527 347.053a19.219 19.219 0 0 1-5.626 13.591 19.2 19.2 0 0 1-13.58 5.628H426.316a19.188 19.188 0 0 1-13.575-5.628 19.225 19.225 0 0 1-5.626-13.586v-53.437a2.865 2.865 0 0 1 2.327-2.799 2.851 2.851 0 0 1 1.302.056 12.543 12.543 0 0 0 10.82-2.085 12.562 12.562 0 0 0 5.011-9.821 12.577 12.577 0 0 0-4.656-9.995 12.546 12.546 0 0 0-10.738-2.472 3.304 3.304 0 0 1-2.805-.621 3.305 3.305 0 0 1-1.256-2.587v-45.363c0-5.097 2.023-9.985 5.623-13.589a19.194 19.194 0 0 1 13.578-5.629h51.15a2.575 2.575 0 0 1 2.216 1.235 2.578 2.578 0 0 1 .088 2.537 12.58 12.58 0 0 0 5.454 17.207 12.546 12.546 0 0 0 16.64-5.241 12.586 12.586 0 0 0-.033-12.071 2.484 2.484 0 0 1 2.186-3.667h51.303a19.195 19.195 0 0 1 17.74 11.864 19.227 19.227 0 0 1 1.462 7.354v129.119Z" fill="#fff"/></g><path d="M429.914 365.902h24.964c1.674-6.192 3.222-11.692 4.503-16.028 1.626-5.536 2.807-9.189 3.217-9.951 1.644-3.063-4.669-12.458-9.893-15.315a10.19 10.19 0 0 0-2.907-1.116c-3.227-.634-5.443 1.204-7.537 3.803-1.548 1.925-4.744 3.5-7.467 7.754a23.38 23.38 0 0 0-2.156 4.323 191.683 191.683 0 0 0-6.702 21.441 4.115 4.115 0 0 0 .752 3.514 4.104 4.104 0 0 0 3.226 1.575Z" fill="#D6D6D6"/><path d="M440.543 365.902h89.273s3.594-12.751 2.894-18.711a135.49 135.49 0 0 0-1.128-7.819 92.513 92.513 0 0 0-.979-4.936 9.544 9.544 0 0 0-.319-1.125 5.913 5.913 0 0 0-1.041-1.881c-3.628-4.275-11.9 1.689-14.558-3.965 0 0-4.595-10.388-16.827-15.315a34.107 34.107 0 0 0-6.265-1.842 41.6 41.6 0 0 0-12.643-.407l-1.211.14h-.035l-1.233.158c-9.806 1.282-21.051 4.082-26.668 13.293a23.55 23.55 0 0 0-2.96 7.771c-.7 3.501-1.443 7.089-2.186 10.844-1.447 7.176-2.903 14.956-4.114 23.795Z" fill="#BF0830"/><path d="m544.156 330.659-25.462 17.63s-45.712 6.66-58.058 2.07c-14.113-5.251-27.39-16.593-27.39-16.593s9.155-20.194 43.281-23.66c3.966-.402 18.638.193 22.515.779 35.155 5.343 45.114 19.774 45.114 19.774Z" fill="#BF0830"/><path d="M544.155 330.659c1.609 2.477.035 9.662-8.503 14.878-8.538 5.216-15.061 6.358-16.954 2.774-1.425-2.7 2.265-11.99 10.401-16.781 8.381-4.962 13.907-2.634 15.056-.871Z" fill="#30262A"/><path d="M522.261 350.337c.712.954 3.611 6.901 7.546 15.565h24.841a4.694 4.694 0 0 0 4.683-4.364 4.698 4.698 0 0 0-.412-2.287 191.402 191.402 0 0 0-7.126-14.003c-3.428-6.056-5.299-8.939-7.214-10.987a19.943 19.943 0 0 0-1.053-1.046 7.158 7.158 0 0 0-1.557-1.076c-3.2-1.663-7.978-1.405-11.703 1.15a9.348 9.348 0 0 0-.534.381c-3.239 2.481-6.522 8.047-7.607 12.213-.489 1.969-.52 3.57.136 4.454Z" fill="#D6D6D6"/><path d="m461.768 302.252.122-.381c-.044 0-4.297-1.4-5.303-4.45-.52-1.584-.083-3.356 1.312-5.251.651-.902 1.25-1.715 1.801-2.459 3.781-5.137 5.198-7.058 4.603-11.539l-.393.052c.573 4.324-.713 6.07-4.529 11.25-.551.744-1.15 1.558-1.802 2.46-1.464 2.026-1.923 3.938-1.359 5.631 1.058 3.225 5.368 4.63 5.548 4.687Z" fill="#30262A"/><path d="M464.097 278.181s.993 6.944-4.066 13.753c-5.058 6.808-.529 12.4 5.802 10.112 6.33-2.289 8.079 5.688 16.233 1.973 8.153-3.715-17.969-25.838-17.969-25.838Z" fill="#30262A"/><path d="m490.766 304.913-3.498-10.117-1.01-2.936-5.932-17.271-.057 17.428-.031 10.463v2.98c.062 4.012-3.794 4.726-3.794 4.726-1.434 1.986-4.049 6.064 1.106 8.147 6.059 2.446 16.993-1.982 21.033-7.509-.013 0-6.707-2.682-7.817-5.911Z" fill="#D6D6D6"/><path d="M487.321 294.511c0 .092-.022.188-.039.284-.831 5.557-6.995 7.715-6.995 7.715l-.035-.031.03-10.462c1.88-.53 4.53-1.024 5.994-.158.77.451 1.207 1.295 1.045 2.652Z" fill="#A6A6A6"/><path d="M463.075 276.089c.835-11.096 8.796-19.542 17.785-18.863 8.988.678 15.594 10.221 14.759 21.318-.835 11.097-8.796 19.542-17.784 18.864-8.989-.678-15.595-10.235-14.76-21.319Z" fill="#D6D6D6"/><path d="M493.215 281.397c-1.976 1.619-4.569 1.606-5.789-.031-1.219-1.636-.607-4.284 1.369-5.907 1.976-1.624 4.568-1.61 5.788.03 1.22 1.641.608 4.284-1.368 5.908Z" fill="#D6D6D6"/><path d="M469.606 289.654c3.78.275 7.58-.059 11.254-.989 0 0 .048 5.518-5.999 5.43-3.519-.065-5.255-4.441-5.255-4.441Z" fill="#1A2578"/><path d="M469.606 289.654s1.26 1.216 4.399 1.44c3.139.223 6.855-2.429 6.855-2.429s-6.838 1.326-11.254.989Z" fill="#fff"/><path d="M477.759 277.376a.362.362 0 0 1-.231-.236.375.375 0 0 1 .023-.284.37.37 0 0 1 .217-.184 4.019 4.019 0 0 1 4.713 1.43.377.377 0 0 1-.052.526.412.412 0 0 1-.525-.053 6.32 6.32 0 0 0-3.935-1.19.376.376 0 0 1-.21-.009ZM480.378 281.668c-.035.876-.59 1.584-1.228 1.554-.638-.031-1.132-.766-1.097-1.654.035-.888.59-1.58 1.232-1.554.643.027 1.133.771 1.093 1.654ZM464.405 278.312a.366.366 0 0 1-.39-.403.373.373 0 0 1 .132-.253 4.02 4.02 0 0 1 4.896-.473.377.377 0 0 1 .153.504.404.404 0 0 1-.503.153 6.333 6.333 0 0 0-4.07.389.382.382 0 0 1-.218.083ZM468.461 281.283c.302.832.057 1.685-.551 1.904-.608.219-1.338-.28-1.639-1.112-.302-.831-.057-1.689.551-1.907.607-.219 1.337.297 1.639 1.115Z" fill="#080435"/><path d="M473.677 260.337s-.175 7.001 8.433 8.839 14.331 5.981 12.679 12.164c-1.653 6.183-16.64 18.138-6.716 23.953 9.924 5.815 8.438-3.746 19.446-.722 11.009 3.024 14.148-11.758 7.109-21.003-7.039-9.246-2.186-31.943-31.123-33.099-28.938-1.155-20.111 22.676-20.111 22.676s9.719-5.111 10.283-12.808Z" fill="#30262A"/><path d="M490.954 306.802c-2.103-1.037-3.34-2.446-3.672-4.178-.914-4.77 5.058-11.425 10.33-17.293 1.386-1.545 2.698-3.002 3.869-4.402 3.244-3.882 3.852-8.564 1.622-12.524-2.448-4.34-7.567-6.484-13.36-5.592-5.793.893-9.592-.595-11.773-1.995a10.62 10.62 0 0 1-3.402-3.304l.206-.114c.039.066 4.039 6.857 14.93 5.181 5.897-.91 11.109 1.278 13.605 5.689 2.243 3.986 1.613 8.887-1.648 12.79-1.172 1.4-2.484 2.862-3.874 4.406-5.246 5.829-11.165 12.436-10.274 17.092.324 1.68 1.482 2.993 3.546 4.013l-.105.231Z" fill="#fff"/><path d="M462.838 291.12c-2.374-1.085-4.324-3.938-5.202-7.658-1.434-6.051.38-12.519 4.044-14.44a4.677 4.677 0 0 1 4.258-.1c2.374 1.085 4.323 3.938 5.202 7.649 1.434 6.038-.38 12.519-4.044 14.439a4.635 4.635 0 0 1-2.544.547 5.086 5.086 0 0 1-1.714-.437Zm7.594-14.353c-.826-3.5-2.623-6.169-4.809-7.163a4.026 4.026 0 0 0-3.62.075c-3.393 1.75-5.036 7.876-3.672 13.613.826 3.5 2.623 6.169 4.809 7.167a4.054 4.054 0 0 0 3.615-.074c3.393-1.777 5.041-7.877 3.677-13.618Z" fill="#1A2578"/><path opacity=".3" d="M490.246 274.173c.874 5.837-1.679 11.841-5.683 13.407-4.005 1.567-7.988-1.89-8.862-7.723-.874-5.833 1.679-11.815 5.683-13.407 4.005-1.593 7.988 1.89 8.862 7.723ZM471.25 277.083c.875 5.863-1.338 11.98-4.94 13.665-3.602 1.685-7.24-1.702-8.114-7.561-.875-5.859 1.338-11.981 4.94-13.666 3.602-1.684 7.24 1.702 8.114 7.562Z" fill="#fff"/><path d="M479.128 287.252c-2.409-1.405-4.114-4.293-4.674-7.924-.962-6.236 1.854-12.69 6.282-14.37a5.996 5.996 0 0 1 5.282.437c2.404 1.4 4.1 4.288 4.656 7.912.966 6.248-1.85 12.689-6.283 14.369a5.924 5.924 0 0 1-2.623.412 6.197 6.197 0 0 1-2.64-.836Zm1.862-21.621c-4.118 1.576-6.728 7.667-5.819 13.565.52 3.365 2.138 6.126 4.324 7.413a5.4 5.4 0 0 0 4.643.38c4.122-1.575 6.732-7.666 5.823-13.564-.516-3.361-2.129-6.126-4.311-7.404a5.28 5.28 0 0 0-4.66-.394v.004Z" fill="#1A2578"/><path d="M470.324 279.174a.67.67 0 0 0 .437-.127c.079-.057 1.937-1.313 4.918-.494a.7.7 0 0 0 .835-.473.654.654 0 0 0-.063-.514.668.668 0 0 0-.413-.313c-3.594-1.037-5.955.617-6.06.683a.673.673 0 0 0-.153.945.659.659 0 0 0 .499.293Z" fill="#1A2578"/><path d="M555.928 0h-129.01a19.192 19.192 0 0 0-13.575 5.627 19.226 19.226 0 0 0-5.626 13.587v45.363a3.315 3.315 0 0 0 1.256 2.587 3.309 3.309 0 0 0 2.806.625 12.548 12.548 0 0 1 10.752 2.463 12.586 12.586 0 0 1 4.664 10.004 12.575 12.575 0 0 1-5.02 9.83 12.56 12.56 0 0 1-10.833 2.076 2.855 2.855 0 0 0-3.629 2.743v53.433a19.234 19.234 0 0 0 5.624 13.589 19.202 19.202 0 0 0 13.577 5.629h49.455a2.852 2.852 0 0 1 2.828 2.971c-.013.526.005 1.052.052 1.575a12.579 12.579 0 0 0 4.296 8.281 12.554 12.554 0 0 0 17.292-.843 12.577 12.577 0 0 0 3.472-8.659v-.573a2.59 2.59 0 0 1 2.566-2.752h49.057c5.093 0 9.977-2.025 13.579-5.629a19.232 19.232 0 0 0 5.626-13.589V19.214a19.223 19.223 0 0 0-11.859-17.755A19.182 19.182 0 0 0 555.928 0Z" fill="#F5F6FC"/><path d="M486.121 188.852h-.725a12.888 12.888 0 0 1-8.144-3.567 12.908 12.908 0 0 1-3.901-7.994 13.23 13.23 0 0 1-.052-1.605 2.676 2.676 0 0 0-.177-1.044 2.67 2.67 0 0 0-.571-.891 2.51 2.51 0 0 0-1.823-.77h-49.45a19.476 19.476 0 0 1-13.756-5.712 19.508 19.508 0 0 1-5.707-13.769v-53.449a3.053 3.053 0 0 1 1.215-2.464 3.12 3.12 0 0 1 2.741-.534 12.289 12.289 0 0 0 14.176-6.271 12.317 12.317 0 0 0-3.214-15.176 12.293 12.293 0 0 0-10.525-2.418 3.56 3.56 0 0 1-4.015-1.917 3.594 3.594 0 0 1-.357-1.549V24.36a19.51 19.51 0 0 1 5.709-13.766 19.477 19.477 0 0 1 13.755-5.71h129.009a19.472 19.472 0 0 1 13.753 5.71 19.508 19.508 0 0 1 5.706 13.766v129.12a19.516 19.516 0 0 1-5.707 13.77 19.481 19.481 0 0 1-13.757 5.715h-49.082a2.244 2.244 0 0 0-1.649.704 2.4 2.4 0 0 0-.655 1.751v.582c0 3.401-1.35 6.663-3.752 9.068a12.81 12.81 0 0 1-9.058 3.761l.013.022ZM404.932 97.46a2.621 2.621 0 0 0-1.587.543 2.546 2.546 0 0 0-1.006 2.048v53.432a18.987 18.987 0 0 0 5.552 13.399 18.955 18.955 0 0 0 13.387 5.557h49.45a3.048 3.048 0 0 1 2.186.927 3.168 3.168 0 0 1 .874 2.315 12.98 12.98 0 0 0 .053 1.54 12.384 12.384 0 0 0 3.74 7.669 12.366 12.366 0 0 0 7.81 3.424 12.285 12.285 0 0 0 9.137-3.347 12.31 12.31 0 0 0 3.848-8.945v-.56a2.941 2.941 0 0 1 .8-2.153 2.774 2.774 0 0 1 2.028-.875h49.061a18.957 18.957 0 0 0 13.389-5.559 18.99 18.99 0 0 0 5.554-13.401V24.359a18.988 18.988 0 0 0-5.548-13.388 18.955 18.955 0 0 0-13.373-5.563H421.278a18.95 18.95 0 0 0-13.387 5.557 18.986 18.986 0 0 0-5.552 13.399V69.73a3.04 3.04 0 0 0 1.152 2.386 3.031 3.031 0 0 0 2.586.568 12.807 12.807 0 0 1 12.558 4.055 12.833 12.833 0 0 1-7.597 21.105 12.808 12.808 0 0 1-5.407-.28 2.75 2.75 0 0 0-.699-.105Z" fill="#30262A"/><path d="M477.692 103.91s-2.361-10.545 2.772-16.925c5.132-6.38 21.662-14.26 18.436-23.31-3.227-9.049-14.388-10.134-18.86-5.758-4.473 4.376-1.972 9.128-4.989 9.718-3.016.591-20.547 1.423-19.275-8.65 1.272-10.073 12.512-24.115 27.481-24.588 14.97-.472 34.875-.271 39.198 19.254 4.324 19.524-3.06 27.182-13.644 32.218-10.584 5.037-5.662 16.479-9.505 18.05-3.842 1.571-21.159 3.4-21.614-.009ZM473.919 123.553c1.15-8.073 5.863-13.127 13.116-13.127 7.253 0 13.259 3.719 15.078 13.039 1.39 7.107-7.843 13.18-15.078 13.18-7.236 0-14.148-5.933-13.116-13.092Z" fill="#BF0830"/><path d="M481.377 106.772c-2.763 0-5.154-.271-6.361-.971a1.467 1.467 0 0 1-.826-1.041 29.19 29.19 0 0 1-.538-6.087c.044-3.15.66-7.6 3.331-10.918 1.592-1.982 4.28-4.104 7.122-6.353 6.33-5.006 13.505-10.677 11.297-16.86a12.11 12.11 0 0 0-8.884-7.876c-3.764-.875-7.611 0-9.806 2.14-2.343 2.306-2.745 4.66-3.06 6.563-.276 1.62-.49 2.897-1.976 3.19-2.575.503-13.076.989-17.488-3.146-1.556-1.453-2.186-3.343-1.906-5.614 1.277-9.981 12.386-24.194 27.574-24.67 7.572-.241 16.267-.29 23.608 2.13 8.612 2.831 13.74 8.454 15.673 17.188 2.024 9.12 1.617 16.19-1.238 21.603-2.334 4.429-6.177 7.737-12.459 10.72-6.558 3.116-7.122 8.752-7.542 12.866-.258 2.555-.468 4.577-1.967 5.189-2.125.888-9.076 1.947-14.554 1.947Zm2.208-50.605c1.002 0 2.001.114 2.977.341a12.332 12.332 0 0 1 9.028 7.973c2.251 6.314-4.98 12.033-11.367 17.065-2.833 2.24-5.513 4.376-7.091 6.323-2.623 3.273-3.244 7.68-3.288 10.795a29.002 29.002 0 0 0 .534 6.047 1.275 1.275 0 0 0 .725.902c3.38 1.96 17.142.503 20.762-.98 1.395-.569 1.592-2.534 1.845-5.028.437-4.157 1.006-9.854 7.655-13.018 6.239-2.971 10.056-6.248 12.368-10.637 2.833-5.374 3.231-12.397 1.224-21.472-4.14-18.684-22.353-19.69-39.101-19.162-15.088.473-26.118 14.59-27.386 24.505a6.008 6.008 0 0 0 .23 2.959 6.008 6.008 0 0 0 1.615 2.489c4.372 4.078 14.755 3.592 17.313 3.093 1.346-.267 1.547-1.426 1.818-3.032.306-1.816.731-4.31 3.122-6.66 1.661-1.628 4.241-2.503 7.017-2.503ZM483.602 137.586a14.127 14.127 0 0 1-10.558-4.787 10.509 10.509 0 0 1-2.623-8.437h.101-.101c1.18-8.266 6.121-13.197 13.199-13.197 8.136 0 13.522 4.66 15.179 13.127.476 2.438-.258 4.923-2.125 7.194-2.973 3.588-8.328 6.1-13.072 6.1Zm0-26.224c-3.497 0-6.514 1.208-8.744 3.501-2.229 2.292-3.672 5.544-4.24 9.53a10.318 10.318 0 0 0 2.588 8.283 13.95 13.95 0 0 0 10.414 4.717c4.673 0 9.981-2.481 12.901-6.034 1.827-2.218 2.549-4.651 2.085-7.032-1.652-8.362-6.973-12.965-15.004-12.965Z" fill="#30262A"/><path d="M362.225 291.315a12.66 12.66 0 0 1-2.784-.306 1.75 1.75 0 0 0-2.108 1.72v54.324a19.218 19.218 0 0 1-11.856 17.757 19.187 19.187 0 0 1-7.349 1.462H209.132a19.186 19.186 0 0 1-13.577-5.626 19.23 19.23 0 0 1-5.624-13.588v-53.437a2.862 2.862 0 0 1 1.132-2.271 2.865 2.865 0 0 1 2.492-.472 12.541 12.541 0 0 0 10.833-2.076 12.563 12.563 0 0 0 5.02-9.83 12.576 12.576 0 0 0-4.664-10.004 12.54 12.54 0 0 0-10.752-2.463 3.304 3.304 0 0 1-2.807-.619 3.3 3.3 0 0 1-1.254-2.589v-45.363a19.226 19.226 0 0 1 5.624-13.589 19.19 19.19 0 0 1 13.577-5.629h51.151a2.58 2.58 0 0 1 2.304 3.772 12.59 12.59 0 0 0 .515 12.785 12.57 12.57 0 0 0 11.437 5.715 12.554 12.554 0 0 0 10.141-6.534 12.575 12.575 0 0 0-.033-12.071 2.484 2.484 0 0 1 2.186-3.667h51.304a19.187 19.187 0 0 1 13.577 5.629 19.227 19.227 0 0 1 5.624 13.589v47.359a1.273 1.273 0 0 0 1.051 1.356c.207.037.419.022.619-.044a12.692 12.692 0 0 1 4.463-.358c5.71.551 10.886 5.894 11.284 11.617a12.577 12.577 0 0 1-3.341 9.454 12.554 12.554 0 0 1-9.189 3.997Z" fill="#BF0830"/><path d="M335.107 365.993H223.341c.695-6.327 1.578-12.374 2.693-17.91.743-3.697 1.587-7.167 2.549-10.335.113-.39.236-.779.363-1.155a66.323 66.323 0 0 1 1.206-3.47s4.083-16.191 30.603-21.678a54.235 54.235 0 0 1 1.819-.354h.114c.826-.149 1.67-.28 2.535-.412l.577-.078c.437-.066.896-.127 1.36-.184h.118a90.526 90.526 0 0 1 5.478-.503c1.045-.066 2.112-.119 3.209-.154h.048c1.035-.035 2.096-.055 3.183-.061h.266c2.332 0 4.565.075 6.698.223a74.44 74.44 0 0 1 3.865.377c2.547.307 5.074.773 7.563 1.396 12.499 3.159 20.985 9.994 26.9 20.019a67.423 67.423 0 0 1 5.88 13.402c2.051 6.21 3.554 13.202 4.739 20.877Z" fill="#BF0830"/><path d="M343.322 365.993H206.011a5.537 5.537 0 0 1-5.462-4.702 5.551 5.551 0 0 1 .216-2.584c4.809-14.488 19.389-42.882 60.445-48.002a89.774 89.774 0 0 1 4.341-.437c1.662-.135 3.365-.232 5.111-.293.704-.022 1.408-.053 2.116-.084l3.209-.153h.048c1.097-.052 2.186-.105 3.309-.135 2.103-.062 4.211-.062 6.318.078l.559.035c1.281.092 2.54.206 3.782.35 1.472.167 2.916.366 4.333.6.467.079.926.149 1.385.236.46.088.936.18 1.395.28 30.887 6.301 44.895 25.59 49.166 51.341a2.983 2.983 0 0 1-.676 2.422 2.989 2.989 0 0 1-2.284 1.048Z" fill="#1A2578"/><path d="M286.544 317.554c-7.292 2.542-15.992-1.09-21.02-7.286.044 0 6.995-2.888 8.185-6.712l2.784-8.997.053-.17.826-2.678 1.067-3.453 6.282-20.273.827 20.164.31 7.565v.105l.179 4.442v.77l.123 3.063c.104 2.625 1.831 5.251 3.79 5.968.035-.008 1.242 5.86-3.406 7.492Z" fill="#fff"/><path d="M286.077 301.013a15.3 15.3 0 0 1-9.579-6.463l-.122-.196c.059.005.117.014.175.026.979.144 5.897.875 9.312 1.313v.105l.179 4.441v.438l.035.336ZM303.359 261.793a26.64 26.64 0 0 1 0 11.062c-1.277 6.157-7.533-8.97-7.533-8.97l7.533-2.092Z" fill="#30262A"/><path d="M289.082 298.51c9.858-1.296 16.585-11.992 15.024-23.891-1.561-11.899-10.818-20.495-20.677-19.199-9.858 1.295-16.585 11.992-15.024 23.891 1.561 11.899 10.818 20.494 20.677 19.199Z" fill="#fff"/><path d="m267.951 273.105 8.714-.906a6.345 6.345 0 0 0 4.708-2.858c1.784-2.796 3.935-4.231 12.062-3.938 10.296.385 17.094-5.758 18.204-11.149 1.137-5.5-4.131-9.233-9.303-6.607-5.172 2.625-2.951-3.812-7.922-4.494-9.29-1.278-11.03 5.894-18.641 5.657-9.972-.306-27.84 7.282-19.368 24.855l11.546-.56Z" fill="#30262A"/><path d="M287.2 276.067a.37.37 0 0 0 .166-.28.379.379 0 0 0-.015-.142.374.374 0 0 0-.18-.213.366.366 0 0 0-.137-.039 3.935 3.935 0 0 0-4.206 2.398.37.37 0 0 0 .166.49.406.406 0 0 0 .49-.167 6.22 6.22 0 0 1 3.497-1.991.4.4 0 0 0 .219-.056ZM285.639 280.754c.227.84.909 1.387 1.517 1.221.608-.167.918-.985.691-1.825-.228-.84-.91-1.387-1.522-1.221-.612.166-.94.994-.686 1.825ZM300.701 274.982a.256.256 0 0 0 .197-.179.437.437 0 0 0-.14-.495 2.548 2.548 0 0 0-1.956-.594 2.556 2.556 0 0 0-1.764 1.032.435.435 0 0 0 0 .512.28.28 0 0 0 .081.08c.032.02.069.033.107.039a.27.27 0 0 0 .214-.062 3.829 3.829 0 0 1 3.091-.359.257.257 0 0 0 .17.026ZM297.374 278.728c-.11.875.31 1.628.94 1.707.629.078 1.224-.561 1.311-1.423.088-.862-.31-1.632-.935-1.711-.625-.078-1.207.561-1.316 1.427Z" fill="#080435"/><path d="M256.405 273.677s6.02 13.001 14.554 13.955c0 0-6.899-9.907 7.647-15.945 0 0-13.356-2.101-22.201 1.99Z" fill="#30262A"/><path d="M268.442 280.854c1.823 1.16 4.144.779 5.18-.875 1.036-1.654.402-3.899-1.425-5.058-1.827-1.16-4.145-.784-5.185.848-1.041 1.633-.398 3.921 1.43 5.085ZM297.715 287.208a37 37 0 0 1-11.742.928s.9 5.688 7.104 4.55c3.607-.66 4.638-5.478 4.638-5.478Z" fill="#fff"/><path d="M301.23 246.964c-2.846 0-3.104-2.481-3.104-2.503a.386.386 0 0 1 .011-.162.397.397 0 0 1 .197-.249.403.403 0 0 1 .459.047.401.401 0 0 1 .141.285c.022.189.263 1.834 2.427 1.751a.41.41 0 0 1 .31.685.41.41 0 0 1-.284.129l-.157.017Z" fill="#BF0830"/><path d="m296.355 262.528-.07-.236c.109-.035 11.065-3.282 11.516-8.927.131-1.597-.136-2.656-.814-3.238-1.084-.936-3.06-.477-4.809-.07a27.74 27.74 0 0 1-.782.18l-.053-.241.779-.175c1.801-.438 3.842-.875 5.023.118.739.639 1.032 1.75.896 3.444-.192 2.415-2.282 4.761-6.042 6.791a32.941 32.941 0 0 1-5.644 2.354ZM274.78 251.081a24.364 24.364 0 0 1-3.283-.228l.031-.245c5.587.757 9.618-.538 12-1.75a13.47 13.47 0 0 0 3.896-2.862l.188.158c-.048.039-4.223 4.927-12.832 4.927ZM280.801 314.285s7.917-2.451 10.02-.552c2.103 1.899.555 10.611-3.086 11.377-3.642.766-10.541-8.725-6.934-10.825Z" fill="#fff"/><path d="M285.448 312.228s-10.335-3.654-12.35-7.312c-2.016-3.658-12.718 4.813-12.53 7.312.188 2.498 19.459 16.518 20.718 14.755 1.259-1.764 6.689-12.357 4.162-14.755Z" fill="#1A2578"/><path d="M285.448 312.228s1.548-3.838.804-5.92c0 0-.494-1.834 1.08-1.707s10.143 6.126 10.899 7.942c.757 1.816.875 10.405-1.888 11.036-2.763.63-9.452-8.581-10.239-9.491a2.534 2.534 0 0 1-.656-1.86Z" fill="#1A2578"/><path d="m284.062 323.618 5.88-1.855s.14.354.397 1.032c1.688 4.459 8.478 22.693 14.572 43.202h-20.272c1.027-19.564 1.538-37.658-.577-42.379Z" fill="#fff"/><path d="M287.669 325.307c-2.313 0-4.293-2.057-4.372-2.144l.275-.258s1.955 2.021 4.11 2.021h.057c2.12-.035 3.392-4.616 3.405-4.664l.363.1c-.052.202-1.359 4.906-3.764 4.945h-.074Z" fill="#30262A"/><path opacity=".3" fill-rule="evenodd" clip-rule="evenodd" d="M115.554 131.581a5.3 5.3 0 0 1-5.297-5.305 5.3 5.3 0 0 1 5.297-5.306 5.303 5.303 0 0 1 5.311 5.306 5.303 5.303 0 0 1-5.311 5.305Zm0 5.306c-5.856 0-10.595-4.751-10.595-10.611 0-5.861 4.739-10.612 10.595-10.612 5.87 0 10.609 4.751 10.609 10.612 0 5.86-4.739 10.611-10.609 10.611Z" fill="#FB5472"/><defs><filter id="a" x="395.115" y="190.716" width="191.411" height="191.556" filterUnits="userSpaceOnUse" color-interpolation-filters="sRGB"><feFlood flood-opacity="0" result="BackgroundImageFix"/><feColorMatrix in="SourceAlpha" values="0 0 0 0 0 0 0 0 0 0 0 0 0 0 0 0 0 0 127 0" result="hardAlpha"/><feOffset dy="4"/><feGaussianBlur stdDeviation="6"/><feComposite in2="hardAlpha" operator="out"/><feColorMatrix values="0 0 0 0 0 0 0 0 0 0 0 0 0 0 0 0 0 0 0.06 0"/><feBlend in2="BackgroundImageFix" result="effect1_dropShadow_428_20676"/><feBlend in="SourceGraphic" in2="effect1_dropShadow_428_20676" result="shape"/></filter></defs></svg>