<svg width="678" height="630" fill="none" xmlns="http://www.w3.org/2000/svg"><path opacity=".5" d="M327.5 566C467.504 566 581 449.146 581 305c0-144.146-113.496-261-253.5-261C187.496 44 74 160.854 74 305c0 144.146 113.496 261 253.5 261Z" stroke="#fff" stroke-width="88"/><path opacity=".2" d="M395.64 624.213c8.086 0 14.641-6.763 14.641-15.106 0-8.344-6.555-15.107-14.641-15.107-8.085 0-14.64 6.763-14.64 15.107 0 8.343 6.555 15.106 14.64 15.106Z" stroke="#BF0830" stroke-width="10"/><path opacity=".3" d="M57.5 186.478c4.142 0 7.5-3.465 7.5-7.739S61.642 171 57.5 171c-4.142 0-7.5 3.465-7.5 7.739s3.358 7.739 7.5 7.739Z" stroke="#74BBFB" stroke-width="5"/><path opacity=".3" d="M415.5 82.478c4.142 0 7.5-3.465 7.5-7.74 0-4.273-3.358-7.738-7.5-7.738-4.142 0-7.5 3.465-7.5 7.739s3.358 7.739 7.5 7.739Z" stroke="#FFDA32" stroke-width="5"/><g filter="url(#a)"><path fill-rule="evenodd" clip-rule="evenodd" d="M408.843 340.953c-15.82.16-25.81 5.08-25.94 24.3 0 1.64-.22 10.28 0 22.45.28 19.64.5 77.32.63 94.15.13 17.42 15.66 19.93 28.64 19.82 24.6-.21 127.4.12 168.73-.6 23.11-.4 23.14-9 23.44-22.29.26-11.6-.27-88.25-.44-112.09-.07-10.95.34-25.89-25.6-25.7-34.9.27-115-.59-169.42 0l-.04-.04Z" fill="#BF0830"/><path fill-rule="evenodd" clip-rule="evenodd" d="M385.584 356.803c18.94.69 205.77-.85 214.59-.82a.995.995 0 0 0 .89-.15.994.994 0 0 0 .406-.805.998.998 0 0 0-1.296-.955c-8.83 0-195.6 1.51-214.53.82a1.017 1.017 0 0 0-.461-.047.995.995 0 0 0-.868.955.998.998 0 0 0 1.259 1.002h.01Z" fill="#fff"/><path fill-rule="evenodd" clip-rule="evenodd" d="M475.493 325.643c-.25 2.44-1.93 5.91-1.26 8.52 1.24 4.8 4.54 5 4.24 7.74-.76 6.82 6.75 9.72 6.33 6.7-1-7.4-1.41-20.8-1.77-20.84-.36-.04-7.35-4.07-7.54-2.12Z" fill="#1D234C"/><path fill-rule="evenodd" clip-rule="evenodd" d="M480.993 336.103h2.87c.096 0 .187.038.255.105a.363.363 0 0 1 0 .509.36.36 0 0 1-.255.106h-2.929a.436.436 0 0 1-.281-.11.34.34 0 0 1-.109-.27.37.37 0 0 1 .38-.34h.069Z" fill="#FCE1CA"/><path fill-rule="evenodd" clip-rule="evenodd" d="M527.694 335.473c1.87-5 3-9.88 3-12.42a16.79 16.79 0 0 0-6.25-13.39c-2.91-2.52-7.89-5.28-17.58-4.67-7.1.44-16.08 4.61-20.57 10.28-1.51 1.91-3.68 4.84-3.34 16 .16 5 1 13.18 1.58 16.59.92 5.62 2.06 9.2 6.12 13.06a13.822 13.822 0 0 0 4.76 2.64l1.51.48c.14.07.3 11.57.25 11.66-.05.09-10.76 1.83-10.87 2.43-1.1 6.06 4.89 19 19.6 18.61 13.52-.39 22-13.3 23.41-22.19.07-.45-.12-.91-1.28-1.08-2.86-.41-4.58-.45-4.47-.52.11-.07-.33-21.51.17-25.69.45-3.85 2.58-8.24 3.92-11.83l.04.04Z" fill="#C6C6C6"/><path d="M511.673 357.753a.575.575 0 0 0-.41-.15.62.62 0 0 0-.4.18c-2.56 2.79-4.38 3.85-8.44 5a11.845 11.845 0 0 1-4.35.46.602.602 0 0 0-.41.14.596.596 0 0 0-.2.39.578.578 0 0 0 .139.415.573.573 0 0 0 .391.195h1a12.88 12.88 0 0 0 3.68-.54c4.26-1.16 6.28-2.34 9-5.28a.577.577 0 0 0 0-.81Z" fill="#1D234C"/><path fill-rule="evenodd" clip-rule="evenodd" d="M497.284 332.223a2.887 2.887 0 0 1-1.78-.48c-.67-.54-.73-2.27.06-2.6 1.35-.56 4.06-.26 5.43 0a15.416 15.416 0 0 1 6.77 2.51 2.005 2.005 0 0 1 .92 2.15 1.12 1.12 0 0 1-.367.579c-.179.151-.4.242-.633.261a4.438 4.438 0 0 1-1.78-.58 21.924 21.924 0 0 0-3.61-1.3 25.926 25.926 0 0 0-5-.52l-.01-.02ZM483.174 334.634s-.06-.66-.12-1.59 0-1.34 0-1.34a13.126 13.126 0 0 1 4.71-1.8c1.29-.24 1.87.12 2.13.6a1.645 1.645 0 0 1-.18 1.8c-.35.49-1.28.67-1.81.86-1.587.398-3.15.889-4.68 1.47h-.05Z" fill="#1D234C"/><path fill-rule="evenodd" clip-rule="evenodd" d="M490.754 353.103c-.12-.73-.26-1.89 1.58-3.61a6.885 6.885 0 0 1 3.84-1.29 7.333 7.333 0 0 1 3.66.88c.45.36 1.06 3.35-1.45 5.65a5.678 5.678 0 0 1-4.74 1.14 3.698 3.698 0 0 1-2.89-2.77Z" fill="#4F2F29"/><path fill-rule="evenodd" clip-rule="evenodd" d="M486.424 335.864a1.395 1.395 0 0 1 1.336.821 1.402 1.402 0 0 1-.98 1.946 1.401 1.401 0 0 1-1.696-1.367 1.376 1.376 0 0 1 .818-1.285c.165-.072.342-.112.522-.115ZM499.883 335.064a1.627 1.627 0 0 1 1.621 1.939 1.63 1.63 0 1 1-1.621-1.939Z" fill="#1D234C"/><path d="M491.663 346.933c.283.032.566.048.85.05a12.03 12.03 0 0 0 3.35-.51 4.24 4.24 0 0 0 1.23-.56.58.58 0 0 0 .21-.39.54.54 0 0 0-.12-.42.577.577 0 0 0-.8-.09 3.27 3.27 0 0 1-1.05.43c-.916.247-1.86.378-2.81.39a5.052 5.052 0 0 1-1.33-.15.883.883 0 0 1-.55-.34 1.116 1.116 0 0 1-.05-.6c.05-.318.12-.632.21-.94 0-.17.09-.34.12-.48a48.619 48.619 0 0 0 1-5.59.579.579 0 0 0-.93-.51.584.584 0 0 0-.21.39 44.952 44.952 0 0 1-1 5.47c0 .14-.07.3-.11.47a7.332 7.332 0 0 0-.23 1.05c-.074.43-.015.874.17 1.27a2.503 2.503 0 0 0 2.05 1.06ZM501.145 347.413a.568.568 0 0 0-.78.2c-1.17 2-3.13 3.32-6 4.08a16.17 16.17 0 0 1-4.06.51.577.577 0 0 0-.41.17.59.59 0 0 0-.16.4.572.572 0 0 0 .16.41.599.599 0 0 0 .41.16c1.451.005 2.896-.18 4.3-.55a10.434 10.434 0 0 0 6.71-4.6.562.562 0 0 0-.17-.78ZM504.874 337.313a6.155 6.155 0 0 0-3.918-2.81 6.144 6.144 0 0 0-4.742.88.582.582 0 0 0-.22.78.545.545 0 0 0 .34.27c.145.04.299.022.43-.05a4.888 4.888 0 0 1 4.64-.55 4.796 4.796 0 0 1 2.5 2.08.582.582 0 0 0 .35.26h.14a.608.608 0 0 0 .291-.08.569.569 0 0 0 .189-.78ZM489.574 337.033a.582.582 0 0 0 .37-.24.57.57 0 0 0 .1-.42.578.578 0 0 0-.24-.37 5.34 5.34 0 0 0-2.32-.87 3.74 3.74 0 0 0-2.7.57 3.348 3.348 0 0 0-1.2 1.93.564.564 0 0 0 .41.7h.14a.577.577 0 0 0 .56-.43c.1-.509.372-.968.77-1.3a2.571 2.571 0 0 1 1.9-.35c.638.074 1.248.3 1.78.66a.597.597 0 0 0 .43.12Z" fill="#1D234C"/><path fill-rule="evenodd" clip-rule="evenodd" d="M496.674 303.803c-1.88.64-10-3.44-14.08 2.75-1.61 2.45-3.88.59-6.22 6.21-1.51 3.6-2.76 4.59-3.57 7.06-1 3 2.34 5.88 2.07 8.75-.23 2.52 8.28 5.82 8.28 5.77-.16-2.64-.18-5.31-.16-5.36 3.7-10.3 7.19-12.65 10.87-15 .1-.07 3.63 7 7.48 9.15 3.18 1.78 7.57.92 9.65 4.71 4.26 7.72 5.17 8.15 9 7.21.12 0 4.35 8.48 3.71 11.74-.49 2.49-6.78 15.36-.24 15.83 4.38.32 5.16 2.21 7.94 2 5.14-.35 6.11-4.34 8.14-7 2.03-2.66 7.78-2.48 6.85-9.31-.92-6.67 2.79-6.63 1.27-10.33-2-4.84.76-6.26-3.24-11.23-2.26-2.8-3.64-2.36-4.54-5.95-1.29-5.16-7.27-6.82-9.49-11.68-1.77-3.91-3.84-5.65-9.84-6.81-6.28-1.22-7.33-4.81-13.6-3.85-5 .78-7.23 4.28-10.3 5.33l.02.01Z" fill="#1D234C"/><path fill-rule="evenodd" clip-rule="evenodd" d="M505.594 334.312c1.29 0 14.6.821 18.83.821a.358.358 0 0 1 .215.587.358.358 0 0 1-.215.122c-4.23 0-17.52-.849-18.81-.809a.36.36 0 0 1-.255-.615.36.36 0 0 1 .255-.106h-.02Z" fill="#FCE1CA"/><path fill-rule="evenodd" clip-rule="evenodd" d="M517.244 339.703a8.004 8.004 0 0 1 5.54-6.15c2.14-.62 5.67-.3 7.06 1.81a5.796 5.796 0 0 1 .56 3.94c-.49 2.78-2 4.41-4.28 6.07-.64.47-1.43.94-2.33 1.47-.25.14-6.2-6.35-6.55-7.14Z" fill="#C6C6C6"/><path d="M527.574 337.453a.546.546 0 0 0-.29-.32 4.48 4.48 0 0 0-5.3.85 4.07 4.07 0 0 0-.94 1.51.568.568 0 0 0 .482.744.568.568 0 0 0 .328-.064.61.61 0 0 0 .28-.33c.14-.399.369-.762.67-1.06l.18-.17c.131.364.288.719.47 1.06a3.856 3.856 0 0 0 2.75 2.08h.09a.576.576 0 0 0 .57-.48.574.574 0 0 0-.11-.42.534.534 0 0 0-.37-.23 2.657 2.657 0 0 1-1.93-1.5 7.234 7.234 0 0 1-.48-1.12 3.612 3.612 0 0 1 2.83.16.558.558 0 0 0 .75-.27.529.529 0 0 0 .02-.44Z" fill="#1D234C"/><path fill-rule="evenodd" clip-rule="evenodd" d="M496.044 332.053a7.076 7.076 0 0 0-1.68 2.36 6.56 6.56 0 0 0 1.16 7 6.198 6.198 0 0 0 8.14.41 6.622 6.622 0 0 0 1.58-1.67 7.175 7.175 0 0 0 .78-5.42 6.13 6.13 0 0 0-1.59-2.612 6.13 6.13 0 0 0-5.714-1.56 6.122 6.122 0 0 0-2.696 1.442l.02.05Zm.46.54a5.422 5.422 0 0 1 7.423.105 5.433 5.433 0 0 1 1.417 2.295 6.422 6.422 0 0 1-.7 4.83 5.634 5.634 0 0 1-1.41 1.47 5.471 5.471 0 0 1-7.2-.33 5.871 5.871 0 0 1-1-6.29 6.424 6.424 0 0 1 1.48-2.08h-.01Z" fill="#FCE1CA"/><path fill-rule="evenodd" clip-rule="evenodd" d="M489.834 336.043a4.713 4.713 0 0 1 4.4-.74.359.359 0 0 1 .191.437.363.363 0 0 1-.159.2.364.364 0 0 1-.252.043 3.996 3.996 0 0 0-3.7.58.336.336 0 0 1-.25.11.344.344 0 0 1-.25-.11.356.356 0 0 1-.105-.25.351.351 0 0 1 .105-.25l.02-.02Z" fill="#FCE1CA"/><path fill-rule="evenodd" clip-rule="evenodd" d="M481.754 333.243a5.995 5.995 0 0 0-1.44 2.18 6.422 6.422 0 0 0 1 6.46 4.652 4.652 0 0 0 5.187 1.366 4.67 4.67 0 0 0 1.603-1.006 6.763 6.763 0 0 0 2-6.28 5.505 5.505 0 0 0-1.49-2.621 5.499 5.499 0 0 0-2.65-1.439 5.343 5.343 0 0 0-4.23 1.34h.02Zm.45.56a4.573 4.573 0 0 1 1.704-.999 4.578 4.578 0 0 1 1.966-.191 4.75 4.75 0 0 1 3.56 3.55 6.001 6.001 0 0 1-1.79 5.55 4 4 0 0 1-5.77-.3 5.684 5.684 0 0 1-.88-5.75 4.997 4.997 0 0 1 1.21-1.86Z" fill="#FCE1CA"/><path fill-rule="evenodd" clip-rule="evenodd" d="M377.943 411.403c-.42.56-1.34.41-1.83.4-9.73-.12-11.31-4.39-12.72-6.21-2.38-3.07-2.43-3.2-2.85-3.76-3.75-5-7-3.27-5.78 0a23.613 23.613 0 0 0 1.88 3.58l.15.25a49.278 49.278 0 0 0-5.4-4.84 2.162 2.162 0 0 0-3 .33c-.76 1 .08 3 .56 3.93a30.42 30.42 0 0 0 1.8 3.23c-3.25-1.1-6.4-1.84-7.12-.76-1.47 2.2 3.81 5.9 11 9.77 4 2.18 8.15 5.13 9.9 5.18 5.2.18 8 .61 13.74.58 3.47 0 6.29.11 9 2.32.7.58 3.641 3.65 3.661 3.62-.3-.23 11.559-10.21 11.269-10.44-3.31-2.73-5.93-7.79-10.23-9.09a97.637 97.637 0 0 0-11.3-4.32 36.074 36.074 0 0 1-3.84-1.67c-4.64-2.24-5.89-2.58-6.57-2.3-1.33.54-1.25 4.59 2.09 6.59 2.16 1.3 3.87 2 4.93 2.53.49.26 1 .57.72 1.09l-.06-.01Z" fill="#C6C6C6"/><path d="M377.863 415.673a.563.563 0 0 0-.399-.2c-3.18-.22-6.231-.22-8.911-.22-1.63 0-3 0-4.18-.05a7.394 7.394 0 0 1-2.46-.37l-.41-.23a30.679 30.679 0 0 0-6.88-3 9.85 9.85 0 0 0-4.68 0 .634.634 0 0 0-.36.25.579.579 0 0 0 .61.87 8.628 8.628 0 0 1 4.14 0 29.382 29.382 0 0 1 6.6 2.92l.43.24c.956.37 1.976.544 3 .51 1.15.05 2.56.05 4.19.05 2.67 0 5.7 0 8.88.22a.585.585 0 0 0 .57-.53.558.558 0 0 0-.14-.46Z" fill="#939396"/><path fill-rule="evenodd" clip-rule="evenodd" d="M588.983 484.313c-.08-11.71-1.33-22-2.26-32.45-1.5-16.75-6.6-44.06-14.24-54-11-14.3-25.89-22.86-45.22-24.47-.62-.05-2.5 8.22-6.18 13.91-3.19 5-6.39 8.35-12.9 8.5-11.61.26-15.48-19.2-15.79-19.16-8.37 1-21.93 7.07-26 12.26-8.14 10.31-21.11 61.37-26.84 61.1-4.58-.22-30.42-35.1-32.32-34.78-4.86.83-17.61 13.07-18.37 15.69-.79 2.79 39.73 60.24 52.77 63 19.43 4.06 25-14.93 30.5-25.54.29-.56 2.49-5.24 2.64-4.42 1.67 8.68 3.23 37.65 3.23 37.65h37l42.52-.18s2.12 2.33 7 3.89 9.1 1.57 15.31-.7c8.71-3.19 9.17-12.85 9.11-20.25l.04-.05Z" fill="#1A2578"/><path fill-rule="evenodd" clip-rule="evenodd" d="M522.594 446.563c-2.32-5-5.88-8.17-7.59-10.27a20.386 20.386 0 0 1-4.17-7.87c-1.4-5-4.89-5.86-5.45-3.4-1.11 4.93 1.68 13.44.85 13.28a33.735 33.735 0 0 1-4.44-3.41c-2.28-1.89-4.76-4-5.7-4.78-6.23-5-8.77-8.6-12.45-8.59a8.448 8.448 0 0 0-3.21.92c-1-.65-2.3-1.24-3.74 0-1.75 1.51-.89 3.13.26 4.6.07.08-2.27 1.88-1 4.65.35.77 1.51 2.7 1.82 3.17.15.22-1.59 1.2-1 3.23.59 2.03 10.29 11.9 12.24 13.39a57.43 57.43 0 0 0 7.53 5.05 95.77 95.77 0 0 0 13.92 5.27c.19 0 8-10.84 12.11-15.24h.02Z" fill="#C6C6C6"/><path d="M497.683 438.073c-5.73-4.86-10.89-9.58-15.33-14l-.29-.29-.27-.24a.539.539 0 0 0-.58 0 .566.566 0 0 0-.23.77c.039.069.09.13.15.18l.12.12.3.291c4.47 4.47 9.65 9.209 15.39 14.079a.588.588 0 0 0 .37.14.564.564 0 0 0 .44-.2.567.567 0 0 0 .152-.44.59.59 0 0 0-.222-.41ZM479.053 428.134l-.29-.29a1.982 1.982 0 0 0-.26-.25.551.551 0 0 0-.59 0 .568.568 0 0 0-.22.77.664.664 0 0 0 .15.18l.4.4c4.4 4.47 9.5 9.2 15.16 14.07a.526.526 0 0 0 .76-.07.556.556 0 0 0 .139-.413.57.57 0 0 0-.06-.214.583.583 0 0 0-.139-.173c-5.59-4.83-10.67-9.57-15.05-14.01ZM479.482 435.884l-.25-.25a2.21 2.21 0 0 0-.23-.19.54.54 0 0 0-.57 0 .568.568 0 0 0-.24.77c.04.071.094.132.16.18l.09.09.25.24c3.45 3.36 7.31 6.82 11.46 10.3a.62.62 0 0 0 .37.13.612.612 0 0 0 .39-.21.587.587 0 0 0 .13-.41.631.631 0 0 0-.2-.39c-4.09-3.48-7.93-6.93-11.36-10.26Z" fill="#939396"/><path fill-rule="evenodd" clip-rule="evenodd" d="M548.813 494.233c-18.39-14.5-37.71-28.17-39.27-30-.41-.47 3.87-7.49 8.44-12.75 1.76-2 4.61-5.67 6.63-5.84 1.22-.1 24 14.14 27.08 16.27 1.78 1.21 12.18 8.08 18.2 12.34l-21.08 19.98Z" fill="#1A2578"/><path d="M570.223 473.763c-4.56-3.23-11.72-8-15.56-10.58l-.63-.42c-2.53-12-4.55-24.29-6.19-34.78a.608.608 0 0 0-.23-.37.57.57 0 0 0-.9.55c1.58 10.15 3.53 22.07 6 33.73l-.66-.44c-2.37-1.62-17.48-11.12-24.13-14.84a29.09 29.09 0 0 0-2.6-1.35 1.577 1.577 0 0 0-.71-.17 5.607 5.607 0 0 0-3 1.69 37.457 37.457 0 0 0-3.29 3.54l-.69.8a65.988 65.988 0 0 0-8.25 11.88c-.16.317-.278.653-.35 1a.758.758 0 0 0 .15.59c.78.92 5.54 4.48 12.75 9.85 7.21 5.37 24.51 18.73 34 26.2a.605.605 0 0 0 .36.13.766.766 0 0 0 .45-.22.57.57 0 0 0-.1-.8c-9.49-7.48-26.77-20.81-34-26.21-6.52-4.86-11.28-8.41-12.41-9.52.064-.19.137-.377.22-.56a65.117 65.117 0 0 1 8.08-11.61l.69-.81a37.782 37.782 0 0 1 3.18-3.43 4.847 4.847 0 0 1 2.31-1.4l.24.08c.46.2 1.3.63 2.48 1.29 6.63 3.72 21.68 13.18 24 14.79.43.3 1.36.92 2.64 1.77 3.84 2.57 11 7.35 15.55 10.57a.597.597 0 0 0 .43.1.578.578 0 0 0 .37-.24.562.562 0 0 0 .076-.448.574.574 0 0 0-.276-.362ZM440.563 451.543a.672.672 0 0 0-.469-.632.68.68 0 0 0-.881.762c.1 1.07.26 2.49.43 4 .31 2.75.62 5.6.61 6.71a.701.701 0 0 0 .68.69.673.673 0 0 0 .68-.68c0-1.16-.31-4.05-.62-6.85-.17-1.51-.33-2.93-.43-4Z" fill="#0D1446"/><path fill-rule="evenodd" clip-rule="evenodd" d="M475.284 462.153c0-.51-.46-5-.56-6.47-.22-3.61-.53-8.11-.52-13.25a.658.658 0 0 0-.194-.463.655.655 0 0 0-.466-.187.654.654 0 0 0-.463.188.645.645 0 0 0-.187.462c0 5.17.3 9.7.53 13.33.08 1.47.53 5.93.55 6.45a.63.63 0 0 0 .208.454.636.636 0 0 0 .472.166.657.657 0 0 0 .63-.68Z" fill="#0D1446"/><path fill-rule="evenodd" clip-rule="evenodd" d="M438.753 142.803c-15 .15-24.53 4.83-24.67 23.1 0 1.56-.2 9.77 0 21.35.26 18.66.48 73.51.6 89.5.12 16.56 14.89 18.95 27.22 18.85 23.4-.2 121.13.11 160.42-.57 22-.38 22-8.58 22.28-21.2.25-11-.25-83.9-.41-106.56-.07-10.41.32-24.62-24.34-24.43-33.19.25-109.29-.56-161.07 0l-.03-.04Z" fill="#BF0830"/><path fill-rule="evenodd" clip-rule="evenodd" d="M416.623 157.873c18 .65 195.62-.81 204-.78a.91.91 0 1 0 0-1.82c-8.39 0-186 1.43-204 .78a.91.91 0 0 0-.94.87.917.917 0 0 0 .88.95h.06Z" fill="#fff"/><path d="M434.443 153.213a3.54 3.54 0 1 1 3.491-3.54 3.534 3.534 0 0 1-3.491 3.54Zm0-5.83a2.286 2.286 0 0 0-2.15 1.379 2.287 2.287 0 0 0 .463 2.512 2.292 2.292 0 0 0 3.928-1.601 2.27 2.27 0 0 0-2.241-2.29Zm22.311 5.83a3.55 3.55 0 1 1 3.49-3.55 3.531 3.531 0 0 1-3.49 3.55Zm0-5.83a2.288 2.288 0 0 0-2.302 2.709 2.292 2.292 0 0 0 4.157.851c.252-.379.386-.824.385-1.28a2.272 2.272 0 0 0-.648-1.604 2.273 2.273 0 0 0-1.592-.676Zm-11 5.63a3.54 3.54 0 1 1 3.49-3.54 3.534 3.534 0 0 1-3.49 3.54Zm0-5.83a2.287 2.287 0 0 0-2.151 1.379 2.287 2.287 0 0 0 .464 2.512 2.292 2.292 0 0 0 3.927-1.601 2.27 2.27 0 0 0-2.24-2.29Z" fill="#fff"/><path fill-rule="evenodd" clip-rule="evenodd" d="M44.753 240.703c-15 .15-24.53 4.83-24.66 23.1 0 1.56-.21 9.77 0 21.35.27 18.66.48 73.51.6 89.51.13 16.55 14.9 18.95 27.23 18.84 23.39-.2 121.13.11 160.41-.57 22-.38 22-8.58 22.29-21.2.25-11-.26-83.9-.42-106.56-.07-10.4.32-24.62-24.33-24.43-33.19.26-109.3-.56-161.08 0l-.04-.04Z" fill="#BF0830"/><path fill-rule="evenodd" clip-rule="evenodd" d="M23.634 255.964c18 .65 194.66-1 203.06-1a.896.896 0 0 0 .84-.554.92.92 0 0 0-.84-1.266c-8.39 0-185 1.62-203 1a.912.912 0 0 0-.863.529.912.912 0 0 0 .793 1.291h.01Z" fill="#fff"/><path fill-rule="evenodd" clip-rule="evenodd" d="M128.003 246.003c-.18 4.06.5 5.87 2 11 .81 2.79-.74 4 .1 6 .71 1.77 1.86 2.81 2.39 5 1 4-.44 4.14.94 7a25.606 25.606 0 0 1 1.56 2.93c.56 1.84-.33 2.27-.78 2.4-1.291.338-2.61.559-3.94.66-4.32.35-8.73.51-13.07.56-2.108.08-4.219.026-6.32-.16.1-1.49.19-3.63.38-3.6a7.627 7.627 0 0 0 7.27-3.28 26.629 26.629 0 0 0 4-11.51c1-6.82 1.4-17.54 1.6-17.56a16.54 16.54 0 0 1 3.87.55v.01Z" fill="#1A2578"/><path fill-rule="evenodd" clip-rule="evenodd" d="M83.353 251.984a42.008 42.008 0 0 1-2.78-11.36 15.38 15.38 0 0 1 5.72-12.24c2.66-2.3 7.21-4.82 16.07-4.27 6.49.41 14.7 4.21 18.81 9.4 1.37 1.74 3.36 4.42 3 14.66a151.18 151.18 0 0 1-1.42 15.14c-.84 5.15-2.19 10.25-5.44 12.94a8.06 8.06 0 0 1-5.88 1.86 84.692 84.692 0 0 0 0 9.77c.27 1.39 2 2.35 4 3.24 2.69 1.19-4.69 16.87-12.89 16.32-15.22-1-18.8-13.5-20.4-19.14 0-.12 5.21.38 6.09-1.26.88-1.64-.86-20.45-1.32-24.27-.42-3.52-2.36-7.53-3.59-10.81l.03.02Z" fill="#C2C2C2"/><path fill-rule="evenodd" clip-rule="evenodd" d="M113.453 223.674c2.6.9 13 2.87 16.25 13.88a24.486 24.486 0 0 1 1.26 9.19c0 .32-4.46-.24-6.39-.63-6.36-1.28-7.56-1.34-14.25-3.57-.13-.05-.47-5-1.94-5.72-.33-.15-.39 1.46-.62 2.76a4.58 4.58 0 0 1-1 2.25c-3.76-.28-7.22-1.17-7.8-1-.85.24-3.16 6.6-4.61 8.7-1.18 1.72-2.86 3-4.41 3-.11 0-3.36 7-3.05 10.12.11 1 2.09 7.46 3.4 11.41a51.132 51.132 0 0 1 1.77 5.72c.18 1.69-1.55 1.54-2.2 1.54-6.82 0-24.46-2.63-24.57-3.39-.31-2.1-1.53-5.86.3-10.43 1.57-3.92 1.11-6.74 1-11.29-.11-4 4.53-9 4.81-10.79 1.36-8.54 6.23-9.08 7.89-12.07 1.44-2.57 1.73-5.59 4-7.76 4.23-4.12 10.61-9.32 21.14-6.36 4.62 1.29 6.17 3.45 9.06 4.44h-.04Z" fill="#1A2578"/><path fill-rule="evenodd" clip-rule="evenodd" d="M110.354 277.754a15.506 15.506 0 0 1-3.85-.7 13.795 13.795 0 0 1-6.41-3.57.64.64 0 0 0-.9.91 14.684 14.684 0 0 0 6.94 3.88c1.351.433 2.752.689 4.17.76a.624.624 0 0 0 .246-.04.63.63 0 0 0 .36-.332.643.643 0 0 0-.111-.703.636.636 0 0 0-.445-.205ZM108.233 248.553a2.064 2.064 0 0 0 1.52-.24c.61-.44.81-1.3.24-1.69a8.336 8.336 0 0 0-4.26-.79 6.997 6.997 0 0 0-4.29 1.3c-1.2.79-1.45 2.24-1 2.34a7.291 7.291 0 0 0 2-.56c.59-.16 1.192-.277 1.8-.35a17.262 17.262 0 0 1 4 0l-.01-.01ZM124.072 251.083s0-.56.06-.91v-1.06a13.124 13.124 0 0 0-4.61-1.74c-1.22-.23-1.64.05-1.77.33a1.464 1.464 0 0 0 0 1.53c.35.39.87.51 2.16.82 1.415.164 2.806.5 4.14 1l.02.03ZM113.402 252.923a17.746 17.746 0 0 0 1.18 4.38c.32.78.68 1.41.95 1.93.106.184.193.378.26.58a.409.409 0 0 1 0 .24.691.691 0 0 1-.31.39c-.275.175-.58.297-.9.36a5.828 5.828 0 0 1-2.11.09 1.74 1.74 0 0 1-.76-.24.638.638 0 0 0-.9.1.64.64 0 0 0 .1.9c.3.212.64.358 1 .43a6.994 6.994 0 0 0 3 0 2.61 2.61 0 0 0 2.16-1.73 2.19 2.19 0 0 0-.25-1.37c-.26-.55-.69-1.23-1.05-2.13a15.938 15.938 0 0 1-1.11-4.06.659.659 0 0 0-.72-.56.633.633 0 0 0-.534.47.64.64 0 0 0-.016.25l.01-.03ZM113.387 267.803a4.605 4.605 0 0 1-2.079.681c-1.344.225-2.975-.21-4.692-1.249-.125-.073-.24-.086-.32-.036-.079.05-.117.159-.105.303.016.147.079.315.176.47.097.155.222.285.347.363 1.869 1.131 3.646 1.607 5.111 1.368.846-.071 1.607-.322 2.262-.745a.213.213 0 0 0 .086-.116.448.448 0 0 0 .017-.188.924.924 0 0 0-.054-.231 1.35 1.35 0 0 0-.282-.448.912.912 0 0 0-.184-.149.468.468 0 0 0-.176-.066.217.217 0 0 0-.143.028l.036.015ZM120.073 251.983a1.75 1.75 0 1 0 1.74 1.75 1.748 1.748 0 0 0-.507-1.236 1.731 1.731 0 0 0-1.233-.514ZM105.622 251.153a2.001 2.001 0 0 0-1.591 3.361 2 2 0 0 0 3.461-1.361 1.906 1.906 0 0 0-.516-1.392 1.91 1.91 0 0 0-1.354-.608Z" fill="#1D234C"/><path fill-rule="evenodd" clip-rule="evenodd" d="M100.753 254.193c1.18-.69 1.68-1.5 3.15-2.06 1.93-.74 3.46-.42 4.6.85a.657.657 0 0 0 1.157-.38.66.66 0 0 0-.157-.48c-1.51-1.66-3.48-2.16-6-1.19-1.55.59-2.101 1.43-3.341 2.16a.64.64 0 1 0 .651 1.1h-.06ZM117.042 253.113a5.079 5.079 0 0 1 2.17-.72 2.758 2.758 0 0 1 3 1.92.639.639 0 0 0 .815.395.64.64 0 0 0 .395-.815 3.94 3.94 0 0 0-4.3-2.78 6.46 6.46 0 0 0-2.81.93.642.642 0 0 0-.279.407.629.629 0 0 0 .099.483.649.649 0 0 0 .89.18h.02Z" fill="#1D234C"/><path fill-rule="evenodd" clip-rule="evenodd" d="M93.522 255.174a8.612 8.612 0 0 0-5.69-6.33c-3.3-1.11-6.16.05-7.59 2.22a6 6 0 0 0-.56 4.06c.54 3.12 2.49 6.4 7.47 7.6.29.07 6-6.74 6.37-7.55Z" fill="#C2C2C2"/><path fill-rule="evenodd" clip-rule="evenodd" d="M89.493 255.014a3.7 3.7 0 0 0-.9-1.43 4.198 4.198 0 0 0-5-.81.638.638 0 0 0-.326.857.644.644 0 0 0 .369.334.652.652 0 0 0 .497-.031 3.192 3.192 0 0 1 2.18-.24c-.13.389-.297.764-.5 1.12a2.295 2.295 0 0 1-1.67 1.19.65.65 0 0 0-.304 1.154.632.632 0 0 0 .474.126 3.605 3.605 0 0 0 2.6-1.81 5.7 5.7 0 0 0 .55-1.19c.06.06.13.11.18.17.265.256.467.571.59.92a.645.645 0 0 0 1.23-.38l.03.02Z" fill="#1D234C"/><path fill-rule="evenodd" clip-rule="evenodd" d="M131.352 278.864a5.899 5.899 0 0 1-3.28-3.12 5.007 5.007 0 0 1-.06-2.39c.188-.924.319-1.86.39-2.8a3.32 3.32 0 0 0-1-2.36 6.902 6.902 0 0 1-1.67-2.5c-.33-1.11-.25-2.6.73-4.86a.42.42 0 0 0-.085-.484.418.418 0 0 0-.145-.096.455.455 0 0 0-.59.23 8.72 8.72 0 0 0-.9 4.88 5.602 5.602 0 0 0 1.43 2.77c.355.392.688.803 1 1.23.25.334.38.743.37 1.16a22.82 22.82 0 0 1-.38 2.69 5.924 5.924 0 0 0 .09 2.81 6.823 6.823 0 0 0 3.74 3.64.446.446 0 0 0 .37.064.44.44 0 0 0 .29-.238.443.443 0 0 0 .009-.375.448.448 0 0 0-.279-.251h-.03ZM107.913 223.903c-10.19-1-13 .7-15.74 4.42a6.586 6.586 0 0 1-3.7 2.56 18.24 18.24 0 0 0-4.92 2 5.79 5.79 0 0 0-2.49 4.21 25.187 25.187 0 0 1-.91 4.67 5.548 5.548 0 0 1-3.26 3.43c-1.33.7-2.64 1.49-3.53 4.52a19.226 19.226 0 0 0-.24 4.13 12.489 12.489 0 0 1-2.57 8.08c-1.2 1.48-1.33 3.29-1.14 5.33.27 2.82 1.15 6.08.09 9.4a.452.452 0 0 0 .633.538.44.44 0 0 0 .217-.268c.92-2.89.46-5.73.12-8.3-.31-2.37-.56-4.49.78-6.14a13.387 13.387 0 0 0 2.76-8.62c-.064-1.3.003-2.603.2-3.89.79-2.67 1.92-3.38 3.09-4a6.313 6.313 0 0 0 3.68-3.89 26.07 26.07 0 0 0 1-4.84 4.945 4.945 0 0 1 2.09-3.62 17.626 17.626 0 0 1 4.71-1.91 7.448 7.448 0 0 0 4.14-2.88c2.61-3.53 5.3-5 14.94-4.07a.441.441 0 1 0 .09-.88l-.04.02ZM124.752 243.903c.1-2.24-.25-4.69-1.65-6.29a6.877 6.877 0 0 0-2.83-1.77 23.023 23.023 0 0 1-3-1.2 2.423 2.423 0 0 1-1-1.17 17.316 17.316 0 0 1-.71-1.89 7.068 7.068 0 0 0-2-3.21 9.649 9.649 0 0 0-5.55-1.92.453.453 0 0 0-.48.4.46.46 0 0 0 .4.49 8.793 8.793 0 0 1 5.05 1.71 6.143 6.143 0 0 1 1.78 2.83c.26.71.46 1.4.75 2 .291.661.79 1.209 1.42 1.56 1.011.484 2.054.898 3.12 1.24.94.299 1.792.824 2.48 1.53 1.26 1.43 1.52 3.65 1.43 5.66a.452.452 0 0 0 .739.274.445.445 0 0 0 .151-.274l-.1.03Z" fill="#4C5A7B"/><path fill-rule="evenodd" clip-rule="evenodd" d="M107.542 229.594c-2.47.2-4.45 2.2-5.83 3.58s-3 1.19-4.41 1.18a4.883 4.883 0 0 0-2.68.53 2.998 2.998 0 0 0-1.23 1.72c-.28.86-.5 1.95-.9 3a3.91 3.91 0 0 1-1.74 2.2 7.526 7.526 0 0 0-3.93 5.8.451.451 0 0 0 .39.49.437.437 0 0 0 .327-.093.436.436 0 0 0 .163-.297 6.638 6.638 0 0 1 3.45-5.1 4.804 4.804 0 0 0 2.17-2.67c.41-1 .64-2.14.92-3 .52-1.61 1.71-1.63 3.06-1.63 1.65 0 3.51.1 5-1.44 1.26-1.26 3-3.14 5.28-3.32a.449.449 0 0 0 .4-.48.433.433 0 0 0-.306-.392.444.444 0 0 0-.174-.018l.04-.06Z" fill="#4C5A7B"/><path fill-rule="evenodd" clip-rule="evenodd" d="M108.084 223.014c-1.24 3.85-1.4 6.33-.05 9.94a.441.441 0 0 0 .717.169.456.456 0 0 0 .141-.309.447.447 0 0 0-.028-.17c-1.27-3.4-1.09-5.73.07-9.36a.447.447 0 0 0-.29-.56.43.43 0 0 0-.56.29Z" fill="#4C5A7B"/><path fill-rule="evenodd" clip-rule="evenodd" d="M185.474 324.504a33.62 33.62 0 0 0 1-3.58c.6-3 .6-5.1 1.28-6.93 1.1-2.95 2.46-4.93 3.13-8.2.94-4.54-1.18-9.62.9-10.38 1.33-.49 3.43 1.41 4.25 4.46.67 2.5.61 5.82 1 7.87.22 1.13 7.9 0 8.94.92 2 1.83 2.28 5 2.39 8.3.22 6.92-.9 10.79-3.21 12.44-1.64 1.17-4.54 4-7 5.65-.62.41-10.39-6.44-12.76-10.55h.08Z" fill="#C2C2C2"/><path fill-rule="evenodd" clip-rule="evenodd" d="M206.864 321.474c-3.43.17-8.47.49-11.94-.14a8.602 8.602 0 0 1-.25-1.35c-.08-.72-.15-1.43-.22-2.15a66.78 66.78 0 0 0 12.55.18.644.644 0 0 0 .56-.69.625.625 0 0 0-.69-.55 63.47 63.47 0 0 1-12.54-.22 66.14 66.14 0 0 1-.2-3.14c4.16.52 8.369.52 12.53 0a.641.641 0 0 0 .51-.73.632.632 0 0 0-.73-.5 49.03 49.03 0 0 1-12.32-.05c.02-.614.135-1.221.34-1.8a2.465 2.465 0 0 1 1.57-1.58.62.62 0 1 0-.36-1.19 3.637 3.637 0 0 0-2.37 2.32 7.844 7.844 0 0 0-.43 2.93c0 2.43.3 4.86.56 7.28.16 1.48.94 5.06 4.44 6.42 1.16.45 4.84.42 8.34.21a.63.63 0 0 0-.07-1.25c-3.28.21-6.73.3-7.82-.13a5.301 5.301 0 0 1-2.89-2.69c3.818.336 7.658.353 11.48.05a.624.624 0 0 0 .437-.206.637.637 0 0 0 .163-.454.618.618 0 0 0-.65-.57Z" fill="#111851"/><path fill-rule="evenodd" clip-rule="evenodd" d="M33.883 379.554c.07-9.72 1.1-18.29 1.88-26.94 1.24-13.9 6.2-36.06 11.81-44.8 9.78-15.22 20.2-18.55 36.06-20 .12 0 .49-.2.64.3a46.908 46.908 0 0 0 4.75 10.76c2.65 4.11 6.54 7.08 11.94 7.2 8 .65 11.09-7.28 12.94-15.32.17-.75.84-.51 1.18-.45 7 1.14 16.35 3.52 21.68 9.5 9.89 11.11 16.45 51.48 21.21 51.26 3.8-.18 25.25-29.13 26.83-28.87 4 .68 14.62 10.85 15.25 13 .63 2.15-34.55 50.6-43.81 52.27-16.22 2.93-20.72-12.4-25.32-21.2-.24-.47-2.06-4.35-2.19-3.67-2.17 11.31-3.07 30.74-3.12 30.74-1.36-.07-11.58-.07-33.09 0-20.14.08-31.88 0-31.91 0a16.901 16.901 0 0 1-19.17 2.91c-7-3.3-7.61-10.67-7.56-16.81v.12Z" fill="#EAEDF8"/><path fill-rule="evenodd" clip-rule="evenodd" d="M109.023 313.923c-1.77 0-2.94 1.06-3.31 3.1-1.36 7.54-6.29 31.43-8.48 42-.17.79-1.43 5.93-2.06 9.39-.32 1.75 1.39 3.43 3.58 3.57 7.75.47 25.17.76 33.32.78 3.92 0 4.85-2.57 5.28-4.47 1.84-8.06 5.47-24.51 6.18-27.74 1.05-4.78 3.14-16.27 4.18-22.36.4-2.39.16-4-2.36-4-7.29-.13-26.21-.47-36.33-.26v-.01Z" fill="#242B45"/><path fill-rule="evenodd" clip-rule="evenodd" d="M62.053 392.314c17.43-14.38 36.25-27.58 37.78-29.4.34-.39-3.21-6.22-7-10.58-1.45-1.67-3.83-4.71-5.5-4.85-1-.08-19.9 11.74-22.48 13.5-1.48 1-10.11 6.72-15.11 10.25l12.31 21.08Z" fill="#E9ECF8"/><path fill-rule="evenodd" clip-rule="evenodd" d="M89.004 348.243c1.93-4.11 4.88-6.78 6.3-8.53a16.995 16.995 0 0 0 3.46-6.53c1.16-4.17 4.06-4.86 4.52-2.82.92 4.09-1.39 11.15-.7 11a27.73 27.73 0 0 0 3.69-2.83c1.89-1.57 4-3.34 4.73-4 5.17-4.18 7.28-7.14 10.33-7.13a7.187 7.187 0 0 1 2.67.76 2.342 2.342 0 0 1 3.1 0c1.46 1.25.74 2.6-.22 3.82a3.405 3.405 0 0 1 .81 3.86c-.29.64-1.25 2.24-1.51 2.63-.12.19 1.32 1 .84 2.68-.48 1.68-8.55 9.89-10.16 11.12a47.76 47.76 0 0 1-6.25 4.19 78.977 78.977 0 0 1-11.56 4.38c-.16 0-6.68-9-10-12.65l-.05.05Z" fill="#C2C2C2"/><path fill-rule="evenodd" clip-rule="evenodd" d="m123.524 330.013-.09.09c-.83.82-5.27 5.36-13 11.94a.637.637 0 0 1-.475.147.645.645 0 0 1-.561-.455.65.65 0 0 1 .206-.692c7.72-6.55 12.13-11.05 13-11.87.074-.086.158-.163.25-.23a.593.593 0 0 1 .65 0c.074.04.14.094.193.16a.622.622 0 0 1 .141.471.629.629 0 0 1-.244.439h-.07ZM126.264 333.394l-.09.09c-.82.82-5.18 5.35-12.83 11.92a.664.664 0 0 1-.218.127.646.646 0 0 1-.692-.187.653.653 0 0 1 .07-.91c7.61-6.53 11.94-11 12.76-11.86a1.69 1.69 0 0 1 .25-.22.612.612 0 0 1 .66 0 .64.64 0 0 1 .09 1.06v-.02Zm-.68.08c.135.05.284.05.42 0a.685.685 0 0 1-.42 0ZM125.834 339.913l-.06.06c-.65.62-4.08 4-9.74 8.76a.638.638 0 0 1-1.047-.551.648.648 0 0 1 .227-.439c5.62-4.7 9-8.08 9.67-8.7l.21-.18a.593.593 0 0 1 .65 0 .642.642 0 0 1 .09 1.07v-.02Z" fill="#111851"/><path fill-rule="evenodd" clip-rule="evenodd" d="M100.183 361.784a54.678 54.678 0 0 0-6.88-9.9 40.875 40.875 0 0 0-3.31-3.62 5.114 5.114 0 0 0-2.62-1.45 1.572 1.572 0 0 0-.67.16 24.26 24.26 0 0 0-2.17 1.13c-5.45 3-18 10.91-20 12.32l-.21.14c2.13-10.25 3.81-20.79 4.88-27.61a.64.64 0 0 0-1.017-.611.643.643 0 0 0-.253.421c-1.11 7.08-2.88 18.2-5.14 28.83-3.15 2.1-9.41 6.28-13.38 9.09a.64.64 0 0 0 .257 1.155.65.65 0 0 0 .483-.105c5-3.54 13.62-9.24 15.1-10.25 2.06-1.4 14.53-9.23 19.95-12.26 1-.58 2-1 2.19-1.12a3.998 3.998 0 0 1 1.79 1.11 39.916 39.916 0 0 1 3.21 3.51c3.24 3.72 6.31 8.52 6.82 9.94-2.46 2.4-20.64 15.2-37.52 29.12a.66.66 0 0 0-.09.91.652.652 0 0 0 .91.08c17.42-14.41 36.24-27.65 37.81-29.46a.721.721 0 0 0 .18-.46 2.993 2.993 0 0 0-.32-1.07Z" fill="#D8DCEB"/><path fill-rule="evenodd" clip-rule="evenodd" d="M157.023 352.374c-.24 2.55-.89 7.54-.87 9a.64.64 0 1 0 1.28 0c0-1.44.64-6.36.87-8.87a.642.642 0 0 0-1.05-.555.649.649 0 0 0-.159.194.658.658 0 0 0-.071.241v-.01Z" fill="#111851"/><path d="M38.693 251.583a3.54 3.54 0 1 1 3.5-3.54 3.52 3.52 0 0 1-3.5 3.54Zm0-5.83a2.288 2.288 0 0 0-2.144 1.386 2.29 2.29 0 1 0 4.394.904 2.273 2.273 0 0 0-2.25-2.29Zm22.29 5.83a3.539 3.539 0 0 1-2.57-6.025 3.543 3.543 0 0 1 3.863-.79 3.54 3.54 0 0 1 2.197 3.275 3.531 3.531 0 0 1-3.49 3.54Zm0-5.83a2.286 2.286 0 0 0-2.15 1.379 2.288 2.288 0 0 0 2.965 3.031 2.287 2.287 0 0 0 1.425-2.12 2.269 2.269 0 0 0-2.24-2.29Zm-11 5.63a3.539 3.539 0 0 1-2.57-6.025 3.543 3.543 0 0 1 3.863-.79 3.54 3.54 0 0 1 2.197 3.275 3.519 3.519 0 0 1-3.44 3.54h-.05Zm0-5.83a2.286 2.286 0 0 0-2.15 1.379 2.288 2.288 0 0 0 2.965 3.031 2.287 2.287 0 0 0 1.425-2.12 2.27 2.27 0 0 0-2.19-2.29h-.05Z" fill="#fff"/><path fill-rule="evenodd" clip-rule="evenodd" d="M168.533 57.013c-15 .15-24.53 4.83-24.66 23.1 0 1.55-.21 9.77 0 21.35.26 18.66.48 73.5.6 89.5.13 16.56 14.89 19 27.22 18.85 23.4-.2 121.13.11 160.42-.57 22-.39 22-8.58 22.29-21.2.25-11-.26-83.9-.42-106.57-.07-10.4.32-24.61-24.34-24.42-33.18.25-109.29-.56-161.07 0l-.04-.04Z" fill="#39428A"/><path d="M164.752 67.314a3.54 3.54 0 1 1 3.49-3.54 3.527 3.527 0 0 1-3.49 3.54Zm0-5.83a2.288 2.288 0 0 0-2.302 2.705 2.294 2.294 0 0 0 1.787 1.827 2.288 2.288 0 0 0 2.755-2.242 2.267 2.267 0 0 0-2.24-2.25v-.04Zm22.29 5.83a3.549 3.549 0 0 1-2.591-6.038 3.549 3.549 0 0 1 6.081 2.488 3.532 3.532 0 0 1-3.49 3.55Zm0-5.83a2.293 2.293 0 0 0-2.152 1.38 2.283 2.283 0 0 0 .469 2.514 2.29 2.29 0 0 0 3.923-1.614 2.259 2.259 0 0 0-2.24-2.24v-.04Zm-10.95 5.63a3.54 3.54 0 1 1 3.49-3.54 3.52 3.52 0 0 1-1.002 2.514 3.528 3.528 0 0 1-2.488 1.066v-.04Zm0-5.83a2.294 2.294 0 0 0-2.151 1.378 2.295 2.295 0 0 0 .464 2.513 2.289 2.289 0 0 0 3.927-1.601 2.268 2.268 0 0 0-2.24-2.26v-.03Z" fill="#fff"/><path fill-rule="evenodd" clip-rule="evenodd" d="M146.423 72.073c18 .66 195.62-.81 204-.77a.909.909 0 0 0 .643-1.553.909.909 0 0 0-.643-.267c-8.39 0-186 1.43-204 .78a.91.91 0 1 0-.06 1.81h.06ZM182.004 179.104c-.07-.1 2 24.43 2.73 30.62h10.83l12.89-.06c0-.61-.23-15.76-.42-20.72 0-1-20.79-7.12-26-9.89l-.03.05ZM301.153 178.513c.07-.09-1.71 24.77-2.72 30.62 0 .21-23.72.37-23.72.37 0-.64.22-16.14.41-21.1 0-1 20.79-7.12 26-9.89h.03Z" fill="#fff"/><path fill-rule="evenodd" clip-rule="evenodd" d="M195.953 120.863c0-.41 8.85 22 9.9 28.65 2 12.54 2.43 59.88 2.58 60.16 0 .08 58.75 0 59-.18 2-2.05 4.54-34.72 5.67-44.92a158.624 158.624 0 0 1 7.41-32.71 47.824 47.824 0 0 1 4.88-10.69c.09-.15-9.86-7.78-20.21-9.68-15.52-2.86-53.79-2.52-69.19 9.37h-.04Z" fill="#BF0830"/><path fill-rule="evenodd" clip-rule="evenodd" d="M284.682 120.594a36.167 36.167 0 0 1 5.91 4.81c5.46 6.1 9.07 14.42 11.42 22.25 2.12 7.1 2.76 24 2.6 29.71-.06 2.09-.93 3.14-2.52 3.66-10.45 3.42-29.2 9-29.3 8.7-1.47-4.32-1-29.33 1.87-41 3-12.25 4.62-21 10-28.1l.02-.03Z" fill="#BF0830"/><path fill-rule="evenodd" clip-rule="evenodd" d="M228.613 89.313a35.025 35.025 0 0 1-1.11-11.29c.31-3.54 1.27-8.3 6.65-12 3-2.06 9.35-3.44 16.07-2.14 6.72 1.3 13.08 4.47 16.71 10.29 1.22 2 4.1 6.56 3.29 16.7a94.815 94.815 0 0 1-2.47 14.53c-1.46 5.2-4.75 11.64-8.23 14.07a7.649 7.649 0 0 1-3.28 1.24c-.9.091-1.806.118-2.71.08a43.407 43.407 0 0 0-.73 5.25c-.07.59-2.67 1.05-5.56.86-7.46-.51-17.63-4.81-17.31-7.51.79-6.54 1.88-15.74 1.87-18.24 0-3.67-2.3-8.34-3.18-11.86l-.01.02Z" fill="#fff"/><path fill-rule="evenodd" clip-rule="evenodd" d="M254.753 118.484a10.708 10.708 0 0 1-3.54-.62c-3.06-1-4.56-1.92-6.44-4.26a.64.64 0 1 0-1 .8c2.06 2.56 3.68 3.54 7 4.67 1.26.456 2.59.693 3.93.7a.653.653 0 0 0 .57-.645.651.651 0 0 0-.57-.645h.05Z" fill="#1D234C"/><path fill-rule="evenodd" clip-rule="evenodd" d="M274.193 74.843a10.136 10.136 0 0 1 .64 9.53c-1.53 3.15-3.94 5.44-4.53 5.4v-2.54c0-1.49 0-2.78-.18-2.77-4.75.16-5.85-6.13-6.31-6-1.08.34-1.61 4.11-7.5 2.52-3.44-.93-2.69.81-7 1-3.89.19-6-1.32-6.67-1.29-2.93.12-4.39 1.18-4.48 5.83 0 1.29-.15 4.54-.57 4.87-.18.14-1.27-2.2-4.4-3.14-2.76-.82-5 2.29-6.78 3.21-.09 0-5.73-3.85-6.17-10.42-.3-4.41 1.52-2.21-.09-7.71-1.19-4.08 2.7-5.23 3.24-7.46.81-3.37 1.75-5 5.18-5.3 5-.49 5.21-3 6.72-3.92 3.42-2 5.18-1 8.59-.13 5.89 1.45 4.5-2.44 8.44-2.52 4.13-.08 3.06 1.28 6.29 1.83 2.38.4 3.42-.35 6.13.89s2.45 2.21 4.7 4.3c1.47 1.35 3.23.74 4.83 4.3 1.6 3.56-1.06 8-.13 9.49l.05.03Z" fill="#242B45"/><path fill-rule="evenodd" clip-rule="evenodd" d="M257.223 65.753c.513.43 1.085.784 1.7 1.05.764.345 1.446.85 2 1.48a10.462 10.462 0 0 1 2 4.17c.13.494.21 1 .24 1.51a.453.453 0 0 1-.603.433.438.438 0 0 1-.287-.403 7.57 7.57 0 0 0-.21-1.33 9.853 9.853 0 0 0-1.78-3.82 5.14 5.14 0 0 0-1.71-1.25 7.63 7.63 0 0 1-1.92-1.21 1.617 1.617 0 0 1-.33-.65c-.13-.45-.21-1.1-.34-1.36-1.35-2.61-4.25-3.33-7-3.18a.451.451 0 0 1-.192-.877.453.453 0 0 1 .192-.013c3.08-.16 6.32.73 7.83 3.66.155.433.275.878.36 1.33.041.156.091.31.15.46h-.1ZM272.753 77.934a6.284 6.284 0 0 1-2.35 5.55.448.448 0 0 0-.13.62.462.462 0 0 0 .62.12 7.214 7.214 0 0 0 2.74-6.4.447.447 0 0 0-.49-.39.452.452 0 0 0-.39.5ZM253.373 79.313c-4.08-1.12-4.4-5.67-3.06-8.54a.451.451 0 0 0-.558-.558.45.45 0 0 0-.252.188c-1.54 3.29-1.06 8.48 3.63 9.76a.44.44 0 0 0 .55-.31.452.452 0 0 0-.31-.54ZM232.253 70.703a2.094 2.094 0 0 0 2.69 1.43c.328-.096.641-.238.93-.42a15.005 15.005 0 0 0 4.151-5.81.446.446 0 0 1 .411-.267.45.45 0 0 1 .409.617 15.919 15.919 0 0 1-4.511 6.22 4.402 4.402 0 0 1-1.15.52 3.088 3.088 0 0 1-3.68-1.66l-.27.26a5.558 5.558 0 0 1-3.35.94 3.512 3.512 0 0 1-3.59-3.72.449.449 0 0 1 .656-.338.436.436 0 0 1 .224.438 2.652 2.652 0 0 0 .779 1.966 2.64 2.64 0 0 0 1.971.764 4.662 4.662 0 0 0 2.791-.77s.629-.68.759-.79a.475.475 0 0 1 .371-.11.45.45 0 0 1 .399.29c.012.07.012.14 0 .21.005.077.005.154 0 .23h.01ZM232.563 78.903l-1.38-.59a3.516 3.516 0 0 1-.57-.31c-1.44-1.24-1.51-2.8-1.32-4.5a.434.434 0 0 1 .318-.377.44.44 0 0 1 .467.154.45.45 0 0 1 .095.323c-.15 1.4-.16 2.7 1 3.72.088.058.182.104.28.14.45.2 1.12.46 1.46.63a1 1 0 0 1 .31.19.508.508 0 0 1 .13.2c.12.49.12 1.001 0 1.49a2.22 2.22 0 0 0 .22 1.8 3 3 0 0 0 3.06 1.72.45.45 0 0 1 .47.42.422.422 0 0 1-.242.428.426.426 0 0 1-.168.043 3.83 3.83 0 0 1-3.86-2.11 2.744 2.744 0 0 1-.41-2.1c.102-.416.136-.845.1-1.27h.04Z" fill="#4C5A7B"/><path fill-rule="evenodd" clip-rule="evenodd" d="M238.753 94.683a7.544 7.544 0 0 0-4.57-6.38c-1.95-.81-5.31-.88-6.84 1a5.51 5.51 0 0 0-.94 3.66c.17 2.66 1.43 4.36 3.39 6.16.639.577 1.306 1.121 2 1.63.22.16 6.51-5.33 6.92-6l.04-.07Z" fill="#fff"/><path fill-rule="evenodd" clip-rule="evenodd" d="M235.283 94.063a3.745 3.745 0 0 0-.76-1.56 4.353 4.353 0 0 0-5-1.4.646.646 0 0 0-.406.815.654.654 0 0 0 .324.372.645.645 0 0 0 .491.033 3.101 3.101 0 0 1 3.58 1c.242.292.416.634.511 1a.632.632 0 0 0 .269.411.635.635 0 0 0 .481.1.662.662 0 0 0 .51-.76v-.01Z" fill="#1D234C"/><path fill-rule="evenodd" clip-rule="evenodd" d="M232.583 92.093a7.566 7.566 0 0 1-.67 1.24 2.461 2.461 0 0 1-1.89 1.17.643.643 0 0 0-.615.665.637.637 0 0 0 .665.615 3.72 3.72 0 0 0 2.89-1.71c.374-.523.668-1.1.87-1.71a.66.66 0 0 0 0-.25.648.648 0 0 0-.756-.504.637.637 0 0 0-.504.504l.01-.02Z" fill="#1D234C"/><path fill-rule="evenodd" clip-rule="evenodd" d="M251.113 209.624c0-1.07-1.93-27.09-2.46-34.24-.82-10.88-4.92-39.53-1.9-49.92 1.8-6.2 13.86-7.31 17.57-12.65 4.18-6 3.81-12.36 4.61-14.82a1.268 1.268 0 0 1 1.06-.85c3.52-.42 4.18 5.68 4.22 7.62.12 5.25 0 10.1-2.93 14.55-2.93 4.45-9.65 6.55-9 12.55 1.4 13.72 6.43 28.06 9.3 41.56 2.25 10.58 7.34 30.71 8.08 36 0 .16-22.35.18-28.51.21l-.04-.01Z" fill="#fff"/><path fill-rule="evenodd" clip-rule="evenodd" d="M195.963 120.863c-.12-.18-9.72 3.84-15.94 28.13-1.7 6.65-3.56 19.89-3.49 26.41 0 3.24 1.79 4 2.64 4.36 11.67 4.87 28.81 9.35 28.81 9.34a335.886 335.886 0 0 0-1.13-37.79 69.822 69.822 0 0 0-10.89-30.43v-.02Z" fill="#BF0830"/><path fill-rule="evenodd" clip-rule="evenodd" d="M247.474 126.173a12.162 12.162 0 0 1 7-6.28c6.07-2.24 11.39-5.68 13.79-12.23a31.655 31.655 0 0 0 2-9.3.629.629 0 0 0-.59-.66.628.628 0 0 0-.66.59 30 30 0 0 1-1.89 8.94c-2.26 6.18-7.32 9.38-13 11.49a13.528 13.528 0 0 0-7.69 7 .629.629 0 0 0 .578.866.605.605 0 0 0 .438-.184.61.61 0 0 0 .134-.202l-.11-.03Z" fill="#1D234C"/><path fill-rule="evenodd" clip-rule="evenodd" d="M275.213 190.113c.1.48 1.21 4.62 1.52 6 .77 3.35 1.76 7.52 2.54 12.34a.635.635 0 0 0 .471.56.634.634 0 0 0 .769-.76c-.8-4.85-1.79-9.05-2.56-12.42-.31-1.37-1.42-5.48-1.52-6a.62.62 0 0 0-.73-.48.622.622 0 0 0-.49.73v.03ZM208.513 187.123c0-.49-.11-4.77-.1-6.17 0-3.44 0-7.73.37-12.6a.627.627 0 0 0-.584-.608.63.63 0 0 0-.666.518c-.34 4.9-.34 9.22-.37 12.68 0 1.4.11 5.66.1 6.15a.629.629 0 0 0 .61.64.638.638 0 0 0 .64-.61Z" fill="#111851"/><path fill-rule="evenodd" clip-rule="evenodd" d="M254.593 92.066a1.999 1.999 0 0 0 1.45-.41 1.596 1.596 0 0 0-.31-2.34c-1.26-.55-3.19-.27-4.48 0a14.007 14.007 0 0 0-6.33 2.48 2.004 2.004 0 0 0-.88 2.1 1.003 1.003 0 0 0 .95.81 3.816 3.816 0 0 0 1.67-.57c1.089-.52 2.22-.949 3.38-1.28a21.857 21.857 0 0 1 4.55-.76v-.03ZM268.223 94.126V91.146a10.61 10.61 0 0 0-4.14-1.57c-1.2-.23-1.81-.06-2.23.62a1.463 1.463 0 0 0 .15 1.53c.3.47 1.16.64 1.65.82 1.527.446 3.029.974 4.5 1.58h.07ZM259.503 97.466c.22 1.31.72 4.17.81 5.51 0 .34.08.74.09 1.15.023.287-.025.575-.14.84a.626.626 0 0 1-.47.29 2.28 2.28 0 0 1-.69 0 6.66 6.66 0 0 1-2.82-1.13.642.642 0 0 0-.9.1.639.639 0 0 0 .1.9 8.226 8.226 0 0 0 3.47 1.41 2.264 2.264 0 0 0 2.45-1c.179-.365.274-.764.28-1.17a13.433 13.433 0 0 0-.09-1.5c-.09-1.36-.6-4.28-.82-5.63a.62.62 0 0 0-.253-.419.628.628 0 0 0-.477-.111.66.66 0 0 0-.54.74v.02ZM258.194 110.816a10.992 10.992 0 0 1-3-.72 6.36 6.36 0 0 1-3.82-4 .641.641 0 0 0-1.184-.085.65.65 0 0 0-.036.495c.77 2.31 2 3.56 4.48 4.73 1.069.444 2.198.727 3.35.84a.641.641 0 0 0 .16-1.27l.05.01ZM263.994 95.996a1.63 1.63 0 1 0 1.61 1.63 1.63 1.63 0 0 0-.468-1.148 1.612 1.612 0 0 0-1.142-.482ZM252.183 95.916a1.628 1.628 0 0 0-1.61 1.942 1.629 1.629 0 0 0 2.221 1.195 1.632 1.632 0 0 0 .011-3.013 1.617 1.617 0 0 0-.622-.124Z" fill="#000"/><path fill-rule="evenodd" clip-rule="evenodd" d="M321.943 108.604c-.12-6.59-.33-13.73.33-23.36.31-4.68 2.57-6.52 7.39-7 4.07-.44 33.33-.68 45.19-.06 6.12.32 6.54 5.58 6.53 7.6 0 4.17.25 6.45.16 9.45 0 1.47.15 9-8.27 9.44-7.31.42-31.93.24-37.18.3-3.68 0-14 10.16-14.15 3.67v-.04Z" fill="#BF0830"/><path fill-rule="evenodd" clip-rule="evenodd" d="M370.753 88.644a6.84 6.84 0 0 0-4.08-2.48 5.91 5.91 0 0 0-3.42.76 13.507 13.507 0 0 1-3.58 1.62 4.41 4.41 0 0 1-3.09-.85 7.002 7.002 0 0 0-3.67-1.4 6.5 6.5 0 0 0-3.7 1.31 5.543 5.543 0 0 1-2.59 1.2 8.467 8.467 0 0 1-4.07-1.37 5.432 5.432 0 0 0-2.69-.79c-2.49.2-3.72 1.62-5.06 2.91a.642.642 0 0 0 0 .89.631.631 0 0 0 .88 0c1.14-1.1 2.15-2.39 4.29-2.56a5.718 5.718 0 0 1 2.68 1 8.419 8.419 0 0 0 4 1.17 5.336 5.336 0 0 0 2.64-1 6.47 6.47 0 0 1 3.58-1.48c1.113.11 2.173.529 3.06 1.21a5.46 5.46 0 0 0 3.91 1 14.496 14.496 0 0 0 3.95-1.74 4.75 4.75 0 0 1 2.71-.63 5.668 5.668 0 0 1 3.32 2.08.623.623 0 1 0 .92-.84l.01-.01ZM370.852 94.154a6.867 6.867 0 0 0-4.08-2.48 5.92 5.92 0 0 0-3.43.76 13.437 13.437 0 0 1-3.57 1.62 4.362 4.362 0 0 1-3.09-.86 7.118 7.118 0 0 0-3.68-1.39 6.524 6.524 0 0 0-3.7 1.31 5.456 5.456 0 0 1-2.55 1.2 8.475 8.475 0 0 1-4.07-1.37 5.348 5.348 0 0 0-2.69-.79c-2.5.2-3.73 1.62-5.06 2.91a.63.63 0 0 0 .87.9c1.14-1.1 2.15-2.4 4.29-2.57.96.105 1.878.45 2.67 1a8.45 8.45 0 0 0 4 1.17 5.338 5.338 0 0 0 2.64-1 6.442 6.442 0 0 1 3.58-1.48c1.113.11 2.173.53 3.06 1.21a5.46 5.46 0 0 0 3.91 1 14.496 14.496 0 0 0 3.95-1.74 4.751 4.751 0 0 1 2.71-.63 5.699 5.699 0 0 1 3.32 2.08.623.623 0 0 0 .92-.84v-.01Z" fill="#242B45"/><path fill-rule="evenodd" clip-rule="evenodd" d="M154.753 267.583c.22-13.27-.28-42.269.31-49.999.29-3.74 2.32-5.21 6.67-5.63 3.66-.36 38.89-.43 49.59.07 5.51.26 5.57 4.49 5.88 6.08 1.13 5.83.79 26.63.35 33.8-.07 1.18.14 7.17-7.45 7.56-6.6.34-33 0-37.74 0-3.32 0-17.69 13.27-17.61 8.07v.049Z" fill="#5C66B1"/><path fill-rule="evenodd" clip-rule="evenodd" d="M185.603 241.463c-.42-.95-1.67-4.47-2-5.63-1.48-5.55-2.38-12.71 3.88-12.43 6.63.29 2.43 13.68 1.7 16.89-.6 2.64-2.8 3-3.6 1.17h.02ZM186.134 244.953a2.669 2.669 0 0 0-.74 1 1.888 1.888 0 0 0 1.42 2.34c.329.077.671.077 1 0 1.77-.37 2.12-1.82 1.49-2.8a2.304 2.304 0 0 0-3.16-.59l-.01.05Z" fill="#fff"/><path fill-rule="evenodd" clip-rule="evenodd" d="M266.173 218.633c-15 .16-24.54 4.83-24.67 23.11 0 1.55-.2 9.77 0 21.34.27 18.67.48 73.51.61 89.51.12 16.56 14.89 19 27.22 18.84 23.39-.2 121.13.12 160.42-.57 22-.38 22-8.58 22.28-21.19.25-11-.25-83.91-.41-106.57-.08-10.4.31-24.61-24.34-24.42-33.19.25-109.29-.57-161.07-.05h-.04Z" fill="#5C69A5"/><path fill-rule="evenodd" clip-rule="evenodd" d="M244.053 233.703c18 .66 195.63-.81 204-.78a.906.906 0 0 0 .815-.905.914.914 0 0 0-.815-.905c-8.39 0-186 1.43-204 .77a.923.923 0 0 0-.94.88.91.91 0 0 0 .87.94h.07Z" fill="#fff"/><path d="M261.864 229.864a3.553 3.553 0 0 1-3.537-4.215 3.55 3.55 0 0 1 7.037.675 3.52 3.52 0 0 1-3.5 3.54Zm0-5.83a2.294 2.294 0 0 0-2.151 1.378 2.289 2.289 0 0 0 2.965 3.032 2.292 2.292 0 0 0 1.426-2.12 2.271 2.271 0 0 0-2.24-2.29Zm22.28 5.83a3.55 3.55 0 1 1 3.5-3.55 3.527 3.527 0 0 1-1.017 2.498 3.527 3.527 0 0 1-2.483 1.052Zm0-5.84a2.287 2.287 0 0 0-2.144 1.385 2.285 2.285 0 0 0 .47 2.509 2.29 2.29 0 0 0 3.924-1.604 2.264 2.264 0 0 0-1.383-2.11 2.27 2.27 0 0 0-.867-.18Zm-10.95 5.64a3.543 3.543 0 0 1-3.299-2.158 3.54 3.54 0 1 1 6.799-1.382 3.52 3.52 0 0 1-3.5 3.54Zm0-5.83a2.287 2.287 0 0 0-2.144 1.385 2.285 2.285 0 0 0 .47 2.509 2.29 2.29 0 0 0 3.924-1.604 2.264 2.264 0 0 0-1.383-2.11 2.27 2.27 0 0 0-.867-.18Z" fill="#fff"/><path fill-rule="evenodd" clip-rule="evenodd" d="M392.904 172.843a9 9 0 0 1-2.68-5.71 50.62 50.62 0 0 0-1.19-7.31c-.73-2.73-2-6.28-1.39-9.44.86-4.08-.34-6.14-2.48-5.12-1.25.59-2.27 2.24-2.77 4.3-.81 3.26-.71 7.26-1.21 7.45-.33.12-1.36-2.3-2.5-4.63-1.23-2.5-2.53-5.28-3-6.29-3.4-6.71-4.21-10.75-7.36-12.15a8.113 8.113 0 0 0-3.1-.45c-.65-1-1.5-1.94-3.21-1.43-2.08.61-2 2.34-1.54 4a3.888 3.888 0 0 0-2.63 3.62c0 .79.26 2.89.35 3.41 0 .25-1.82.42-2.11 2.38-.29 1.96 4.24 14.16 5.33 16.18a54.672 54.672 0 0 0 4.51 7.23 197.723 197.723 0 0 0 14.62 14.92c.15.12 5.62-6.19 12.41-11l-.05.04Z" fill="#B0B0B0"/><path fill-rule="evenodd" clip-rule="evenodd" d="M364.903 135.533a.652.652 0 0 1 .52-.94.607.607 0 0 1 .58.29c.061.105.111.216.15.33.48 1.23 2.94 7.93 7.88 18.27a.621.621 0 0 1 .029.488.627.627 0 0 1-.329.362.64.64 0 0 1-.85-.3c-5-10.39-7.45-17.12-7.93-18.36l-.05-.14ZM360.514 137.753a.637.637 0 0 1 .51-.93.61.61 0 0 1 .344.054.613.613 0 0 1 .256.236c.054.106.101.217.14.33.46 1.23 2.86 7.88 7.68 18.15a.65.65 0 0 1-.31.86.64.64 0 0 1-.85-.31c-4.85-10.33-7.25-17-7.72-18.25v-.14h-.05ZM357.933 144.683a.59.59 0 0 1-.07-.26.644.644 0 0 1 .153-.464.63.63 0 0 1 .437-.216.578.578 0 0 1 .58.28c.048.091.092.184.13.28.38.93 2.33 6 6 13.46a.642.642 0 0 1-.284.877.64.64 0 0 1-.866-.317c-3.65-7.51-5.61-12.6-6-13.54v-.1h-.08Z" fill="#111851"/><path fill-rule="evenodd" clip-rule="evenodd" d="M538.684 168.093a33.828 33.828 0 0 0 2.259-10.65c.08-3.4-.33-8-5.06-12.13-2.65-2.29-8.549-4.28-15.099-3.76-6.55.52-12.94 2.87-17 8-1.37 1.73-4.611 5.81-4.921 15.57a90.578 90.578 0 0 0 .811 14.12c.84 5.12 3.289 11.61 6.339 14.3a7.329 7.329 0 0 0 3 1.53c.851.184 1.713.308 2.58.37.25.22.131 8.13.221 8.16 1.08.44 2.769 2.05 11.879 2.09a24.475 24.475 0 0 0 10.54-2.43c.15-.11-.28-20.43.17-24.24.42-3.49 3.08-7.69 4.3-11l-.019.07Z" fill="#B0B0B0"/><path fill-rule="evenodd" clip-rule="evenodd" d="M512.573 165.873a1.997 1.997 0 0 1-1.45-.41 1.594 1.594 0 0 1-.137-1.863c.117-.189.273-.351.457-.477 1.25-.54 3.18-.27 4.47 0a14.16 14.16 0 0 1 6.33 2.48 2 2 0 0 1 .88 2.1 1.053 1.053 0 0 1-.95.82 3.994 3.994 0 0 1-1.67-.57 19.777 19.777 0 0 0-3.38-1.28 22.63 22.63 0 0 0-4.55-.77v-.03ZM498.823 167.913V165.013a10.665 10.665 0 0 1 4.13-1.58c1.21-.23 1.82-.06 2.24.63a1.437 1.437 0 0 1-.15 1.52c-.3.48-1.16.65-1.65.83-1.56.413-3.096.914-4.6 1.5h.03Z" fill="#060A2A"/><path fill-rule="evenodd" clip-rule="evenodd" d="M506.393 171.113c-.22 1.34-.73 4.27-.82 5.63 0 .44-.1 1-.09 1.49.006.409.102.812.28 1.18.253.402.625.714 1.064.894.44.179.924.216 1.386.106a8.223 8.223 0 0 0 3.47-1.4.641.641 0 1 0-.8-1 6.587 6.587 0 0 1-2.82 1.14 2.28 2.28 0 0 1-.69 0 .608.608 0 0 1-.47-.29 1.67 1.67 0 0 1-.13-.84c0-.4.06-.81.08-1.15.09-1.33.59-4.19.81-5.51a.643.643 0 1 0-1.27-.2v-.05ZM509.133 185.943a12.414 12.414 0 0 0 3.35-.84c2.43-1.18 3.71-2.42 4.48-4.74a.64.64 0 0 0-.405-.815.644.644 0 0 0-.815.405 6.317 6.317 0 0 1-3.81 4c-.959.384-1.97.627-3 .72a.654.654 0 0 0-.485.711.648.648 0 0 0 .645.569l.04-.01ZM503.183 169.844a1.632 1.632 0 0 1 1.166 2.779 1.633 1.633 0 0 1-1.778.358 1.625 1.625 0 0 1-1.008-1.507 1.622 1.622 0 0 1 1.62-1.63ZM514.983 169.773a1.633 1.633 0 0 1 1.513 1 1.625 1.625 0 0 1-.347 1.779 1.623 1.623 0 0 1-1.777.358 1.624 1.624 0 0 1-1.009-1.507 1.626 1.626 0 0 1 .998-1.505c.197-.082.409-.125.622-.125ZM512.694 196.624a13.654 13.654 0 0 0 4.35-.63c3.71-1.08 5.5-2.05 7.73-4.61a.655.655 0 0 0-.557-1.071.651.651 0 0 0-.443.231c-2 2.35-3.7 3.22-7.12 4.22a12.587 12.587 0 0 1-4 .58.64.64 0 1 0 0 1.28h.04Z" fill="#1D234C"/><path fill-rule="evenodd" clip-rule="evenodd" d="M528.453 172.154a7.228 7.228 0 0 1 5-5.59c2-.57 5.16-.28 6.43 1.64a5.37 5.37 0 0 1 .5 3.59c-.45 2.52-1.83 4-3.88 5.51-.59.43-1.31.86-2.13 1.34-.22.13-5.64-5.78-6-6.49h.08Z" fill="#B0B0B0"/><path fill-rule="evenodd" clip-rule="evenodd" d="M533.013 172.313c.12-.344.318-.655.579-.91a3.002 3.002 0 0 1 3.49-.54.65.65 0 0 0 .86-.31.643.643 0 0 0-.309-.85 4.207 4.207 0 0 0-5 .8 3.844 3.844 0 0 0-.891 1.42.663.663 0 0 0 .431.81.642.642 0 0 0 .484-.048.64.64 0 0 0 .315-.372h.041Z" fill="#1D234C"/><path fill-rule="evenodd" clip-rule="evenodd" d="M533.343 170.454c.129.606.348 1.189.65 1.73a3.61 3.61 0 0 0 2.59 1.95.639.639 0 0 0 .645-.304.626.626 0 0 0 .073-.486.64.64 0 0 0-.528-.48 2.339 2.339 0 0 1-1.66-1.3 7.104 7.104 0 0 1-.5-1.25.629.629 0 0 0-.212-.468.648.648 0 0 0-.488-.162.651.651 0 0 0-.449.25.645.645 0 0 0-.121.5v.02Z" fill="#1D234C"/><path fill-rule="evenodd" clip-rule="evenodd" d="M496.234 142.944c-1 1.6-.72 3-3.16 6.06-1.17 1.49-6.34 6.21-6 9 .17 1.5 1.49 2.32 2.81 2.79 1.32.47 3.34.51 4.1 1.2 2.24 2 4.92 1.87 4.94 1.7.43-3.8.65-5.47 1.2-6.39 1.56-2.58 4.64-5.74 5.65-5.58 1.9.32 3.08 3.76 6.12 5 1.35.54 2.75 1.15 4.84 1.86 2.89 1 4.11 3.52 5 2.83.89-.69-1.93-4.74-1.76-4.88 1.43-1.18 5.37 3.74 5.41 7.13.04 3.39.3 7.25 2.87 7.65 3.47.55 4.31-2.85 8.46-2.59 4.15.26 5.62.48 8.86-1.36 2.37-1.33 5.23-.37 6.41-2.94 1.37-3-3.75-4.48-4.36-10.6-.38-3.82-1.09-7-5-8.9-3.63-1.76-3.34-4.31-6.1-6.74-6-5.29-12.13-2.68-16.78-2.91-4.19-.21-5.19-2.37-9-1.12-2.8.91-5.23 4.37-8.95 5.57-1.5.49-3.73.54-5.43 3.3l-.13-.08Z" fill="#1A2578"/><path fill-rule="evenodd" clip-rule="evenodd" d="M506.973 150.313c.087-.342.201-.676.341-1a7.175 7.175 0 0 1 1.82-2.57 9.294 9.294 0 0 1 1.68-1.1 6.265 6.265 0 0 0 1.759-1.4 28.975 28.975 0 0 0 2.211-3.74 5.57 5.57 0 0 1 2.84-2.69.45.45 0 0 0-.32-.84 6.465 6.465 0 0 0-3.29 3.08 27.365 27.365 0 0 1-2.13 3.63c-.43.486-.945.89-1.521 1.19-.65.339-1.263.744-1.829 1.21a8.532 8.532 0 0 0-2.421 3.95.436.436 0 0 0 .154.466c.047.035.1.06.157.074a.427.427 0 0 0 .34-.039.443.443 0 0 0 .209-.271v.05ZM510.284 149.954a6.276 6.276 0 0 1 3 1.28 5.174 5.174 0 0 1 1.38 2.41 3.166 3.166 0 0 0 1.22 1.36 6.444 6.444 0 0 1 2.3 2.63.433.433 0 0 0 .242.236.444.444 0 0 0 .568-.596 7.23 7.23 0 0 0-2.57-3c-.43-.33-.79-.57-.91-.92a6.012 6.012 0 0 0-1.63-2.8 7.084 7.084 0 0 0-3.41-1.49.449.449 0 0 0-.337.058.44.44 0 0 0-.193.282.449.449 0 0 0 .35.53l-.01.02ZM516.884 141.233a9.415 9.415 0 0 1 4.32 1.61c.69.479 1.44.865 2.23 1.15 1.35.35 2.72.05 4.06.31a7.81 7.81 0 0 1 4.57 3.12 8.997 8.997 0 0 1 1.91 4.67.441.441 0 0 0 .281.401.439.439 0 0 0 .484-.11.452.452 0 0 0 .125-.321 9.888 9.888 0 0 0-2.09-5.18 8.683 8.683 0 0 0-5.11-3.46c-1.33-.25-2.68.05-4-.3a9.124 9.124 0 0 1-2-1 10.316 10.316 0 0 0-4.73-1.74.453.453 0 0 0-.447.593.44.44 0 0 0 .397.297v-.04ZM539.864 150.464a6.752 6.752 0 0 1 1.73 4c.058.77.227 1.527.5 2.25a16.924 16.924 0 0 0 2 3.14c.74 1 1.14 1.8 1 4.56a.45.45 0 0 0 .89.05c.15-3.12-.35-4-1.19-5.15a15.75 15.75 0 0 1-1.92-3 7.61 7.61 0 0 1-.42-2 7.56 7.56 0 0 0-2-4.43.442.442 0 0 0-.322-.188.438.438 0 0 0-.353.119.462.462 0 0 0-.109.157.442.442 0 0 0 .015.373.441.441 0 0 0 .119.149l.06-.03Z" fill="#060A2A"/><path fill-rule="evenodd" clip-rule="evenodd" d="M508.974 145.894a3.425 3.425 0 0 0-.42-.23 4.628 4.628 0 0 0-2.85-.25 7.64 7.64 0 0 0-2.52 1.54 24.76 24.76 0 0 1-2.4 1.88 9.359 9.359 0 0 1-2 .81 3.575 3.575 0 0 0-1.62.94 9.828 9.828 0 0 0-1.6 3 11.566 11.566 0 0 1-1.78 3.08.44.44 0 0 1-.63.05.452.452 0 0 1 0-.63 10.676 10.676 0 0 0 1.64-2.83c.384-1.2.981-2.321 1.76-3.31a4.35 4.35 0 0 1 2-1.18 8.335 8.335 0 0 0 1.86-.73 23.195 23.195 0 0 0 2.3-1.81 8.76 8.76 0 0 1 2.83-1.7 5.56 5.56 0 0 1 3.45.28c.331.111.623.316.84.59a.444.444 0 1 1-.76.46l-.1.04ZM506.983 140.373a14.55 14.55 0 0 1 2.631.31 3.84 3.84 0 0 1 2.69 2.61.445.445 0 0 0 .426.311.444.444 0 0 0 .449-.493.468.468 0 0 0-.055-.178 4.674 4.674 0 0 0-3.271-3.11 15.574 15.574 0 0 0-2.789-.34.448.448 0 0 0-.349.718c.065.088.161.15.268.172Z" fill="#060A2A"/><path fill-rule="evenodd" clip-rule="evenodd" d="M383.754 191.863c-.88 5.1 6 12.12 8 14.71 7.29 9.76 25.16 31.28 35.71 36.63 13.7 7 52.5 2.62 52.87 3.74 2.3 7 12.88 48.57 13.14 48.57 4.41 0 71.15-.14 83.59-.21 15.23-.1 20.06-.19 20.06-.19.79-10.26-6-57.5-11.35-67.31-11.24-20.65-50.42-28.08-51.57-26.95-1.15 1.13-4.65 4.75-14.22 4.5-4.42-.12-8.12-3.91-8.23-3.89-7.25 1.46-31.26 7.35-38.86 10.9-1.26.59-4.14.5-10.46.5-6.72 0-13 .11-21.8 0-1.88 0-25.76-21.06-31.34-26.87-1-1.09-4.49-7.4-10.28-7.81-.21 0-5.67-7.66-7.17-6.73-2.93 1.83-9.94 6.7-13.06 11.54-1 1.52 5.82 8.1 5 8.89l-.03-.02Z" fill="#fff"/><path fill-rule="evenodd" clip-rule="evenodd" d="M439.594 214.314a32.016 32.016 0 0 1-2.48 8 .629.629 0 0 0 .569.871.617.617 0 0 0 .581-.381 33.434 33.434 0 0 0 2.56-8.3.617.617 0 0 0-.289-.637.627.627 0 0 0-.941.437v.01ZM561.694 246.143c.42 5.31 1.26 11 1.4 11.82 1.37 7.44 5.6 27.7 9 36.24a.631.631 0 0 0 .57.394.638.638 0 0 0 .444-.176.606.606 0 0 0 .138-.201.609.609 0 0 0 .051-.238.61.61 0 0 0-.043-.239c-3.38-8.48-7.57-28.61-8.93-36-.14-.78-1-6.45-1.39-11.7a.635.635 0 0 0-.217-.425.615.615 0 0 0-.453-.145.616.616 0 0 0-.543.429.612.612 0 0 0-.027.241Z" fill="#111851"/><path fill-rule="evenodd" clip-rule="evenodd" d="M540.054 245.893c-.09-.5-37.1 1.33-37 1.93.1 1.14 1.42 18 1.5 18 2.11-.17 37.17-1.77 37.38-2 .06-.06-1.19-14.55-1.83-18l-.05.07Z" fill="#1A2578"/><path fill-rule="evenodd" clip-rule="evenodd" d="M506.094 204.113c1.94 2.83 5.14 4.301 7.56 5.341 4 1.71 11 1.82 16.82 0 3.93-1.23 7.29-3.35 8.8-6.38a.62.62 0 0 0-.509-.9.637.637 0 0 0-.241.029.64.64 0 0 0-.211.119.633.633 0 0 0-.149.192c-1.38 2.76-4.48 4.63-8.07 5.75-5.49 1.72-12.17 1.66-15.95 0-2.24-1-5.23-2.29-7-4.91a.626.626 0 0 0-1.021.296.623.623 0 0 0 .021.413l-.05.05ZM397.445 178.684c-4.74 2.76-10.69 7.74-13.13 11.09a.616.616 0 0 0 .154.838.622.622 0 0 0 .846-.108c2.37-3.25 8.15-8.07 12.75-10.75a.63.63 0 0 0-.159-1.141.622.622 0 0 0-.243-.013.622.622 0 0 0-.228.084h.01Z" fill="#111851"/><path fill-rule="evenodd" clip-rule="evenodd" d="M361.453 210.753a9.002 9.002 0 0 0-1.17-6.2 49.862 49.862 0 0 1-3.32-6.62c-1-2.64-2-6.29-4.41-8.46-3.09-2.81-3.32-5.18-1-5.61 1.36-.25 3.16.49 4.77 1.86 2.57 2.18 4.83 5.47 5.35 5.33.34-.1-.24-2.66-.69-5.22-.47-2.74-1-5.75-1.22-6.88-1.17-7.43-2.89-11.17-1.16-14.16a8.117 8.117 0 0 1 2.26-2.18c0-1.15.07-2.45 1.75-3 2-.72 3 .74 3.62 2.37a3.862 3.862 0 0 1 4.25 1.39c.45.65 1.48 2.49 1.72 3 .11.23 1.72-.72 3.1.69 1.38 1.41 4.86 14 5.17 16.24.406 2.815.596 5.657.57 8.5a197.44 197.44 0 0 1-3.09 20.66c-.05.18-8.18-1.73-16.5-1.63v-.08Z" fill="#D1D1D1"/><path fill-rule="evenodd" clip-rule="evenodd" d="M362.273 164.113a.818.818 0 0 0 0 .14c.33 1.29 2.27 8.19 4.34 19.52a.64.64 0 0 1-.52.74.628.628 0 0 1-.74-.51c-2.06-11.27-4-18.14-4.33-19.42a2.725 2.725 0 0 1-.07-.36.595.595 0 0 1 .31-.57.642.642 0 0 1 .97.46h.04ZM367.133 163.313v.15c.34 1.27 2.32 8.1 4.44 19.3a.643.643 0 0 1-.991.651.648.648 0 0 1-.269-.411c-2.11-11.15-4.08-17.94-4.42-19.21a2.192 2.192 0 0 1-.08-.35.617.617 0 0 1 .31-.58.663.663 0 0 1 .89.22.631.631 0 0 1 .08.23h.04ZM373.283 167.434v.1c.25 1 1.64 6.27 3.09 14.49a.649.649 0 0 1-.095.492.637.637 0 0 1-.676.265.649.649 0 0 1-.233-.106.65.65 0 0 1-.256-.431c-1.44-8.17-2.83-13.42-3.07-14.4a1.312 1.312 0 0 1-.06-.29.591.591 0 0 1 .3-.57.649.649 0 0 1 .89.2.742.742 0 0 1 .09.25h.02Z" fill="#111851"/><path fill-rule="evenodd" clip-rule="evenodd" d="M323.873 254.664c-7.55-1.06-23.2 1.41-24.14 1.65a34.33 34.33 0 0 0-9 3.64c-4 2.53-4.53 4.14-6.58 5.7a51.206 51.206 0 0 1-5.22 3c-3.81 1.94-6.17 5.57-8 9.44-3.24 6.89-2.7 16.08-2.47 23.45.51 16.09 2.88 31.59 5.18 47.49.8 5.51.61 22.22 1.58 22.76 1.87 1 19.56.869 22.58.729 16.11-.78 59.79-1.259 64.23-1.199.1 0-1.49-17.48-1.25-17.85.41-.61 7.48 16.219 8.42 17.829l24.28-.089c-.47-3.79-7.86-28.87-15.14-42.85-3.19-6.13-6.62-18.69-8-25.46a197.538 197.538 0 0 0-5.47-19.37c-.11-.32 6.07-4.28 7.23-9.89.54-2.6 1.24-5 1.73-7.29 2.57-12.35 4.24-21.61 6.28-37 .39-3 2-16.46.85-17.05-2.38-1.19-20.1-3.78-21.8-2.35-.64.54-3.67 10.19-4.38 12-3.28 8.25-4.62 15.14-7.93 23.37-.8 2-4.82 11.59-6.7 12.85-.35.24-7.87-2.31-16.3-3.49l.02-.02Z" fill="#1A2578"/><path fill-rule="evenodd" clip-rule="evenodd" d="M292.373 232.654a34.891 34.891 0 0 1-7.13-8.86c-1.68-3.13-3.48-7.65-1-13.69 1.39-3.38 5.95-8 12.3-10.62 6.35-2.62 13.42-3.43 19.65-.54 2.1 1 7 3.25 11.92 12.19a93.52 93.52 0 0 1 5.9 13.55c1.63 5.16 2.41 12.37.83 16.31a9.104 9.104 0 0 1-2 3.09c-2.09 2-6.49 2.59-6.49 2.6-.13.33.23 16.45.17 16.52-.19.22-.52.26-4.25 1-5.91 1.11-18.08 1.08-18.69 1-.18 0 .61-20.37-1.6-23.7-2-3.06-6.9-6.31-9.57-8.78l-.04-.07Z" fill="#fff"/><path fill-rule="evenodd" clip-rule="evenodd" d="M315.932 217.314c.51-.28.83-.44 1.05-1a1.522 1.522 0 0 0-.676-1.632 1.526 1.526 0 0 0-.584-.218 8.188 8.188 0 0 0-3.79 1.89 13.394 13.394 0 0 0-4.29 4.8 1.851 1.851 0 0 0 .15 2.14 1 1 0 0 0 1.15.29c.49-.21.86-.81 1.17-1.2.69-.91 1.464-1.754 2.31-2.52a20.677 20.677 0 0 1 3.51-2.59v.04ZM329.102 213.044s-.27-.55-.66-1.28c-.55-1-.61-1.13-.61-1.13a10.263 10.263 0 0 0-4.17.44c-1.11.32-1.55.72-1.62 1.48a1.376 1.376 0 0 0 .78 1.23c.45.27 1.25 0 1.74 0a39.583 39.583 0 0 1 4.54-.73v-.01ZM323.203 219.724c.74 1 2.39 3.22 3 4.3.16.28.38.6.56.94.144.225.226.483.24.75a.539.539 0 0 1-.25.41 2.298 2.298 0 0 1-.58.3 6.401 6.401 0 0 1-2.85.25.638.638 0 0 0-.633.966.64.64 0 0 0 .373.284 7.7 7.7 0 0 0 3.55-.3 2.176 2.176 0 0 0 1.68-1.89 2.731 2.731 0 0 0-.27-1.13 13.863 13.863 0 0 0-.72-1.23c-.65-1.11-2.34-3.36-3.09-4.41a.648.648 0 0 0-1.158.281.644.644 0 0 0 .118.479h.03ZM328.392 230.024c.78.23 1.09 1.24 1.05 2.18a4.326 4.326 0 0 1-3.42 4.13 8.066 8.066 0 0 1-7.09-2.41c-.52-.56-2-2.09-1.06-2.84.28-.23.91-.15 1.24-.14a18.77 18.77 0 0 0 5.39-.2c2-.33 3.07-1 3.89-.72Z" fill="#1D234C"/><path fill-rule="evenodd" clip-rule="evenodd" d="M328.392 230.024c.78.23 1.12 1.26 1.05 2.18a26.771 26.771 0 0 1-5.69 1.11 16.769 16.769 0 0 1-5.43 0c-.57-.69-1.14-1.64-.49-2.19.28-.23.91-.15 1.24-.14 1.797.193 3.613.126 5.39-.2 2-.33 3.07-1 3.89-.72l.04-.04Z" fill="#fff"/><path fill-rule="evenodd" clip-rule="evenodd" d="M328.573 229.404a2.89 2.89 0 0 0-1.48.05c-.67.16-1.52.46-2.69.66a18.48 18.48 0 0 1-5.26.19 4.697 4.697 0 0 0-1.06 0 1.302 1.302 0 0 0-.62.27 1.517 1.517 0 0 0-.35 1.9c.344.69.8 1.318 1.35 1.86a8.728 8.728 0 0 0 7.68 2.61 5.002 5.002 0 0 0 3.94-4.73 3.653 3.653 0 0 0-.42-1.94 1.878 1.878 0 0 0-1.09-.89v.02Zm-10.31 2.19a.24.24 0 0 0-.023.105.24.24 0 0 0 .023.105c.041.158.105.31.19.45a7.638 7.638 0 0 0 7.47 3.45 3.693 3.693 0 0 0 2.91-3.53 2.506 2.506 0 0 0-.17-1.07.702.702 0 0 0-.42-.47 2.299 2.299 0 0 0-1.16.15c-.801.246-1.616.443-2.44.59-1.82.338-3.68.409-5.52.21-.2-.011-.4-.011-.6 0h-.23l-.03.01ZM326.382 216.544a1.552 1.552 0 0 0-.67 2.07 1.531 1.531 0 1 0 .67-2.07ZM316.392 221.524a1.536 1.536 0 0 0-.853 1.485 1.535 1.535 0 0 0 1.047 1.355 1.534 1.534 0 0 0 1.652-.451 1.539 1.539 0 0 0 .214-1.699 1.532 1.532 0 0 0-2.06-.69ZM324.913 245.634c-4.54-.05-7.509-1.55-9.089-3.33a.662.662 0 0 0-.93-.07.657.657 0 0 0-.07.93c1.75 2 5 3.7 10 3.75a.64.64 0 0 0 .451-.181.643.643 0 0 0-.441-1.099h.079Z" fill="#1D234C"/><path fill-rule="evenodd" clip-rule="evenodd" d="M303.812 231.614a7.587 7.587 0 0 0-7.33-2.84c-2.08.39-4.939 2.18-5.209 4.56a5.547 5.547 0 0 0 1.219 3.58c1.61 2.15 3.591 2.88 6.221 3.31.75.12 1.62.19 2.61.25.27 0 2.529-8 2.489-8.86Z" fill="#fff"/><path fill-rule="evenodd" clip-rule="evenodd" d="M300.432 233.133a3.64 3.64 0 0 0-1.409-.85 4.148 4.148 0 0 0-4.74 1.51.451.451 0 0 0 .571.693.439.439 0 0 0 .128-.143 3.312 3.312 0 0 1 3.75-1.22c.397.128.759.343 1.06.63a.45.45 0 0 0 .64-.62Z" fill="#1D234C"/><path fill-rule="evenodd" clip-rule="evenodd" d="M297.413 232.743c.114.482.157.977.13 1.47a2.633 2.633 0 0 1-1 2.17.46.46 0 0 0-.11.63.447.447 0 0 0 .62.1 3.482 3.482 0 0 0 1.4-2.87 5.884 5.884 0 0 0-.19-1.83.452.452 0 0 0-.796.013.447.447 0 0 0-.034.317h-.02Z" fill="#1D234C"/><path fill-rule="evenodd" clip-rule="evenodd" d="M323.523 193.164a6.655 6.655 0 0 1 2.8 2.31c1.78 2.83 1.63 7.12-.76 9.56a23.264 23.264 0 0 1-7.73 4.94c-8.6 3.62-16.3 4.58-18.66 6-3.34 2.08-2.74 5.11-.26 9.07.68 1.09 2.37 3.88 2.19 4.39-.07.22-2.27-1.15-5.4-.22-2.77.83-3 1.76-4 3.5-.08.13-7.1-4-9-6.22-4.28-5.15-8.15-13.3-3.08-18.94 1.56-1.74 5.23-3.58 5.35-4a15.896 15.896 0 0 1 2-3.76c2.62-3.5 6.59-5.4 10.77-6.44a22.5 22.5 0 0 1 9.17-.36c2 .34 4 1.17 6 1.19 1.65 0 3-.92 4.55-1.41a8.563 8.563 0 0 1 6 .29l.06.1Z" fill="#1A2578"/><path fill-rule="evenodd" clip-rule="evenodd" d="M290.754 213.924a13.727 13.727 0 0 1-4.3-8.61.446.446 0 0 0-.495-.385.444.444 0 0 0-.385.495 14.467 14.467 0 0 0 4.5 9.09.452.452 0 0 0 .724-.316.458.458 0 0 0-.084-.304l.04.03ZM323.453 197.954c.51 3-1.14 5.46-4.05 7.19-4.57 2.72-12.16 3.75-19.79 2.61a.434.434 0 0 0-.336.081.427.427 0 0 0-.174.299.439.439 0 0 0 .078.329.418.418 0 0 0 .129.115c.05.03.105.049.163.056 7.87 1.17 15.68.08 20.38-2.72 3.27-2 5-4.72 4.48-8.11a.452.452 0 0 0-.506-.312.447.447 0 0 0-.374.462Z" fill="#0F1441"/><path fill-rule="evenodd" clip-rule="evenodd" d="M312.083 201.214c-1.53 1.92-4.51 2.5-6.47 2.82a28.503 28.503 0 0 1-7.33-.09c-3.75-.32-7.53-.44-12 2.43a.458.458 0 0 0-.13.62.449.449 0 0 0 .61.13c4.27-2.74 7.88-2.6 11.45-2.29a29.31 29.31 0 0 0 7.55.08c2.14-.35 5.35-1.05 7-3.15a.434.434 0 0 0 .041-.489.438.438 0 0 0-.111-.131.448.448 0 0 0-.33-.099.436.436 0 0 0-.3.169h.02Z" fill="#0F1441"/><path fill-rule="evenodd" clip-rule="evenodd" d="M334.913 345.043c-6.86.94-21.65 1.1-26.68 1.23-1.09 0-1.68.8-1.48 2.19.592 3 .279 6.109-.9 8.93-2.37 5.13-8.62 7.75-9.05 8.89-.43 1.14.57 5.68.66 6.24 0 0 14.83-.43 29.64-.73 14.59-.3 29.15-.46 29.15-.46.36-6.23.19-14.1-.25-14.43-1.43-1.08-5-3.24-6.9-7.42a16.157 16.157 0 0 1-1.51-5.15c-.19-1.31-1.07-1.49-2-1.3-2.5.48-5.57 1.31-10.68 2v.01ZM315.523 302.013c.15.05.11 4.41.09 6.15 0 3.36-.19 9.82-.36 15.1-.12 4-.52 7 0 7 2.44 0 3.93-.35 4.24-1.36.253-2.258.37-4.528.35-6.8.07-4.16.25-8.32.32-12.48 0-.89.23-8.58.14-8.58-.76 0-4 .89-4.73 1l-.05-.03ZM329.643 298.993a44.23 44.23 0 0 0 .64 6.3c.61 3.29 1.76 9 2.85 14.2.82 3.88 1.74 6.79 1.28 6.87-2.4.43-3.94.35-4.42-.59a59 59 0 0 1-1.54-6.64c-.79-4.08-1.7-8.14-2.5-12.22-.17-.88-1.18-7-1.1-7 .77-.09 4-.88 4.79-.92Z" fill="#fff"/><path fill-rule="evenodd" clip-rule="evenodd" d="M363.753 284.033c-13.5 7.69-22.9 11.71-39.44 15.32-15 3.27-23.28 2.26-25.33 2.61a.643.643 0 0 0-.52.72.637.637 0 0 0 .254.406.63.63 0 0 0 .466.104c2.06-.35 10.41.66 25.4-2.62 16.68-3.65 26.17-7.7 39.79-15.45a.63.63 0 0 0-.62-1.09ZM285.813 266.184h-.18a.553.553 0 0 1-.47-.39.58.58 0 0 1 0-.41.603.603 0 0 1 .32-.37.655.655 0 0 1 .22-.06h.42c2.25 0 14.55.08 18.36 0 19.32-.55 25.5-2.79 34.91-6.3a.614.614 0 0 1 .475.014.622.622 0 0 1 .312.825.633.633 0 0 1-.347.331c-9.52 3.54-15.77 5.82-35.31 6.38-3.82.11-16.14 0-18.4 0l-.31-.02Zm.56-.64v.13a.718.718 0 0 1-.13.28.614.614 0 0 0 .14-.41h-.01Zm0-.19a.562.562 0 0 0-.48-.41.648.648 0 0 1 .48.41Z" fill="#111851"/><path fill-rule="evenodd" clip-rule="evenodd" d="M358.493 287.703c.58 2.63.66 10.07 1 21.57.67 19.87.92 25.15.29 42.75a.631.631 0 0 0 .6.65.626.626 0 0 0 .65-.6c.62-17.64.38-22.93-.29-42.84-.39-11.63-.49-19.14-1.07-21.8a.623.623 0 0 0-.505-.479.633.633 0 0 0-.245.009.607.607 0 0 0-.478.498.598.598 0 0 0 .008.242h.04ZM335.603 143.224c1.27.55 9.47 3.63 14.09 5.64a.63.63 0 0 1-.5 1.15c-4.62-2-12.82-5.1-14.09-5.65a1.287 1.287 0 0 1-.41-.26.58.58 0 0 1-.06-.69.595.595 0 0 1 .65-.32.564.564 0 0 1 .29.11l.03.02Zm0 1a.582.582 0 0 1-.5.15.537.537 0 0 0 .5-.15ZM350.953 115.784c2.06 4.52 3.91 8 6.66 13.35a.622.622 0 0 0 .365.309.636.636 0 0 0 .475-.039.626.626 0 0 0 .27-.84c-2.74-5.3-4.58-8.8-6.64-13.3a.609.609 0 0 0-.352-.324.617.617 0 0 0-.478.024.595.595 0 0 0-.322.347.603.603 0 0 0 .022.473ZM377.753 135.913c.49-1.32 4.6-11 6.85-13.94a.628.628 0 0 0-.327-.989.604.604 0 0 0-.473.065.613.613 0 0 0-.18.164c-2.31 3-6.54 12.91-7 14.27a.639.639 0 0 0-.039.241.649.649 0 0 0 .057.237.634.634 0 0 0 .352.322.628.628 0 0 0 .8-.37h-.04Z" fill="#111851"/><path fill-rule="evenodd" clip-rule="evenodd" d="M433.013 417.633c-.19-9.87.25-31.45-.26-37.19-.25-2.79-2-3.89-5.7-4.2-3.13-.26-33.23-.32-42.36.06-4.71.19-4.76 3.34-5 4.52-1 4.34-.67 19.82-.3 25.15.07.88-.11 5.34 6.37 5.63 5.63.25 28.2 0 32.24 0 2.83 0 15.11 9.87 15 6l.01.03Z" fill="#fff"/><path fill-rule="evenodd" clip-rule="evenodd" d="M402.003 387.873c-.18.1-.61.33-.86-.14-.25-.47-.49-.89-.49-.91-.24-.44-.47-.84-.4-1.13.1-.49.69-.86 1.47-1.33 2.5-1.51 6.7-1.82 9 .27.42.396.728.896.89 1.45.56 2.29-1 4.06-2.81 5.4-.74.53-1.88 1-2.32 1.8-.44.8-.13 4.24-.27 4.25-.863.112-1.737.112-2.6 0-.17-.24-.44-5.4 0-6.1.87-1.48 3-2 3.38-3.11.3-.94-.61-1.36-1.41-1.4a6.606 6.606 0 0 0-3.59 1l.01-.05ZM403.653 401.234a2.215 2.215 0 0 0 0 2.08c.159.216.363.394.599.521.235.128.496.202.764.217a1.807 1.807 0 0 0 1.437-.578 1.894 1.894 0 0 0 .124-2.446 1.888 1.888 0 0 0-.684-.554 1.926 1.926 0 0 0-2.27.73l.03.03Z" fill="#BF0830"/><path fill-rule="evenodd" clip-rule="evenodd" d="M607.324 356.253c.17-11.16-.23-35.52.24-42 .23-3.15 1.84-4.379 5.29-4.739 2.91-.29 30.88-.351 39.37.069 4.38.21 4.42 3.77 4.67 5.11.9 4.89.63 22.37.28 28.4-.06 1 .11 6-5.92 6.35-5.23.29-26.2 0-30 0-2.63 0-14 11.15-14 6.78l.07.03Z" fill="#1A2578"/><path fill-rule="evenodd" clip-rule="evenodd" d="M638.834 330.183a2.62 2.62 0 0 0 2 2 2.712 2.712 0 0 0 3.14-2 2.597 2.597 0 0 0-1.455-2.8 2.588 2.588 0 0 0-3.597 1.679 2.587 2.587 0 0 0-.048 1.121h-.04ZM630.214 329.923a2.601 2.601 0 0 0 2 2 2.709 2.709 0 0 0 3.14-2 2.588 2.588 0 0 0-1.455-2.8 2.591 2.591 0 0 0-3.645 2.8h-.04ZM622.264 330.133c.107.49.352.939.707 1.293.354.355.803.6 1.293.707a2.699 2.699 0 0 0 3.14-2 2.588 2.588 0 0 0-1.455-2.8 2.591 2.591 0 0 0-3.645 2.8h-.04Z" fill="#fff"/><path fill-rule="evenodd" clip-rule="evenodd" d="M107.643 436.863c.12-6.59.33-13.72-.33-23.36-.32-4.67-2.57-6.51-7.39-7-4.07-.45-33.34-.69-45.19-.06-6.12.32-6.54 5.58-6.53 7.59 0 4.17-.43 1.27-.16 9.45.05 1.48-.15 9 8.27 9.44 7.31.43 31.93.25 37.18.31 3.68 0 14 10.16 14.15 3.66v-.03Z" fill="#BF0830"/><path fill-rule="evenodd" clip-rule="evenodd" d="M56.483 414.663c4.83.17 21.07.18 42.4.1a.906.906 0 0 0 .927-.534.914.914 0 0 0-.223-1.047.909.909 0 0 0-.704-.229c-21.3.08-37.51.07-42.33-.11a.912.912 0 0 0-.703 1.529.91.91 0 0 0 .633.291ZM56.373 420.413c4.83.17 21.06.18 42.4.1a.905.905 0 0 0 .927-.534.914.914 0 0 0-.222-1.047.909.909 0 0 0-.704-.229c-21.3.08-37.5.07-42.32-.11a.913.913 0 0 0-.946.875.91.91 0 0 0 .875.945h-.01ZM56.643 426.173c4.83.17 21.06.18 42.4.1a.906.906 0 0 0 .927-.535.901.901 0 0 0 0-.74.911.911 0 0 0-.55-.495c-.122-.04-.25-.053-.377-.04-21.31.08-37.51.07-42.33-.11a.913.913 0 0 0-.703 1.529.91.91 0 0 0 .633.291Z" fill="#fff"/><path fill-rule="evenodd" clip-rule="evenodd" d="M145.814 402.704c-15 .15-24.53 4.83-24.67 23.1 0 1.56-.2 9.77 0 21.35.26 18.66.48 73.51.6 89.5.12 16.56 14.89 18.95 27.22 18.85 23.4-.2 121.13.11 160.42-.57 22-.38 22-8.58 22.28-21.2.25-11-.25-83.9-.41-106.56-.07-10.41.32-24.62-24.34-24.43-33.19.25-109.29-.56-161.07 0l-.03-.04Z" fill="#1A2578"/><path fill-rule="evenodd" clip-rule="evenodd" d="M123.694 417.764c18 .66 195.63-.8 204-.77a.907.907 0 0 0 .91-.91.911.911 0 0 0-.91-.91c-8.39 0-186 1.43-204 .78a.918.918 0 0 0-.709.204.92.92 0 0 0-.324.662.906.906 0 0 0 .59.888.928.928 0 0 0 .373.056h.07Z" fill="#fff"/><path fill-rule="evenodd" clip-rule="evenodd" d="M205.554 426.953a41.999 41.999 0 0 1-2.82-11.5 15.554 15.554 0 0 1 1.462-6.864 15.56 15.56 0 0 1 4.328-5.526c2.69-2.33 7.3-4.88 16.26-4.32 6.57.41 14.89 4.26 19 9.52 1.39 1.76 3.41 4.47 3.09 14.84-.15 4.64-.95 12.2-1.47 15.35-.85 5.2-2.21 10.37-5.5 13.09a8.152 8.152 0 0 1-6 1.88c-.12.07-.07 8.18-.14 8.24-1.13.77-4.5 3.33-13.76 3.37a24.862 24.862 0 0 1-10.74-2.48c-.14-.11.3-20.79-.16-24.66-.35-3.58-2.35-7.58-3.55-10.94Z" fill="#fff"/><path fill-rule="evenodd" clip-rule="evenodd" d="M232.874 453.053a15.7 15.7 0 0 1-3.89-.72 13.797 13.797 0 0 1-6.5-3.61.622.622 0 0 0-.45-.189.637.637 0 0 0-.636.644c0 .17.067.334.186.455a15 15 0 0 0 7 3.92 17.15 17.15 0 0 0 4.23.77.64.64 0 1 0 0-1.28l.06.01ZM230.753 423.484a2.13 2.13 0 0 0 1.5-.27c.61-.45.82-1.31.24-1.71a8.445 8.445 0 0 0-4.31-.81 6.997 6.997 0 0 0-4.34 1.32c-1.22.8-1.47 2.27-1 2.37.47.1 1.58-.46 2-.57a12.52 12.52 0 0 1 1.81-.35 17.23 17.23 0 0 1 4.06 0l.04.02ZM246.753 425.314l.1-2a13.26 13.26 0 0 0-4.61-1.76c-1.24-.23-1.67.06-1.8.33-.28.58-.32 1 0 1.38.32.38.88.52 2.18.83 1.421.24 2.807.65 4.13 1.22ZM235.964 427.914a17.843 17.843 0 0 0 1.199 4.42 21.31 21.31 0 0 0 1 2c.108.191.198.392.27.6a.54.54 0 0 1 0 .24.696.696 0 0 1-.32.4 2.766 2.766 0 0 1-.909.37 6.023 6.023 0 0 1-2.141.09 1.846 1.846 0 0 1-.779-.24.644.644 0 0 0-1.037.57.644.644 0 0 0 .236.43c.298.214.64.361 1 .43a7.025 7.025 0 0 0 3 0 2.654 2.654 0 0 0 2.19-1.75 2.232 2.232 0 0 0-.26-1.38c-.26-.55-.7-1.25-1.06-2.16a15.863 15.863 0 0 1-1.13-4.11.618.618 0 0 0-.243-.428.634.634 0 0 0-.477-.122.642.642 0 0 0-.534.47.637.637 0 0 0-.015.25l.01-.08Z" fill="#1D234C"/><path fill-rule="evenodd" clip-rule="evenodd" d="M239.333 444.004c.11-.69.24-1.82-1.53-3.48a6.714 6.714 0 0 0-3.72-1.25 6.998 6.998 0 0 0-3.54.86c-.43.34-1 3.23 1.41 5.45a5.512 5.512 0 0 0 4.58 1.11 3.621 3.621 0 0 0 2.8-2.69Z" fill="#BA5D3D"/><path fill-rule="evenodd" clip-rule="evenodd" d="M239.753 443.054a15.26 15.26 0 0 1-3.91-.49 12.13 12.13 0 0 1-6.05-3.33.637.637 0 0 0-.905.025.637.637 0 0 0 .025.905 13.117 13.117 0 0 0 6.61 3.64c1.382.35 2.804.522 4.23.51a.653.653 0 0 0 .57-.645.647.647 0 0 0-.57-.645v.03ZM242.753 426.954a1.77 1.77 0 1 0 1.76 1.77 1.776 1.776 0 0 0-.512-1.251 1.766 1.766 0 0 0-1.248-.519ZM228.114 426.314a1.998 1.998 0 0 0-1.55 3.375 2 2 0 1 0 1.55-3.375Z" fill="#1D234C"/><path fill-rule="evenodd" clip-rule="evenodd" d="M223.173 429.194c1.19-.71 1.7-1.53 3.19-2.1 2-.74 3.51-.42 4.67.87a.628.628 0 0 0 .9 0 .628.628 0 0 0 .05-.9c-1.52-1.68-3.52-2.18-6.08-1.2-1.57.59-2.12 1.44-3.38 2.18a.65.65 0 0 0-.312.643.654.654 0 0 0 .475.535.645.645 0 0 0 .487-.068v.04ZM239.644 428.094a5.154 5.154 0 0 1 2.19-.73 2.808 2.808 0 0 1 3.07 2 .641.641 0 1 0 1.209-.43 3.998 3.998 0 0 0-4.339-2.8 6.587 6.587 0 0 0-2.841.94.629.629 0 0 0-.18.89.655.655 0 0 0 .891.18v-.05Z" fill="#1D234C"/><path fill-rule="evenodd" clip-rule="evenodd" d="M210.924 395.453c-1.77-.51-5.56-1.87-7.44-1.82-2.92.09-4.49 2.3-7.1 3.13-2.61.83-4 .52-6.59 1.47a5.892 5.892 0 0 0-2.86 1.78 18.287 18.287 0 0 0-1.95 4.22c-.78 1.93-2.2 2-2.59 4.25-.45 2.62.37 5.79-.58 8.29-1.19 3.12-4.68 3.49-5.62 6.79-.48 1.67-.43 5-.9 6.66-.58 2.06-2.22 3.2-2.45 5.5-.26 2.55.74 5.1.18 7.63-.81 3.66-2.92 6.82-3.46 10.61a56.858 56.858 0 0 0-.22 7.83c0 .27-.24 2 .12 2 1.11.06 4.65.1 5.06 0 .16 0-.14-1.61-.06-3.12.076-.972.267-1.932.57-2.86 1 3.53 2.68 6.07 3.19 6 .79-.09 21.74.14 21.76 0 .23-1.77-1.65-3.9-2-6.25-.37-2.67 1.47-5 1.32-7.63-.15-2.63-2.14-4.35-2.54-6.8-.63-3.88 3-6.79 2.78-10.72-.13-3.18-3-5.34-3.22-8.51-.2-2.54 1.79-5.72 1.8-6a38.013 38.013 0 0 1-.25-4.6 22.521 22.521 0 0 1 9.21-15.52 26.184 26.184 0 0 1 3.83-2.36l.01.03Z" fill="#242B45"/><path fill-rule="evenodd" clip-rule="evenodd" d="M196.274 419.894a7.227 7.227 0 0 0 1 5.3c2.32 3.39 3.42 4.56 3.45 7.36a11.476 11.476 0 0 1-1 4.23 11.403 11.403 0 0 0-1 4.49 13.856 13.856 0 0 0 1.36 4.74 11.253 11.253 0 0 1 1.16 4.43c0 1.82-.89 3.5-1.13 5.29a6.991 6.991 0 0 0 .64 3.46 35.343 35.343 0 0 0 2.59 4.78.427.427 0 0 0 .27.202.434.434 0 0 0 .335-.047.454.454 0 0 0 .203-.271.452.452 0 0 0-.048-.334 35.431 35.431 0 0 1-2.52-4.66 5.993 5.993 0 0 1-.59-3c.25-1.83 1.11-3.55 1.14-5.41a12.093 12.093 0 0 0-1.23-4.78 12.888 12.888 0 0 1-1.29-4.43c.025-1.434.345-2.846.94-4.15a12.29 12.29 0 0 0 1.06-4.55c0-3-1.14-4.25-3.6-7.86a6.29 6.29 0 0 1-.82-4.65.457.457 0 0 0-.048-.371.46.46 0 0 0-.312-.206.449.449 0 0 0-.52.437h-.04ZM248.254 400.854c1.76 2.88 2.08 5.21 3.9 7.7 2.68 3.66 3 6.58 1.38 10.59a31.28 31.28 0 0 0-2.33 7.64 4.613 4.613 0 0 1-4.84 4.15s.24-2 .39-5.06c.12-2.45.189-4.89.159-4.93a10.31 10.31 0 0 1-2.629-4c-.93-2.24-2.8-2.55-3.65-5.62a17.024 17.024 0 0 1-6.54 3.43c-2 .51-3.851-.37-6.871.75-3.02 1.12-1.649 2.78-5.279 4.86-1.94 1.11-3.43 1.19-5.45 2.66-1.72 1.27-2.48 3.46-4 3.51-.11 0-5.56 1.34-5.42 4.41.28 5.84-11.22-9.42-9.37-19.26 1.34-7.12 9.63-21.5 30-18.2 4.66.76 5.76 2 8.589 3 2.561.87 8.34-1.7 12 4.32l-.039.05Z" fill="#242B45"/><path fill-rule="evenodd" clip-rule="evenodd" d="M207.754 397.964a15.394 15.394 0 0 0-5-.43 16.284 16.284 0 0 0-9.36 4.85 9.653 9.653 0 0 0-2.14 6c-.17 2-.17 4-1.07 5.83a17.474 17.474 0 0 1-3.37 4.33 16.149 16.149 0 0 0-3.43 4.74 13.31 13.31 0 0 0-.73 7.4 49.7 49.7 0 0 1 .87 8.06 7.517 7.517 0 0 1-1.74 4.12 14.404 14.404 0 0 0-2.47 4.41c-1.3 5.12.16 9.28 2.41 15.32a.443.443 0 1 0 .83-.31c-2.17-5.83-3.63-9.84-2.37-14.79a13.238 13.238 0 0 1 2.33-4.12 8.334 8.334 0 0 0 1.9-4.62 51.194 51.194 0 0 0-.88-8.19 12.397 12.397 0 0 1 .68-6.94 14.946 14.946 0 0 1 3.25-4.46 18.54 18.54 0 0 0 3.52-4.56c1-2 1-4.08 1.16-6.14 0-1.991.677-3.924 1.92-5.48a15.259 15.259 0 0 1 8.82-4.56 14.22 14.22 0 0 1 4.63.42.45.45 0 0 0 .54-.33.461.461 0 0 0-.34-.54l.04-.01Z" fill="#4C5A7B"/><path fill-rule="evenodd" clip-rule="evenodd" d="M200.145 408.114c-3.43.79-4.72 3.18-5.36 5.84-.6 2.47-.61 5.18-1.47 6.87a11.827 11.827 0 0 1-2.73 3 7.055 7.055 0 0 0-2.43 3.67c-.46 2.21.48 4.39 1.6 6.55s2.24 4 2.36 6a12.703 12.703 0 0 1-1.36 5.77 22.67 22.67 0 0 0-2 6 9.723 9.723 0 0 0 1.1 5.79 8.467 8.467 0 0 1 1.06 5.06.449.449 0 0 0 .553.491.433.433 0 0 0 .327-.371 9.262 9.262 0 0 0-1.13-5.54 8.99 8.99 0 0 1-1-5.31 21.837 21.837 0 0 1 2-5.77 13.495 13.495 0 0 0 1.42-6.14c-.12-2.13-1.34-4.25-2.45-6.37s-1.94-3.94-1.52-6a6.194 6.194 0 0 1 2.17-3.19 12.75 12.75 0 0 0 2.91-3.28c.89-1.74.93-4.52 1.54-7.06.57-2.35 1.67-4.49 4.7-5.19a.424.424 0 0 0 .279-.194.447.447 0 0 0 .06-.162.464.464 0 0 0-.08-.331.443.443 0 0 0-.459-.173l-.09.04Z" fill="#4C5A7B"/><path fill-rule="evenodd" clip-rule="evenodd" d="M209.754 395.734c-1.71 1.7-4.61 5-5.72 6.34-3.47 4.14-6.19 9.72-6.19 15.18a.445.445 0 0 0 .445.383.447.447 0 0 0 .445-.383c0-5.25 2.64-10.63 6-14.61 1.09-1.3 4-4.59 5.65-6.28a.444.444 0 0 0 .098-.486.444.444 0 0 0-.413-.273.452.452 0 0 0-.315.129ZM235.874 400.855c-4.46-.94-6.34.19-8.27 1.61a14.479 14.479 0 0 1-4.37 2.55 20.931 20.931 0 0 1-5.68.7 18.203 18.203 0 0 0-6 .93.439.439 0 0 0-.26.57.449.449 0 0 0 .237.249.448.448 0 0 0 .343.011 17.313 17.313 0 0 1 5.721-.87 21.517 21.517 0 0 0 5.92-.75 15.457 15.457 0 0 0 4.62-2.67c1.76-1.3 3.479-2.31 7.559-1.45a.437.437 0 0 0 .354-.052.442.442 0 0 0 .205-.475.463.463 0 0 0-.207-.292.438.438 0 0 0-.172-.061ZM251.604 414.824a8.649 8.649 0 0 0-1.79-4.33 5.293 5.293 0 0 0-2.15-1.34 4.64 4.64 0 0 1-1.86-1.13 24.27 24.27 0 0 1-2.41-4.17 5.425 5.425 0 0 0-4.37-2.86.44.44 0 0 0-.5.37.458.458 0 0 0 .38.51 4.946 4.946 0 0 1 4.14 3.21 15.978 15.978 0 0 0 2.09 3.52 5.408 5.408 0 0 0 2.19 1.37 4.347 4.347 0 0 1 1.8 1.1 7.541 7.541 0 0 1 1.59 3.87.45.45 0 1 0 .89-.12ZM239.874 405.314a16.217 16.217 0 0 0-8.13 3c-1.7 1.13-3.88 1.16-5.84 1.39-2.2.26-4.14.77-5.14 2.82-.83 1.7-1.87 3.94-4.75 4.92a13.986 13.986 0 0 0-4.92 2.81 5.684 5.684 0 0 0-1.83 3.1.447.447 0 0 0 .178.504.45.45 0 0 0 .702-.354 4.705 4.705 0 0 1 1.56-2.6 12.932 12.932 0 0 1 4.6-2.62c3.16-1.08 4.35-3.5 5.26-5.37.91-1.87 2.57-2.1 4.44-2.32 2.1-.25 4.41-.33 6.24-1.54a15.295 15.295 0 0 1 7.68-2.86.45.45 0 0 0 0-.89l-.05.01Z" fill="#4C5A7B"/><path fill-rule="evenodd" clip-rule="evenodd" d="M240.854 409.494c-.48-4.26-1-7.88-2.71-10.76a.447.447 0 0 0-.274-.203.438.438 0 0 0-.336.053.455.455 0 0 0-.205.273.446.446 0 0 0 .045.337c1.65 2.78 2.13 6.28 2.6 10.4a.451.451 0 0 0 .49.4.45.45 0 0 0 .168-.052.444.444 0 0 0 .222-.448Z" fill="#4C5A7B"/><path fill-rule="evenodd" clip-rule="evenodd" d="M215.844 430.183a8.335 8.335 0 0 0-5.77-6.41c-2.22-.65-6.23 0-7.67 2.26a6.066 6.066 0 0 0-.58 4.1c.56 3.16 2.53 6.48 7.56 7.69.3.07 6.1-6.82 6.46-7.64Z" fill="#fff"/><path fill-rule="evenodd" clip-rule="evenodd" d="M211.753 430.023a3.854 3.854 0 0 0-.9-1.45 4.27 4.27 0 0 0-5-.81.64.64 0 0 0-.329.365.64.64 0 0 0 .879.795 3.246 3.246 0 0 1 2.22-.24c-.123.398-.29.781-.5 1.14a2.339 2.339 0 0 1-1.7 1.21.65.65 0 0 0-.55.73.657.657 0 0 0 .73.55 3.636 3.636 0 0 0 2.62-1.83c.213-.372.391-.764.53-1.17l.19.18c.271.259.476.577.6.93a.642.642 0 0 0 1.182.099.626.626 0 0 0 .028-.499Z" fill="#1D234C"/><path fill-rule="evenodd" clip-rule="evenodd" d="M209.504 460.544a3.681 3.681 0 0 0-3.09-.73 65.782 65.782 0 0 0-10.37 2.71c-8.61 3.08-22.37 7.25-30.93 17.76-11.89 14.59-4.53 46.66-2.23 54.19a1.857 1.857 0 0 0 .981 1.288 1.866 1.866 0 0 0 1.619.032c1.38-.46 3-1.23 3.27-.75 2.37 4.07 7.5 19.66 8.52 20.09 2 .82 55.72.15 67 .22 5.17 0 29.66-.09 36-.13 1.32 0 1.81-18.26 1.8-19.94 0-.65.9-1.06 2-1.34l.5-.14c3.27-.69 3.37-1.92 3.44-2.76.26-3.18.39-9 .29-12.12-.5-15.69-4.36-34-16.23-44.49-4.49-4-12.79-7.73-23.77-11.79a64.867 64.867 0 0 0-9.74-3 3.398 3.398 0 0 0-3.6.7 13.885 13.885 0 0 1-5.2 2.48c-8.56 2.44-15.82.61-20.25-2.24l-.01-.04Z" fill="#5C69A5"/><path fill-rule="evenodd" clip-rule="evenodd" d="M167.574 535.054c.34 1.71 5.81 17.51 7 20.36 0 0 13.87.18 19.69.18.26 0 .64-3.36 1-6.59.58-6.06 1.19-15.61 1.62-20.38.06-.65-14.08 1.24-29.25 6.43h-.06Z" fill="#fff"/><path fill-rule="evenodd" clip-rule="evenodd" d="M201.824 524.174c.45-1.08 5.23-2.55 6.23-2.76 7.57-1.57 14.06 4.66 21.44 4.36a16.743 16.743 0 0 0 5.51-1.11c3-1.18 5.53-2.13 8.58-3.11a22.999 22.999 0 0 1 15.56.21s-.11 3.53-.32 8.37c0 .23-1.5-1-4.07-1.39a20.455 20.455 0 0 0-9.61.66c-4.12 1.33-7.27 4-11.55 4.83-7 1.32-13.38-2.11-20.12-3a14.584 14.584 0 0 0-7.3.52c-.85.34-2.93 2-3.12 1.87-.43-.18-.5-1.36-.55-1.71-.23-1.65-.61-6.05-.68-7.71v-.03Z" fill="#BF0830"/><path fill-rule="evenodd" clip-rule="evenodd" d="M179.195 484.003c-3.08-1.41-4.7 2.71-5.11 3.78a10.481 10.481 0 0 0 1.19 9.59c2.57 3.68 7.27 6.39 11.32 8.09 2.25 1 8.79 3.37 10.1 5.66.93 1.63-.47 17.87-1.6 30.09-.14 1.49-.27 2.92-.39 4.26-.18 1.92-.34 3.65-.47 5.09a23.875 23.875 0 0 0 0 5h21.33c.05 0-1.49-28.35-1.82-36.93-.32-8.41-.44-16.32-5.79-23.11a37.935 37.935 0 0 0-9.65-8.83 50.486 50.486 0 0 1-4.68-4.31c-1.11-1.13-2.91-2.36-4.42-.65-.79.89-.74 2.22.59 3.85a13.612 13.612 0 0 1 3.15 6.22c.05.22-4 0-4-.62-.09-1.56-.27-2.62-1.58-3a3.093 3.093 0 0 0-3 1.2s1.63-4.17-1-4.74c-2.39-.52-3.44 2.14-3.73 1.86 0 0 .52-2-.5-2.47l.06-.03Z" fill="#fff"/><path fill-rule="evenodd" clip-rule="evenodd" d="M182.965 490.654a14.365 14.365 0 0 0-.81 2.62 9.466 9.466 0 0 0 .69 6.7.627.627 0 0 0 .825.152.627.627 0 0 0 .245-.802 8.186 8.186 0 0 1-.53-5.8c.161-.815.402-1.613.72-2.38a.62.62 0 0 0-1.14-.49ZM179.585 497.633a.618.618 0 0 1 .036.915.63.63 0 0 1-.742.11.699.699 0 0 1-.234-.195 13.377 13.377 0 0 1-.86-1.79 9.652 9.652 0 0 1 .08-6.74c.21-.61.44-1.22.71-1.81l.29-.65a.627.627 0 0 1 .84-.29c.074.035.14.085.194.146a.607.607 0 0 1 .157.449.602.602 0 0 1-.061.235c-.1.21-.19.41-.28.62-.249.551-.47 1.116-.66 1.69a8.406 8.406 0 0 0-.11 5.89c0 .08.55 1.22.64 1.42ZM187.864 492.574a11.947 11.947 0 0 0 .18 6.6c.82 2.07 2.64 3.8 5.33 5.29a.616.616 0 0 0 .475.058.625.625 0 0 0 .135-1.148c-2.39-1.32-4.05-2.82-4.78-4.66a10.686 10.686 0 0 1-.12-5.88.626.626 0 0 0-.723-.744.626.626 0 0 0-.497.484ZM194.334 554.313c.41-6 1.18-12 1.51-17.3.11-1.8.53-6.69.57-7.34a.631.631 0 1 0-1.25-.07c0 .65-.46 5.53-.57 7.33-.32 5.28-1.1 11.3-1.51 17.29a.632.632 0 0 0 .584.609.631.631 0 0 0 .666-.519Z" fill="#111851"/><path fill-rule="evenodd" clip-rule="evenodd" d="M258.064 537.914c-.06 1.35-.24 4-.33 5.2-.07.93-1 11.55-1.07 12.21 0 0 25.81-.1 25.82-.12.63-11.2 2.08-21.4 2-21.38-2 .57-18.53 4.3-26.41 4.09h-.01Z" fill="#fff"/><path fill-rule="evenodd" clip-rule="evenodd" d="M265.233 507.514a.612.612 0 0 0-.477.018.63.63 0 0 0-.197.143.638.638 0 0 0-.126.209c-.82 2.26-2.51 5.32-4.69 6.63a14.023 14.023 0 0 1-1.73-3.35.627.627 0 0 0-.747-.379.628.628 0 0 0-.463.699 14.022 14.022 0 0 0 2.06 4c0 .75-.25 5.29-.35 6.81-.29 4.79-.29 9.29-.54 14.72a.628.628 0 0 0 .163.454.636.636 0 0 0 .437.206.631.631 0 0 0 .65-.6c.25-5.42.24-9.92.54-14.7.08-1.41.3-5.38.34-6.61 2.54-1.37 4.56-4.85 5.5-7.43a.624.624 0 0 0-.158-.69.626.626 0 0 0-.212-.13ZM201.853 463.394a37.983 37.983 0 0 0 11.361 5.54c15.86 4.44 24.4-.79 28.81-5.9a.625.625 0 0 0-.95-.81c-4.21 4.88-12.38 9.74-27.52 5.51a36.982 36.982 0 0 1-11-5.38.623.623 0 0 0-.86.17.63.63 0 0 0 .169.87h-.01Z" fill="#111851"/><path d="M141.064 413.244a3.549 3.549 0 0 1-1.981-.573 3.535 3.535 0 0 1-.59-5.452 3.534 3.534 0 0 1 3.864-.79 3.539 3.539 0 0 1 2.197 3.275 3.531 3.531 0 0 1-3.49 3.54Zm0-5.83a2.286 2.286 0 0 0-2.151 1.378 2.288 2.288 0 0 0 1.635 3.153 2.292 2.292 0 0 0 2.756-2.241 2.271 2.271 0 0 0-2.24-2.29Zm22.28 5.83a3.549 3.549 0 0 1-1.981-.573 3.535 3.535 0 0 1-.59-5.452 3.534 3.534 0 0 1 3.864-.79 3.539 3.539 0 0 1 2.197 3.275 3.531 3.531 0 0 1-3.49 3.54Zm0-5.83a2.286 2.286 0 0 0-2.151 1.378 2.288 2.288 0 0 0 1.635 3.153 2.292 2.292 0 0 0 2.756-2.241 2.271 2.271 0 0 0-2.24-2.29Zm-11 5.64a3.555 3.555 0 0 1-3.549-4.206 3.552 3.552 0 0 1 4.833-2.63 3.554 3.554 0 0 1 2.206 3.286 3.522 3.522 0 0 1-3.44 3.55h-.05Zm0-5.83a2.288 2.288 0 0 0-2.302 2.709 2.298 2.298 0 0 0 1.792 1.824 2.296 2.296 0 0 0 2.365-.973c.253-.379.387-.825.385-1.28a2.262 2.262 0 0 0-2.19-2.28h-.05Z" fill="#fff"/><path fill-rule="evenodd" clip-rule="evenodd" d="M253.314 435.774c9-.18 43.66.11 48.91-.37 2.55-.23 3.55-1.88 3.83-5.4.25-3 .28-31.94-.07-40.59-.17-4.46-3.05-4.51-4.13-4.76-4-.92-33 0-37.89.32-.8.06-4.87-.11-5.14 6-.23 5.33 0 26.7 0 30.53 0 2.68-9 14.31-5.48 14.24l-.03.03Z" fill="#BF0830"/><path fill-rule="evenodd" clip-rule="evenodd" d="M289.304 410.134a3.313 3.313 0 0 0 2.46 2.55 3.382 3.382 0 0 0 3.94-2.52 3.26 3.26 0 0 0-.709-2.656 3.244 3.244 0 0 0-3.865-.857 3.233 3.233 0 0 0-1.766 2.106 3.245 3.245 0 0 0-.06 1.407v-.03ZM278.504 409.814a3.291 3.291 0 0 0 2.46 2.55 3.391 3.391 0 0 0 3.93-2.53 3.246 3.246 0 0 0-4.575-3.538 3.246 3.246 0 0 0-1.815 3.538v-.02ZM268.543 410.073a3.29 3.29 0 0 0 2.46 2.55 3.38 3.38 0 0 0 3.93-2.53 3.24 3.24 0 0 0-.695-2.672 3.254 3.254 0 0 0-3.88-.865 3.254 3.254 0 0 0-1.815 3.537v-.02Z" fill="#fff"/></g><defs><filter id="a" x="0" y="38" width="677.503" height="541.594" filterUnits="userSpaceOnUse" color-interpolation-filters="sRGB"><feFlood flood-opacity="0" result="BackgroundImageFix"/><feColorMatrix in="SourceAlpha" values="0 0 0 0 0 0 0 0 0 0 0 0 0 0 0 0 0 0 127 0" result="hardAlpha"/><feOffset dy="4"/><feGaussianBlur stdDeviation="10"/><feComposite in2="hardAlpha" operator="out"/><feColorMatrix values="0 0 0 0 0 0 0 0 0 0 0 0 0 0 0 0 0 0 0.08 0"/><feBlend in2="BackgroundImageFix" result="effect1_dropShadow_428_20955"/><feBlend in="SourceGraphic" in2="effect1_dropShadow_428_20955" result="shape"/></filter></defs></svg>