<svg width="720" height="486" fill="none" xmlns="http://www.w3.org/2000/svg"><g filter="url(#a)"><g clip-path="url(#b)"><rect x="35" y="213.042" width="178" height="169.521" rx="84.761" fill="#fff"/><path d="M123.006 387.187c50.494 0 91.427-38.983 91.427-87.072 0-48.089-40.933-87.073-91.427-87.073-50.494 0-91.428 38.984-91.428 87.073 0 48.089 40.934 87.072 91.428 87.072Z" fill="#BF0830"/><path d="M113.254 246.42s-6.404-5.099-10.564 1.077c-4.16 6.175-.651 14.099.592 17.245 1.243 3.147 4.914 18.812 4.914 18.812s.734 2.629 6.118 6.125c5.383 3.496 4.404-6.341 4.404-6.341l-5.464-36.918Z" fill="#120283"/><path d="m207.014 455.411-29.803.351-1.733.019-93.808 1.107-9.7.114-40.377.466s.076-1.92.262-5.325c.029-.545.062-1.128.098-1.748a468.9 468.9 0 0 1 .215-3.572 407.943 407.943 0 0 1 .15-2.317 699.486 699.486 0 0 1 .574-8.038c.04-.489.076-.983.115-1.484.04-.501.08-1.007.123-1.522.041-.515.083-1.033.127-1.557l.132-1.592c.044-.536.093-1.079.14-1.631 1.57-18.061 4.29-41.968 8.828-63.683a58.763 58.763 0 0 1 2.364-8.295 54.049 54.049 0 0 1 2.467-5.672c.388-.763.796-1.506 1.223-2.23.428-.724.859-1.431 1.293-2.119a47.416 47.416 0 0 1 1.84-2.65 46.9 46.9 0 0 1 2.466-3.046c.172-.193.343-.387.514-.575a45.698 45.698 0 0 1 2.115-2.189l.543-.519c16.532-15.615 40.107-16.531 43.235-17.246l.134-.033c.154-.037.311-.081.468-.128l.217-.067.221-.073.217-.079.221-.084c.068-.026.139-.053.208-.084a12.414 12.414 0 0 0 2.606-1.477l.225-.168a14.674 14.674 0 0 0 .666-.541l.215-.189.223-.205c.144-.135.286-.275.43-.419.074-.072.142-.145.211-.219l.21-.233a9.11 9.11 0 0 0 .208-.233c.069-.08.137-.159.203-.233l.196-.233c1.899-2.366 3.426-5.643 4.038-9.959 1.306-9.184-.066-29.303-.066-29.303l7.806 4.372 15.115 8.464c-.244 5.791-.332 10.448-.102 14.235.376 6.206 1.617 10.086 4.485 12.818.211.202.431.398.658.584.113.098.23.192.348.28l.362.273c.117.088.245.179.377.263.132.084.259.175.391.257.697.441 1.424.836 2.178 1.181h.012c.155.072.311.145.47.212.159.068.331.147.49.215.159.067.34.142.514.209.173.068.335.133.509.198l.567.21c.389.14.792.277 1.209.413.149.051.301.098.455.146.49.154.999.308 1.522.467l.49.135.183.051.779.212 1.223.312c2.07.522 4.324 1.166 6.69 1.921.591.191 1.188.389 1.792.594.605.208 1.214.423 1.828.646a82.54 82.54 0 0 1 1.857.699c15.59 6.001 33.488 17.36 36.29 37.4 3.58 25.645 7.048 92.146 7.048 92.146Z" fill="#FFE6E6"/><path d="m207.013 455.41-9.21.11-20.592.233-1.733.019-93.808 1.107-3.336.039-6.362.075-19.682.233-20.707.233s.025-.641.083-1.839c.025-.517.054-1.142.09-1.864.028-.497.055-1.037.086-1.632.033-.545.066-1.128.098-1.747.064-1.082.135-2.277.216-3.573.037-.555.074-1.128.11-1.72a914.607 914.607 0 0 1 .614-8.635c.04-.489.076-.983.115-1.484 0-.105.017-.212.027-.319.03-.397.064-.797.095-1.203l.054-.655.074-.902.132-1.591a753.456 753.456 0 0 1 1.588-16.57c.066-.613.132-1.231.203-1.865a653.489 653.489 0 0 1 2.379-19.017c.085-.615.176-1.23.266-1.848a466.476 466.476 0 0 1 3.133-18.958 349.38 349.38 0 0 1 1.4-7.069 58.974 58.974 0 0 1 1.754-6.551 54.955 54.955 0 0 1 1.608-4.255c.4-.942.825-1.858 1.272-2.748.066-.138.137-.275.206-.413l.734-1.398c.154-.284.31-.564.472-.841.42-.724.85-1.43 1.292-2.119.15-.233.299-.466.448-.68a42.65 42.65 0 0 1 1.392-1.969 47.466 47.466 0 0 1 2.98-3.622c.69-.76 1.396-1.489 2.115-2.188l.543-.52a52.831 52.831 0 0 1 7.902-6.132 56.972 56.972 0 0 1 2.843-1.699c14.543-8.145 29.999-8.856 32.49-9.422.044 0 .088-.018.135-.032l.036-.012c.142-.035.287-.075.431-.117l.218-.067.22-.072.218-.08.22-.084a12.419 12.419 0 0 0 2.814-1.561l.225-.168c.15-.112.299-.233.446-.354.073-.061.147-.121.22-.186.073-.066.144-.124.215-.189l.223-.205c.147-.136.291-.275.431-.42.073-.072.142-.144.21-.219.069-.074.142-.149.211-.233.068-.084.139-.154.208-.233l.203-.233.198-.233c18.38 7.525 28.168 2.803 31.283.673a12.704 12.704 0 0 0 1.006.865c.117.091.245.182.362.273.118.091.245.177.377.263.132.086.259.172.392.256.698.439 1.425.834 2.177 1.182h.013c.154.072.31.142.47.212.159.07.33.147.489.214.159.068.34.143.514.21.163.069.326.134.489.196l.568.21c.388.14.791.277 1.209.412.149.051.301.098.455.147.489.154.998.308 1.522.466l.061.016.426.119.184.052.778.212 1.223.312c2.07.522 4.324 1.165 6.691 1.92.589.189 1.189.387 1.791.595a93.553 93.553 0 0 1 3.685 1.344 89.18 89.18 0 0 1 10.912 5.02 87.697 87.697 0 0 1 2.936 1.694c7.248 4.417 13.885 10.227 18.108 17.773a36.481 36.481 0 0 1 4.363 12.911 274.882 274.882 0 0 1 1.136 9.455c.112 1.047.223 2.121.333 3.223.489 4.847.957 10.198 1.412 15.763.049.618.1 1.238.149 1.865.489 6.25.979 12.727 1.409 19.031l.128 1.864c.46 6.759.876 13.284 1.223 19.045.037.632.076 1.254.113 1.864.568 9.404.957 16.547 1.089 19.057.041.643.058.983.058.983Z" fill="#5661E1"/><path d="M177.491 332.576c-14.437.879-29.318 1.214-43.648 1.214-14.988 0-29.365-.366-41.957-.864a1322.81 1322.81 0 0 1-26.825-1.34 55.488 55.488 0 0 1 2.843-1.699c7.484.433 15.583.841 24.077 1.177 23.803.932 53.973 1.414 82.576-.182a69.363 69.363 0 0 1 2.934 1.694ZM196.547 352.136c-20.005 2.039-41.94 2.743-62.699 2.743-14.988 0-29.364-.366-41.957-.865a1338.47 1338.47 0 0 1-44.914-2.547c.067-.137.138-.275.206-.412l.734-1.399c12.01.874 27.263 1.823 44.065 2.487 29.756 1.165 69.467 1.631 103.623-1.795.331.583.645 1.179.942 1.788ZM201.096 372.715c-21.196 2.419-44.903 3.234-67.248 3.234-14.988 0-29.365-.366-41.957-.864a1351.543 1351.543 0 0 1-50.948-3.004c.116-.622.233-1.237.352-1.846 12.762.995 30.623 2.195 50.691 2.988 31.306 1.237 73.63 1.668 108.912-2.361.067.606.133 1.223.198 1.853Z" fill="#3547C9"/><path d="M112.378 280.017s.653 10.102 8.32 19.443c5.009 6.111 10.434 5.36 13.591 4.102-.233-3.787-.142-8.444.1-14.235l-15.115-8.464-6.896-.846Z" fill="#120283"/><path d="M106.341 269.694c1.894-.233 3.14.233 3.876.711-.12-9.462.867-20.974.867-20.974h37.043l-.1 20.823s-.069 1.03 0 7.565c.083 7.942-6.693 20.042-15.771 20.042-13.966 0-19.087-9.765-21.057-17.32-2.203.466-5.653.734-6.84-1.69-1.808-3.668-1.453-8.735 1.982-9.157Z" fill="#FFE6E6"/><path d="M126.654 277.115c.603 0 1.092-.465 1.092-1.039 0-.575-.489-1.04-1.092-1.04-.602 0-1.091.465-1.091 1.04 0 .574.489 1.039 1.091 1.039ZM138.06 277.115c.602 0 1.091-.465 1.091-1.039 0-.575-.489-1.04-1.091-1.04-.603 0-1.092.465-1.092 1.04 0 .574.489 1.039 1.092 1.039ZM131.186 269.124s-.675.172-3.707.172-4.38.28-4.324 0c.245-1.202 5.643-1.804 6.548-1.676.906.129 1.858.732 1.483 1.504ZM135.951 269.124s.675.172 3.707.172 4.383.28 4.326 0c-.244-1.202-5.645-1.804-6.548-1.676-.903.129-1.86.732-1.485 1.504Z" fill="#120283"/><path d="m109.346 269.422 2.244 7.476s.166-8.947 1.248-14.645 4.405-7.127 7.769-7.691c.113-.014.226-.014.338 0h24.312s7.05-2.197.11-9.683c-.69-.335-4.703-1.065-5.484-1.268-9.524-2.454-24.05-5.998-26.629 2.797 0 0-3.915-3.221-5.237 4.169-1.321 7.39 1.329 18.845 1.329 18.845Z" fill="#120283"/><path d="M100.571 320.42c22.687 13.033 39.114 4.195 45.077-.144-2.958-1.065-5.202-2.282-6.886-3.89-3.115 2.128-12.891 6.847-31.273-.634-2.09 2.592-4.633 4.1-6.918 4.668Z" fill="#3547C9"/><path d="M133.271 283.338c.185-.053.374-.091.565-.112.774-.122 1.738-.271 1.889-.79.084-.278-.085-.583-.514-.933-1.595-1.302-1.316-4.171-1.314-4.194l-.33-.033c-.012.126-.296 3.062 1.427 4.472.308.252.452.466.411.608-.096.327-1.089.48-1.623.564a2.242 2.242 0 0 0-.695.161l.184.257ZM133.327 284.918s-2.826-.266-4.759-1.364c0 0 .472 3.242 4.759 1.364ZM148.127 267.604s-1.084-6.672-5.075-10.471c0 0-9.84-3.379-14.563 7.705-4.722 11.084-19.131 4.584-19.131 4.584l1.885-.909s10.767 3.715 14.467-3.463c0 0-4.755 6.164-15.485 2.564l2.165-17.439 36.584-2.098s3.328 6.987-.847 19.527Z" fill="#120283"/><path d="M109.011 247.427s-4.241-6.805 1.877-11c6.117-4.195 18.108-1.981 21.656 0 3.548 1.981 10.464-4.195 15.571 1.048 5.107 5.244-.521 15.032-.521 15.032l-38.583-5.08Z" fill="#120283"/><path d="M143.04 257.133s-1.862 11.201 5.383 14.184c0 0 5.171-12.275.539-23.252l-5.922 9.068ZM81.67 456.888l-9.7.114c2.838-28.628 11.846-104.085 12.059-105.858-.128 1.761-5.293 73.995-2.36 105.744ZM177.211 455.762l-1.733.019-8.976-102.922 10.709 102.903ZM201.429 375.938c-6.005-34.618-40.31-50.141-52.531-54.627l.426.118.183.052.778.212 1.224.312c2.07.522 4.324 1.165 6.69 1.92.59.189 1.19.387 1.792.595a91.334 91.334 0 0 1 3.685 1.344 89.103 89.103 0 0 1 10.88 5.018 87.697 87.697 0 0 1 2.936 1.694c7.248 4.417 13.885 10.226 18.108 17.773a36.481 36.481 0 0 1 4.363 12.911 274.882 274.882 0 0 1 1.136 9.455c.111 1.041.221 2.115.33 3.223Z" fill="#120283"/></g></g><g filter="url(#c)"><g clip-path="url(#d)"><rect x="243" y="328.93" width="164" height="157.07" rx="78.535" fill="#fff"/><path d="M324.614 524.141c57.63 0 104.348-44.744 104.348-99.939 0-55.194-46.718-99.938-104.348-99.938-57.629 0-104.347 44.744-104.347 99.938 0 55.195 46.718 99.939 104.347 99.939Z" fill="#BF0830"/><path d="M343.164 360.902s10.376-.46 9.851 11.301c-.746 17.05-4.581 33.57-14.431 36.627-9.851 3.057-10.23-15.961-10.23-15.961l14.81-31.967Z" fill="#000"/><path d="M345.008 362.293s.977-11.366-20.612-12.24c-21.589-.875-31.28 14.711-28.152 30.202 3.128 15.49 5.248 25.756 13.437 27.069 8.188 1.314 18.678-14.444 18.678-14.444l16.649-30.587Z" fill="#000"/><path d="M402.82 525.446v.391c-.215.34-.436.671-.662 1.008-.123.179-.249.359-.366.535-4.382 6.265-10.655 11.548-17.975 15.988a63.123 63.123 0 0 1-2.645 1.543c-17.218 9.675-39.393 15.119-56.715 18.109-15.986 2.761-27.845 3.432-27.845 3.432l-37.748-18.799-7.82-3.895-.726-.363-2.771-1.381-4.547-2.265V495.68s0-.315.031-.893c.023-.345.056-.786.101-1.311a61.04 61.04 0 0 1 3.142-14.262c.145-.415.301-.837.461-1.263a57.588 57.588 0 0 1 7.356-13.834c.302-.407.603-.802.919-1.22 4.069-5.287 9.14-9.795 14.947-13.288a54.468 54.468 0 0 1 2.014-1.161c5.516-3.039 12.079-5.5 19.888-7.057 2.1-.417 4.293-.773 6.58-1.051l51.668-.211.19.056c.559.166 2.329.701 4.879 1.632l.134.048.165.061c.065.022.141.051.226.089a107.596 107.596 0 0 1 14.224 6.473c.684.376 1.373.765 2.07 1.166 5.865 3.416 11.959 7.805 16.888 13.275.361.396.718.803 1.059 1.209a40.175 40.175 0 0 1 7.851 13.888c.139.42.279.848.419 1.282 1.368 4.354 2.365 9.239 3.072 14.332a142.671 142.671 0 0 1 .609 5.047c.368 3.584.617 7.222.77 10.788.02.444.037.88.056 1.321.193 5.141.193 10.135.101 14.65Z" fill="#fff"/><path d="M371.995 449.673a722.456 722.456 0 0 1-51.729 1.872c-14.47 0-27.156-.449-37.704-1.07a497.263 497.263 0 0 1-12.604-.859 55.02 55.02 0 0 1 2.013-1.16c3.393.258 6.961.496 10.705.714 21.318 1.228 51.389 1.805 87.25-.674.685.376 1.375.768 2.069 1.177ZM389.942 464.144a724.833 724.833 0 0 1-69.676 3.383c-14.47 0-27.155-.449-37.704-1.07-11.057-.639-20.62-1.489-28.471-2.348.302-.407.604-.803.919-1.22a559.737 559.737 0 0 0 27.666 2.26c24.977 1.44 61.985 1.985 106.208-2.228.36.41.717.813 1.058 1.223ZM398.223 479.297a728.272 728.272 0 0 1-77.958 4.223c-14.469 0-27.155-.446-37.703-1.056-15.051-.872-27.34-2.14-36.308-3.263.146-.415.302-.838.461-1.263 8.901 1.115 21.07 2.362 35.947 3.21 26.653 1.546 66.973 2.062 115.131-3.122.151.41.293.837.43 1.271Z" fill="#5C5249"/><path d="M355.177 441.822c-7.656 6.024-19.816 13.468-32.747 12.933-17.511-.712-27.465-9.937-30.571-13.374a88.832 88.832 0 0 1 6.58-1.052l51.668-.211.19.056c.576.182 2.33.717 4.88 1.648Z" fill="#EA5E42"/><path d="M350.11 440.132c-5.725 4.563-11.272 7.334-16.495 8.843h-.033c-17.224 4.948-30.951-3.919-36.293-8.204a53.99 53.99 0 0 0 1.153-.433 19.378 19.378 0 0 0 2.893-1.389c13.616-7.995 11.138-26.502 11.138-26.502h24.156a47.253 47.253 0 0 0 .098 9.295c.818 7.653 3.767 14.391 13.383 18.39Z" fill="#fff"/><path d="M336.732 421.75c-1.416 2.319-3.443 3.959-6.315 4.186-11.263.899-17.595-9.699-17.463-10.678l.583-2.803h23.092a47.33 47.33 0 0 0 .103 9.295Z" fill="#000"/><path d="M351.898 392.195c0-3.023-2.235-5.473-4.98-5.473-2.745 0-4.982 2.45-4.982 5.473 0 3.023 2.234 6.818 4.979 6.818 2.746 0 4.983-3.795 4.983-6.818Z" fill="#fff"/><path d="m345.614 394.07-.352-.035c0-.037.427-3.603 3.885-3.691v.337c-3.142.08-3.531 3.354-3.533 3.389Z" fill="#000"/><path d="M349.023 393.562c-.586-.584-1.189-.856-1.787-.83-.908.051-1.522.803-1.53.803l-.28-.204c.218-.262.488-.48.794-.642.306-.162.643-.265.991-.302.72-.04 1.396.268 2.067.928l-.255.247Z" fill="#000"/><path d="M296.604 392.195c0-3.023 2.235-5.473 4.977-5.473 2.743 0 4.98 2.45 4.98 5.473 0 3.023-2.234 6.818-4.98 6.818-2.745 0-4.977-3.795-4.977-6.818Z" fill="#fff"/><path d="m303.439 394.07.352-.034c0-.038-.428-3.603-3.885-3.692v.337c3.142.081 3.53 3.355 3.533 3.389Z" fill="#000"/><path d="M300.026 393.562c.589-.583 1.19-.856 1.79-.829.598.07 1.145.357 1.528.802l.279-.203a2.62 2.62 0 0 0-.792-.643 2.732 2.732 0 0 0-.99-.301c-.72-.04-1.396.267-2.067.928l.252.246Z" fill="#000"/><path d="M338.486 413.203c-3.689 4.058-8.359 6.671-13.964 6.586-5.586.085-10.269-2.528-13.964-6.586a.646.646 0 0 0-.065-.075c-6.608-7.997-7.954-19.649-6.164-33.518 1.288-9.98 11.11-13.848 16.565-15.247a14.64 14.64 0 0 1 7.245 0c5.454 1.388 15.279 5.256 16.567 15.247 1.804 13.914.447 25.596-6.22 33.593Z" fill="#fff"/><path d="M332.063 393.541c.662 0 1.198-.514 1.198-1.148 0-.634-.536-1.147-1.198-1.147-.662 0-1.198.513-1.198 1.147s.536 1.148 1.198 1.148ZM316.23 393.541c.662 0 1.198-.514 1.198-1.148 0-.634-.536-1.147-1.198-1.147-.661 0-1.198.513-1.198 1.147s.537 1.148 1.198 1.148ZM338.461 382.855s-2.874.112-6.65.141c-3.776.03-4.748-.029-4.412-1.495.335-1.466 4.125-1.439 6.487-.931 2.363.508 4.575 2.285 4.575 2.285ZM309.552 382.855s2.874.112 6.65.141c3.776.03 4.748-.029 4.41-1.495-.338-1.466-4.122-1.439-6.485-.931-2.363.508-4.575 2.285-4.575 2.285ZM323.723 400.455a1.71 1.71 0 0 1-1.092-.268.595.595 0 0 1-.187-.572c.173-1.054.813-5.237.818-5.278l.349.049c0 .042-.647 4.226-.821 5.282a.255.255 0 0 0 .002.145.27.27 0 0 0 .079.123c.327.294 1.467.182 2.112.04l.078.329c-.44.093-.888.143-1.338.15ZM324.927 402.913a6.733 6.733 0 0 1-1.276-.11.201.201 0 0 1-.071-.029.19.19 0 0 1-.052-.054.185.185 0 0 1-.028-.068.184.184 0 0 1 .091-.191.204.204 0 0 1 .149-.024c.179.04 4.421.923 6.619-2.924a.209.209 0 0 1 .051-.06.215.215 0 0 1 .152-.041.221.221 0 0 1 .076.026.201.201 0 0 1 .099.118.2.2 0 0 1 .006.077.206.206 0 0 1-.026.073c-1.59 2.752-4.226 3.207-5.79 3.207ZM327.631 403.707a.197.197 0 0 1-.136-.046.18.18 0 0 1-.027-.254.197.197 0 0 1 .124-.071c.294-.054.578-.156.837-.3a.21.21 0 0 1 .149-.02.217.217 0 0 1 .069.032.191.191 0 0 1 .076.124.186.186 0 0 1-.095.188 3.122 3.122 0 0 1-.964.345l-.033.002ZM343.407 373.576l1.321 18.815 1.416-6.345s4.215-8.426-2.737-12.47ZM305.642 371.374l-1.852 21.016-.879-6.344s-4.22-8.426 2.731-14.672Z" fill="#000"/><path d="M344.536 380.956s-1.629-3.478-6.128-10.638c0 0-19.757 12.657-35.411 7.714 0 0-2.312-5.885 4.008-11.015 6.32-5.13 12.831-8.712 22.212-5.778 9.381 2.935 17.905 11.187 15.319 19.717Z" fill="#000"/><path d="M339.335 370.497s-.382 4.097 3.572 10.638c0 0-3.365-3.649-4.53-9.782 0 0-7.404 7.398-15.64 8.744 0 0 8.041-1.102 15.445-10.395l1.153.795Z" fill="#000"/><path d="M402.82 525.446v.391c-.215.339-.435.671-.662 1.008-.123.179-.248.358-.366.535 1.143-64.948-40.89-83.343-46.082-85.363a107.725 107.725 0 0 1 14.224 6.473c.683.377 1.373.765 2.07 1.166 5.865 3.416 11.959 7.806 16.888 13.276.36.396.718.802 1.059 1.209a40.156 40.156 0 0 1 7.842 13.885c.14.42.279.848.419 1.281 1.368 4.355 2.366 9.239 3.072 14.332a142.18 142.18 0 0 1 .609 5.048c.369 3.584.617 7.222.771 10.787.019.444.036.88.056 1.322.192 5.141.192 10.135.1 14.65Z" fill="#EA5E42"/></g></g><g filter="url(#e)"><g clip-path="url(#f)"><rect x="533" y="335.634" width="152" height="149.408" rx="74.704" fill="#fff"/><path d="M608.151 486.794c43.116 0 78.069-34.357 78.069-76.738 0-42.382-34.953-76.739-78.069-76.739-43.117 0-78.069 34.357-78.069 76.739 0 42.381 34.952 76.738 78.069 76.738Z" fill="#BF0830"/><path d="M616.48 362.734s5.468-4.492 9.02.951c3.553 5.442.556 12.426-.505 15.198-1.062 2.773-4.196 16.58-4.196 16.58s-.627 2.316-5.224 5.397c-4.597 3.081-3.761-5.591-3.761-5.591l4.666-32.535Z" fill="#30262A"/><path d="m536.419 546.922 7.865.096 11.814.144 2.211.027 3.552.043 1.48.016 20.782.253 13.306.162 24.395.298 21.619.263 2.848.035 5.433.066 2.781.033 3.37.041 10.657.129 17.681.216s0-.142-.018-.411v-.279c0-.07 0-.146-.011-.228a440.36 440.36 0 0 0-.104-2.225v-.117c-.013-.218-.023-.448-.036-.686 0-.15-.014-.306-.023-.466 0-.09-.01-.183-.014-.277-.025-.481-.053-.994-.084-1.541-.015-.238-.027-.482-.042-.733l-.044-.77c-.029-.526-.062-1.074-.098-1.643 0-.122-.014-.245-.023-.37l-.071-1.146a41.213 41.213 0 0 1-.033-.526l-.044-.674c-.029-.452-.059-.918-.092-1.392a350.17 350.17 0 0 0-.209-2.966l-.057-.778c-.032-.419-.063-.844-.094-1.274l-.098-1.308c0-.093-.014-.187-.023-.282-.025-.349-.054-.702-.081-1.059l-.046-.578-.063-.794-.113-1.403a695.89 695.89 0 0 0-.844-9.469c-.052-.556-.109-1.119-.163-1.686-.054-.567-.113-1.136-.171-1.711-.059-.575-.117-1.15-.178-1.731-.056-.541-.113-1.085-.173-1.633a577.135 577.135 0 0 0-.936-8.245l-.134-1.109c-.075-.597-.148-1.197-.224-1.799a461.73 461.73 0 0 0-.591-4.533c-.048-.357-.096-.715-.146-1.074-.073-.542-.151-1.085-.228-1.629a187.02 187.02 0 0 0-.251-1.764c-.079-.551-.159-1.103-.242-1.656-.059-.41-.119-.817-.182-1.22a334.712 334.712 0 0 0-.969-6.135c-.097-.591-.195-1.181-.297-1.772-.117-.694-.238-1.391-.362-2.083a222.14 222.14 0 0 0-.34-1.906l-.032-.172-.031-.171c-.088-.485-.178-.971-.27-1.456a275.84 275.84 0 0 0-.894-4.599 53.448 53.448 0 0 0-1.498-5.773 56.5 56.5 0 0 0-.52-1.537 50.153 50.153 0 0 0-.853-2.214c-.098-.24-.209-.478-.303-.712a23.321 23.321 0 0 0-.257-.582c-.088-.193-.161-.357-.244-.534-.084-.176-.188-.398-.282-.593-.057-.122-.117-.243-.176-.364-.102-.205-.209-.411-.311-.616a22.626 22.626 0 0 0-.32-.616l-.138-.259a46.11 46.11 0 0 0-1.369-2.35c-.127-.205-.254-.41-.382-.599a38.433 38.433 0 0 0-1.189-1.736c-.169-.234-.34-.466-.512-.696-.171-.23-.347-.454-.522-.678-.263-.337-.53-.666-.8-.988-.09-.109-.182-.205-.272-.322a41.578 41.578 0 0 0-2.244-2.436l-.464-.458a48.735 48.735 0 0 0-1.218-1.142 61.936 61.936 0 0 0-1.672-1.426c-.13-.107-.257-.205-.387-.312a36.66 36.66 0 0 0-1.314-1.01 27.282 27.282 0 0 0-.861-.617l-.434-.304-.372-.254c-.168-.113-.333-.224-.5-.333h-.016l-.46-.3-.255-.162-.46-.288-.627-.38-.585-.343-.025-.014-.418-.238-.248-.14-.107-.06-.481-.262-.29-.157-.265-.141c-.3-.156-.597-.309-.893-.458l-.152-.076-.571-.28-.05-.024-.384-.185-.372-.175-.107-.047-.227-.105c-.021-.012-.044-.02-.065-.03l-.385-.173-.121-.053-.783-.339-.28-.121-.349-.144-.145-.058c-.208-.086-.417-.168-.626-.25a32.219 32.219 0 0 0-.646-.251l-.489-.185-.069-.024-.384-.142-.297-.107-.23-.105-.134-.047-.372-.129-.37-.126-.369-.123-.161-.053-.349-.113-.174-.054-.432-.137-.431-.13-.522-.158-.075-.022-.56-.161-.525-.15-.505-.135-.454-.121-.117-.031-.639-.162-.232-.058-.105-.024-.242-.058-.596-.142-.614-.139-.115-.025-.062-.014-.12-.027-.098-.021-.094-.02-.405-.086-.209-.046-.366-.076-.543-.106-.13-.025-.56-.107-.171-.031-.209-.037-.376-.067-.069-.013-.209-.035-.209-.035-.255-.043-.499-.082-.103-.016-.516-.08-.253-.039-.077-.013-.418-.061h-.037l-.64-.091-.788-.109-.459-.061-.418-.054-.282-.037-.172-.022-.15-.021-.153-.02-.242-.035a11.204 11.204 0 0 1-.934-.158l-.115-.029c-.071-.019-.144-.037-.209-.06l-.184-.053-.186-.06-.188-.063-.186-.07-.188-.074c-.058-.023-.119-.047-.177-.074a10.452 10.452 0 0 1-2.226-1.302l-.192-.148a13.644 13.644 0 0 1-.38-.312c-.063-.054-.126-.107-.188-.165l-.184-.166-.19-.181-.184-.18-.184-.189c-.063-.064-.121-.128-.18-.193l-.18-.206a8.669 8.669 0 0 1-.177-.205l-.174-.206-.167-.205c-1.607-2.054-2.898-4.917-3.431-8.668 0-.034-.012-.071-.016-.108-.55-3.979-.544-10.288-.4-15.674a308.224 308.224 0 0 1 .456-10.152h-.013l-.108.063-5.696 3.287-.849.491-12.907 7.459c.109 2.73.184 5.172.197 7.366.008 1.084 0 2.111-.023 3.081 0 .367-.021.725-.036 1.076-.014.351-.029.692-.05 1.027a39.423 39.423 0 0 1-.286 3.029c-.512 3.763-1.582 6.341-3.552 8.273-.18.179-.368.352-.563.516a5.671 5.671 0 0 1-.296.246l-.309.241a5.118 5.118 0 0 1-.322.232c-.113.074-.222.154-.335.226-.439.289-.895.554-1.364.795-.16.085-.325.167-.495.246h-.011l-.108.051-.293.136a18.366 18.366 0 0 1-.857.374c-.14.059-.28.117-.418.172l-.484.185c-.332.123-.676.245-1.032.364-.128.045-.258.086-.389.129-.418.136-.853.271-1.3.411l-.052.014-.364.105-.156.045-.665.187-.85.226-.186.049c-.456.119-.924.245-1.4.376l-.652.185-.481.14-.608.18c-.836.25-1.693.524-2.572.822-.504.166-1.016.341-1.53.524l-.177.063-.468.169a74.61 74.61 0 0 0-2.501.953 75.62 75.62 0 0 0-3.197 1.349 58.68 58.68 0 0 0-1.474.678l-.549.263a70.015 70.015 0 0 0-3.498 1.809l-.579.325-.372.205c-.15.085-.301.173-.449.261-.148.089-.328.191-.491.29l-.418.25c-.26.158-.52.318-.779.481l-.046.029-.316.205-.436.284c-.209.133-.418.267-.613.41-.246.165-.491.329-.733.5l-.364.254c-.246.17-.491.345-.733.524a55.491 55.491 0 0 0-2.311 1.785l-.569.472a47.378 47.378 0 0 0-2.102 1.886l-.34.328-.023.023a47.943 47.943 0 0 0-.686.684l-.346.357a42.355 42.355 0 0 0-2.326 2.654l-.123.154c-.111.14-.22.279-.328.411-.142.185-.282.369-.418.556-.136.187-.276.378-.418.567-.142.189-.27.382-.401.575-.264.386-.52.779-.769 1.177-.124.206-.247.399-.368.602-.121.203-.238.411-.355.616a55.363 55.363 0 0 0-.554 1.002c-.069.13-.136.261-.209.391-.134.261-.263.523-.391.79a22.23 22.23 0 0 0-.19.411c-.04.084-.079.171-.117.257-.004.008-.008.016-.01.025-.067.145-.132.291-.195.439-.062.148-.152.355-.225.534l-.025.06c-.076.187-.151.374-.222.56-.071.187-.15.393-.221.59-.147.394-.282.795-.418 1.197-.065.206-.126.395-.186.594a.043.043 0 0 1 0 .016 38.44 38.44 0 0 0-.318 1.13l-.05.205c-.046.181-.092.362-.134.545-.035.143-.069.287-.1.433 0 .031-.015.06-.019.09-.019.074-.033.148-.05.224-.038.179-.073.358-.109.534-.035.177-.075.395-.11.594-.036.199-.071.411-.105.616-.012.084-.027.168-.04.253-.025.17-.05.341-.073.513a301.662 301.662 0 0 0-.652 5.34c-.018.191-.041.384-.062.577-.03.261-.057.524-.086.789-.057.534-.114 1.082-.169 1.643-.049.46-.096.927-.142 1.401-.025.238-.048.477-.071.715l-.071.725v.01c-.077.801-.154 1.617-.232 2.448-.046.493-.09.99-.136 1.494-.138 1.522-.274 3.08-.418 4.682-.046.533-.091 1.069-.134 1.607-.023.269-.046.54-.067.821l-.037.466a.029.029 0 0 1 0 .013c0 .111-.017.224-.027.337 0 .067-.011.137-.017.205-.023.302-.048.616-.073.912-.025.296-.048.616-.073.918-.042.544-.086 1.091-.128 1.643-.209 2.754-.418 5.558-.627 8.368l-.148 2.107v.142l-.113 1.604c-.039.6-.08 1.197-.123 1.793-.034.485-.065.969-.098 1.454l-.088 1.304-.109 1.643-.073 1.116a786.608 786.608 0 0 0-.236 3.662l-.1 1.588c0 .075-.011.152-.015.228l-.134 2.131v.066a2711.045 2711.045 0 0 0-.487 7.998c0 .093-.01.187-.016.279-.028.456-.053.908-.08 1.354 0 .129-.014.259-.023.386l-.044.76-.044.758c-.014.251-.031.552-.048.821l-.018.323-.038.68-.061 1.055c0 .157-.018.311-.027.465-.033.61-.067 1.202-.1 1.774 0 .14-.015.28-.023.411 0 .105-.01.205-.017.314-.01.195-.023.386-.033.575-.011.189-.021.411-.034.617 0 .088-.01.176-.014.262l-.019.343c0 .144-.015.286-.023.426l-.027.495c-.015.244-.027.482-.04.716 0 .091 0 .181-.015.272 0 .172-.018.341-.027.505 0 .118-.006.233-.019.345-.014.287-.031.567-.043.834 0 .105-.013.205-.017.308-.004.103-.011.178-.015.267-.004.088 0 .123 0 .185 0 .123-.012.242-.019.359-.006.117-.012.218-.016.323-.013.25-.025.488-.038.71V545.291c0 .125-.012.244-.019.355-.006.111 0 .167-.012.243-.013.076 0 .152-.011.22v.026c0 .091-.01.175-.014.251v.094c-.08.273-.088.442-.088.442Z" fill="#fff"/><path d="M617.225 392.347s-.555 8.903-7.104 17.135c-4.275 5.384-8.91 4.724-11.603 3.615.198-3.337.119-7.441-.086-12.545l12.905-7.46 5.888-.745Z" fill="#30262A"/><path d="M622.381 383.246c-1.617-.206-2.679.205-3.308.628.1-8.339-.74-18.485-.74-18.485h-31.621l.084 18.352s.059.908 0 6.665c-.071 7.002 5.717 17.663 13.469 17.663 11.925 0 16.299-8.608 17.97-15.266 1.881.41 4.829.649 5.851-1.489 1.534-3.229 1.231-7.694-1.705-8.068Z" fill="#fff"/><path d="M605.037 389.788c.515 0 .932-.41.932-.916a.924.924 0 0 0-.932-.916.925.925 0 0 0-.932.916c0 .506.418.916.932.916ZM595.298 389.788c.515 0 .932-.41.932-.916a.924.924 0 0 0-.932-.916.924.924 0 0 0-.932.916c0 .506.417.916.932.916ZM601.168 382.744s.576.152 3.165.152 3.741.247 3.692 0c-.209-1.059-4.818-1.589-5.591-1.476-.773.113-1.586.643-1.266 1.324ZM597.098 382.744s-.577.152-3.166.152-3.74.247-3.692 0c.209-1.059 4.818-1.589 5.591-1.476.773.113 1.586.643 1.267 1.324Z" fill="#30262A"/><path d="m619.817 383.008-1.918 6.589s-.142-7.885-1.064-12.909c-.921-5.024-3.761-6.279-6.636-6.778a.92.92 0 0 0-.287 0h-20.759s-6.02-1.937-.096-8.534c.591-.298 4.016-.939 4.685-1.117 8.13-2.163 20.535-5.287 22.738 2.464 0 0 3.343-2.838 4.471 3.677 1.129 6.515-1.134 16.608-1.134 16.608ZM599.387 395.269a3.289 3.289 0 0 0-.482-.096c-.661-.107-1.484-.24-1.614-.696-.071-.247.074-.516.439-.822 1.361-1.148 1.122-3.677 1.12-3.697l.282-.029c.013.111.255 2.699-1.218 3.942-.261.221-.386.41-.351.536.082.285.932.423 1.388.495.204.015.404.063.593.141l-.157.226ZM599.337 396.66s2.414-.236 4.067-1.202c0 .005-.404 2.862-4.067 1.202Z" fill="#30262A"/><path d="m686.22 548.744-4.628-.056h-.627l-7.5-.092h-.626l-4.301-.054-3.197-.039h-.627l-6.83-.082h-1.296l-2.075-.025-2.781-.032-2.641-.033h-.627l-2.167-.027-2.848-.035-2.484-.031h-.627l-7.497-.092h-.627l-7.499-.09h-.627l-2.257-.027-1.622-.021-3.619-.043h-.626l-7.498-.092h-.633l-7.499-.093h-.627l-2.278-.028-5.223-.064h-.627l-7.46-.091H583.453l-7.498-.09h-.627l-7.499-.09h-.627l-3.865-.047-1.48-.017-2.152-.027h-.627l-.779-.01-2.211-.027-4.509-.055h-.627l-6.687-.082h-1.446l-6.419-.078s0-.169.025-.491v-.095c0-.076.011-.16.015-.25v-.027c0-.07 0-.142.011-.22.01-.078 0-.158.012-.242.013-.084.013-.23.019-.355v-.68l.038-.711c0-.105.01-.205.016-.322l.019-.36v-.185c0-.061 0-.176.015-.267.014-.09.01-.205.016-.308.013-.267.03-.546.044-.834 0-.113.007-.228.019-.345 0-.164.019-.332.027-.505 0-.09 0-.181.015-.271.012-.234.025-.472.04-.717 0-.162.016-.326.027-.495.01-.168.014-.281.023-.425l.019-.343c0-.086.01-.175.014-.263.013-.205.023-.411.034-.616.01-.205.023-.382.033-.575 0-.105.013-.206.017-.314 0-.138.016-.278.023-.411.033-.573.067-1.164.1-1.775 0-.154.019-.308.027-.464l.061-1.056.037-.679.019-.323c.017-.271.032-.546.048-.821l.044-.758.044-.76c0-.128.015-.257.023-.386.028-.444.054-.895.079-1.354 0-.092 0-.187.017-.279l.069-1.159c.074-1.232.15-2.494.23-3.785.06-1.002.123-2.02.188-3.054v-.066l.134-2.132c0-.076 0-.152.014-.228l.101-1.588a872.137 872.137 0 0 1 .236-3.662l.073-1.115c.035-.544.073-1.093.109-1.643l.087-1.304c.034-.485.065-.97.098-1.454l.124-1.794.113-1.604v-.141c.047-.703.096-1.405.148-2.108.209-2.809.418-5.613.627-8.367l.127-1.643c.025-.306.048-.617.073-.919.025-.301.049-.616.074-.911 0-.068.01-.138.016-.206l.025-.322a.038.038 0 0 0 0-.015c.013-.16.028-.318.04-.478.021-.271.044-.542.067-.822l.134-1.606c.133-1.596.269-3.161.418-4.683.043-.502.088-1 .135-1.493l.232-2.448v-.011c.023-.242.046-.484.071-.725.025-.24.046-.476.071-.714.046-.473.094-.941.142-1.401.056-.555.113-1.102.17-1.643l.085-.789c.021-.193.044-.386.063-.577.209-1.937.435-3.728.652-5.34.023-.173.048-.343.073-.514l.04-.252c.033-.206.067-.411.104-.617.038-.205.071-.396.111-.593l.069-.339.04-.205c.014-.076.031-.15.05-.224 0-.031.012-.06.019-.091.031-.145.064-.289.1-.433.036-.144.069-.288.104-.429l.03-.115.05-.206a38.378 38.378 0 0 1 .234-.844c.033-.111.054-.191.083-.285a.049.049 0 0 0 0-.017c.061-.205.122-.396.186-.593.13-.411.268-.803.418-1.198.071-.205.145-.394.222-.589.077-.195.146-.374.221-.561l.025-.06c.074-.178.149-.357.226-.534.077-.176.128-.293.194-.439a7.419 7.419 0 0 1 .128-.281c.063-.138.125-.274.19-.411.127-.267.257-.53.391-.791.067-.129.133-.261.209-.39.075-.13.136-.257.209-.386.113-.206.227-.411.344-.617.117-.205.237-.41.356-.616a36.622 36.622 0 0 1 1.538-2.353c.135-.191.271-.378.417-.567.147-.189.278-.372.418-.557.109-.142.209-.281.328-.411l.124-.154c.113-.142.23-.285.344-.425.308-.371.622-.737.941-1.099.104-.117.209-.234.315-.349l.312-.339c.135-.148.273-.296.418-.441l.346-.358a47.943 47.943 0 0 1 .686-.684l.023-.022.34-.329a45.724 45.724 0 0 1 2.102-1.885l.569-.473a55.427 55.427 0 0 1 3.017-2.29l.027-.018.286-.206.078-.053c.077-.056.157-.109.236-.163.165-.115.33-.225.497-.336.209-.138.418-.271.612-.411l.437-.284.316-.205.046-.029c.259-.161.519-.322.779-.48l.418-.251c.163-.099.328-.205.491-.29.163-.084.299-.176.449-.26l.372-.206.579-.324c.836-.46 1.672-.901 2.507-1.321l.314-.156.313-.154c.122-.062.245-.119.366-.179l.55-.263a78.885 78.885 0 0 1 4.67-2.027 137.94 137.94 0 0 1 1.586-.616l.321-.119.314-.115.28-.103.033-.012.435-.156.177-.064a73.281 73.281 0 0 1 1.53-.524c.878-.291 1.735-.565 2.572-.821l.608-.181.481-.14.652-.185 1.045-.281.313-.082.046-.012.186-.05.081-.02.769-.206.665-.187.157-.045.363-.104.052-.015c.448-.133.882-.269 1.3-.411.132-.043.261-.084.389-.129.355-.119.699-.24 1.032-.364l.485-.184c.139-.055.278-.113.418-.173.149-.059.295-.12.438-.185.145-.059.287-.123.418-.189l.04-.018.253-.117.109-.052h.01c.169-.082.332-.164.495-.246l.082-.043c.106-.056.209-.113.313-.171.105-.057.209-.111.299-.168l.015-.01c.222-.129.44-.263.651-.401.113-.074.224-.15.335-.226.111-.076.209-.154.322-.232.112-.078.209-.158.309-.24.1-.082.209-.16.297-.247a10.229 10.229 0 0 0 2.171-2.569c1.116.363 2.253.661 3.406.893l.313.064.313.057c2.474.445 4.986.643 7.5.592h.627a46.29 46.29 0 0 0 7.497-.875l.313-.062.314-.065a54.696 54.696 0 0 0 3.619-.894c.353.628.753 1.229 1.195 1.799l.134.169.033.043c.057.072.115.142.174.205.058.064.117.138.177.206l.18.205c.058.066.117.13.18.193l.023.023c.106.111.208.22.321.324l.023.023.19.181.184.166c.063.058.126.111.188.164.126.109.253.206.381.313l.192.147c.098.076.209.148.297.218l.016.012c.099.07.209.138.297.206l.314.205c.173.105.348.206.524.298a9.49 9.49 0 0 0 .955.448l.188.074.186.07.188.063.186.06.184.053.184.05.031.01c.04.012.077.02.115.029.209.049.522.1.934.158l.242.035.153.02.15.021.172.022.282.037.418.054.459.061.788.109.64.091h.037l.418.061.077.012.251.039.063.011.313.047.14.023.103.016.499.082.255.043.209.035.209.035.069.012.376.068.188.033.186.035.56.107.13.024.442.089.101.018.365.076.209.045.406.087.094.02.098.021.125.026.063.015.115.025h.038l.478.108.098.021.596.142.242.057h.038l.067.015.232.057.209.051.137.035.303.076.117.031.314.084.129.035.184.049.322.087.525.15.56.16c.338.099.683.205 1.028.31l.537.171.069.02.349.113.125.043.035.01.37.124.161.055.209.07.372.129.134.048.24.086.297.107.384.141.069.025.489.185.56.218.086.032c.192.076.382.152.575.233l.043.018.145.058c.041.016.083.032.125.053.042.02.102.041.155.064l.069.026.089.039.19.082.784.339.121.054.385.172c.021 0 .044.019.065.031l.227.105.107.047.234.111.138.064.384.185.05.024.571.28.152.076c.297.149.595.301.893.458l.096.053.169.088.29.156.481.263.107.06.248.139.418.239.025.014.585.343.627.38.153.095.307.193.249.158.064.043.395.257h.017c.167.109.332.219.499.332l.372.255.435.304c.288.203.575.408.861.616.159.115.315.234.47.351.234.181.47.362.702.547.048.037.096.074.142.113.13.102.257.205.387.312.418.344.835.697 1.253 1.06l.418.365c.279.247.551.499.815.756.136.128.27.257.403.386l.341.337c.042.039.082.08.123.121.042.041.13.13.191.206.106.107.208.205.313.322a40.945 40.945 0 0 1 1.74 1.919c.09.106.182.205.272.322a40.43 40.43 0 0 1 1.323 1.666 40.862 40.862 0 0 1 1.701 2.432c.127.205.255.398.382.599a46.099 46.099 0 0 1 1.369 2.35l.138.259c.108.205.209.411.319.616a29.336 29.336 0 0 1 .312.616c.058.121.119.242.175.364.027.053.052.109.08.164.066.142.135.285.209.429.037.08.075.16.11.243.036.082.09.193.134.291.088.193.173.386.257.582.102.234.209.472.303.712a49.676 49.676 0 0 1 1.373 3.751 54.697 54.697 0 0 1 1.498 5.773 289.603 289.603 0 0 1 .894 4.599c.092.485.182.971.27 1.456l.031.171.032.172c.115.633.229 1.269.34 1.906.123.692.245 1.389.362 2.083.102.591.209 1.181.296 1.772a360.077 360.077 0 0 1 1.152 7.355 439.72 439.72 0 0 1 .493 3.42l.065.46c.056.39.11.779.163 1.169.052.39.098.717.146 1.074v.031c.095.704.188 1.407.28 2.111l.033.261c.094.713.184 1.421.274 2.13.075.602.148 1.202.224 1.799l.133 1.109c.211 1.75.412 3.481.604 5.193.114 1.027.225 2.044.332 3.052.061.548.117 1.092.174 1.633l.178 1.731.171 1.711c.056.567.111 1.13.163 1.686.052.557.106 1.113.159 1.664a663.55 663.55 0 0 1 .906 10.58c.028.357.057.71.082 1.059 0 .095.017.189.023.282l.098 1.308c.034.431.063.854.094 1.273l.057.779c.071 1.027.14 2.015.209 2.966l.091 1.392.044.674c0 .177.021.353.034.526.023.392.046.774.071 1.146 0 .125.014.248.023.37l.098 1.643.044.77c.015.25.027.495.042.733l.083 1.541c0 .094.011.186.015.277 0 .16.017.316.023.466l.035.686v.117c.028.588.053 1.099.071 1.526.013.257.023.483.034.68a1.65 1.65 0 0 0 .01.247v.279c.101.191.107.333.107.333Z" fill="#1A2578"/><path d="M543.465 460.863v86.143h-.627v-83.617l.04-.205c.015-.076.031-.15.05-.224 0-.031.013-.06.019-.091.031-.145.065-.289.1-.433.036-.144.069-.287.105-.429l.029-.115.05-.206c.046-.172.092-.343.14-.513.029-.09.061-.199.094-.31ZM551.589 446.837v100.27h-.627v-99.582c.105-.117.209-.234.316-.349.106-.115.205-.226.311-.339ZM559.715 439.919v107.293h-.627V440.367l.028-.018.286-.206.077-.053c.077-.064.157-.117.236-.171ZM567.84 435.218v112.086h-.627V435.528l.313-.156.314-.154ZM575.968 431.782v115.616h-.627V432.016l.314-.115.28-.103.033-.016ZM584.09 429.28v118.221h-.627V429.444l.314-.082.046-.012.186-.05.081-.02ZM592.216 426.261v121.338h-.627V426.624c.107-.055.209-.113.314-.17.104-.058.209-.111.299-.169l.014-.024ZM600.34 423.361v124.337h-.627V423.24l.314.063.313.058ZM608.467 423.936v123.861h-.634V423.952h.314l.32-.016ZM616.591 422.934v124.963h-.627V423.061l.313-.062.314-.065ZM624.715 426.838v121.158h-.627V426.425l.017.013c.098.069.209.137.296.205l.314.195ZM632.841 428.777v119.317h-.627V428.68l.251.039.062.01.314.048ZM640.965 430.496v117.689h-.627V430.328l.313.084.13.035.184.049ZM649.101 433.271V548.29h-.626V433.014l.043.019.145.057c.041.017.083.033.125.054.042.02.102.041.155.063l.069.027.089.037ZM657.216 437.533v110.864h-.627V437.122l.307.193.249.158.071.06ZM665.342 444.173v104.316h-.627V443.534c.042.039.081.08.123.121.042.041.13.13.19.206.107.096.211.203.314.312ZM673.466 456.143v92.444h-.627v-93.758c.021.037.04.076.058.115.059.121.119.242.176.363l.079.164c.067.142.136.286.209.43.032.08.069.16.105.242Z" fill="#fff"/><path d="m556.098 547.162 2.211.027 6.469-80.172-8.68 80.145ZM654.514 548.357l3.37.041c.307-20.539-.334-74.912-.334-74.912l-3.036 74.871Z" fill="#30262A"/><path d="M625.239 427.136c-.123.135-.255.269-.391.411-4.129 4.107-13.352 8.326-13.53 8.215a10.63 10.63 0 0 1-.687-1.177l-.297-.542c-.418-.764-.915-1.705-1.416-2.653l-.291-.551a818.46 818.46 0 0 1-1.525-2.902l-.293-.553-.292-.564s-.209.318-.541.834l-.364.544a83.631 83.631 0 0 1-2.039 2.918l-.37.502c-.64.85-1.294 1.665-1.881 2.304-.148.162-.294.312-.434.448-.556.544-1.028.873-1.342.846-.995-.088-5.696-4.804-8.903-8.131l.252-.117.109-.052h.011c.152-.074.298-.148.445-.222l.05-.024c.184-.097.365-.206.541-.296l.152-.086.019-.013a13.664 13.664 0 0 0 .987-.626c.11-.076.208-.154.321-.232l.132-.099.178-.142c.1-.078.209-.16.296-.246l.03-.025c.183-.16.361-.322.532-.49a11.9 11.9 0 0 0 .907-1.015c.257-.328.494-.671.709-1.027 4.363 1.438 12.581 2.902 23.902-.306.167.294.338.577.52.85.117.183.24.362.364.534.123.173.209.28.311.411l.134.168.033.044c.057.071.115.141.174.205.058.064.117.138.177.205l.18.206c.058.065.117.129.18.193l.023.022.208.22.107.105.023.022.19.181.174.156h.01c.063.058.125.111.188.165.126.109.253.205.38.312l.193.148a10.402 10.402 0 0 0 .996.673c.157.085.308.171.458.249Z" fill="#fff"/><path d="m606.837 426.792-.627.004.769 120.379.627-.004-.769-120.379Z" fill="#7F573C"/><path d="M612.966 447.728c.787 0 1.425-.627 1.425-1.401 0-.773-.638-1.4-1.425-1.4s-1.425.627-1.425 1.4c0 .774.638 1.401 1.425 1.401ZM612.966 463.001c.787 0 1.425-.627 1.425-1.401 0-.773-.638-1.4-1.425-1.4s-1.425.627-1.425 1.4c0 .774.638 1.401 1.425 1.401ZM612.966 478.274c.787 0 1.425-.627 1.425-1.401 0-.773-.638-1.4-1.425-1.4s-1.425.627-1.425 1.4c0 .774.638 1.401 1.425 1.401Z" fill="#fff"/><path d="m605.976 427.643-.364.545-10.424-4.314c.144-.16.279-.326.417-.497l10.341 4.271.03-.005ZM621.102 423.425l-14 4.502-.292-.553 13.92-4.483c.117.182.24.361.372.534ZM603.572 431.106l-.369.501-9.543-6.305.177-.142c.101-.078.209-.16.297-.247l.029-.024 9.409 6.217ZM623.02 425.573l-14.103 5.798-.29-.551 13.9-5.72.106.105.023.022.19.181.174.165ZM601.32 433.912a9.894 9.894 0 0 1-.434.447l-9.428-7.681.05-.025c.184-.096.365-.205.541-.296l9.271 7.555ZM625.239 427.136c-.123.135-.255.269-.391.411l-14.209 7.034c-.091-.168-.192-.349-.296-.542l14.453-7.152c.142.084.293.171.443.249Z" fill="#1A2578"/><path d="M586.449 380.434s1.951-4.005 2.787-8.318c.836-4.313 2.74-2.362 5.132 1.951 2.393 4.313 13.778 14.059 23.913 7.339v-.972s-8.262 4.005-14.418-2.054c0 0 8.567 5.34 14.418.719 5.85-4.621 5.85-16.982 5.85-16.982s-.317-8.075-8.358-8.178c-8.04-.103-23.298-6.983-27.268-1.849-3.97 5.135-1.793 6.367-1.793 6.367s-8.799 3.287-.263 21.977Z" fill="#30262A"/></g></g><g filter="url(#g)"><g clip-path="url(#h)"><rect x="407" y="173.774" width="177" height="171.437" rx="85.718" fill="#fff"/><path d="M495.915 370.506c56.089 0 101.558-44.04 101.558-98.366s-45.469-98.366-101.558-98.366c-56.089 0-101.558 44.04-101.558 98.366s45.469 98.366 101.558 98.366Z" fill="#1A2578"/><path d="M478.453 219.887s-9.514-.79-13.604 11.111c-4.091 11.9 4.262 35.542-11.8 40.184-21.009 6.055-33.76 28.868-8.848 58.076 24.912 29.208 62.277 6.985 62.277 6.985l8.932-44.449-36.957-71.907Z" fill="#000"/><path d="M474.24 223.228s4.57-12.016 21.806-12.066c17.97-.047 32.393 9.286 33.048 36.351.408 16.823-3.95 25.512 10.981 28.574 28.354 5.815 35.237 39.052 7.704 59.527s-61.035-17.937-61.035-17.937l9.824-61.981-22.328-32.468Z" fill="#000"/><path d="M518.044 300.895c-5.33 4.3-10.495 6.909-15.36 8.33h-.033c-16.037 4.66-28.813-3.685-33.801-7.727.362-.134.72-.263 1.087-.408a17.998 17.998 0 0 0 2.694-1.316c12.678-7.533 10.37-28.218 10.37-28.218h22.512a45.102 45.102 0 0 0 .093 8.756c.736 7.23 3.485 16.829 12.438 20.583Z" fill="#fff"/><path d="M505.587 280.341c-1.319 2.182-3.205 3.725-5.88 3.949-10.489.845-16.391-9.136-16.266-10.057l.544-2.633h21.509a45.106 45.106 0 0 0 .093 8.741Z" fill="#000"/><path d="M574.466 357.334c-.027.669-.06 1.34-.098 2.014a220.255 220.255 0 0 1-1.122 13.232c-.071.68-.15 1.359-.229 2.033a263.298 263.298 0 0 1-.72 5.555 356.746 356.746 0 0 1-1.188 7.872c-.111.687-.223 1.372-.334 2.046a424.309 424.309 0 0 1-2.523 13.569c-.144.711-.288 1.395-.426 2.056-1.468 7.038-2.591 11.487-2.591 11.487l-70.551 17.145-74.229-13.335s-.701-5.295-1.449-13.428a82.08 82.08 0 0 1-.177-1.95 446.11 446.11 0 0 1-.97-13.112c-.033-.642-.071-1.29-.103-1.943a348.127 348.127 0 0 1-.481-13.048c0-.642-.025-1.29-.033-1.93-.052-4.312 0-8.688.158-12.948.021-.639.054-1.282.078-1.916.218-4.439.571-8.757 1.115-12.809.087-.635.178-1.263.272-1.885a73.797 73.797 0 0 1 2.28-10.42c.223-.73.46-1.435.71-2.128.215-.626.437-1.237.682-1.843.019-.055.046-.113.065-.171l.294-.71c.375-.896.769-1.751 1.18-2.578.138-.279.271-.558.421-.824.149-.266.293-.561.446-.832.117-.216.242-.432.367-.648.125-.216.236-.408.353-.603l.353-.579c.139-.216.272-.432.414-.647.21-.32.422-.631.636-.932.138-.206.271-.409.426-.598.414-.585.846-1.137 1.292-1.677.347-.424.701-.837 1.068-1.238a.61.61 0 0 1 .051-.063l.12-.134c.182-.197.362-.387.544-.571.306-.329.62-.646.943-.953.106-.1.204-.203.31-.298.214-.203.424-.4.641-.59a30.631 30.631 0 0 1 2.012-1.682c.217-.174.44-.337.663-.503.223-.166.451-.337.688-.503.236-.166.465-.324.696-.482.231-.157.394-.263.589-.392a50.6 50.6 0 0 1 9.093-4.605c.255-.107.519-.208.78-.305.897-.347 1.81-.679 2.718-.99l1.218-.418c.231-.077.459-.153.69-.222a152.225 152.225 0 0 1 4.95-1.524l.753-.229.802-.234c2.128-.63 4.246-1.246 6.331-1.906.272-.082.543-.172.815-.264.473-.152.938-.303 1.403-.463.236-.076.467-.158.704-.24.497-.166.989-.345 1.473-.526a43.973 43.973 0 0 0 7.657 4.965 41.27 41.27 0 0 0 4.787 2.051c6.334 2.248 14.344 3.23 23.287.095a39.419 39.419 0 0 0 4.719-2.025 48.867 48.867 0 0 0 8.755-5.705c.171.063.343.134.519.203a34.17 34.17 0 0 0 2.064.724c.271.089.557.179.848.263.291.084.595.179.902.263a.44.44 0 0 0 .101.032l.084.018c.525.148 1.049.287 1.585.414.271.071.565.139.848.202l.859.193c.693.152 1.394.292 2.109.431l.756.145 1.514.263a.343.343 0 0 1 .084.014l1.704.284c1.069.179 2.137.345 3.213.527.139.018.272.044.408.063l1.487.234c.413.063.832.134 1.253.203.609.095 1.212.197 1.821.305.609.108 1.207.211 1.811.324.418.076.845.158 1.263.242l1.226.248 1.215.263.816.195c.272.063.565.134.84.203.688.173 1.359.355 2.052.552.217.058.432.121.65.193.576.176 1.152.36 1.723.55a38.933 38.933 0 0 1 4.314 1.748c.288.14.576.279.864.424.288.145.571.3.854.458.562.305 1.12.629 1.663.971h.014c.272.172.544.348.799.527.256.179.459.316.69.477a27.733 27.733 0 0 1 2.398 1.948c.101.089.204.184.302.287.144.126.288.263.426.4.237.226.473.469.71.711.149.163.299.329.446.495.339.374.674.755.989 1.148.196.242.386.489.576.745a44.96 44.96 0 0 1 .683.937c.176.263.353.527.524.79.025.045.057.089.085.134.163.263.32.527.478.79.041.066.079.129.117.197.138.229.272.464.402.706.057.1.117.208.169.316a18.742 18.742 0 0 1 .551 1.069c.066.139.172.342.251.513.078.171.182.387.271.59.381.846.735 1.729 1.063 2.649a12.205 12.205 0 0 1 .283.805c.125.35.236.711.353 1.08.074.242.152.489.218.742 1.041 3.646 1.69 7.838 2.025 12.374.046.64.092 1.288.125 1.948.223 4.102.209 8.459.024 12.909Z" fill="#BF0830"/><path d="M476.507 306.482a41.27 41.27 0 0 0 4.787 2.051 562.644 562.644 0 0 1-29.683-1.638 152.225 152.225 0 0 1 4.95-1.524c6.209.456 12.909.843 19.936 1.111h.01ZM542.019 306.006c-12.455 1.579-25.141 2.369-37.438 2.632a39.413 39.413 0 0 0 4.719-2.024c8.57-.263 17.282-.819 25.929-1.727.139.018.272.044.408.063l1.487.234c.413.063.831.135 1.253.203.609.095 1.212.197 1.821.305.609.108 1.218.206 1.821.314ZM565.292 316.908c-22.599 5.055-47.384 6.716-70.23 6.716-26.525 0-50.426-2.24-65.21-4.017a.44.44 0 0 1 .051-.063l.12-.135c.182-.197.361-.387.543-.571.307-.328.621-.646.944-.953 27.725 3.265 84.713 7.78 132.2-2.583.144.127.288.264.427.4.236.227.473.469.709.711.15.164.299.329.446.495ZM572.292 330.101c-24.402 6.395-52.008 8.425-77.233 8.425-32.075 0-60.298-3.278-73.212-5.05a35.75 35.75 0 0 1 .682-1.843c23.377 3.189 94.471 10.96 149.192-3.364.125.35.236.71.353 1.079.082.245.161.508.218.753ZM574.45 344.426c-24.918 6.845-53.416 8.999-79.372 8.999-35.119 0-65.62-3.931-76.472-5.513.087-.636.178-1.264.272-1.885 18.756 2.738 97.168 12.637 155.46-3.549.033.639.079 1.287.112 1.948Z" fill="#F2D7C0"/><path d="M522.475 302.385c-5.526 5.145-16.644 13.428-31.839 12.269-14.194-1.092-22.42-7.651-26.184-11.653a99.188 99.188 0 0 0 4.392-1.484c6.491 5.265 26.255 17.866 49.2-.611.171.063.34.134.519.202 1.267.485 2.563.904 3.912 1.277ZM519.711 252.502c0-2.846-2.077-5.152-4.638-5.152-2.56 0-4.637 2.306-4.637 5.152s2.077 6.424 4.637 6.424c2.561 0 4.638-3.578 4.638-6.424Z" fill="#fff"/><path d="m513.85 254.269-.327-.032c0-.034.397-3.394 3.618-3.475v.316c-2.919.076-3.291 3.159-3.291 3.191Z" fill="#000"/><path d="M517.035 253.792c-.543-.55-1.109-.808-1.666-.79a2.21 2.21 0 0 0-1.424.766l-.272-.192a2.51 2.51 0 0 1 1.663-.89c.669-.037 1.305.263 1.925.877l-.226.229Z" fill="#000"/><path d="M468.214 252.502c0-2.846 2.077-5.152 4.637-5.152 2.561 0 4.637 2.306 4.637 5.152s-2.076 6.424-4.637 6.424c-2.56 0-4.637-3.578-4.637-6.424Z" fill="#fff"/><path d="m474.58 254.269.326-.032c0-.034-.397-3.394-3.618-3.475v.316c2.928.076 3.289 3.159 3.292 3.191Z" fill="#000"/><path d="M471.402 253.792c.544-.55 1.109-.808 1.667-.79a2.213 2.213 0 0 1 1.424.766l.272-.192a2.515 2.515 0 0 0-1.664-.89c-.668-.037-1.304.263-1.924.877l.225.229Z" fill="#000"/><path d="M507.22 272.29c-3.436 3.823-7.785 6.285-13.001 6.203-5.211.082-9.566-2.37-13.001-6.203a.832.832 0 0 0-.06-.071c-6.154-7.532-7.407-18.506-5.741-31.57 1.672-13.103 18.802-15.006 18.802-15.006s17.125 1.914 18.802 15.006c1.677 13.093.407 24.109-5.801 31.641Z" fill="#fff"/><path d="M500.248 255.014c.76 0 1.375-.596 1.375-1.332 0-.736-.615-1.332-1.375-1.332s-1.375.596-1.375 1.332c0 .736.615 1.332 1.375 1.332ZM487.108 255.014c.76 0 1.376-.596 1.376-1.332 0-.736-.616-1.332-1.376-1.332-.759 0-1.375.596-1.375 1.332 0 .736.616 1.332 1.375 1.332ZM508.386 243.348s-2.914.071-6.741.089c-3.827.019-4.814-.018-4.471-.968.342-.951 4.18-.932 6.575-.603a16.56 16.56 0 0 1 4.637 1.482ZM479.084 243.348s2.914.071 6.738.089c3.825.019 4.817-.018 4.475-.968-.343-.951-4.181-.932-6.576-.603a16.57 16.57 0 0 0-4.637 1.482ZM493.463 260.988c-.36.031-.72-.062-1.016-.264a.57.57 0 0 1-.177-.526c.163-.993.758-4.931.764-4.971l.326.045c0 .039-.603 3.981-.766 4.976a.255.255 0 0 0 .076.263c.304.277 1.359.171 1.965.04l.073.308a6.338 6.338 0 0 1-1.245.129Z" fill="#000"/><path d="M499.669 259.895a2.956 2.956 0 0 1-.256 2.132 3.105 3.105 0 0 1-1.644 1.438 3.24 3.24 0 0 1-2.216.03 3.113 3.113 0 0 1-1.685-1.394l5.801-2.206Z" fill="#E5DDDD"/><path d="m511.803 234.965.816 16.587 1.726-4.842s3.933-7.932-2.542-11.745Z" fill="#000"/><path d="M474.779 252.502s.97-6.345 1.707-13.566c0 0 3.06-1.757 5.164-5.793 0 0 6.146 12.859 22.371 13.256 0 0-14.423-1.192-20.569-12.145 0 0 13.01 14.128 31.621 10.479 0 0 1.485-13.019-5.235-18.098-6.719-5.078-29.226-5.002-35.065 3.175-5.839 8.178-.997 16.271-.997 16.271l1.003 6.421ZM574.466 357.334c-.027.668-.059 1.34-.097 2.014a221.084 221.084 0 0 1-1.123 13.232c-.071.679-.15 1.359-.228 2.033a264.126 264.126 0 0 1-.721 5.555c4.994-44.494-7.945-60.754-14.338-66.149-4.64-3.92-21.246-8.28-29.999-10.375l.756.144 1.514.264c.029 0 .057.005.084.013l1.705.284c1.068.179 2.136.345 3.213.527.138.018.271.044.407.063l1.487.234c.413.063.832.134 1.253.203.609.095 1.213.197 1.822.305.608.108 1.207.211 1.81.324.419.076.845.158 1.264.242l1.226.248 1.215.263.815.195c.272.063.566.134.84.203a66.74 66.74 0 0 1 2.053.553c.217.057.432.121.649.192.576.176 1.153.36 1.724.55.57.19 1.1.39 1.644.598.905.355 1.797.729 2.669 1.15.288.14.577.279.865.424.288.145.571.3.853.458.563.306 1.12.629 1.664.972h.013c.272.171.544.347.799.526.256.179.46.316.691.477a27.907 27.907 0 0 1 2.397 1.948c.101.09.204.184.302.287.144.126.288.263.427.4.236.227.473.469.709.711.15.163.299.329.446.495.34.374.674.756.99 1.148.195.242.386.49.576.745a45.02 45.02 0 0 1 .682.937c.177.263.353.527.525.79.024.045.057.09.084.134a61.57 61.57 0 0 1 .595.988c.139.229.272.463.403.705.057.1.116.208.168.316.12.211.231.427.343.642.07.14.144.287.209.427s.171.342.25.513c.079.172.182.387.272.59.38.846.735 1.729 1.063 2.649a12.966 12.966 0 0 1 .282.805c.125.35.237.711.354 1.08.073.242.152.489.217.742 1.041 3.647 1.691 7.838 2.025 12.374.046.64.093 1.288.125 1.949.226 4.096.212 8.453.027 12.903Z" fill="#000"/></g></g><g filter="url(#i)"><g clip-path="url(#j)"><rect x="225" y="52.141" width="188" height="181.972" rx="90.986" fill="#fff"/><path d="M318.093 255.281c57.954 0 104.934-45.475 104.934-101.57 0-56.096-46.98-101.57-104.934-101.57S213.158 97.615 213.158 153.71c0 56.095 46.981 101.57 104.935 101.57Z" fill="#D73659"/><path d="M341.126 123.024s15.447 3.961 15.627 22.083c.18 18.121 32.394 5.257 24.342 36.249-8.052 30.991-41.755 21.384-48.681 17.76-6.926-3.624-48.777-9.605-48.777-9.605s-2.056-15.419 4.873-29.36c6.928-13.941 15.02-15.044 9.802-30.812-5.219-15.767 42.814-6.315 42.814-6.315Z" fill="#120283"/><path d="M327.732 140.939s7.451-.565 11.872-13.242c4.421-12.676 10.035-34.797-5.938-44.935-13.416-8.528-47.007-6.342-47.746 17.943-.738 24.284 5.12 26.992 5.12 26.992l36.692 13.242Z" fill="#120283"/><path d="m422.618 337.278-201.354-2.412s3.982-77.573 8.094-107.493c4.112-29.921 36.619-43.252 55.61-48.119 6.935-1.78 11.575-3.594 14.605-6.551 3.294-3.195 4.718-7.721 5.148-14.952.264-4.418.16-9.85-.118-16.605l17.349-9.874 8.962-5.103s-1.578 23.472-.078 34.186c.707 5.035 2.454 8.857 4.634 11.616 2.457 3.108 5.46 4.869 8.145 5.497 5.055 1.186 56.534 2.833 66.634 51.962 10.099 49.13 12.369 107.848 12.369 107.848Z" fill="#fff"/><path d="m422.618 337.277-44.48-.543-20.632-.248-92.838-1.112-5.713-.068-37.691-.451s3.979-77.573 8.094-107.494c3.898-28.346 33.279-41.803 52.521-47.283 1.067-.305 2.097-.585 3.089-.84a71.944 71.944 0 0 0 6.716-2.017c3.395-1.243 5.971-2.659 7.903-4.538 3.575 2.482 14.796 7.987 35.897-.739 2.396 3.031 5.314 4.782 7.937 5.437.065.021.132.038.199.052 1.525.358 7.303.758 14.886 2.501 17.511 4.02 44.71 15.183 51.754 49.477 10.105 49.135 12.358 107.866 12.358 107.866Z" fill="#A8A4DF"/><path d="M329.88 130.271s-.747 11.785-9.549 22.681c-2.076 2.572-4.213 4.103-6.269 4.937-4.367 1.775-9.176-1.359-9.176-5.959 0-3.167-.104-6.745-.281-10.798l17.349-9.874 7.926-.987Z" fill="#120283"/><path d="M337.879 126.985c-1.362 2.827-4.104 4.442-6.631 3.901-2.247 8.813-8.145 20.204-24.154 20.204-10.42 0-18.2-14.137-18.104-23.38.078-7.611 0-8.824 0-8.824l-.071-14.933h43.065c.236 4.532.438 10.075.376 15.115.842-.543 2.275-1.087 4.449-.815 3.937.467 3.131 4.447 1.07 8.732Z" fill="#fff"/><path d="M313.214 127.156c.692 0 1.253-.543 1.253-1.213 0-.669-.561-1.212-1.253-1.212-.692 0-1.253.543-1.253 1.212 0 .67.561 1.213 1.253 1.213ZM300.126 127.156c.692 0 1.252-.543 1.252-1.213 0-.669-.56-1.212-1.252-1.212s-1.253.543-1.253 1.212c0 .67.561 1.213 1.253 1.213ZM305.836 135.98s3.244-.312 5.463-1.59c0 .006-.542 3.787-5.463 1.59ZM305.488 133.735a2.808 2.808 0 0 1-1.84-.601.796.796 0 0 1-.269-.376.77.77 0 0 1-.012-.456c.244-.742 1.059-2.941 1.067-2.963l.396.139c0 .021-.82 2.212-1.061 2.946a.427.427 0 0 0 .171.416c.463.427 1.564.669 2.528.318l.146.384a3.42 3.42 0 0 1-1.126.193ZM317.329 117.222s-7.48.612-9.058.237c0 0 .067-.794 1.438-1.188 1.371-.394 5.373.019 7.62.951ZM293.736 117.222s7.477.612 9.058.237c0 0-.067-.794-1.441-1.188-1.373-.394-5.37.019-7.617.951Z" fill="#120283"/><path d="M331.08 118.612s-6.011-2.991-9.139-12.052c0 0-11.592-.815-15.319 3.988-3.727 4.804-6.1 11.508-18.112 10.51v-18.576h42.943l-.373 16.13Z" fill="#120283"/><path d="M335.304 102.483c-.146 7.557-1.944 15.427-1.944 15.427l-.396 1.341c-2.452 8.571-1.123 18.162-1.05 18.646-.124-.405-2.143-7.131-2.034-12.622.07-3.583.051-8.699.028-11.992a55.157 55.157 0 0 0-.561-3.735c-.677-3.621-2.115-5.763-3.91-7.068l9.867.003ZM325.443 82.673c-.379-1.496-.261-12.234 9.861-11.554 10.122.68 18.256 12.097 9.701 19.03-8.555 6.932-14.63 3.942-14.63 3.942l-4.932-11.418Z" fill="#120283"/><path d="M358.509 179.953c-10.013 11.69-27.32 23.621-45.71 23.456-21.261-.191-28.749-16.608-30.923-23.32 1.067-.305 2.097-.585 3.089-.84a71.644 71.644 0 0 0 6.716-2.017c3.395-1.243 5.971-2.659 7.903-4.537 3.576 2.482 14.796 7.987 35.897-.74 2.396 3.031 5.314 4.782 7.937 5.437.065.021.132.038.199.052 1.54.367 7.306.766 14.892 2.509Z" fill="#fff"/><path d="m258.954 335.317 5.713-118.335v118.403l-5.713-.068ZM378.137 336.745l-20.632-.247c6.803-22.836 17.992-69.098 13.743-115.492 0 0 8.367 56.739 6.889 115.739Z" fill="#DD5454"/></g></g><g filter="url(#k)"><g clip-path="url(#l)"><rect x="439" y="10" width="130" height="124.507" rx="62.254" fill="#fff"/><path d="M504.3 143.706c39.738 0 71.951-30.853 71.951-68.91 0-38.06-32.213-68.912-71.951-68.912-39.737 0-71.951 30.853-71.951 68.911s32.214 68.911 71.951 68.911Z" fill="#120283"/><path d="M511.504 31.953s13.288-3.596 9.468 16.569c0 0 7.576 1.475 7.832 12.173 0 0 7.318 2.582 8.858 10.328 0 0-15.539 6.84-37.09 6.272-21.552-.569-34.934-7.378-34.934-7.378s2.952-7.457 9.741-8.65c0 0 .787-9.89 5.024-12.472 0 0-2.55-12.692 3.613-18.963 6.162-6.27 23.637-9.037 27.488 2.121Z" fill="#000"/><path d="m575.97 199.333-138.061-1.636s2.729-52.63 5.55-72.929c2.821-20.3 25.106-29.345 38.13-32.646 4.755-1.208 7.938-2.439 10.014-4.447 2.259-2.167 3.236-5.238 3.53-10.144.181-2.998.112-6.683-.081-11.266l11.896-6.699 6.145-3.46s-1.08 15.923-.052 23.191c.483 3.416 1.681 6.01 3.176 7.882 1.685 2.108 3.745 3.303 5.584 3.73 3.467.803 38.764 1.921 45.689 35.255 6.926 33.334 8.48 73.169 8.48 73.169Z" fill="#fff"/><path d="m575.97 199.333-138.063-1.636s2.731-52.63 5.55-72.93c2.82-20.299 25.109-29.344 38.14-32.646a49.42 49.42 0 0 0 4.603-1.368c2.328-.843 4.096-1.806 5.419-3.079 2.452 1.684 10.145 5.42 24.613-.501 1.643 2.056 3.646 3.244 5.443 3.689.048.014.092.026.136.035 3.467.804 38.764 1.922 45.688 35.256 6.923 33.334 8.471 73.18 8.471 73.18Z" fill="#D73659"/><mask id="m" style="mask-type:alpha" maskUnits="userSpaceOnUse" x="437" y="87" width="139" height="113"><path d="m575.97 199.333-138.063-1.636s2.731-52.63 5.55-72.93c2.819-20.299 25.108-29.344 38.14-32.646a49.49 49.49 0 0 0 4.602-1.368c2.329-.843 4.097-1.806 5.42-3.079 2.451 1.684 10.145 5.42 24.613-.501 1.643 2.056 3.645 3.244 5.442 3.689.048.014.093.026.137.035 3.466.804 38.764 1.922 45.687 35.256 6.923 33.334 8.472 73.18 8.472 73.18Z" fill="#5661E1"/></mask><g mask="url(#m)" fill="#F4E294"><path d="M451.103 124.552a.68.68 0 0 0-.445-.164.68.68 0 0 0-.446.164c-.709.613-2.005 1.898-1.909 3.021.097 1.124 1.283 2.385 1.926 3.005a.613.613 0 0 0 .842 0c.653-.62 1.841-1.892 1.935-3.005.094-1.112-1.192-2.408-1.903-3.021ZM466.412 124.552a.684.684 0 0 0-.892 0c-.709.613-2.005 1.898-1.908 3.021.096 1.124 1.282 2.385 1.925 3.005a.613.613 0 0 0 .842 0c.653-.62 1.841-1.892 1.926-3.005.084-1.112-1.177-2.408-1.893-3.021ZM481.982 125.22a.68.68 0 0 0-.892 0c-.708.614-2.004 1.898-1.908 3.021.096 1.123 1.282 2.385 1.926 3.004.055.054.12.096.193.125a.627.627 0 0 0 .455 0 .579.579 0 0 0 .193-.125c.651-.619 1.839-1.89 1.936-3.004.096-1.114-1.194-2.407-1.903-3.021ZM497.289 125.22a.68.68 0 0 0-.891 0c-.709.614-2.005 1.898-1.909 3.021.097 1.123 1.283 2.385 1.926 3.004a.589.589 0 0 0 .421.168.589.589 0 0 0 .421-.168c.651-.619 1.839-1.89 1.935-3.004.096-1.114-1.194-2.407-1.903-3.021ZM512.859 125.887a.68.68 0 0 0-.445-.164.68.68 0 0 0-.446.164c-.709.614-2.005 1.9-1.909 3.021.097 1.122 1.283 2.387 1.926 3.007a.613.613 0 0 0 .842 0c.65-.62 1.839-1.893 1.925-3.007.087-1.114-1.184-2.407-1.893-3.021ZM528.175 125.887a.68.68 0 0 0-.445-.164.68.68 0 0 0-.446.164c-.709.614-2.005 1.9-1.909 3.021.096 1.122 1.283 2.387 1.926 3.007a.613.613 0 0 0 .842 0c.651-.62 1.839-1.893 1.925-3.007.087-1.114-1.192-2.407-1.893-3.021ZM543.738 126.557a.682.682 0 0 0-.446-.164.68.68 0 0 0-.446.164c-.709.614-2.005 1.898-1.91 3.021.094 1.123 1.284 2.385 1.925 3.005a.615.615 0 0 0 .842 0c.651-.62 1.839-1.893 1.926-3.005.086-1.112-1.183-2.407-1.891-3.021ZM559.045 126.557a.68.68 0 0 0-.446-.164.68.68 0 0 0-.445.164c-.709.614-2.005 1.898-1.911 3.021.095 1.123 1.283 2.385 1.936 3.005a.613.613 0 0 0 .841 0c.651-.62 1.839-1.893 1.926-3.005.087-1.112-1.188-2.407-1.901-3.021ZM443.32 109.966a.68.68 0 0 0-.446-.164.68.68 0 0 0-.446.164c-.709.614-2.005 1.9-1.908 3.021.096 1.122 1.282 2.387 1.925 3.007a.615.615 0 0 0 .842 0c.651-.62 1.839-1.893 1.926-3.007.086-1.114-1.185-2.407-1.893-3.021ZM458.89 110.636a.685.685 0 0 0-.892 0c-.709.612-2.005 1.898-1.911 3.021.095 1.123 1.283 2.385 1.926 3.004a.61.61 0 0 0 .421.167.61.61 0 0 0 .421-.167c.651-.619 1.839-1.892 1.926-3.004.086-1.112-1.183-2.409-1.891-3.021ZM474.198 110.636a.685.685 0 0 0-.892 0c-.709.612-2.005 1.898-1.91 3.021.094 1.123 1.282 2.385 1.935 3.004a.61.61 0 0 0 .842 0c.65-.619 1.839-1.892 1.925-3.004.087-1.112-1.192-2.409-1.9-3.021ZM489.768 111.304a.68.68 0 0 0-.892 0c-.71.614-2.005 1.898-1.91 3.021.094 1.123 1.282 2.385 1.926 3.004a.616.616 0 0 0 .841 0c.651-.619 1.839-1.89 1.926-3.004.087-1.114-1.183-2.407-1.891-3.021ZM505.075 111.303a.68.68 0 0 0-.445-.164.68.68 0 0 0-.446.164c-.711.614-2.005 1.898-1.911 3.021.095 1.124 1.283 2.385 1.936 3.005a.603.603 0 0 0 .421.168.616.616 0 0 0 .42-.168c.651-.62 1.84-1.891 1.926-3.005.087-1.114-1.192-2.407-1.901-3.021ZM520.643 111.971a.68.68 0 0 0-.445-.164.68.68 0 0 0-.446.164c-.709.614-2.005 1.9-1.909 3.021.097 1.122 1.283 2.387 1.926 3.007a.613.613 0 0 0 .842 0c.653-.62 1.841-1.893 1.926-3.007.084-1.114-1.183-2.407-1.894-3.021ZM535.952 111.971a.68.68 0 0 0-.446-.164.68.68 0 0 0-.446.164c-.709.614-2.005 1.9-1.908 3.021.096 1.122 1.282 2.387 1.925 3.007a.613.613 0 0 0 .842 0c.653-.62 1.841-1.893 1.935-3.007.095-1.114-1.192-2.407-1.902-3.021ZM551.522 112.646a.683.683 0 0 0-.892 0c-.709.614-2.005 1.898-1.909 3.021.097 1.123 1.283 2.385 1.926 3.005a.613.613 0 0 0 .842 0c.653-.62 1.841-1.893 1.935-3.005.095-1.112-1.194-2.412-1.902-3.021ZM566.83 112.646a.683.683 0 0 0-.892 0c-.709.614-2.005 1.898-1.909 3.021.097 1.123 1.283 2.385 1.926 3.005a.613.613 0 0 0 .842 0c.651-.62 1.839-1.893 1.926-3.005.086-1.112-1.185-2.412-1.893-3.021ZM451.103 96.434a.68.68 0 0 0-.891 0c-.709.614-2.005 1.898-1.909 3.021.097 1.123 1.283 2.385 1.926 3.005a.603.603 0 0 0 .421.167.612.612 0 0 0 .421-.167c.653-.62 1.841-1.893 1.935-3.005.094-1.112-1.192-2.407-1.903-3.021ZM466.412 96.434a.685.685 0 0 0-.892 0c-.709.614-2.005 1.898-1.908 3.021.096 1.123 1.282 2.385 1.925 3.005a.603.603 0 0 0 .421.167.612.612 0 0 0 .421-.167c.653-.62 1.841-1.893 1.926-3.005.084-1.112-1.177-2.407-1.893-3.021ZM481.982 97.102a.683.683 0 0 0-.892 0c-.708.614-2.004 1.897-1.908 3.021.096 1.123 1.282 2.384 1.926 3.006a.612.612 0 0 0 .841 0c.651-.622 1.839-1.892 1.936-3.006.096-1.114-1.194-2.407-1.903-3.022ZM497.289 97.102a.68.68 0 0 0-.891 0c-.709.614-2.005 1.897-1.909 3.021.097 1.123 1.283 2.384 1.926 3.006a.613.613 0 0 0 .842 0c.651-.622 1.839-1.892 1.935-3.006.096-1.114-1.194-2.407-1.903-3.022ZM512.859 97.77a.673.673 0 0 0-.445-.165.674.674 0 0 0-.446.166c-.709.612-2.005 1.898-1.909 3.021.097 1.123 1.283 2.385 1.926 3.004a.61.61 0 0 0 .842 0c.65-.619 1.839-1.892 1.925-3.004.087-1.112-1.184-2.409-1.893-3.021ZM528.175 97.77a.673.673 0 0 0-.445-.165.676.676 0 0 0-.446.166c-.709.612-2.005 1.898-1.909 3.021.096 1.123 1.283 2.385 1.926 3.004a.61.61 0 0 0 .842 0c.651-.619 1.839-1.892 1.925-3.004.087-1.112-1.192-2.409-1.893-3.021ZM543.738 98.444a.683.683 0 0 0-.892 0c-.709.614-2.005 1.898-1.91 3.021.094 1.124 1.284 2.385 1.925 3.005a.614.614 0 0 0 .842 0c.651-.62 1.839-1.892 1.926-3.005.086-1.112-1.183-2.412-1.891-3.02ZM559.045 98.444a.68.68 0 0 0-.891 0c-.709.614-2.005 1.898-1.911 3.021.095 1.124 1.283 2.385 1.936 3.005a.607.607 0 0 0 .841 0c.651-.62 1.839-1.892 1.926-3.005.087-1.112-1.188-2.412-1.901-3.02ZM443.32 81.844a.678.678 0 0 0-.892 0c-.709.613-2.005 1.898-1.908 3.022.096 1.123 1.282 2.385 1.925 3.004a.613.613 0 0 0 .842 0c.651-.62 1.839-1.892 1.926-3.004.086-1.112-1.185-2.404-1.893-3.022ZM458.89 82.518a.685.685 0 0 0-.892 0c-.709.614-2.005 1.897-1.911 3.02.095 1.124 1.283 2.386 1.926 3.005a.596.596 0 0 0 .421.168.616.616 0 0 0 .421-.168c.651-.62 1.839-1.892 1.926-3.004.086-1.112-1.183-2.404-1.891-3.021ZM474.198 82.518a.685.685 0 0 0-.892 0c-.709.614-2.005 1.897-1.91 3.02.094 1.124 1.282 2.386 1.935 3.005a.596.596 0 0 0 .421.168.62.62 0 0 0 .421-.168c.65-.62 1.839-1.892 1.925-3.004.087-1.112-1.192-2.404-1.9-3.021ZM489.768 83.186a.68.68 0 0 0-.446-.165.68.68 0 0 0-.446.165c-.71.614-2.005 1.897-1.91 3.02.094 1.124 1.282 2.385 1.926 3.007a.61.61 0 0 0 .841 0c.651-.622 1.839-1.892 1.926-3.006.087-1.114-1.182-2.407-1.891-3.021ZM505.075 83.186a.68.68 0 0 0-.891 0c-.711.614-2.005 1.897-1.911 3.02.095 1.124 1.283 2.385 1.936 3.007a.61.61 0 0 0 .841 0c.651-.621 1.84-1.892 1.926-3.006.087-1.114-1.192-2.407-1.901-3.021ZM520.644 83.855a.678.678 0 0 0-.892 0c-.709.612-2.005 1.898-1.909 3.02.097 1.124 1.283 2.386 1.926 3.005a.611.611 0 0 0 .421.167c.158 0 .309-.06.421-.166.653-.62 1.841-1.893 1.926-3.005.084-1.112-1.183-2.409-1.893-3.021ZM535.952 83.855a.678.678 0 0 0-.892 0c-.709.612-2.005 1.898-1.908 3.02.096 1.124 1.282 2.386 1.925 3.005a.611.611 0 0 0 .421.167c.158 0 .309-.06.421-.166.653-.62 1.841-1.893 1.935-3.005.095-1.112-1.192-2.409-1.902-3.021ZM551.522 84.522a.683.683 0 0 0-.892 0c-.709.615-2.005 1.898-1.909 3.022.097 1.123 1.283 2.384 1.926 3.004a.598.598 0 0 0 .421.168.616.616 0 0 0 .421-.168c.653-.62 1.841-1.892 1.935-3.004.095-1.113-1.194-2.407-1.902-3.022ZM566.83 84.522a.683.683 0 0 0-.892 0c-.709.615-2.005 1.898-1.909 3.022.097 1.123 1.283 2.384 1.926 3.004a.598.598 0 0 0 .421.168.616.616 0 0 0 .421-.168c.651-.62 1.839-1.892 1.926-3.004.086-1.113-1.185-2.407-1.893-3.022Z"/></g><path d="M512.384 58.89s-.512 7.995-6.547 15.387c-1.423 1.747-2.889 2.783-4.297 3.35-2.996 1.204-6.293-.923-6.291-4.043 0-2.15-.072-4.576-.193-7.326l11.894-6.7 5.434-.669Z" fill="#120283"/><path d="M518.705 57.97c-.934 1.919-3.659 1.705-5.392 1.338-1.541 5.98-5.585 13.707-16.562 13.707-7.145 0-12.479-9.59-12.414-15.862.054-5.164 0-5.986 0-5.986l-.048-10.132h29.538c.161 3.075.3 6.836.258 10.255.578-.369 1.56-.747 3.05-.563 2.704.327 2.983 4.337 1.57 7.244Z" fill="#fff"/><path d="M500.957 56.593c.474 0 .859-.368.859-.823 0-.454-.385-.822-.859-.822s-.859.368-.859.822c0 .455.385.823.859.823ZM491.981 56.593c.474 0 .859-.368.859-.823 0-.454-.385-.822-.859-.822s-.859.368-.859.822c0 .455.385.823.859.823Z" fill="#120283"/><path d="M521.674 90.866c-17.854 10.314-30.78 3.32-35.475-.115 2.328-.843 4.096-1.805 5.419-3.078 2.452 1.684 10.145 5.419 24.614-.502 1.642 2.051 3.645 3.245 5.442 3.695Z" fill="#A81A39"/><path d="M495.896 62.768s2.224-.21 3.748-1.079c0 0-.374 2.565-3.748 1.079ZM495.659 61.24a1.957 1.957 0 0 1-1.264-.405.523.523 0 0 1-.192-.566c.166-.504.724-1.996.73-2.01l.271.093c0 .015-.56 1.502-.726 2.002a.27.27 0 0 0 .017.156c.021.05.056.093.101.124.316.29 1.072.454 1.733.216l.102.26c-.247.086-.509.13-.772.13ZM503.776 50.029s-5.126.415-6.211.162c0 0 .047-.539.988-.808.942-.27 3.682.022 5.223.646ZM487.6 50.028s5.128.415 6.21.163c0 0-.046-.539-.986-.808-.94-.27-3.684.024-5.224.645Z" fill="#120283"/><path d="M513.205 50.982s-4.121-2.029-6.265-8.178c0 0-7.95-.553-10.503 2.706-2.554 3.259-4.185 7.807-12.421 7.132V40.038h29.445l-.256 10.944Z" fill="#000"/><path d="M516.103 40.037c-.1 5.128-1.332 10.467-1.332 10.467l-.268.908c-1.681 5.815-.77 12.322-.72 12.65-.085-.274-1.47-4.837-1.395-8.563.049-2.43.035-5.902.02-8.136a36.913 36.913 0 0 0-.385-2.534c-.465-2.457-1.451-3.91-2.681-4.795l6.761.003Z" fill="#000"/><path d="M489.162 97.45s7.953 5.533 26.941 0c0 0-16.253 8.575-26.941 0ZM536.249 122.374c.046.311.483 3.32.849 7.846l-.849-7.846Z" fill="#A81A39"/><path d="M544.597 199.333h-50.33c12.359-5.706 29.734-14.995 36.489-24.702 7.782-11.177 7.289-32.782 6.342-44.413l7.499 69.115ZM468.323 127.573l-1.772 71.76h-2.475c1.061-18.248 4.247-71.76 4.247-71.76Z" fill="#A81A39"/></g></g><path opacity=".5" d="M266.5 306.901c10.217 0 18.5-7.932 18.5-17.718 0-9.785-8.283-17.718-18.5-17.718s-18.5 7.933-18.5 17.718c0 9.786 8.283 17.718 18.5 17.718Z" fill="#D73659"/><path opacity=".5" d="M552 171.859c8.284 0 15-6.432 15-14.366 0-7.934-6.716-14.366-15-14.366-8.284 0-15 6.432-15 14.366 0 7.934 6.716 14.366 15 14.366Z" fill="#FFDA32"/><path opacity=".5" d="M151 173.775c20.987 0 38-15.866 38-35.437 0-19.571-17.013-35.437-38-35.437s-38 15.866-38 35.437c0 19.571 17.013 35.437 38 35.437Z" fill="#6258C4"/><path opacity=".5" d="M477 415.127c9.941 0 18-7.29 18-16.282s-8.059-16.282-18-16.282-18 7.29-18 16.282 8.059 16.282 18 16.282Z" fill="#74BBFB"/><defs><clipPath id="b"><rect x="35" y="213.042" width="178" height="169.521" rx="84.761" fill="#fff"/></clipPath><clipPath id="d"><rect x="243" y="328.93" width="164" height="157.07" rx="78.535" fill="#fff"/></clipPath><clipPath id="f"><rect x="533" y="335.634" width="152" height="149.408" rx="74.704" fill="#fff"/></clipPath><clipPath id="h"><rect x="407" y="173.774" width="177" height="171.437" rx="85.718" fill="#fff"/></clipPath><clipPath id="j"><rect x="225" y="52.141" width="188" height="181.972" rx="90.986" fill="#fff"/></clipPath><clipPath id="l"><rect x="439" y="10" width="130" height="124.507" rx="62.254" fill="#fff"/></clipPath><filter id="a" x="0" y="203.042" width="248" height="239.521" filterUnits="userSpaceOnUse" color-interpolation-filters="sRGB"><feFlood flood-opacity="0" result="BackgroundImageFix"/><feColorMatrix in="SourceAlpha" values="0 0 0 0 0 0 0 0 0 0 0 0 0 0 0 0 0 0 127 0" result="hardAlpha"/><feOffset dy="25"/><feGaussianBlur stdDeviation="17.5"/><feColorMatrix values="0 0 0 0 0.0862745 0 0 0 0 0.0901961 0 0 0 0 0.282353 0 0 0 0.05 0"/><feBlend in2="BackgroundImageFix" result="effect1_dropShadow_428_8442"/><feBlend in="SourceGraphic" in2="effect1_dropShadow_428_8442" result="shape"/></filter><filter id="c" x="208" y="318.93" width="234" height="227.07" filterUnits="userSpaceOnUse" color-interpolation-filters="sRGB"><feFlood flood-opacity="0" result="BackgroundImageFix"/><feColorMatrix in="SourceAlpha" values="0 0 0 0 0 0 0 0 0 0 0 0 0 0 0 0 0 0 127 0" result="hardAlpha"/><feOffset dy="25"/><feGaussianBlur stdDeviation="17.5"/><feColorMatrix values="0 0 0 0 0.0862745 0 0 0 0 0.0901961 0 0 0 0 0.282353 0 0 0 0.05 0"/><feBlend in2="BackgroundImageFix" result="effect1_dropShadow_428_8442"/><feBlend in="SourceGraphic" in2="effect1_dropShadow_428_8442" result="shape"/></filter><filter id="e" x="498" y="325.634" width="222" height="219.408" filterUnits="userSpaceOnUse" color-interpolation-filters="sRGB"><feFlood flood-opacity="0" result="BackgroundImageFix"/><feColorMatrix in="SourceAlpha" values="0 0 0 0 0 0 0 0 0 0 0 0 0 0 0 0 0 0 127 0" result="hardAlpha"/><feOffset dy="25"/><feGaussianBlur stdDeviation="17.5"/><feColorMatrix values="0 0 0 0 0.0862745 0 0 0 0 0.0901961 0 0 0 0 0.282353 0 0 0 0.05 0"/><feBlend in2="BackgroundImageFix" result="effect1_dropShadow_428_8442"/><feBlend in="SourceGraphic" in2="effect1_dropShadow_428_8442" result="shape"/></filter><filter id="g" x="372" y="163.774" width="247" height="241.437" filterUnits="userSpaceOnUse" color-interpolation-filters="sRGB"><feFlood flood-opacity="0" result="BackgroundImageFix"/><feColorMatrix in="SourceAlpha" values="0 0 0 0 0 0 0 0 0 0 0 0 0 0 0 0 0 0 127 0" result="hardAlpha"/><feOffset dy="25"/><feGaussianBlur stdDeviation="17.5"/><feColorMatrix values="0 0 0 0 0.0862745 0 0 0 0 0.0901961 0 0 0 0 0.282353 0 0 0 0.05 0"/><feBlend in2="BackgroundImageFix" result="effect1_dropShadow_428_8442"/><feBlend in="SourceGraphic" in2="effect1_dropShadow_428_8442" result="shape"/></filter><filter id="i" x="190" y="42.141" width="258" height="251.972" filterUnits="userSpaceOnUse" color-interpolation-filters="sRGB"><feFlood flood-opacity="0" result="BackgroundImageFix"/><feColorMatrix in="SourceAlpha" values="0 0 0 0 0 0 0 0 0 0 0 0 0 0 0 0 0 0 127 0" result="hardAlpha"/><feOffset dy="25"/><feGaussianBlur stdDeviation="17.5"/><feColorMatrix values="0 0 0 0 0.0862745 0 0 0 0 0.0901961 0 0 0 0 0.282353 0 0 0 0.05 0"/><feBlend in2="BackgroundImageFix" result="effect1_dropShadow_428_8442"/><feBlend in="SourceGraphic" in2="effect1_dropShadow_428_8442" result="shape"/></filter><filter id="k" x="404" y="0" width="200" height="194.507" filterUnits="userSpaceOnUse" color-interpolation-filters="sRGB"><feFlood flood-opacity="0" result="BackgroundImageFix"/><feColorMatrix in="SourceAlpha" values="0 0 0 0 0 0 0 0 0 0 0 0 0 0 0 0 0 0 127 0" result="hardAlpha"/><feOffset dy="25"/><feGaussianBlur stdDeviation="17.5"/><feColorMatrix values="0 0 0 0 0.0862745 0 0 0 0 0.0901961 0 0 0 0 0.282353 0 0 0 0.05 0"/><feBlend in2="BackgroundImageFix" result="effect1_dropShadow_428_8442"/><feBlend in="SourceGraphic" in2="effect1_dropShadow_428_8442" result="shape"/></filter></defs></svg>