<svg width="44" height="45" fill="none" xmlns="http://www.w3.org/2000/svg"><path d="M2.61 32.135v8.12h11.36v-8.12L8.29 29.02l-5.68 3.115Z" stroke="#1A2578" stroke-width="1.5" stroke-linecap="round" stroke-linejoin="round"/><path d="M10.381 33.927h-3.96v6.327h3.96v-6.327Z" stroke="#1A2578" stroke-width="1.5" stroke-linecap="round" stroke-linejoin="round"/><path d="M21.487 32.375a9.588 9.588 0 0 0 9.587-9.588 9.588 9.588 0 1 0-19.175 0 9.588 9.588 0 0 0 9.588 9.588Z" stroke="#BF0830" stroke-width="1.5" stroke-linecap="round" stroke-linejoin="round"/><path d="m15.316 24.663 3.777 3.774 8.755-8.755-1.969-1.968-6.831 6.83-1.792-1.792-1.94 1.91Z" stroke="#BF0830" stroke-width="1.5" stroke-linecap="round" stroke-linejoin="round"/><path d="M40.42 3.987h-11.2v10.979h11.2V3.986Z" stroke="#1A2578" stroke-width="1.5" stroke-linecap="round" stroke-linejoin="round"/><path d="M36.913 10.313h-4.186v4.653h4.186v-4.653ZM4.748 22.5A16.74 16.74 0 0 1 20.153 5.811" stroke="#1A2578" stroke-width="1.5" stroke-linecap="round" stroke-linejoin="round"/><path d="m16.8 11.475-.953-.781 3.85-4.69-4.96-3.498.711-1.006 6.04 4.261-4.688 5.714Z" fill="#1A2578"/><path d="M38.228 22.5a16.741 16.741 0 0 1-15.405 16.688" stroke="#1A2578" stroke-width="1.5" stroke-linecap="round" stroke-linejoin="round"/><path d="m26.176 33.525.953.78-3.85 4.692 4.96 3.498-.712 1.006-6.04-4.262 4.689-5.714Z" fill="#1A2578"/></svg>