<svg width="124" height="28" fill="none" xmlns="http://www.w3.org/2000/svg"><g clip-path="url(#a)" fill="#8F90A6"><path d="M94.432 12.738h-3.008c-.725 0-1.28.191-1.854.886l-4.25 5.136v-6.022h-4.173v15.39a.9.9 0 0 0 .245.617.819.819 0 0 0 .588.258h3.337v-7.377l3.68 6.031c.549.901 1.093 1.346 2.344 1.346h3.428l-5.853-9.597 5.516-6.668ZM76.786 12.738h-9.29v14.808c0 .81.759 1.46 1.566 1.46h7.724a.818.818 0 0 0 .59-.258.9.9 0 0 0 .245-.618v-2.103h-5.33a.618.618 0 0 1-.443-.197.68.68 0 0 1-.183-.467v-3.421h4.75v-2.97h-4.75v-3.255h5.956V13.62a.9.9 0 0 0-.246-.618.818.818 0 0 0-.59-.257M106.135 12.738h-9.291v14.808c0 .81.759 1.46 1.566 1.46h7.725a.816.816 0 0 0 .589-.258.898.898 0 0 0 .244-.618v-2.103h-5.329a.619.619 0 0 1-.442-.197.68.68 0 0 1-.183-.467v-3.421h4.75v-2.97h-4.75v-3.255h5.954V13.62a.898.898 0 0 0-.244-.618.816.816 0 0 0-.589-.257M47.006 12.738h-4.174v15.39c.001.232.09.454.246.617a.82.82 0 0 0 .589.258h3.337l.002-16.265ZM38.204 12.738h-9.292v14.808c0 .845.765 1.46 1.567 1.46h7.725a.818.818 0 0 0 .589-.259.9.9 0 0 0 .245-.617v-2.103h-5.332a.618.618 0 0 1-.442-.197.68.68 0 0 1-.183-.467v-3.421h4.749v-2.97h-4.746v-3.255h5.954V13.62a.9.9 0 0 0-.245-.617.818.818 0 0 0-.589-.258M24.7 12.738h-4.175v6.236h-3.643v-6.236H12.04v.64c.202.091.374.244.492.438a1.2 1.2 0 0 1 .175.652V29h4.174v-7.056h3.648V29h4.174L24.7 12.738ZM63.283 12.738v15.39a.9.9 0 0 1-.245.617.819.819 0 0 1-.588.258h-2.56l-5.632-9.32c.078.577.117 1.16.117 1.743v7.577h-3.117V12.738h2.024c1.032 0 1.783.447 2.323 1.339.46.756 4.717 7.784 4.717 7.784s-.153-.48-.153-1.762v-7.36h3.114ZM123.185 12.738v.64c-.2.095-.368.248-.486.442-.117.193-.178.419-.176.648v13.658a.895.895 0 0 1-.243.616.813.813 0 0 1-.587.258h-2.556l-5.633-9.32c.078.577.117 1.16.117 1.743V29h-3.117V12.738h2.024c1.031 0 1.783.447 2.323 1.339.46.756 4.716 7.784 4.716 7.784s-.152-.48-.152-1.762v-7.36h3.77Z"/><path d="M4.27 18.66a.245.245 0 0 1-.318.02.266.266 0 0 1-.097-.147.278.278 0 0 1 .013-.176c.113-.361 2.21-7.134 2.21-7.134L.293 6.815a.262.262 0 0 1-.11-.134.278.278 0 0 1-.004-.177.264.264 0 0 1 .103-.14.244.244 0 0 1 .164-.042h7.148S9.694-.444 9.804-.808a.268.268 0 0 1 .088-.153.246.246 0 0 1 .32 0 .268.268 0 0 1 .088.153c.111.362 2.21 7.129 2.21 7.129h7.146a.244.244 0 0 1 .165.04.264.264 0 0 1 .102.141.277.277 0 0 1-.004.177.262.262 0 0 1-.11.135L16.36 9.445h-4.08l-1.266-4.07-1.264 4.07H5.676l3.303 2.52-1.265 4.07-3.444 2.624Z"/></g><defs><clipPath id="a"><path fill="#fff" transform="translate(.185 -1)" d="M0 0h123v30H0z"/></clipPath></defs></svg>