<svg width="196" height="38" viewBox="0 0 196 38" fill="none" xmlns="http://www.w3.org/2000/svg">
<path d="M103.459 21.5875C103.459 23.4516 103.174 25.1104 102.603 26.5667C102.032 28.0245 101.228 29.2479 100.193 30.2382C99.1574 31.2285 97.9166 31.98 96.4748 32.4911C95.033 33.0009 93.4252 33.2572 91.6528 33.2572C89.8804 33.2572 88.2726 32.9878 86.8323 32.446C85.3905 31.9057 84.1512 31.1324 83.1142 30.126C82.0788 29.1197 81.2734 27.8949 80.704 26.4546C80.1331 25.0128 79.8477 23.3904 79.8477 21.5875C79.8477 19.8151 80.1331 18.2073 80.704 16.7669C81.2749 15.3252 82.0788 14.1018 83.1142 13.094C84.1512 12.0877 85.3905 11.3144 86.8323 10.7741C88.2741 10.2338 89.8804 9.96289 91.6528 9.96289C93.4252 9.96289 95.033 10.2411 96.4748 10.7959C97.9166 11.3522 99.1559 12.1328 100.193 13.1392C101.23 14.1455 102.032 15.3703 102.603 16.8121C103.174 18.2524 103.459 19.8457 103.459 21.5875ZM87.6886 21.5875C87.6886 23.4195 88.0411 24.8249 88.7474 25.8007C89.4537 26.7779 90.4368 27.2643 91.6994 27.2643C92.9606 27.2643 93.9305 26.7691 94.6063 25.7774C95.282 24.7871 95.6199 23.389 95.6199 21.5875C95.6199 19.786 95.2747 18.3966 94.583 17.4194C93.8912 16.4436 92.9155 15.9558 91.6543 15.9558C90.3931 15.9558 89.4159 16.4436 88.7255 17.4194C88.0323 18.3951 87.6886 19.786 87.6886 21.5875Z" fill="#1A2578"/>
<path d="M107.784 32.5361C107.304 32.1152 106.919 31.62 106.635 31.0492C106.35 30.4783 106.207 29.8331 106.207 29.1122C106.207 28.5122 106.35 27.918 106.635 27.3326C106.921 26.7456 107.273 26.1981 107.694 25.6869L115.445 16.5847H107.154C106.973 16.2541 106.8 15.8347 106.635 15.3235C106.471 14.8138 106.388 14.2575 106.388 13.656C106.388 12.6045 106.621 11.8457 107.087 11.3812C107.551 10.9151 108.175 10.6821 108.957 10.6821H123.15C123.631 11.103 124.014 11.5996 124.299 12.169C124.585 12.7399 124.727 13.3866 124.727 14.1075C124.727 14.7089 124.585 15.3017 124.299 15.8871C124.014 16.4726 123.66 17.0216 123.241 17.5328L115.67 26.635H124.502C124.682 26.9656 124.854 27.3864 125.02 27.8962C125.185 28.4073 125.268 28.9637 125.268 29.5637C125.268 30.6152 125.035 31.3739 124.569 31.8385C124.103 32.3045 123.479 32.5375 122.699 32.5375H107.784V32.5361Z" fill="#1A2578"/>
<path d="M128.512 4.55544C128.512 3.41366 128.895 2.45393 129.661 1.67187C130.427 0.89127 131.44 0.499512 132.702 0.499512C133.963 0.499512 134.978 0.89127 135.744 1.67187C136.51 2.45393 136.893 3.41366 136.893 4.55544C136.893 5.69722 136.51 6.65841 135.744 7.43901C134.978 8.22107 133.964 8.60992 132.702 8.60992C131.44 8.60992 130.427 8.22107 129.661 7.43901C128.895 6.65841 128.512 5.69722 128.512 4.55544ZM136.533 32.4911C136.203 32.5508 135.715 32.6338 135.068 32.7387C134.423 32.8436 133.769 32.896 133.108 32.896C132.447 32.896 131.854 32.8508 131.328 32.7605C130.803 32.6702 130.36 32.4897 129.999 32.2202C129.639 31.9494 129.361 31.5824 129.166 31.1163C128.969 30.6503 128.873 30.043 128.873 29.2915V10.9532C129.203 10.8935 129.69 10.8105 130.337 10.7056C130.982 10.6007 131.636 10.5483 132.297 10.5483C132.957 10.5483 133.551 10.5935 134.076 10.6837C134.602 10.774 135.045 10.9546 135.406 11.2255C135.767 11.4949 136.044 11.8634 136.239 12.3294C136.434 12.7955 136.532 13.4042 136.532 14.1542V32.4911H136.533Z" fill="#1A2578"/>
<path d="M176.68 21.5875C176.68 23.4516 176.395 25.1104 175.824 26.5667C175.253 28.0245 174.449 29.2479 173.414 30.2382C172.378 31.2285 171.137 31.98 169.695 32.4911C168.254 33.0009 166.646 33.2572 164.873 33.2572C163.101 33.2572 161.493 32.9878 160.053 32.446C158.611 31.9057 157.372 31.1324 156.335 30.126C155.299 29.1197 154.494 27.8949 153.925 26.4546C153.354 25.0128 153.068 23.3904 153.068 21.5875C153.068 19.8151 153.354 18.2073 153.925 16.7669C154.494 15.3252 155.299 14.1018 156.335 13.094C157.372 12.0877 158.61 11.3144 160.053 10.7741C161.495 10.2338 163.103 9.96289 164.873 9.96289C166.646 9.96289 168.254 10.2411 169.695 10.7959C171.137 11.3522 172.377 12.1328 173.414 13.1392C174.45 14.1455 175.253 15.3703 175.824 16.8121C176.395 18.2524 176.68 19.8457 176.68 21.5875ZM160.909 21.5875C160.909 23.4195 161.262 24.8249 161.968 25.8007C162.674 26.7779 163.657 27.2643 164.919 27.2643C166.18 27.2643 167.15 26.7691 167.826 25.7774C168.501 24.7871 168.839 23.389 168.839 21.5875C168.839 19.786 168.494 18.3966 167.802 17.4194C167.11 16.4436 166.135 15.9558 164.873 15.9558C163.612 15.9558 162.635 16.4436 161.945 17.4194C161.254 18.3951 160.909 19.786 160.909 21.5875Z" fill="#1A2578"/>
<path d="M188.08 32.4909C187.78 32.5812 187.307 32.6715 186.66 32.7618C186.014 32.8521 185.347 32.8972 184.655 32.8972C183.994 32.8972 183.4 32.8521 182.875 32.7618C182.35 32.6715 181.907 32.4909 181.546 32.2215C181.186 31.9506 180.906 31.5836 180.713 31.1176C180.516 30.6516 180.42 30.0443 180.42 29.2928V15.775C180.42 15.0846 180.548 14.4905 180.803 13.9953C181.058 13.5001 181.426 13.0559 181.907 12.6656C182.386 12.2768 182.98 11.9229 183.687 11.6069C184.391 11.2923 185.15 11.0141 185.961 10.7738C186.773 10.535 187.613 10.3457 188.485 10.2117C189.356 10.0763 190.227 10.0093 191.098 10.0093C192.54 10.0093 193.681 10.2874 194.523 10.8438C195.363 11.4001 195.784 12.3088 195.784 13.57C195.784 13.9909 195.725 14.4031 195.604 14.8094C195.484 15.2143 195.333 15.5827 195.154 15.9133C194.523 15.9133 193.877 15.9439 193.215 16.0036C192.554 16.0648 191.909 16.1551 191.278 16.2745C190.648 16.3954 190.054 16.5221 189.499 16.6575C188.942 16.7929 188.469 16.9502 188.079 17.1308V32.4909H188.08Z" fill="#1A2578"/>
<path d="M53.1731 9.96143C54.4038 9.96143 55.6125 10.1347 56.7995 10.4799C57.9864 10.825 59.0146 11.3435 59.8855 12.0338C60.7869 11.4338 61.8006 10.9372 62.9263 10.5469C64.0535 10.1566 65.4123 9.96143 67.0055 9.96143C68.1473 9.96143 69.2658 10.1114 70.3624 10.4129C71.4591 10.7129 72.4348 11.1862 73.2911 11.8314C74.1475 12.478 74.8305 13.3343 75.3417 14.4004C75.8514 15.4664 76.1077 16.7655 76.1077 18.2976V32.4911C75.8077 32.5814 75.3344 32.6717 74.6892 32.7606C74.0426 32.8509 73.3742 32.896 72.6838 32.896C72.0227 32.896 71.4299 32.8509 70.9042 32.7606C70.3784 32.6703 69.9357 32.4911 69.5745 32.2203C69.2148 31.9494 68.9367 31.5824 68.7415 31.1163C68.5449 30.6518 68.4488 30.043 68.4488 29.2915V18.5233C68.4488 17.6218 68.1925 16.9694 67.6827 16.563C67.1716 16.1567 66.4798 15.9557 65.6104 15.9557C65.1895 15.9557 64.738 16.0533 64.2589 16.2485C63.7783 16.4436 63.4171 16.6475 63.1768 16.8572C63.2059 16.9781 63.2219 17.0902 63.2219 17.1951V17.4878V32.4926C62.8914 32.5829 62.4035 32.6732 61.7583 32.762C61.1117 32.8523 60.4578 32.8975 59.7981 32.8975C59.1369 32.8975 58.5442 32.8523 58.0184 32.762C57.4927 32.6717 57.0499 32.4926 56.6888 32.2217C56.3276 31.9508 56.0494 31.5838 55.8557 31.1178C55.6591 30.6532 55.563 30.0445 55.563 29.293V18.5247C55.563 17.6233 55.2848 16.9708 54.73 16.5645C54.1737 16.1582 53.5052 15.9572 52.7246 15.9572C52.1843 15.9572 51.7183 16.0402 51.3279 16.2048C50.9376 16.3708 50.6071 16.5281 50.3362 16.6781V32.4941C50.0362 32.5843 49.5629 32.6746 48.9177 32.7635C48.2711 32.8538 47.6026 32.8989 46.9123 32.8989C46.2511 32.8989 45.6569 32.8538 45.1312 32.7635C44.6054 32.6732 44.1627 32.4941 43.8015 32.2232C43.4418 31.9523 43.1622 31.5853 42.9685 31.1193C42.7734 30.6547 42.6758 30.0459 42.6758 29.2945V15.6878C42.6758 14.8766 42.8491 14.2314 43.1942 13.7508C43.5394 13.2702 44.0127 12.8202 44.6127 12.3993C45.6336 11.6784 46.9036 11.093 48.4196 10.6415C49.9357 10.1872 51.5202 9.96143 53.1731 9.96143Z" fill="#1A2578"/>
<path d="M149.196 32.4911C148.865 32.5508 148.377 32.6338 147.73 32.7386C147.084 32.8435 146.431 32.8959 145.77 32.8959C145.109 32.8959 144.516 32.8508 143.991 32.7605C143.465 32.6702 143.022 32.4896 142.661 32.2202C142.301 31.9493 142.023 31.5823 141.828 31.1163C141.631 30.6502 141.535 30.0429 141.535 29.2915V3.15731C141.866 3.0976 142.354 3.01458 142.999 2.90973C143.644 2.80487 144.298 2.75098 144.959 2.75098C145.619 2.75098 146.213 2.79613 146.739 2.88643C147.263 2.97672 147.707 3.15731 148.068 3.42819C148.429 3.69761 148.706 4.06607 148.901 4.5321C149.097 4.99813 149.194 5.60688 149.194 6.3569V32.4911H149.196Z" fill="#1A2578"/>
<path d="M7.93618 34.6973C6.42594 33.7128 5.07882 32.5011 3.94287 31.1074C4.1555 30.736 4.2458 30.3064 4.2458 29.8316C4.2458 24.9747 4.2458 20.1178 4.2458 15.2623V14.9594C4.35066 15.0351 4.40891 15.0861 4.47445 15.124C5.56234 15.7487 6.64877 16.3764 7.74249 16.9895C7.89831 17.0769 7.92745 17.176 7.92745 17.3347C7.92454 22.9999 7.92598 28.6666 7.92161 34.3318C7.92161 34.4555 7.92598 34.5764 7.93618 34.6973ZM16.0204 37.4454C14.3995 37.3187 12.8426 36.9692 11.3775 36.4274C11.9703 36.008 12.2892 35.4517 12.2907 34.7177C12.2936 29.7879 12.2921 24.8567 12.2921 19.927V19.5775C12.6781 19.8105 13.0174 20.026 13.3669 20.2226C14.1067 20.6406 14.848 21.0571 15.5966 21.4562C15.9141 21.6251 16.032 21.8348 16.0306 22.2164C16.016 27.2932 16.0189 32.3701 16.0204 37.4454ZM17.3952 37.4993C17.3908 37.4993 17.3879 37.4993 17.3835 37.4993C18.4073 37.4993 19.4108 37.409 20.3851 37.2386C20.3894 32.003 20.388 26.766 20.3851 21.5304C20.3851 21.0426 20.3909 20.5503 20.3239 20.0712C20.2846 19.7872 20.1287 19.509 19.986 19.2498C19.753 18.8289 19.3394 18.6017 18.9389 18.3716C18.3738 18.0483 17.8073 17.7294 17.2423 17.4061C16.6233 17.0507 16.0102 16.6881 15.3898 16.3356C14.583 15.8784 13.7689 15.4371 12.9664 14.974C12.0795 14.4628 11.2057 13.9312 10.3217 13.4142C9.89061 13.1623 9.44788 12.9263 9.01243 12.6788C8.15464 12.1938 7.29831 11.7088 6.44342 11.221C5.9104 10.9166 5.38174 10.6064 4.84727 10.3049C4.45696 10.085 4.04044 9.90588 3.67199 9.65684C3.6516 9.64228 3.63122 9.62917 3.60938 9.61606C4.8298 8.02136 6.31818 6.64657 8.01046 5.55722C7.86483 6.01743 7.89687 6.5053 8.08765 7.00483C8.29154 7.53931 8.70805 7.9034 9.19592 8.18156C10.0042 8.64031 10.8212 9.08741 11.6295 9.54762C12.3839 9.97724 13.1324 10.4185 13.8854 10.8525C14.5407 11.2311 15.1946 11.6083 15.8529 11.9826C16.4092 12.2986 16.9685 12.6089 17.5262 12.922C17.969 13.171 18.4132 13.4171 18.8501 13.6734C19.3321 13.956 19.8025 14.2574 20.2875 14.5341C20.9239 14.8982 21.5691 15.2463 22.2084 15.6046C22.7094 15.8856 23.2075 16.1711 23.707 16.4536C23.9385 16.5847 24.0784 16.7245 24.0769 17.0507C24.0609 22.6577 24.0667 28.2661 24.0609 33.873C24.0609 34.323 24.1264 34.7366 24.3492 35.1386C24.4992 35.408 24.6827 35.6221 24.8939 35.7896C26.1653 35.1779 27.3493 34.4162 28.427 33.5264C28.4387 30.602 28.4314 27.6777 28.4314 24.7533C28.4314 21.6965 28.4299 18.6396 28.4328 15.5813C28.4328 15.188 28.3644 14.8196 28.1911 14.4584C27.9945 14.0477 27.7003 13.7375 27.3173 13.5132C26.7012 13.1521 26.0721 12.8157 25.4531 12.4603C24.5502 11.9418 23.6546 11.4103 22.7516 10.8933C21.9448 10.4316 21.1278 9.98598 20.3195 9.52723C19.2841 8.94032 18.2515 8.34758 17.219 7.75485C16.466 7.32231 15.716 6.88541 14.9645 6.4485C14.4067 6.12374 13.8519 5.7946 13.2926 5.47129C12.9329 5.26304 12.5688 5.05915 12.2047 4.85672C11.8931 4.68487 11.561 4.5436 11.2698 4.34262C11.1154 4.23631 10.9523 4.15767 10.7848 4.10233C12.6446 3.33629 14.666 2.88336 16.7835 2.81055C16.8927 2.89938 17.0122 2.98239 17.1447 3.05812C18.1481 3.63629 19.1442 4.22612 20.1491 4.80283C20.8453 5.20187 21.5531 5.58343 22.2521 5.97956C22.9162 6.3553 23.573 6.74269 24.2356 7.11988C24.7993 7.44028 25.3672 7.74902 25.9308 8.06651C26.375 8.317 26.8163 8.57041 27.2561 8.82818C27.6479 9.05828 28.0309 9.3044 28.427 9.52868C28.9091 9.80102 29.4071 10.0457 29.8892 10.3195C30.5533 10.6967 31.2057 11.0913 31.8669 11.4729C32.0358 11.5719 32.1174 11.6797 32.1174 11.9025C32.1072 17.559 32.1058 23.2154 32.1189 28.8719C32.1189 29.0015 32.1276 29.1355 32.1451 29.268C33.7893 26.616 34.7403 23.4878 34.7417 20.1382C34.7417 20.1425 34.7417 20.1455 34.7417 20.1498C34.7432 29.7326 26.975 37.4993 17.3952 37.4993Z" fill="#D60936"/>
<path d="M3.92923 31.1321C1.47382 28.1364 0 24.3033 0 20.1279C0 16.1638 1.32819 12.5098 3.56369 9.58545C3.57971 9.59564 3.59573 9.60584 3.61175 9.61603C1.37625 12.536 0.0466032 16.1885 0.0466032 20.1513C0.0466032 24.3062 1.50732 28.1204 3.94379 31.1074C3.93942 31.1161 3.93505 31.1234 3.92923 31.1321ZM11.3683 36.4332C10.1551 35.9861 9.00752 35.4094 7.93856 34.7177C7.93856 34.7104 7.9371 34.7031 7.9371 34.6973C9.00752 35.3949 10.1609 35.9774 11.377 36.4274C11.3755 36.4289 11.3712 36.4318 11.3683 36.4332ZM17.3713 37.4993C16.9169 37.4993 16.4655 37.4818 16.0198 37.4483V37.4469C16.4699 37.4818 16.9242 37.5007 17.383 37.5007C17.3801 37.4993 17.3757 37.4993 17.3713 37.4993Z" fill="#E3E3E3"/>
<path d="M17.3837 37.4994C16.925 37.4994 16.4706 37.4805 16.0206 37.4456C16.0191 32.3702 16.0162 27.2934 16.0323 22.2165C16.0337 21.835 15.9157 21.6267 15.5983 21.4563C14.8482 21.0558 14.1084 20.6393 13.3686 20.2228C13.0191 20.0247 12.6797 19.8092 12.2938 19.5776V19.9271C12.2938 24.8569 12.2953 29.7866 12.2924 34.7178C12.2924 35.4518 11.9734 36.0081 11.3807 36.4261C10.1632 35.9761 9.0112 35.3936 7.93933 34.696C7.92913 34.5751 7.92476 34.4542 7.92476 34.3304C7.92913 28.6652 7.92767 22.9986 7.93059 17.3334C7.93059 17.1746 7.90146 17.0756 7.74563 16.9882C6.65191 16.3751 5.56548 15.7474 4.47758 15.1226C4.41205 15.0848 4.3538 15.0338 4.24894 14.9581V15.261C4.24894 20.1179 4.24894 24.9734 4.24894 29.8303C4.24894 30.3051 4.15864 30.7347 3.94602 31.1061C1.50955 28.1191 0.0488281 24.3049 0.0488281 20.15C0.0488281 16.1872 1.37702 12.5362 3.61251 9.61475C3.6329 9.62786 3.65329 9.64242 3.67514 9.65553C4.04505 9.90457 4.46011 10.0851 4.85041 10.3036C5.38489 10.6051 5.91354 10.9153 6.44657 11.2196C7.29999 11.709 8.15632 12.1939 9.01265 12.6789C9.4481 12.925 9.88938 13.1609 10.3205 13.4143C11.2045 13.9314 12.0783 14.4629 12.9652 14.9741C13.7676 15.4372 14.5832 15.8785 15.3885 16.3358C16.009 16.6882 16.6221 17.0509 17.241 17.4062C17.8061 17.731 18.3726 18.0485 18.9377 18.3718C19.3396 18.6019 19.7518 18.8291 19.9848 19.2499C20.1275 19.5092 20.2833 19.7859 20.3227 20.0713C20.3897 20.5519 20.3838 21.0442 20.3838 21.5306C20.3867 26.7662 20.3882 32.0032 20.3838 37.2388C19.411 37.4092 18.4076 37.498 17.3837 37.4994Z" fill="#BF0830"/>
<path d="M8.01367 5.55584C8.02241 5.52671 8.0326 5.49904 8.0428 5.46991C8.88457 4.93252 9.77585 4.46649 10.7079 4.0791C10.7356 4.08638 10.7618 4.09512 10.7895 4.10386C9.81663 4.50581 8.88748 4.99369 8.01367 5.55584Z" fill="#E3E3E3"/>
<path d="M24.8962 35.7898C24.6836 35.6238 24.5001 35.4097 24.3515 35.1388C24.1287 34.7368 24.0632 34.3218 24.0632 33.8732C24.069 28.2648 24.0617 22.6579 24.0792 17.0509C24.0807 16.7247 23.9408 16.5849 23.7093 16.4538C23.2098 16.1699 22.7117 15.8844 22.2107 15.6033C21.5714 15.2451 20.9247 14.897 20.2898 14.5329C19.8048 14.2548 19.3344 13.9533 18.8524 13.6722C18.414 13.4159 17.9698 13.1698 17.5285 12.9207C16.9708 12.6076 16.4115 12.2974 15.8552 11.9814C15.1984 11.6071 14.543 11.2299 13.8877 10.8513C13.1362 10.4173 12.3876 9.97601 11.6318 9.54639C10.8235 9.08618 10.0065 8.64054 9.19822 8.18033C8.71034 7.90362 8.29383 7.53808 8.08994 7.0036C7.89916 6.50407 7.86712 6.01474 8.01275 5.55599C8.88656 4.99238 9.81571 4.50596 10.7886 4.10547C10.956 4.16226 11.1177 4.24091 11.2735 4.34722C11.5648 4.5482 11.8968 4.68801 12.2085 4.86131C12.5726 5.06374 12.9352 5.26763 13.2964 5.47589C13.8542 5.7992 14.4105 6.12834 14.9683 6.4531C15.7198 6.89001 16.4698 7.32691 17.2227 7.75945C18.2553 8.35218 19.2878 8.94346 20.3233 9.53182C21.1315 9.99057 21.9486 10.4362 22.7554 10.8979C23.6583 11.4149 24.554 11.9464 25.4569 12.4649C26.0759 12.8202 26.705 13.1567 27.321 13.5178C27.704 13.7421 27.9982 14.0523 28.1948 14.463C28.3667 14.8227 28.4366 15.1912 28.4366 15.5844C28.4337 18.6413 28.4351 21.6982 28.4351 24.7565C28.4351 27.6808 28.4439 30.6052 28.4308 33.5295C27.3516 34.4164 26.1676 35.1781 24.8962 35.7898Z" fill="#BF0830"/>
<path d="M34.7431 20.1398C34.7358 10.5643 26.972 2.80343 17.3951 2.80343C17.1912 2.80343 16.9887 2.80634 16.7863 2.81362C16.7674 2.79906 16.7499 2.78304 16.7324 2.76702C16.945 2.75974 17.1577 2.75537 17.3718 2.75537C26.9662 2.75537 34.7431 10.5323 34.7431 20.1267C34.7431 20.1311 34.7431 20.1354 34.7431 20.1398Z" fill="#E3E3E3"/>
<path d="M32.1448 29.2694C32.1273 29.1369 32.1186 29.0029 32.1186 28.8733C32.1069 23.2169 32.1084 17.5604 32.1171 11.9039C32.1171 11.6811 32.037 11.5734 31.8666 11.4758C31.2054 11.0942 30.553 10.6981 29.8889 10.3224C29.4068 10.0486 28.9102 9.8039 28.4267 9.53156C28.0306 9.30874 27.6476 9.06116 27.2558 8.83251C26.816 8.57474 26.3747 8.32134 25.9305 8.07084C25.3669 7.75336 24.7975 7.44316 24.2353 7.12422C23.5727 6.74702 22.9144 6.35963 22.2518 5.9839C21.5527 5.58777 20.8464 5.2062 20.1488 4.80717C19.1439 4.23045 18.1478 3.64063 17.1444 3.06246C17.0133 2.98673 16.8924 2.90372 16.7832 2.81488C16.9856 2.8076 17.1881 2.80469 17.392 2.80469C26.9689 2.80469 34.7342 10.5656 34.74 20.1411C34.74 23.4892 33.7904 26.6174 32.1448 29.2694Z" fill="#BF0830"/>
<path d="M14.3231 13.8018C15.0018 13.8018 15.6688 13.898 16.3242 14.0873C16.9781 14.2781 17.546 14.5635 18.0266 14.9451C18.5233 14.6145 19.084 14.3407 19.7044 14.1252C20.3262 13.9096 21.0748 13.8018 21.9544 13.8018C22.5836 13.8018 23.2011 13.8849 23.8054 14.0509C24.4098 14.2169 24.9487 14.4776 25.4205 14.8344C25.8924 15.1912 26.2696 15.6631 26.5507 16.2514C26.8317 16.8398 26.973 17.5563 26.973 18.401V26.2303C26.807 26.2798 26.5463 26.3294 26.1895 26.3789C25.8327 26.4284 25.4642 26.4531 25.0841 26.4531C24.7186 26.4531 24.3923 26.4284 24.1025 26.3789C23.8127 26.3294 23.5681 26.2303 23.3685 26.0803C23.1705 25.9303 23.0161 25.7279 22.9083 25.4716C22.8006 25.2153 22.7467 24.8788 22.7467 24.4652V18.5248C22.7467 18.0282 22.6054 17.667 22.3243 17.4427C22.0418 17.2199 21.6617 17.1078 21.1811 17.1078C20.9481 17.1078 20.7005 17.1616 20.4354 17.2694C20.1704 17.3772 19.9709 17.4893 19.8383 17.6044C19.8544 17.6714 19.8631 17.7325 19.8631 17.7908V17.9524V26.2289C19.6811 26.2784 19.4116 26.3279 19.0548 26.3774C18.698 26.4269 18.3383 26.4517 17.9742 26.4517C17.6101 26.4517 17.2824 26.4269 16.9926 26.3774C16.7028 26.3279 16.4582 26.2289 16.2601 26.0789C16.0606 25.9289 15.9077 25.7264 15.7999 25.4701C15.6921 25.2138 15.6382 24.8774 15.6382 24.4638V18.5233C15.6382 18.0267 15.4853 17.6655 15.178 17.4413C14.8707 17.2184 14.5023 17.1063 14.0727 17.1063C13.7741 17.1063 13.5178 17.1514 13.3022 17.2432C13.0867 17.3349 12.9047 17.4209 12.7547 17.5039V26.2274C12.5886 26.2769 12.328 26.3264 11.9726 26.376C11.6158 26.4255 11.2473 26.4502 10.8672 26.4502C10.5017 26.4502 10.1755 26.4255 9.88565 26.376C9.59584 26.3264 9.35117 26.2274 9.15311 26.0774C8.95505 25.9274 8.80067 25.725 8.6929 25.4687C8.58513 25.2123 8.53125 24.8759 8.53125 24.4623V16.9563C8.53125 16.5092 8.62591 16.1524 8.81669 15.8873C9.00602 15.6223 9.26816 15.3732 9.59875 15.1417C10.1624 14.7441 10.8629 14.4208 11.6988 14.1718C12.5377 13.9271 13.4115 13.8018 14.3231 13.8018Z" fill="white"/>
</svg>
