<svg width="44" height="44" fill="none" xmlns="http://www.w3.org/2000/svg"><path d="M7.257 40.357a5.257 5.257 0 1 0 0-10.515 5.257 5.257 0 0 0 0 10.515ZM36.98 40.831a5.02 5.02 0 1 0 0-10.039 5.02 5.02 0 0 0 0 10.04ZM35.004 11.108a3.596 3.596 0 1 0 0-7.192 3.596 3.596 0 0 0 0 7.192ZM7.93 10.238a3.478 3.478 0 1 0 0-6.955 3.478 3.478 0 0 0 0 6.955Z" stroke="#1A2578" stroke-width="1.5" stroke-linecap="round" stroke-linejoin="round"/><path d="M21.921 30.397c5.457 0 9.882-4.424 9.882-9.882 0-5.458-4.425-9.882-9.882-9.882s-9.882 4.425-9.882 9.882 4.425 9.882 9.882 9.882Z" stroke="#BF0830" stroke-width="1.5" stroke-linecap="round" stroke-linejoin="round"/><path d="M21.684 26.682a5.771 5.771 0 1 0 0-11.543 5.771 5.771 0 0 0 0 11.543Z" stroke="#BF0830" stroke-width="1.5" stroke-linecap="round" stroke-linejoin="round"/><path d="m10.102 9.475 7.541 7.317M32.383 9.975l-6.416 7.069M33.276 32.422l-7.31-7.645M11.21 31.636l6.433-6.607" stroke="#1A2578" stroke-width="1.5" stroke-linecap="round" stroke-linejoin="round"/></svg>