<svg width="44" height="44" viewBox="0 0 44 44" fill="none" xmlns="http://www.w3.org/2000/svg">
<path d="M7.25721 40.3567C10.1607 40.3567 12.5144 38.003 12.5144 35.0995C12.5144 32.196 10.1607 29.8423 7.25721 29.8423C4.35373 29.8423 2 32.196 2 35.0995C2 38.003 4.35373 40.3567 7.25721 40.3567Z" stroke="#1A2578" stroke-width="1.5" stroke-linecap="round" stroke-linejoin="round"/>
<path d="M36.9803 40.8314C39.7526 40.8314 42 38.584 42 35.8117C42 33.0394 39.7526 30.792 36.9803 30.792C34.208 30.792 31.9606 33.0394 31.9606 35.8117C31.9606 38.584 34.208 40.8314 36.9803 40.8314Z" stroke="#1A2578" stroke-width="1.5" stroke-linecap="round" stroke-linejoin="round"/>
<path d="M35.0042 11.1084C36.9904 11.1084 38.6006 9.49822 38.6006 7.51197C38.6006 5.52571 36.9904 3.91553 35.0042 3.91553C33.0179 3.91553 31.4077 5.52571 31.4077 7.51197C31.4077 9.49822 33.0179 11.1084 35.0042 11.1084Z" stroke="#1A2578" stroke-width="1.5" stroke-linecap="round" stroke-linejoin="round"/>
<path d="M7.92911 10.2381C9.84979 10.2381 11.4068 8.68109 11.4068 6.76041C11.4068 4.83973 9.84979 3.28271 7.92911 3.28271C6.00843 3.28271 4.45142 4.83973 4.45142 6.76041C4.45142 8.68109 6.00843 10.2381 7.92911 10.2381Z" stroke="#1A2578" stroke-width="1.5" stroke-linecap="round" stroke-linejoin="round"/>
<path d="M21.921 30.3966C27.3785 30.3966 31.8027 25.9725 31.8027 20.515C31.8027 15.0575 27.3785 10.6333 21.921 10.6333C16.4635 10.6333 12.0393 15.0575 12.0393 20.515C12.0393 25.9725 16.4635 30.3966 21.921 30.3966Z" stroke="#BF0830" stroke-width="1.5" stroke-linecap="round" stroke-linejoin="round"/>
<path d="M21.6837 26.6816C24.8711 26.6816 27.4549 24.0977 27.4549 20.9104C27.4549 17.723 24.8711 15.1392 21.6837 15.1392C18.4963 15.1392 15.9125 17.723 15.9125 20.9104C15.9125 24.0977 18.4963 26.6816 21.6837 26.6816Z" stroke="#BF0830" stroke-width="1.5" stroke-linecap="round" stroke-linejoin="round"/>
<path d="M10.1022 9.4751L17.6431 16.7916" stroke="#1A2578" stroke-width="1.5" stroke-linecap="round" stroke-linejoin="round"/>
<path d="M32.3835 9.97461L25.9666 17.0439" stroke="#1A2578" stroke-width="1.5" stroke-linecap="round" stroke-linejoin="round"/>
<path d="M33.2765 32.4219L25.9666 24.7769" stroke="#1A2578" stroke-width="1.5" stroke-linecap="round" stroke-linejoin="round"/>
<path d="M11.21 31.6361L17.6432 25.0288" stroke="#1A2578" stroke-width="1.5" stroke-linecap="round" stroke-linejoin="round"/>
</svg>
