<svg width="44" height="45" viewBox="0 0 44 45" fill="none" xmlns="http://www.w3.org/2000/svg">
<path d="M23.0257 19.6206V37.9277C23.0259 38.4515 22.9229 38.9702 22.7226 39.4543C22.5223 39.9383 22.2285 40.3781 21.8582 40.7486C21.4879 41.1191 21.0482 41.4129 20.5643 41.6135C20.0803 41.814 19.5616 41.9172 19.0378 41.9172V41.9172C18.514 41.9172 17.9953 41.814 17.5113 41.6135C17.0274 41.4129 16.5877 41.1191 16.2174 40.7486C15.8471 40.3781 15.5533 39.9383 15.353 39.4543C15.1527 38.9702 15.0497 38.4515 15.0499 37.9277V35.5059" stroke="#BF0830" stroke-width="1.5" stroke-linecap="round" stroke-linejoin="round"/>
<path d="M4 22.3314C4 22.3314 6.81086 5.49512 23.0255 5.49512C39.2402 5.49512 41 22.3314 41 22.3314C41 22.3314 35.1264 16.7516 28.6667 22.3314C28.6667 22.3314 21.6193 15.6747 16.1364 22.3314C16.1364 22.3314 9.67666 16.1639 4 22.3314Z" stroke="#1A2578" stroke-width="1.5" stroke-linecap="round" stroke-linejoin="round"/>
<path d="M23.0255 5.49494V2.5" stroke="#BF0830" stroke-width="1.5" stroke-linecap="round" stroke-linejoin="round"/>
</svg>
