<svg width="35" height="36" viewBox="0 0 35 36" fill="none" xmlns="http://www.w3.org/2000/svg">
<path d="M7.93618 32.6972C6.42594 31.7127 5.07882 30.501 3.94287 29.1073C4.1555 28.7359 4.2458 28.3063 4.2458 27.8315C4.2458 22.9746 4.2458 18.1177 4.2458 13.2622V12.9593C4.35066 13.035 4.40891 13.086 4.47445 13.1239C5.56234 13.7486 6.64877 14.3763 7.74249 14.9894C7.89831 15.0768 7.92745 15.1759 7.92745 15.3346C7.92454 20.9998 7.92598 26.6665 7.92161 32.3317C7.92161 32.4554 7.92598 32.5763 7.93618 32.6972ZM16.0204 35.4453C14.3995 35.3186 12.8426 34.9691 11.3775 34.4273C11.9703 34.0079 12.2892 33.4516 12.2907 32.7176C12.2936 27.7878 12.2921 22.8566 12.2921 17.9269V17.5774C12.6781 17.8104 13.0174 18.0259 13.3669 18.2225C14.1067 18.6405 14.848 19.057 15.5966 19.4561C15.9141 19.625 16.032 19.8347 16.0306 20.2163C16.016 25.2931 16.0189 30.37 16.0204 35.4453ZM17.3952 35.4992C17.3908 35.4992 17.3879 35.4992 17.3835 35.4992C18.4073 35.4992 19.4108 35.4089 20.3851 35.2385C20.3894 30.0029 20.388 24.7659 20.3851 19.5303C20.3851 19.0425 20.3909 18.5502 20.3239 18.0711C20.2846 17.7871 20.1287 17.5089 19.986 17.2497C19.753 16.8288 19.3394 16.6016 18.9389 16.3715C18.3738 16.0482 17.8073 15.7293 17.2423 15.406C16.6233 15.0506 16.0102 14.688 15.3898 14.3355C14.583 13.8783 13.7689 13.437 12.9664 12.9739C12.0795 12.4627 11.2057 11.9311 10.3217 11.4141C9.89061 11.1622 9.44788 10.9262 9.01243 10.6787C8.15464 10.1937 7.29831 9.70868 6.44342 9.22089C5.9104 8.91648 5.38174 8.60629 4.84727 8.3048C4.45696 8.08489 4.04044 7.90575 3.67199 7.65671C3.6516 7.64215 3.63122 7.62905 3.60938 7.61594C4.8298 6.02124 6.31818 4.64645 8.01046 3.5571C7.86483 4.01731 7.89687 4.50517 8.08765 5.0047C8.29154 5.53919 8.70805 5.90328 9.19592 6.18144C10.0042 6.64019 10.8212 7.08729 11.6295 7.54749C12.3839 7.97711 13.1324 8.41838 13.8854 8.85238C14.5407 9.23098 15.1946 9.60818 15.8529 9.98248C16.4092 10.2985 16.9685 10.6088 17.5262 10.9219C17.969 11.1709 18.4132 11.417 18.8501 11.6733C19.3321 11.9559 19.8025 12.2573 20.2875 12.534C20.9239 12.8981 21.5691 13.2462 22.2084 13.6045C22.7094 13.8855 23.2075 14.171 23.707 14.4535C23.9385 14.5846 24.0784 14.7244 24.0769 15.0506C24.0609 20.6576 24.0667 26.266 24.0609 31.8729C24.0609 32.3229 24.1264 32.7365 24.3492 33.1385C24.4992 33.4079 24.6827 33.622 24.8939 33.7895C26.1653 33.1778 27.3493 32.4161 28.427 31.5263C28.4387 28.6019 28.4314 25.6776 28.4314 22.7532C28.4314 19.6964 28.4299 16.6395 28.4328 13.5812C28.4328 13.1879 28.3644 12.8195 28.1911 12.4583C27.9945 12.0476 27.7003 11.7374 27.3173 11.5131C26.7012 11.152 26.0721 10.8156 25.4531 10.4602C24.5502 9.94168 23.6546 9.41018 22.7516 8.89318C21.9448 8.43149 21.1278 7.98586 20.3195 7.52711C19.2841 6.9402 18.2515 6.34746 17.219 5.75472C16.466 5.32219 15.716 4.88528 14.9645 4.44837C14.4067 4.12361 13.8519 3.79447 13.2926 3.47116C12.9329 3.26291 12.5688 3.05903 12.2047 2.8566C11.8931 2.68475 11.561 2.54347 11.2698 2.34249C11.1154 2.23618 10.9523 2.15754 10.7848 2.1022C12.6446 1.33616 14.666 0.883235 16.7835 0.810425C16.8927 0.899255 17.0122 0.982265 17.1447 1.05799C18.1481 1.63616 19.1442 2.22599 20.1491 2.8027C20.8453 3.20174 21.5531 3.5833 22.2521 3.97943C22.9162 4.35518 23.573 4.74256 24.2356 5.11975C24.7993 5.44016 25.3672 5.74889 25.9308 6.06638C26.375 6.31687 26.8163 6.57028 27.2561 6.82805C27.6479 7.05815 28.0309 7.30428 28.427 7.52855C28.9091 7.80089 29.4071 8.04557 29.8892 8.31936C30.5533 8.69659 31.2057 9.09118 31.8669 9.47278C32.0358 9.57178 32.1174 9.67958 32.1174 9.90238C32.1072 15.5589 32.1058 21.2153 32.1189 26.8718C32.1189 27.0014 32.1276 27.1354 32.1451 27.2679C33.7893 24.6159 34.7403 21.4877 34.7417 18.1381C34.7417 18.1424 34.7417 18.1454 34.7417 18.1497C34.7432 27.7325 26.975 35.4992 17.3952 35.4992Z" fill="#D60936"/>
<path d="M3.92923 29.132C1.47382 26.1363 0 22.3032 0 18.1278C0 14.1637 1.32819 10.5097 3.56369 7.58533C3.57971 7.59552 3.59573 7.60572 3.61175 7.61591C1.37625 10.5359 0.0466032 14.1884 0.0466032 18.1512C0.0466032 22.3061 1.50732 26.1203 3.94379 29.1073C3.93942 29.116 3.93505 29.1233 3.92923 29.132ZM11.3683 34.4331C10.1551 33.986 9.00752 33.4093 7.93856 32.7176C7.93856 32.7103 7.9371 32.703 7.9371 32.6972C9.00752 33.3948 10.1609 33.9773 11.377 34.4273C11.3755 34.4288 11.3712 34.4317 11.3683 34.4331ZM17.3713 35.4992C16.9169 35.4992 16.4655 35.4817 16.0198 35.4482V35.4468C16.4699 35.4817 16.9242 35.5006 17.383 35.5006C17.3801 35.4992 17.3757 35.4992 17.3713 35.4992Z" fill="#E3E3E3"/>
<path d="M17.3837 35.4993C16.925 35.4993 16.4706 35.4804 16.0206 35.4455C16.0191 30.3701 16.0162 25.2933 16.0323 20.2164C16.0337 19.8349 15.9157 19.6266 15.5983 19.4562C14.8482 19.0557 14.1084 18.6392 13.3686 18.2227C13.0191 18.0246 12.6797 17.8091 12.2938 17.5775V17.927C12.2938 22.8568 12.2953 27.7865 12.2924 32.7177C12.2924 33.4517 11.9734 34.008 11.3807 34.426C10.1632 33.976 9.0112 33.3935 7.93933 32.6959C7.92913 32.575 7.92476 32.4541 7.92476 32.3303C7.92913 26.6651 7.92767 20.9985 7.93059 15.3333C7.93059 15.1745 7.90146 15.0755 7.74563 14.9881C6.65191 14.375 5.56548 13.7473 4.47758 13.1225C4.41205 13.0847 4.3538 13.0337 4.24894 12.958V13.2609C4.24894 18.1178 4.24894 22.9733 4.24894 27.8302C4.24894 28.305 4.15864 28.7346 3.94602 29.106C1.50955 26.119 0.0488281 22.3048 0.0488281 18.1499C0.0488281 14.1871 1.37702 10.5361 3.61251 7.61462C3.6329 7.62773 3.65329 7.64229 3.67514 7.6554C4.04505 7.90444 4.46011 8.08502 4.85041 8.30348C5.38489 8.60499 5.91354 8.91519 6.44657 9.21949C7.29999 9.70889 8.15632 10.1938 9.01265 10.6788C9.4481 10.9249 9.88938 11.1608 10.3205 11.4142C11.2045 11.9313 12.0783 12.4628 12.9652 12.974C13.7676 13.4371 14.5832 13.8784 15.3885 14.3357C16.009 14.6881 16.6221 15.0508 17.241 15.4061C17.8061 15.7309 18.3726 16.0484 18.9377 16.3717C19.3396 16.6018 19.7518 16.829 19.9848 17.2498C20.1275 17.5091 20.2833 17.7858 20.3227 18.0712C20.3897 18.5518 20.3838 19.0441 20.3838 19.5305C20.3867 24.7661 20.3882 30.0031 20.3838 35.2387C19.411 35.4091 18.4076 35.4979 17.3837 35.4993Z" fill="#BF0830"/>
<path d="M8.01367 3.55572C8.02241 3.52659 8.0326 3.49892 8.0428 3.46979C8.88457 2.9324 9.77585 2.46637 10.7079 2.07898C10.7356 2.08626 10.7618 2.095 10.7895 2.10374C9.81663 2.50569 8.88748 2.99357 8.01367 3.55572Z" fill="#E3E3E3"/>
<path d="M24.8962 33.7897C24.6836 33.6237 24.5001 33.4096 24.3515 33.1387C24.1287 32.7367 24.0632 32.3217 24.0632 31.8731C24.069 26.2647 24.0617 20.6578 24.0792 15.0508C24.0807 14.7246 23.9408 14.5848 23.7093 14.4537C23.2098 14.1698 22.7117 13.8843 22.2107 13.6032C21.5714 13.245 20.9247 12.8969 20.2898 12.5328C19.8048 12.2547 19.3344 11.9532 18.8524 11.6721C18.414 11.4158 17.9698 11.1697 17.5285 10.9206C16.9708 10.6075 16.4115 10.2973 15.8552 9.98129C15.1984 9.60699 14.543 9.22979 13.8877 8.85119C13.1362 8.41716 12.3876 7.97589 11.6318 7.54627C10.8235 7.08606 10.0065 6.64042 9.19822 6.18021C8.71034 5.9035 8.29383 5.53796 8.08994 5.00348C7.89916 4.50395 7.86712 4.01462 8.01275 3.55587C8.88656 2.99226 9.81571 2.50584 10.7886 2.10535C10.956 2.16214 11.1177 2.24079 11.2735 2.3471C11.5648 2.54808 11.8968 2.68789 12.2085 2.86119C12.5726 3.06362 12.9352 3.26751 13.2964 3.47577C13.8542 3.79908 14.4105 4.12822 14.9683 4.45298C15.7198 4.88989 16.4698 5.32679 17.2227 5.75933C18.2553 6.35206 19.2878 6.94334 20.3233 7.5317C21.1315 7.99045 21.9486 8.4361 22.7554 8.89779C23.6583 9.41479 24.554 9.94629 25.4569 10.4648C26.0759 10.8201 26.705 11.1566 27.321 11.5177C27.704 11.742 27.9982 12.0522 28.1948 12.4629C28.3667 12.8226 28.4366 13.1911 28.4366 13.5843C28.4337 16.6412 28.4351 19.6981 28.4351 22.7564C28.4351 25.6807 28.4439 28.6051 28.4308 31.5294C27.3516 32.4163 26.1676 33.178 24.8962 33.7897Z" fill="#BF0830"/>
<path d="M34.7431 18.1397C34.7358 8.56419 26.972 0.803309 17.3951 0.803309C17.1912 0.803309 16.9887 0.806219 16.7863 0.813499C16.7674 0.798939 16.7499 0.782919 16.7324 0.766899C16.945 0.759619 17.1577 0.755249 17.3718 0.755249C26.9662 0.755249 34.7431 8.53219 34.7431 18.1266C34.7431 18.131 34.7431 18.1353 34.7431 18.1397Z" fill="#E3E3E3"/>
<path d="M32.1448 27.2693C32.1273 27.1368 32.1186 27.0028 32.1186 26.8732C32.1069 21.2168 32.1084 15.5603 32.1171 9.90379C32.1171 9.68099 32.037 9.57329 31.8666 9.47569C31.2054 9.09408 30.553 8.69799 29.8889 8.32224C29.4068 8.04844 28.9102 7.80378 28.4267 7.53144C28.0306 7.30862 27.6476 7.06104 27.2558 6.83239C26.816 6.57462 26.3747 6.32122 25.9305 6.07072C25.3669 5.75324 24.7975 5.44304 24.2353 5.1241C23.5727 4.7469 22.9144 4.35951 22.2518 3.98378C21.5527 3.58765 20.8464 3.20608 20.1488 2.80705C19.1439 2.23033 18.1478 1.64051 17.1444 1.06234C17.0133 0.986605 16.8924 0.903595 16.7832 0.814755C16.9856 0.807475 17.1881 0.804565 17.392 0.804565C26.9689 0.804565 34.7342 8.56549 34.74 18.141C34.74 21.4891 33.7904 24.6173 32.1448 27.2693Z" fill="#BF0830"/>
<path d="M14.3231 11.8016C15.0018 11.8016 15.6688 11.8978 16.3242 12.0871C16.9781 12.2779 17.546 12.5633 18.0266 12.9449C18.5233 12.6143 19.084 12.3405 19.7044 12.125C20.3262 11.9094 21.0748 11.8016 21.9544 11.8016C22.5836 11.8016 23.2011 11.8847 23.8054 12.0507C24.4098 12.2167 24.9487 12.4774 25.4205 12.8342C25.8924 13.191 26.2696 13.6629 26.5507 14.2512C26.8317 14.8396 26.973 15.5561 26.973 16.4008V24.2301C26.807 24.2796 26.5463 24.3292 26.1895 24.3787C25.8327 24.4282 25.4642 24.4529 25.0841 24.4529C24.7186 24.4529 24.3923 24.4282 24.1025 24.3787C23.8127 24.3292 23.5681 24.2301 23.3685 24.0801C23.1705 23.9301 23.0161 23.7277 22.9083 23.4714C22.8006 23.2151 22.7467 22.8786 22.7467 22.465V16.5246C22.7467 16.028 22.6054 15.6668 22.3243 15.4425C22.0418 15.2197 21.6617 15.1076 21.1811 15.1076C20.9481 15.1076 20.7005 15.1614 20.4354 15.2692C20.1704 15.377 19.9709 15.4891 19.8383 15.6042C19.8544 15.6712 19.8631 15.7323 19.8631 15.7906V15.9522V24.2287C19.6811 24.2782 19.4116 24.3277 19.0548 24.3772C18.698 24.4267 18.3383 24.4515 17.9742 24.4515C17.6101 24.4515 17.2824 24.4267 16.9926 24.3772C16.7028 24.3277 16.4582 24.2287 16.2601 24.0787C16.0606 23.9287 15.9077 23.7262 15.7999 23.4699C15.6921 23.2136 15.6382 22.8772 15.6382 22.4636V16.5231C15.6382 16.0265 15.4853 15.6653 15.178 15.4411C14.8707 15.2182 14.5023 15.1061 14.0727 15.1061C13.7741 15.1061 13.5178 15.1512 13.3022 15.243C13.0867 15.3347 12.9047 15.4207 12.7547 15.5037V24.2272C12.5886 24.2767 12.328 24.3262 11.9726 24.3758C11.6158 24.4253 11.2473 24.45 10.8672 24.45C10.5017 24.45 10.1755 24.4253 9.88565 24.3758C9.59584 24.3262 9.35117 24.2272 9.15311 24.0772C8.95505 23.9272 8.80067 23.7248 8.6929 23.4685C8.58513 23.2121 8.53125 22.8757 8.53125 22.4621V14.9561C8.53125 14.509 8.62591 14.1522 8.81669 13.8871C9.00602 13.6221 9.26816 13.373 9.59875 13.1415C10.1624 12.7439 10.8629 12.4206 11.6988 12.1716C12.5377 11.9269 13.4115 11.8016 14.3231 11.8016Z" fill="white"/>
</svg>
